%FSTAX23Y23*%
%MOIN*%
%SFA1B1*%

%IPPOS*%
%ADD72C,0.005000*%
%ADD106C,0.006667*%
%ADD107C,0.004000*%
%LNpcb-1*%
%LPD*%
G54D72*
X0066Y01625D02*
Y01665D01*
X007*
Y01625*
X0066*
X00668Y01633D02*
Y01657D01*
X00692*
Y01633*
X00668*
X0066Y0136D02*
Y014D01*
X007*
Y0136*
X0066*
X00668Y01368D02*
Y01392D01*
X00692*
Y01368*
X00668*
X00935Y0136D02*
Y014D01*
X00975*
Y0136*
X00935*
X00943Y01368D02*
Y01392D01*
X00967*
Y01368*
X00943*
X00935Y01625D02*
Y01665D01*
X00975*
Y01625*
X00935*
X00943Y01633D02*
Y01657D01*
X00967*
Y01633*
X00943*
X00303Y00375D02*
X00283Y00415D01*
X00323*
X00303Y00375*
Y00034D02*
X00283Y00074D01*
X00323*
X00303Y00034*
X00284Y00318D02*
X00294Y00328D01*
X00304*
X00294Y00338*
X00304Y00348*
X00294*
X00284Y00358*
X00274Y00348*
X00264*
X00274Y00338*
X00264Y00328*
X00274*
X00284Y00318*
Y00091D02*
X00294Y00101D01*
X00304*
X00294Y00111*
X00304Y00121*
X00294*
X00284Y00131*
X00274Y00121*
X00264*
X00274Y00111*
X00264Y00101*
X00274*
X00284Y00091*
X0219Y02045D02*
Y02035D01*
X0221*
Y02045*
X0222*
Y02065*
X0221*
Y02075*
X0219*
Y02065*
X0218*
Y02045*
X0219*
X0229Y0115D02*
X023Y0117D01*
X0229Y0119*
X0231Y0118*
X0233Y0119*
X0232Y0117*
X0233Y0115*
X0231Y0116*
X0229Y0115*
X0177Y0105D02*
X0178Y0107D01*
X0177Y0109*
X0179Y0108*
X0181Y0109*
X018Y0107*
X0181Y0105*
X0179Y0106*
X0177Y0105*
X01735D02*
X01745Y0107D01*
X01735Y0109*
X01755Y0108*
X01775Y0109*
X01765Y0107*
X01775Y0105*
X01755Y0106*
X01735Y0105*
X01715Y00875D02*
X01725Y00895D01*
X01715Y00915*
X01735Y00905*
X01755Y00915*
X01745Y00895*
X01755Y00875*
X01735Y00885*
X01715Y00875*
X0168Y00855D02*
X0169Y00875D01*
X0168Y00895*
X017Y00885*
X0172Y00895*
X0171Y00875*
X0172Y00855*
X017Y00865*
X0168Y00855*
X0178Y0088D02*
Y0087D01*
X018*
Y0088*
X0181*
Y009*
X018*
Y0091*
X0178*
Y009*
X0177*
Y0088*
X0178*
X01585Y02053D02*
X01595Y02073D01*
X01585Y02093*
X01605Y02083*
X01625Y02093*
X01615Y02073*
X01625Y02053*
X01605Y02063*
X01585Y02053*
X019Y00875D02*
X0191Y00895D01*
X019Y00915*
X0192Y00905*
X0194Y00915*
X0193Y00895*
X0194Y00875*
X0192Y00885*
X019Y00875*
Y0067D02*
X0191Y0069D01*
X019Y0071*
X0192Y007*
X0194Y0071*
X0193Y0069*
X0194Y0067*
X0192Y0068*
X019Y0067*
X0219Y02085D02*
Y02075D01*
X0221*
Y02085*
X0222*
Y02105*
X0221*
Y02115*
X0219*
Y02105*
X0218*
Y02085*
X0219*
X0178Y01975D02*
X0179Y01995D01*
X0178Y02015*
X018Y02005*
X0182Y02015*
X0181Y01995*
X0182Y01975*
X018Y01985*
X0178Y01975*
X01735Y0077D02*
X01745Y0079D01*
X01735Y0081*
X01755Y008*
X01775Y0081*
X01765Y0079*
X01775Y0077*
X01755Y0078*
X01735Y0077*
X01105Y0027D02*
Y0026D01*
X01125*
Y0027*
X01135*
Y0029*
X01125*
Y003*
X01105*
Y0029*
X01095*
Y0027*
X01105*
X02255Y0118D02*
X02265Y012D01*
X02255Y0122*
X02275Y0121*
X02295Y0122*
X02285Y012*
X02295Y0118*
X02275Y0119*
X02255Y0118*
X02385D02*
X02395Y012D01*
X02385Y0122*
X02405Y0121*
X02425Y0122*
X02415Y012*
X02425Y0118*
X02405Y0119*
X02385Y0118*
X0058Y00325D02*
X0059Y00345D01*
X0058Y00365*
X006Y00355*
X0062Y00365*
X0061Y00345*
X0062Y00325*
X006Y00335*
X0058Y00325*
X0048Y00345D02*
X0049Y00365D01*
X0048Y00385*
X005Y00375*
X0052Y00385*
X0051Y00365*
X0052Y00345*
X005Y00355*
X0048Y00345*
X02345Y01115D02*
X02355Y01135D01*
X02345Y01155*
X02365Y01145*
X02385Y01155*
X02375Y01135*
X02385Y01115*
X02365Y01125*
X02345Y01115*
X02395D02*
X02405Y01135D01*
X02395Y01155*
X02415Y01145*
X02435Y01155*
X02425Y01135*
X02435Y01115*
X02415Y01125*
X02395Y01115*
X02545D02*
X02555Y01135D01*
X02545Y01155*
X02565Y01145*
X02585Y01155*
X02575Y01135*
X02585Y01115*
X02565Y01125*
X02545Y01115*
X02495D02*
X02505Y01135D01*
X02495Y01155*
X02515Y01145*
X02535Y01155*
X02525Y01135*
X02535Y01115*
X02515Y01125*
X02495Y01115*
X02445D02*
X02455Y01135D01*
X02445Y01155*
X02465Y01145*
X02485Y01155*
X02475Y01135*
X02485Y01115*
X02465Y01125*
X02445Y01115*
X0235Y00295D02*
X0236Y00315D01*
X0235Y00335*
X0237Y00325*
X0239Y00335*
X0238Y00315*
X0239Y00295*
X0237Y00305*
X0235Y00295*
Y0034D02*
X0236Y0036D01*
X0235Y0038*
X0237Y0037*
X0239Y0038*
X0238Y0036*
X0239Y0034*
X0237Y0035*
X0235Y0034*
X02325Y00375D02*
X02335Y00395D01*
X02325Y00415*
X02345Y00405*
X02365Y00415*
X02355Y00395*
X02365Y00375*
X02345Y00385*
X02325Y00375*
X023Y0042D02*
X0231Y0044D01*
X023Y0046*
X0232Y0045*
X0234Y0046*
X0233Y0044*
X0234Y0042*
X0232Y0043*
X023Y0042*
X02295Y00465D02*
X02305Y00485D01*
X02295Y00505*
X02315Y00495*
X02335Y00505*
X02325Y00485*
X02335Y00465*
X02315Y00475*
X02295Y00465*
X02245Y0047D02*
X02255Y0049D01*
X02245Y0051*
X02265Y005*
X02285Y0051*
X02275Y0049*
X02285Y0047*
X02265Y0048*
X02245Y0047*
X022Y005D02*
X0221Y0052D01*
X022Y0054*
X0222Y0053*
X0224Y0054*
X0223Y0052*
X0224Y005*
X0222Y0051*
X022Y005*
X0216Y0052D02*
X0217Y0054D01*
X0216Y0056*
X0218Y0055*
X022Y0056*
X0219Y0054*
X022Y0052*
X0218Y0053*
X0216Y0052*
X0211D02*
X0212Y0054D01*
X0211Y0056*
X0213Y0055*
X0215Y0056*
X0214Y0054*
X0215Y0052*
X0213Y0053*
X0211Y0052*
Y0057D02*
X0212Y0059D01*
X0211Y0061*
X0213Y006*
X0215Y0061*
X0214Y0059*
X0215Y0057*
X0213Y0058*
X0211Y0057*
X0216D02*
X0217Y0059D01*
X0216Y0061*
X0218Y006*
X022Y0061*
X0219Y0059*
X022Y0057*
X0218Y0058*
X0216Y0057*
X02215Y00555D02*
X02225Y00575D01*
X02215Y00595*
X02235Y00585*
X02255Y00595*
X02245Y00575*
X02255Y00555*
X02235Y00565*
X02215Y00555*
X02255Y00525D02*
X02265Y00545D01*
X02255Y00565*
X02275Y00555*
X02295Y00565*
X02285Y00545*
X02295Y00525*
X02275Y00535*
X02255Y00525*
X023Y0052D02*
X0231Y0054D01*
X023Y0056*
X0232Y0055*
X0234Y0056*
X0233Y0054*
X0234Y0052*
X0232Y0053*
X023Y0052*
X02345Y0047D02*
X02355Y0049D01*
X02345Y0051*
X02365Y005*
X02385Y0051*
X02375Y0049*
X02385Y0047*
X02365Y0048*
X02345Y0047*
Y0052D02*
X02355Y0054D01*
X02345Y0056*
X02365Y0055*
X02385Y0056*
X02375Y0054*
X02385Y0052*
X02365Y0053*
X02345Y0052*
Y0057D02*
X02355Y0059D01*
X02345Y0061*
X02365Y006*
X02385Y0061*
X02375Y0059*
X02385Y0057*
X02365Y0058*
X02345Y0057*
Y0062D02*
X02355Y0064D01*
X02345Y0066*
X02365Y0065*
X02385Y0066*
X02375Y0064*
X02385Y0062*
X02365Y0063*
X02345Y0062*
Y0067D02*
X02355Y0069D01*
X02345Y0071*
X02365Y007*
X02385Y0071*
X02375Y0069*
X02385Y0067*
X02365Y0068*
X02345Y0067*
Y0072D02*
X02355Y0074D01*
X02345Y0076*
X02365Y0075*
X02385Y0076*
X02375Y0074*
X02385Y0072*
X02365Y0073*
X02345Y0072*
Y0077D02*
X02355Y0079D01*
X02345Y0081*
X02365Y008*
X02385Y0081*
X02375Y0079*
X02385Y0077*
X02365Y0078*
X02345Y0077*
Y0082D02*
X02355Y0084D01*
X02345Y0086*
X02365Y0085*
X02385Y0086*
X02375Y0084*
X02385Y0082*
X02365Y0083*
X02345Y0082*
Y0087D02*
X02355Y0089D01*
X02345Y0091*
X02365Y009*
X02385Y0091*
X02375Y0089*
X02385Y0087*
X02365Y0088*
X02345Y0087*
Y0092D02*
X02355Y0094D01*
X02345Y0096*
X02365Y0095*
X02385Y0096*
X02375Y0094*
X02385Y0092*
X02365Y0093*
X02345Y0092*
Y0097D02*
X02355Y0099D01*
X02345Y0101*
X02365Y01*
X02385Y0101*
X02375Y0099*
X02385Y0097*
X02365Y0098*
X02345Y0097*
Y0102D02*
X02355Y0104D01*
X02345Y0106*
X02365Y0105*
X02385Y0106*
X02375Y0104*
X02385Y0102*
X02365Y0103*
X02345Y0102*
Y0107D02*
X02355Y0109D01*
X02345Y0111*
X02365Y011*
X02385Y0111*
X02375Y0109*
X02385Y0107*
X02365Y0108*
X02345Y0107*
X02355Y0041D02*
X02365Y0043D01*
X02355Y0045*
X02375Y0044*
X02395Y0045*
X02385Y0043*
X02395Y0041*
X02375Y0042*
X02355Y0041*
X02473Y00078D02*
X02483Y00088D01*
X02493*
X02483Y00098*
X02493Y00108*
X02483*
X02473Y00118*
X02463Y00108*
X02453*
X02463Y00098*
X02453Y00088*
X02463*
X02473Y00078*
Y00086D02*
X02479Y00092D01*
X02485*
X02479Y00098*
X02485Y00104*
X02479*
X02473Y0011*
X02467Y00104*
X02461*
X02467Y00098*
X02461Y00092*
X02467*
X02473Y00086*
X02473Y0247D02*
X02483Y0248D01*
X02493*
X02483Y0249*
X02493Y025*
X02483*
X02473Y0251*
X02463Y025*
X02453*
X02463Y0249*
X02453Y0248*
X02463*
X02473Y0247*
Y02478D02*
X02479Y02484D01*
X02485*
X02479Y0249*
X02485Y02496*
X02479*
X02473Y02502*
X02467Y02496*
X02461*
X02467Y0249*
X02461Y02484*
X02467*
X02473Y02478*
X0117Y00078D02*
X0118Y00088D01*
X0119*
X0118Y00098*
X0119Y00108*
X0118*
X0117Y00118*
X0116Y00108*
X0115*
X0116Y00098*
X0115Y00088*
X0116*
X0117Y00078*
Y00086D02*
X01176Y00092D01*
X01182*
X01176Y00098*
X01182Y00104*
X01176*
X0117Y0011*
X01164Y00104*
X01158*
X01164Y00098*
X01158Y00092*
X01164*
X0117Y00086*
Y0247D02*
X0118Y0248D01*
X0119*
X0118Y0249*
X0119Y025*
X0118*
X0117Y0251*
X0116Y025*
X0115*
X0116Y0249*
X0115Y0248*
X0116*
X0117Y0247*
Y02478D02*
X01176Y02484D01*
X01182*
X01176Y0249*
X01182Y02496*
X01176*
X0117Y02502*
X01164Y02496*
X01158*
X01164Y0249*
X01158Y02484*
X01164*
X0117Y02478*
X0201Y00705D02*
X0202Y00725D01*
X0201Y00745*
X0203Y00735*
X0205Y00745*
X0204Y00725*
X0205Y00705*
X0203Y00715*
X0201Y00705*
X0219Y0062D02*
Y0061D01*
X0221*
Y0062*
X0222*
Y0064*
X0221*
Y0065*
X0219*
Y0064*
X0218*
Y0062*
X0219*
X02418Y01685D02*
Y01675D01*
X02438*
Y01685*
X02448*
Y01705*
X02438*
Y01715*
X02418*
Y01705*
X02408*
Y01685*
X02418*
X01975Y0043D02*
Y0042D01*
X01995*
Y0043*
X02005*
Y0045*
X01995*
Y0046*
X01975*
Y0045*
X01965*
Y0043*
X01975*
Y0047D02*
Y0046D01*
X01995*
Y0047*
X02005*
Y0049*
X01995*
Y005*
X01975*
Y0049*
X01965*
Y0047*
X01975*
X01735Y01355D02*
Y01345D01*
X01755*
Y01355*
X01765*
Y01375*
X01755*
Y01385*
X01735*
Y01375*
X01725*
Y01355*
X01735*
Y0142D02*
Y0141D01*
X01755*
Y0142*
X01765*
Y0144*
X01755*
Y0145*
X01735*
Y0144*
X01725*
Y0142*
X01735*
X01655Y00865D02*
Y00855D01*
X01675*
Y00865*
X01685*
Y00885*
X01675*
Y00895*
X01655*
Y00885*
X01645*
Y00865*
X01655*
X01615D02*
Y00855D01*
X01635*
Y00865*
X01645*
Y00885*
X01635*
Y00895*
X01615*
Y00885*
X01605*
Y00865*
X01615*
X0145Y00765D02*
X0146Y00785D01*
X0145Y00805*
X0147Y00795*
X0149Y00805*
X0148Y00785*
X0149Y00765*
X0147Y00775*
X0145Y00765*
X01145Y0056D02*
Y0055D01*
X01165*
Y0056*
X01175*
Y0058*
X01165*
Y0059*
X01145*
Y0058*
X01135*
Y0056*
X01145*
X01595Y00609D02*
X01605Y00629D01*
X01595Y00649*
X01615Y00639*
X01635Y00649*
X01625Y00629*
X01635Y00609*
X01615Y00619*
X01595Y00609*
X0185Y00795D02*
X0186Y00815D01*
X0185Y00835*
X0187Y00825*
X0189Y00835*
X0188Y00815*
X0189Y00795*
X0187Y00805*
X0185Y00795*
X02175Y0138D02*
Y0137D01*
X02195*
Y0138*
X02205*
Y014*
X02195*
Y0141*
X02175*
Y014*
X02165*
Y0138*
X02175*
X02275Y01765D02*
X02285Y01785D01*
X02275Y01805*
X02295Y01795*
X02315Y01805*
X02305Y01785*
X02315Y01765*
X02295Y01775*
X02275Y01765*
X0233Y01775D02*
Y01765D01*
X0235*
Y01775*
X0236*
Y01795*
X0235*
Y01805*
X0233*
Y01795*
X0232*
Y01775*
X0233*
X01145Y01745D02*
Y01735D01*
X01165*
Y01745*
X01175*
Y01765*
X01165*
Y01775*
X01145*
Y01765*
X01135*
Y01745*
X01145*
X025Y0127D02*
Y0126D01*
X0252*
Y0127*
X0253*
Y0129*
X0252*
Y013*
X025*
Y0129*
X0249*
Y0127*
X025*
X0222D02*
Y0126D01*
X0224*
Y0127*
X0225*
Y0129*
X0224*
Y013*
X0222*
Y0129*
X0221*
Y0127*
X0222*
X0215Y0148D02*
Y0147D01*
X0217*
Y0148*
X0218*
Y015*
X0217*
Y0151*
X0215*
Y015*
X0214*
Y0148*
X0215*
X02078Y01571D02*
Y01561D01*
X02098*
Y01571*
X02108*
Y01591*
X02098*
Y01601*
X02078*
Y01591*
X02068*
Y01571*
X02078*
X02205Y01685D02*
Y01675D01*
X02225*
Y01685*
X02235*
Y01705*
X02225*
Y01715*
X02205*
Y01705*
X02195*
Y01685*
X02205*
X02455Y01475D02*
Y01465D01*
X02475*
Y01475*
X02485*
Y01495*
X02475*
Y01505*
X02455*
Y01495*
X02445*
Y01475*
X02455*
X01595Y00115D02*
X01605Y00135D01*
X01595Y00155*
X01615Y00145*
X01635Y00155*
X01625Y00135*
X01635Y00115*
X01615Y00125*
X01595Y00115*
Y0028D02*
X01605Y003D01*
X01595Y0032*
X01615Y0031*
X01635Y0032*
X01625Y003*
X01635Y0028*
X01615Y0029*
X01595Y0028*
Y00235D02*
X01605Y00255D01*
X01595Y00275*
X01615Y00265*
X01635Y00275*
X01625Y00255*
X01635Y00235*
X01615Y00245*
X01595Y00235*
Y0019D02*
X01605Y0021D01*
X01595Y0023*
X01615Y0022*
X01635Y0023*
X01625Y0021*
X01635Y0019*
X01615Y002*
X01595Y0019*
X019Y0013D02*
X0191Y0015D01*
X019Y0017*
X0192Y0016*
X0194Y0017*
X0193Y0015*
X0194Y0013*
X0192Y0014*
X019Y0013*
X01595Y0007D02*
X01605Y0009D01*
X01595Y0011*
X01615Y001*
X01635Y0011*
X01625Y0009*
X01635Y0007*
X01615Y0008*
X01595Y0007*
X0164D02*
X0165Y0009D01*
X0164Y0011*
X0166Y001*
X0168Y0011*
X0167Y0009*
X0168Y0007*
X0166Y0008*
X0164Y0007*
X0169D02*
X017Y0009D01*
X0169Y0011*
X0171Y001*
X0173Y0011*
X0172Y0009*
X0173Y0007*
X0171Y0008*
X0169Y0007*
X0174D02*
X0175Y0009D01*
X0174Y0011*
X0176Y001*
X0178Y0011*
X0177Y0009*
X0178Y0007*
X0176Y0008*
X0174Y0007*
X0179D02*
X018Y0009D01*
X0179Y0011*
X0181Y001*
X0183Y0011*
X0182Y0009*
X0183Y0007*
X0181Y0008*
X0179Y0007*
X01845D02*
X01855Y0009D01*
X01845Y0011*
X01865Y001*
X01885Y0011*
X01875Y0009*
X01885Y0007*
X01865Y0008*
X01845Y0007*
X019D02*
X0191Y0009D01*
X019Y0011*
X0192Y001*
X0194Y0011*
X0193Y0009*
X0194Y0007*
X0192Y0008*
X019Y0007*
Y00185D02*
X0191Y00205D01*
X019Y00225*
X0192Y00215*
X0194Y00225*
X0193Y00205*
X0194Y00185*
X0192Y00195*
X019Y00185*
Y00235D02*
X0191Y00255D01*
X019Y00275*
X0192Y00265*
X0194Y00275*
X0193Y00255*
X0194Y00235*
X0192Y00245*
X019Y00235*
Y0028D02*
X0191Y003D01*
X019Y0032*
X0192Y0031*
X0194Y0032*
X0193Y003*
X0194Y0028*
X0192Y0029*
X019Y0028*
X01857D02*
X01867Y003D01*
X01857Y0032*
X01877Y0031*
X01897Y0032*
X01887Y003*
X01897Y0028*
X01877Y0029*
X01857Y0028*
X0164D02*
X0165Y003D01*
X0164Y0032*
X0166Y0031*
X0168Y0032*
X0167Y003*
X0168Y0028*
X0166Y0029*
X0164Y0028*
X01785D02*
X01795Y003D01*
X01785Y0032*
X01805Y0031*
X01825Y0032*
X01815Y003*
X01825Y0028*
X01805Y0029*
X01785Y0028*
X0169D02*
X017Y003D01*
X0169Y0032*
X0171Y0031*
X0173Y0032*
X0172Y003*
X0173Y0028*
X0171Y0029*
X0169Y0028*
X0174D02*
X0175Y003D01*
X0174Y0032*
X0176Y0031*
X0178Y0032*
X0177Y003*
X0178Y0028*
X0176Y0029*
X0174Y0028*
Y0062D02*
X0175D01*
X0176Y0063*
X0177Y0062*
X0178*
Y0063*
X0177Y0064*
X0178Y0065*
Y0066*
X0177*
X0176Y0065*
X0175Y0066*
X0174*
Y0065*
X0175Y0064*
X0174Y0063*
Y0062*
X01785Y0057D02*
X01795Y0059D01*
X01785Y0061*
X01805Y006*
X01825Y0061*
X01815Y0059*
X01825Y0057*
X01805Y0058*
X01785Y0057*
X01695Y0057D02*
X01705Y0059D01*
X01695Y0061*
X01715Y006*
X01735Y0061*
X01725Y0059*
X01735Y0057*
X01715Y0058*
X01695Y0057*
X0174D02*
X0175Y0059D01*
X0174Y0061*
X0176Y006*
X0178Y0061*
X0177Y0059*
X0178Y0057*
X0176Y0058*
X0174Y0057*
X01695Y0062D02*
X01705Y0064D01*
X01695Y0066*
X01715Y0065*
X01735Y0066*
X01725Y0064*
X01735Y0062*
X01715Y0063*
X01695Y0062*
X0048Y0005D02*
X0049Y0007D01*
X0048Y0009*
X005Y0008*
X0052Y0009*
X0051Y0007*
X0052Y0005*
X005Y0006*
X0048Y0005*
X01765Y015D02*
Y0149D01*
X01785*
Y015*
X01795*
Y0152*
X01785*
Y0153*
X01765*
Y0152*
X01755*
Y015*
X01765*
X01725Y0127D02*
X01735Y0129D01*
X01725Y0131*
X01745Y013*
X01765Y0131*
X01755Y0129*
X01765Y0127*
X01745Y0128*
X01725Y0127*
X0152Y01625D02*
Y01615D01*
X0154*
Y01625*
X0155*
Y01645*
X0154*
Y01655*
X0152*
Y01645*
X0151*
Y01625*
X0152*
X0132Y016D02*
Y0159D01*
X0134*
Y016*
X0135*
Y0162*
X0134*
Y0163*
X0132*
Y0162*
X0131*
Y016*
X0132*
X0144Y0182D02*
Y0181D01*
X0146*
Y0182*
X0147*
Y0184*
X0146*
Y0185*
X0144*
Y0184*
X0143*
Y0182*
X0144*
Y01745D02*
Y01735D01*
X0146*
Y01745*
X0147*
Y01765*
X0146*
Y01775*
X0144*
Y01765*
X0143*
Y01745*
X0144*
Y0167D02*
Y0166D01*
X0146*
Y0167*
X0147*
Y0169*
X0146*
Y017*
X0144*
Y0169*
X0143*
Y0167*
X0144*
Y016D02*
Y0159D01*
X0146*
Y016*
X0147*
Y0162*
X0146*
Y0163*
X0144*
Y0162*
X0143*
Y016*
X0144*
X0138D02*
Y0159D01*
X014*
Y016*
X0141*
Y0162*
X014*
Y0163*
X0138*
Y0162*
X0137*
Y016*
X0138*
X0132Y0167D02*
Y0166D01*
X0134*
Y0167*
X0135*
Y0169*
X0134*
Y017*
X0132*
Y0169*
X0131*
Y0167*
X0132*
X0138D02*
Y0166D01*
X014*
Y0167*
X0141*
Y0169*
X014*
Y017*
X0138*
Y0169*
X0137*
Y0167*
X0138*
Y01745D02*
Y01735D01*
X014*
Y01745*
X0141*
Y01765*
X014*
Y01775*
X0138*
Y01765*
X0137*
Y01745*
X0138*
Y0182D02*
Y0181D01*
X014*
Y0182*
X0141*
Y0184*
X014*
Y0185*
X0138*
Y0184*
X0137*
Y0182*
X0138*
X01197Y01779D02*
Y01769D01*
X01217*
Y01779*
X01227*
Y01799*
X01217*
Y01809*
X01197*
Y01799*
X01187*
Y01779*
X01197*
X0118Y01515D02*
Y01505D01*
X012*
Y01515*
X0121*
Y01535*
X012*
Y01545*
X0118*
Y01535*
X0117*
Y01515*
X0118*
X01145Y01815D02*
Y01805D01*
X01165*
Y01815*
X01175*
Y01835*
X01165*
Y01845*
X01145*
Y01835*
X01135*
Y01815*
X01145*
X0139Y015D02*
Y0149D01*
X0141*
Y015*
X0142*
Y0152*
X0141*
Y0153*
X0139*
Y0152*
X0138*
Y015*
X0139*
X0039Y0031D02*
Y003D01*
X0041*
Y0031*
X0042*
Y0033*
X0041*
Y0034*
X0039*
Y0033*
X0038*
Y0031*
X0039*
Y0012D02*
Y0011D01*
X0041*
Y0012*
X0042*
Y0014*
X0041*
Y0015*
X0039*
Y0014*
X0038*
Y0012*
X0039*
X01695Y00665D02*
X01705Y00685D01*
X01695Y00705*
X01715Y00695*
X01735Y00705*
X01725Y00685*
X01735Y00665*
X01715Y00675*
X01695Y00665*
X02311Y01513D02*
X02331Y01533D01*
X02351Y01513*
X02331Y01493*
X02311Y01513*
X02268D02*
X02288Y01533D01*
X02308Y01513*
X02288Y01493*
X02268Y01513*
Y01556D02*
X02288Y01576D01*
X02308Y01556*
X02288Y01536*
X02268Y01556*
X02311D02*
X02331Y01576D01*
X02351Y01556*
X02331Y01536*
X02311Y01556*
X01785Y0062D02*
X01795Y0064D01*
X01785Y0066*
X01805Y0065*
X01825Y0066*
X01815Y0064*
X01825Y0062*
X01805Y0063*
X01785Y0062*
Y00665D02*
X01795Y00685D01*
X01785Y00705*
X01805Y00695*
X01825Y00705*
X01815Y00685*
X01825Y00665*
X01805Y00675*
X01785Y00665*
X0174D02*
X0175Y00685D01*
X0174Y00705*
X0176Y00695*
X0178Y00705*
X0177Y00685*
X0178Y00665*
X0176Y00675*
X0174Y00665*
G54D106*
X00975Y01937D02*
D01*
X00975Y01939*
X00975Y0194*
X00974Y01942*
X00974Y01943*
X00973Y01944*
X00973Y01946*
X00972Y01947*
X00972Y01948*
X00971Y01949*
X0097Y0195*
X00969Y01951*
X00968Y01952*
X00967Y01953*
X00966Y01954*
X00965Y01955*
X00963Y01955*
X00962Y01956*
X00961Y01956*
X0096Y01957*
X00958Y01957*
X00957Y01957*
X00955Y01957*
X00954*
X00953Y01957*
X00951Y01957*
X0095Y01957*
X00949Y01956*
X00947Y01956*
X00946Y01955*
X00945Y01955*
X00944Y01954*
X00942Y01953*
X00941Y01952*
X0094Y01951*
X00939Y0195*
X00939Y01949*
X00938Y01948*
X00937Y01947*
X00936Y01946*
X00936Y01944*
X00935Y01943*
X00935Y01942*
X00935Y0194*
X00935Y01939*
X00935Y01937*
X00935Y01936*
X00935Y01935*
X00935Y01933*
X00935Y01932*
X00936Y01931*
X00936Y01929*
X00937Y01928*
X00938Y01927*
X00939Y01926*
X00939Y01925*
X0094Y01924*
X00941Y01923*
X00942Y01922*
X00944Y01921*
X00945Y0192*
X00946Y01919*
X00947Y01919*
X00949Y01918*
X0095Y01918*
X00951Y01918*
X00953Y01918*
X00954Y01917*
X00955*
X00957Y01918*
X00958Y01918*
X0096Y01918*
X00961Y01918*
X00962Y01919*
X00963Y01919*
X00965Y0192*
X00966Y01921*
X00967Y01922*
X00968Y01923*
X00969Y01924*
X0097Y01925*
X00971Y01926*
X00972Y01927*
X00972Y01928*
X00973Y01929*
X00973Y01931*
X00974Y01932*
X00974Y01933*
X00975Y01935*
X00975Y01936*
X00975Y01937*
Y01087D02*
D01*
X00975Y01089*
X00975Y0109*
X00974Y01092*
X00974Y01093*
X00973Y01094*
X00973Y01096*
X00972Y01097*
X00972Y01098*
X00971Y01099*
X0097Y011*
X00969Y01101*
X00968Y01102*
X00967Y01103*
X00966Y01104*
X00965Y01105*
X00963Y01105*
X00962Y01106*
X00961Y01106*
X0096Y01107*
X00958Y01107*
X00957Y01107*
X00955Y01107*
X00954*
X00953Y01107*
X00951Y01107*
X0095Y01107*
X00949Y01106*
X00947Y01106*
X00946Y01105*
X00945Y01105*
X00944Y01104*
X00942Y01103*
X00941Y01102*
X0094Y01101*
X00939Y011*
X00939Y01099*
X00938Y01098*
X00937Y01097*
X00936Y01096*
X00936Y01094*
X00935Y01093*
X00935Y01092*
X00935Y0109*
X00935Y01089*
X00935Y01087*
X00935Y01086*
X00935Y01085*
X00935Y01083*
X00935Y01082*
X00936Y01081*
X00936Y01079*
X00937Y01078*
X00938Y01077*
X00939Y01076*
X00939Y01075*
X0094Y01074*
X00941Y01073*
X00942Y01072*
X00944Y01071*
X00945Y0107*
X00946Y01069*
X00947Y01069*
X00949Y01068*
X0095Y01068*
X00951Y01068*
X00953Y01068*
X00954Y01067*
X00955*
X00957Y01068*
X00958Y01068*
X0096Y01068*
X00961Y01068*
X00962Y01069*
X00963Y01069*
X00965Y0107*
X00966Y01071*
X00967Y01072*
X00968Y01073*
X00969Y01074*
X0097Y01075*
X00971Y01076*
X00972Y01077*
X00972Y01078*
X00973Y01079*
X00973Y01081*
X00974Y01082*
X00974Y01083*
X00975Y01085*
X00975Y01086*
X00975Y01087*
X00159Y00395D02*
D01*
X00159Y00396*
X00158Y00397*
X00158Y00399*
X00158Y004*
X00157Y00401*
X00157Y00403*
X00156Y00404*
X00156Y00405*
X00155Y00406*
X00154Y00407*
X00153Y00408*
X00152Y00409*
X00151Y0041*
X0015Y00411*
X00149Y00412*
X00147Y00413*
X00146Y00413*
X00145Y00414*
X00143Y00414*
X00142Y00414*
X00141Y00414*
X00139Y00415*
X00138*
X00137Y00414*
X00135Y00414*
X00134Y00414*
X00132Y00414*
X00131Y00413*
X0013Y00413*
X00129Y00412*
X00127Y00411*
X00126Y0041*
X00125Y00409*
X00124Y00408*
X00123Y00407*
X00122Y00406*
X00122Y00405*
X00121Y00404*
X0012Y00403*
X0012Y00401*
X00119Y004*
X00119Y00399*
X00119Y00397*
X00119Y00396*
X00119Y00395*
X00119Y00393*
X00119Y00392*
X00119Y0039*
X00119Y00389*
X0012Y00388*
X0012Y00386*
X00121Y00385*
X00122Y00384*
X00122Y00383*
X00123Y00382*
X00124Y00381*
X00125Y0038*
X00126Y00379*
X00127Y00378*
X00129Y00377*
X0013Y00377*
X00131Y00376*
X00132Y00376*
X00134Y00375*
X00135Y00375*
X00137Y00375*
X00138Y00375*
X00139*
X00141Y00375*
X00142Y00375*
X00143Y00375*
X00145Y00376*
X00146Y00376*
X00147Y00377*
X00149Y00377*
X0015Y00378*
X00151Y00379*
X00152Y0038*
X00153Y00381*
X00154Y00382*
X00155Y00383*
X00156Y00384*
X00156Y00385*
X00157Y00386*
X00157Y00388*
X00158Y00389*
X00158Y0039*
X00158Y00392*
X00159Y00393*
X00159Y00395*
Y00054D02*
D01*
X00159Y00056*
X00158Y00057*
X00158Y00059*
X00158Y0006*
X00157Y00061*
X00157Y00063*
X00156Y00064*
X00156Y00065*
X00155Y00066*
X00154Y00067*
X00153Y00068*
X00152Y00069*
X00151Y0007*
X0015Y00071*
X00149Y00072*
X00147Y00072*
X00146Y00073*
X00145Y00073*
X00143Y00074*
X00142Y00074*
X00141Y00074*
X00139Y00074*
X00138*
X00137Y00074*
X00135Y00074*
X00134Y00074*
X00132Y00073*
X00131Y00073*
X0013Y00072*
X00129Y00072*
X00127Y00071*
X00126Y0007*
X00125Y00069*
X00124Y00068*
X00123Y00067*
X00122Y00066*
X00122Y00065*
X00121Y00064*
X0012Y00063*
X0012Y00061*
X00119Y0006*
X00119Y00059*
X00119Y00057*
X00119Y00056*
X00119Y00054*
X00119Y00053*
X00119Y00052*
X00119Y0005*
X00119Y00049*
X0012Y00048*
X0012Y00046*
X00121Y00045*
X00122Y00044*
X00122Y00043*
X00123Y00042*
X00124Y00041*
X00125Y0004*
X00126Y00039*
X00127Y00038*
X00129Y00037*
X0013Y00036*
X00131Y00036*
X00132Y00035*
X00134Y00035*
X00135Y00035*
X00137Y00035*
X00138Y00034*
X00139*
X00141Y00035*
X00142Y00035*
X00143Y00035*
X00145Y00035*
X00146Y00036*
X00147Y00036*
X00149Y00037*
X0015Y00038*
X00151Y00039*
X00152Y0004*
X00153Y00041*
X00154Y00042*
X00155Y00043*
X00156Y00044*
X00156Y00045*
X00157Y00046*
X00157Y00048*
X00158Y00049*
X00158Y0005*
X00158Y00052*
X00159Y00053*
X00159Y00054*
G54D107*
X00967Y01937D02*
D01*
X00967Y01938*
X00967Y01939*
X00966Y0194*
X00966Y01941*
X00966Y01942*
X00966Y01942*
X00965Y01943*
X00965Y01944*
X00964Y01944*
X00964Y01945*
X00963Y01946*
X00963Y01946*
X00962Y01947*
X00961Y01947*
X00961Y01948*
X0096Y01948*
X00959Y01949*
X00958Y01949*
X00958Y01949*
X00957Y01949*
X00956Y01949*
X00955Y01949*
X00954*
X00953Y01949*
X00953Y01949*
X00952Y01949*
X00951Y01949*
X0095Y01949*
X00949Y01948*
X00949Y01948*
X00948Y01947*
X00947Y01947*
X00947Y01946*
X00946Y01946*
X00946Y01945*
X00945Y01944*
X00945Y01944*
X00944Y01943*
X00944Y01942*
X00943Y01942*
X00943Y01941*
X00943Y0194*
X00943Y01939*
X00943Y01938*
X00943Y01937*
X00943Y01937*
X00943Y01936*
X00943Y01935*
X00943Y01934*
X00943Y01933*
X00944Y01933*
X00944Y01932*
X00945Y01931*
X00945Y0193*
X00946Y0193*
X00946Y01929*
X00947Y01928*
X00947Y01928*
X00948Y01927*
X00949Y01927*
X00949Y01927*
X0095Y01926*
X00951Y01926*
X00952Y01926*
X00953Y01926*
X00953Y01925*
X00954Y01925*
X00955*
X00956Y01925*
X00957Y01926*
X00958Y01926*
X00958Y01926*
X00959Y01926*
X0096Y01927*
X00961Y01927*
X00961Y01927*
X00962Y01928*
X00963Y01928*
X00963Y01929*
X00964Y0193*
X00964Y0193*
X00965Y01931*
X00965Y01932*
X00966Y01933*
X00966Y01933*
X00966Y01934*
X00966Y01935*
X00967Y01936*
X00967Y01937*
X00967Y01937*
Y01087D02*
D01*
X00967Y01088*
X00967Y01089*
X00966Y0109*
X00966Y01091*
X00966Y01092*
X00966Y01092*
X00965Y01093*
X00965Y01094*
X00964Y01094*
X00964Y01095*
X00963Y01096*
X00963Y01096*
X00962Y01097*
X00961Y01097*
X00961Y01098*
X0096Y01098*
X00959Y01099*
X00958Y01099*
X00958Y01099*
X00957Y01099*
X00956Y01099*
X00955Y01099*
X00954*
X00953Y01099*
X00953Y01099*
X00952Y01099*
X00951Y01099*
X0095Y01099*
X00949Y01098*
X00949Y01098*
X00948Y01097*
X00947Y01097*
X00947Y01096*
X00946Y01096*
X00946Y01095*
X00945Y01094*
X00945Y01094*
X00944Y01093*
X00944Y01092*
X00943Y01092*
X00943Y01091*
X00943Y0109*
X00943Y01089*
X00943Y01088*
X00943Y01087*
X00943Y01087*
X00943Y01086*
X00943Y01085*
X00943Y01084*
X00943Y01083*
X00944Y01083*
X00944Y01082*
X00945Y01081*
X00945Y0108*
X00946Y0108*
X00946Y01079*
X00947Y01078*
X00947Y01078*
X00948Y01077*
X00949Y01077*
X00949Y01077*
X0095Y01076*
X00951Y01076*
X00952Y01076*
X00953Y01076*
X00953Y01075*
X00954Y01075*
X00955*
X00956Y01075*
X00957Y01076*
X00958Y01076*
X00958Y01076*
X00959Y01076*
X0096Y01077*
X00961Y01077*
X00961Y01077*
X00962Y01078*
X00963Y01078*
X00963Y01079*
X00964Y0108*
X00964Y0108*
X00965Y01081*
X00965Y01082*
X00966Y01083*
X00966Y01083*
X00966Y01084*
X00966Y01085*
X00967Y01086*
X00967Y01087*
X00967Y01087*
M02*