%FSTAX23Y23*%
%MOIN*%
%SFA1B1*%

%IPPOS*%
%ADD71C,0.005000*%
%LNpcb-1*%
%LPD*%
G54D71*
X00896Y01937D02*
X01014D01*
X00955Y01879D02*
Y01996D01*
X00896Y01087D02*
X01014D01*
X00955Y01029D02*
Y01146D01*
X00629Y01645D02*
X0073D01*
X0068Y01594D02*
Y01695D01*
X00629Y0138D02*
X0073D01*
X0068Y01329D02*
Y01431D01*
X00904Y0138D02*
X01006D01*
X00955Y01329D02*
Y01431D01*
X00904Y01645D02*
X01006D01*
X00955Y01594D02*
Y01695D01*
X00111Y00395D02*
X00166D01*
X00139Y00367D02*
Y00422D01*
X00111Y00054D02*
X00166D01*
X00139Y00027D02*
Y00082D01*
X0027Y00395D02*
X00337D01*
X00303Y00361D02*
Y00428D01*
X0027Y00054D02*
X00337D01*
X00303Y00021D02*
Y00088D01*
X00271Y00338D02*
X00296D01*
X00284Y00325D02*
Y00351D01*
X00271Y00111D02*
X00296D01*
X00284Y00098D02*
Y00124D01*
X01476Y0194D02*
X01484D01*
X0148Y01936D02*
Y01944D01*
X01109Y0028D02*
X01121D01*
X01115Y00274D02*
Y00286D01*
X02269Y012D02*
X02281D01*
X02275Y01194D02*
Y01206D01*
X02399Y012D02*
X02411D01*
X02405Y01194D02*
Y01206D01*
X00596Y00345D02*
X00604D01*
X006Y00341D02*
Y00349D01*
X00496Y00365D02*
X00504D01*
X005Y00361D02*
Y00369D01*
X02361Y01135D02*
X02369D01*
X02365Y01131D02*
Y01139D01*
X02411Y01135D02*
X02419D01*
X02415Y01131D02*
Y01139D01*
X02561Y01135D02*
X02569D01*
X02565Y01131D02*
Y01139D01*
X02511Y01135D02*
X02519D01*
X02515Y01131D02*
Y01139D01*
X02461Y01135D02*
X02469D01*
X02465Y01131D02*
Y01139D01*
X02366Y00315D02*
X02374D01*
X0237Y00311D02*
Y00319D01*
X02366Y0036D02*
X02374D01*
X0237Y00356D02*
Y00364D01*
X02341Y00395D02*
X02349D01*
X02345Y00391D02*
Y00399D01*
X02316Y0044D02*
X02324D01*
X0232Y00436D02*
Y00444D01*
X02311Y00485D02*
X02319D01*
X02315Y00481D02*
Y00489D01*
X02261Y0049D02*
X02269D01*
X02265Y00486D02*
Y00494D01*
X02216Y0052D02*
X02224D01*
X0222Y00516D02*
Y00524D01*
X02176Y0054D02*
X02184D01*
X0218Y00536D02*
Y00544D01*
X02126Y0054D02*
X02134D01*
X0213Y00536D02*
Y00544D01*
X02126Y0059D02*
X02134D01*
X0213Y00586D02*
Y00594D01*
X02176Y0059D02*
X02184D01*
X0218Y00586D02*
Y00594D01*
X02231Y00575D02*
X02239D01*
X02235Y00571D02*
Y00579D01*
X02271Y00545D02*
X02279D01*
X02275Y00541D02*
Y00549D01*
X02316Y0054D02*
X02324D01*
X0232Y00536D02*
Y00544D01*
X02361Y0049D02*
X02369D01*
X02365Y00486D02*
Y00494D01*
X02361Y0054D02*
X02369D01*
X02365Y00536D02*
Y00544D01*
X02361Y0059D02*
X02369D01*
X02365Y00586D02*
Y00594D01*
X02361Y0064D02*
X02369D01*
X02365Y00636D02*
Y00644D01*
X02361Y0069D02*
X02369D01*
X02365Y00686D02*
Y00694D01*
X02361Y0074D02*
X02369D01*
X02365Y00736D02*
Y00744D01*
X02361Y0079D02*
X02369D01*
X02365Y00786D02*
Y00794D01*
X02361Y0084D02*
X02369D01*
X02365Y00836D02*
Y00844D01*
X02361Y0089D02*
X02369D01*
X02365Y00886D02*
Y00894D01*
X02361Y0094D02*
X02369D01*
X02365Y00936D02*
Y00944D01*
X02361Y0099D02*
X02369D01*
X02365Y00986D02*
Y00994D01*
X02361Y0104D02*
X02369D01*
X02365Y01036D02*
Y01044D01*
X02361Y0109D02*
X02369D01*
X02365Y01086D02*
Y01094D01*
X02371Y0043D02*
X02379D01*
X02375Y00426D02*
Y00434D01*
X02418Y00098D02*
X02528D01*
X02473Y00043D02*
Y00153D01*
X02418Y0249D02*
X02528D01*
X02473Y02435D02*
Y02545D01*
X01115Y00098D02*
X01225D01*
X0117Y00043D02*
Y00153D01*
X01115Y0249D02*
X01225D01*
X0117Y02435D02*
Y02545D01*
X02026Y00725D02*
X02034D01*
X0203Y00721D02*
Y00729D01*
X02194Y0063D02*
X02206D01*
X022Y00624D02*
Y00636D01*
X01746Y00895D02*
X01754D01*
X0175Y00891D02*
Y00899D01*
X02446Y0194D02*
X02454D01*
X0245Y01936D02*
Y01944D01*
X02422Y01695D02*
X02434D01*
X02428Y01689D02*
Y01701D01*
X01916Y00895D02*
X01924D01*
X0192Y00891D02*
Y00899D01*
X01916Y0069D02*
X01924D01*
X0192Y00686D02*
Y00694D01*
X01979Y0044D02*
X01991D01*
X01985Y00434D02*
Y00446D01*
X01979Y0048D02*
X01991D01*
X01985Y00474D02*
Y00486D01*
X01739Y01365D02*
X01751D01*
X01745Y01359D02*
Y01371D01*
X01739Y0143D02*
X01751D01*
X01745Y01424D02*
Y01436D01*
X01696Y00875D02*
X01704D01*
X017Y00871D02*
Y00879D01*
X01659Y00875D02*
X01671D01*
X01665Y00869D02*
Y00881D01*
X01619Y00875D02*
X01631D01*
X01625Y00869D02*
Y00881D01*
X01466Y00785D02*
X01474D01*
X0147Y00781D02*
Y00789D01*
X01149Y0057D02*
X01161D01*
X01155Y00564D02*
Y00576D01*
X01611Y00629D02*
X01619D01*
X01615Y00625D02*
Y00633D01*
X01784Y0089D02*
X01796D01*
X0179Y00884D02*
Y00896D01*
X01866Y00815D02*
X01874D01*
X0187Y00811D02*
Y00819D01*
X02179Y0139D02*
X02191D01*
X02185Y01384D02*
Y01396D01*
X02291Y01785D02*
X02299D01*
X02295Y01781D02*
Y01789D01*
X02334Y01785D02*
X02346D01*
X0234Y01779D02*
Y01791D01*
X01149Y01755D02*
X01161D01*
X01155Y01749D02*
Y01761D01*
X02504Y0128D02*
X02516D01*
X0251Y01274D02*
Y01286D01*
X02224Y0128D02*
X02236D01*
X0223Y01274D02*
Y01286D01*
X02154Y0149D02*
X02166D01*
X0216Y01484D02*
Y01496D01*
X02082Y01581D02*
X02094D01*
X02088Y01575D02*
Y01587D01*
X02209Y01695D02*
X02221D01*
X02215Y01689D02*
Y01701D01*
X02459Y01485D02*
X02471D01*
X02465Y01479D02*
Y01491D01*
X01959Y02095D02*
X01971D01*
X01965Y02089D02*
Y02101D01*
X01611Y00135D02*
X01619D01*
X01615Y00131D02*
Y00139D01*
X01611Y003D02*
X01619D01*
X01615Y00296D02*
Y00304D01*
X01611Y00255D02*
X01619D01*
X01615Y00251D02*
Y00259D01*
X01611Y0021D02*
X01619D01*
X01615Y00206D02*
Y00214D01*
X01916Y0015D02*
X01924D01*
X0192Y00146D02*
Y00154D01*
X01611Y0009D02*
X01619D01*
X01615Y00086D02*
Y00094D01*
X01656Y0009D02*
X01664D01*
X0166Y00086D02*
Y00094D01*
X01706Y0009D02*
X01714D01*
X0171Y00086D02*
Y00094D01*
X01756Y0009D02*
X01764D01*
X0176Y00086D02*
Y00094D01*
X01806Y0009D02*
X01814D01*
X0181Y00086D02*
Y00094D01*
X01861Y0009D02*
X01869D01*
X01865Y00086D02*
Y00094D01*
X01916Y0009D02*
X01924D01*
X0192Y00086D02*
Y00094D01*
X01916Y00205D02*
X01924D01*
X0192Y00201D02*
Y00209D01*
X01916Y00255D02*
X01924D01*
X0192Y00251D02*
Y00259D01*
X01916Y003D02*
X01924D01*
X0192Y00296D02*
Y00304D01*
X01873Y003D02*
X01881D01*
X01877Y00296D02*
Y00304D01*
X01656Y003D02*
X01664D01*
X0166Y00296D02*
Y00304D01*
X01801Y003D02*
X01809D01*
X01805Y00296D02*
Y00304D01*
X01706Y003D02*
X01714D01*
X0171Y00296D02*
Y00304D01*
X01756Y003D02*
X01764D01*
X0176Y00296D02*
Y00304D01*
X01746Y0064D02*
X01774D01*
X0176Y00626D02*
Y00654D01*
X01801Y0059D02*
X01809D01*
X01805Y00586D02*
Y00594D01*
X01711Y0059D02*
X01719D01*
X01715Y00586D02*
Y00594D01*
X01756Y0059D02*
X01764D01*
X0176Y00586D02*
Y00594D01*
X01711Y0064D02*
X01719D01*
X01715Y00636D02*
Y00644D01*
X00496Y0007D02*
X00504D01*
X005Y00066D02*
Y00074D01*
X01769Y0151D02*
X01781D01*
X01775Y01504D02*
Y01516D01*
X01741Y0129D02*
X01749D01*
X01745Y01286D02*
Y01294D01*
X01524Y01635D02*
X01536D01*
X0153Y01629D02*
Y01641D01*
X01324Y0161D02*
X01336D01*
X0133Y01604D02*
Y01616D01*
X01444Y0183D02*
X01456D01*
X0145Y01824D02*
Y01836D01*
X01444Y01755D02*
X01456D01*
X0145Y01749D02*
Y01761D01*
X01444Y0168D02*
X01456D01*
X0145Y01674D02*
Y01686D01*
X01444Y0161D02*
X01456D01*
X0145Y01604D02*
Y01616D01*
X01384Y0161D02*
X01396D01*
X0139Y01604D02*
Y01616D01*
X01324Y0168D02*
X01336D01*
X0133Y01674D02*
Y01686D01*
X01384Y0168D02*
X01396D01*
X0139Y01674D02*
Y01686D01*
X01384Y01755D02*
X01396D01*
X0139Y01749D02*
Y01761D01*
X01384Y0183D02*
X01396D01*
X0139Y01824D02*
Y01836D01*
X01201Y01789D02*
X01213D01*
X01207Y01783D02*
Y01795D01*
X01184Y01525D02*
X01196D01*
X0119Y01519D02*
Y01531D01*
X01149Y01825D02*
X01161D01*
X01155Y01819D02*
Y01831D01*
X01394Y0151D02*
X01406D01*
X014Y01504D02*
Y01516D01*
X00394Y0032D02*
X00406D01*
X004Y00314D02*
Y00326D01*
X00394Y0013D02*
X00406D01*
X004Y00124D02*
Y00136D01*
X01711Y00685D02*
X01719D01*
X01715Y00681D02*
Y00689D01*
X02327Y01513D02*
X02335D01*
X02331Y01509D02*
Y01517D01*
X02284Y01513D02*
X02292D01*
X02288Y01509D02*
Y01517D01*
X02284Y01556D02*
X02292D01*
X02288Y01552D02*
Y0156D01*
X02327Y01556D02*
X02335D01*
X02331Y01552D02*
Y0156D01*
X01801Y0064D02*
X01809D01*
X01805Y00636D02*
Y00644D01*
X01801Y00685D02*
X01809D01*
X01805Y00681D02*
Y00689D01*
X01756Y00685D02*
X01764D01*
X0176Y00681D02*
Y00689D01*
M02*