%FSTAX23Y23*%
%MOIN*%
%SFA1B1*%

%IPPOS*%
%AMD59*
4,1,8,0.035400,0.000000,0.035400,0.000000,0.015700,0.019700,-0.015700,0.019700,-0.035400,0.000000,-0.035400,0.000000,-0.015700,-0.019700,0.015700,-0.019700,0.035400,0.000000,0.0*
1,1,0.039370,0.015700,0.000000*
1,1,0.039370,0.015700,0.000000*
1,1,0.039370,-0.015700,0.000000*
1,1,0.039370,-0.015700,0.000000*
%
%AMD60*
4,1,8,0.041300,0.000000,0.041300,0.000000,0.021700,0.019700,-0.021700,0.019700,-0.041300,0.000000,-0.041300,0.000000,-0.021700,-0.019700,0.021700,-0.019700,0.041300,0.000000,0.0*
1,1,0.039370,0.021700,0.000000*
1,1,0.039370,0.021700,0.000000*
1,1,0.039370,-0.021700,0.000000*
1,1,0.039370,-0.021700,0.000000*
%
%ADD56C,0.117716*%
%ADD57C,0.141968*%
%ADD58R,0.141968X0.141968*%
G04~CAMADD=59~8~0.0~0.0~393.7~708.7~196.9~0.0~15~0.0~0.0~0.0~0.0~0~0.0~0.0~0.0~0.0~0~0.0~0.0~0.0~270.0~707.0~393.0*
%ADD59D59*%
G04~CAMADD=60~8~0.0~0.0~393.7~826.8~196.9~0.0~15~0.0~0.0~0.0~0.0~0~0.0~0.0~0.0~0.0~0~0.0~0.0~0.0~270.0~828.0~394.0*
%ADD60D60*%
%ADD61C,0.025591*%
%ADD62C,0.020000*%
%ADD63C,0.028000*%
%ADD64C,0.160000*%
%ADD65C,0.050000*%
%ADD66C,0.019685*%
%LNpcb-1*%
%LPD*%
G36*
X02599Y01114D02*
X02595Y0111D01*
X0239*
Y00449*
X02385Y00447*
X0238Y00449*
Y0043*
Y0041*
X02385Y00412*
X0239Y0041*
Y00375*
X02385Y00373*
X02381Y00376*
X02375Y00379*
Y0036*
Y0034*
X02381Y00343*
X02385Y00346*
X0239Y00344*
Y0033*
X02385Y00328*
X02381Y00331*
X02375Y00334*
Y00315*
Y00295*
X02381Y00298*
X02385Y00301*
X0239Y00299*
Y00285*
X02391Y00283*
X026*
Y-00008*
X02596Y-00012*
X0Y0*
Y026*
X02599*
Y01114*
G37*
%LNpcb-2*%
%LPC*%
G36*
X02481Y0258D02*
X02478D01*
Y02495*
X02563*
Y02498*
X02559Y02516*
X02552Y02532*
X02542Y02547*
X0253Y02559*
X02515Y02569*
X02499Y02576*
X02481Y0258*
G37*
G36*
X02468D02*
X02464D01*
X02446Y02576*
X0243Y02569*
X02415Y02559*
X02403Y02547*
X02393Y02532*
X02386Y02516*
X02383Y02498*
Y02495*
X02468*
Y0258*
G37*
G36*
X01178D02*
X01175D01*
Y02495*
X0126*
Y02498*
X01256Y02516*
X01249Y02532*
X01239Y02547*
X01227Y02559*
X01212Y02569*
X01196Y02576*
X01178Y0258*
G37*
G36*
X01165D02*
X01161D01*
X01143Y02576*
X01127Y02569*
X01112Y02559*
X011Y02547*
X0109Y02532*
X01083Y02516*
X0108Y02498*
Y02495*
X01165*
Y0258*
G37*
G36*
X02563Y02485D02*
X02478D01*
Y024*
X02481*
X02499Y02403*
X02515Y0241*
X0253Y0242*
X02542Y02432*
X02552Y02447*
X02559Y02463*
X02563Y02481*
Y02485*
G37*
G36*
X02468D02*
X02383D01*
Y02481*
X02386Y02463*
X02393Y02447*
X02403Y02432*
X02415Y0242*
X0243Y0241*
X02446Y02403*
X02464Y024*
X02468*
Y02485*
G37*
G36*
X0126D02*
X01175D01*
Y024*
X01178*
X01196Y02403*
X01212Y0241*
X01227Y0242*
X01239Y02432*
X01249Y02447*
X01256Y02463*
X0126Y02481*
Y02485*
G37*
G36*
X01165D02*
X0108D01*
Y02481*
X01083Y02463*
X0109Y02447*
X011Y02432*
X01112Y0242*
X01127Y0241*
X01143Y02403*
X01161Y024*
X01165*
Y02485*
G37*
G36*
X0197Y02118D02*
Y021D01*
X01988*
X01985Y02108*
X01978Y02115*
X0197Y02118*
G37*
G36*
X0196D02*
X01951Y02115D01*
X01944Y02108*
X01941Y021*
X0196*
Y02118*
G37*
G36*
X01988Y0209D02*
X0197D01*
Y02071*
X01978Y02074*
X01985Y02081*
X01988Y0209*
G37*
G36*
X0196D02*
X01941D01*
X01944Y02081*
X01951Y02074*
X0196Y02071*
Y0209*
G37*
G36*
X02452Y01955D02*
X02447D01*
X02441Y01952*
X02437Y01948*
X02435Y01942*
Y01937*
X02437Y01931*
X02441Y01927*
X02447Y01925*
X02452*
X02458Y01927*
X02462Y01931*
X02465Y01937*
Y01942*
X02462Y01948*
X02458Y01952*
X02452Y01955*
G37*
G36*
X01482D02*
X01477D01*
X01471Y01952*
X01467Y01948*
X01465Y01942*
Y01937*
X01467Y01931*
X01471Y01927*
X01477Y01925*
X01482*
X01488Y01927*
X01492Y01931*
X01495Y01937*
Y01942*
X01492Y01948*
X01488Y01952*
X01482Y01955*
G37*
G36*
X00961Y02001D02*
X00948D01*
X00936Y01999*
X00924Y01994*
X00914Y01987*
X00905Y01978*
X00898Y01968*
X00893Y01956*
X00891Y01944*
Y01931*
X00893Y01919*
X00898Y01907*
X00905Y01897*
X00914Y01888*
X00924Y01881*
X00936Y01876*
X00948Y01874*
X00961*
X00973Y01876*
X00985Y01881*
X00995Y01888*
X01004Y01897*
X01011Y01907*
X01016Y01919*
X01019Y01931*
Y01944*
X01016Y01956*
X01011Y01968*
X01004Y01978*
X00995Y01987*
X00985Y01994*
X00973Y01999*
X00961Y02001*
G37*
G36*
X01455Y01853D02*
Y01835D01*
X01473*
X0147Y01843*
X01463Y0185*
X01455Y01853*
G37*
G36*
X01445D02*
X01436Y0185D01*
X01429Y01843*
X01426Y01835*
X01445*
Y01853*
G37*
G36*
X01395D02*
Y01835D01*
X01413*
X0141Y01843*
X01403Y0185*
X01395Y01853*
G37*
G36*
X01385D02*
X01376Y0185D01*
X01369Y01843*
X01366Y01835*
X01385*
Y01853*
G37*
G36*
X01473Y01825D02*
X01455D01*
Y01806*
X01463Y01809*
X0147Y01816*
X01473Y01825*
G37*
G36*
X01445D02*
X01426D01*
X01429Y01816*
X01436Y01809*
X01445Y01806*
Y01825*
G37*
G36*
X01413D02*
X01395D01*
Y01806*
X01403Y01809*
X0141Y01816*
X01413Y01825*
G37*
G36*
X01385D02*
X01366D01*
X01369Y01816*
X01376Y01809*
X01385Y01806*
Y01825*
G37*
G36*
X01158Y01844D02*
X01151D01*
X01144Y01841*
X01138Y01835*
X01136Y01828*
Y01821*
X01138Y01814*
X01144Y01808*
X01151Y01806*
X01158*
X01165Y01808*
X01171Y01814*
X01174Y01821*
Y01828*
X01171Y01835*
X01165Y01841*
X01158Y01844*
G37*
G36*
X023Y01804D02*
Y0179D01*
X02314*
X02311Y01796*
X02306Y01801*
X023Y01804*
G37*
G36*
X0229D02*
X02283Y01801D01*
X02278Y01796*
X02275Y0179*
X0229*
Y01804*
G37*
G36*
X01211Y01808D02*
X01203D01*
X01196Y01805*
X01191Y01799*
X01188Y01792*
Y01785*
X01191Y01778*
X01196Y01773*
X01203Y0177*
X01211*
X01217Y01773*
X01223Y01778*
X01226Y01785*
Y01792*
X01223Y01799*
X01217Y01805*
X01211Y01808*
G37*
G36*
X02343Y01804D02*
X02336D01*
X02329Y01801*
X02323Y01795*
X02321Y01788*
Y01781*
X02323Y01774*
X02329Y01768*
X02336Y01766*
X02343*
X0235Y01768*
X02356Y01774*
X02359Y01781*
Y01788*
X02356Y01795*
X0235Y01801*
X02343Y01804*
G37*
G36*
X02314Y0178D02*
X023D01*
Y01765*
X02306Y01768*
X02311Y01773*
X02314Y0178*
G37*
G36*
X0229D02*
X02275D01*
X02278Y01773*
X02283Y01768*
X0229Y01765*
Y0178*
G37*
G36*
X01455Y01778D02*
Y0176D01*
X01473*
X0147Y01768*
X01463Y01775*
X01455Y01778*
G37*
G36*
X01445D02*
X01436Y01775D01*
X01429Y01768*
X01426Y0176*
X01445*
Y01778*
G37*
G36*
X01395D02*
Y0176D01*
X01413*
X0141Y01768*
X01403Y01775*
X01395Y01778*
G37*
G36*
X01385D02*
X01376Y01775D01*
X01369Y01768*
X01366Y0176*
X01385*
Y01778*
G37*
G36*
X01158Y01774D02*
X01151D01*
X01144Y01771*
X01138Y01765*
X01136Y01758*
Y01751*
X01138Y01744*
X01144Y01738*
X01151Y01736*
X01158*
X01165Y01738*
X01171Y01744*
X01174Y01751*
Y01758*
X01171Y01765*
X01165Y01771*
X01158Y01774*
G37*
G36*
X01473Y0175D02*
X01455D01*
Y01731*
X01463Y01734*
X0147Y01741*
X01473Y0175*
G37*
G36*
X01445D02*
X01426D01*
X01429Y01741*
X01436Y01734*
X01445Y01731*
Y0175*
G37*
G36*
X01413D02*
X01395D01*
Y01731*
X01403Y01734*
X0141Y01741*
X01413Y0175*
G37*
G36*
X01385D02*
X01366D01*
X01369Y01741*
X01376Y01734*
X01385Y01731*
Y0175*
G37*
G36*
X02433Y01718D02*
Y017D01*
X02452*
X02449Y01708*
X02442Y01715*
X02433Y01718*
G37*
G36*
X02423D02*
X02415Y01715D01*
X02408Y01708*
X02404Y017*
X02423*
Y01718*
G37*
G36*
X0222D02*
Y017D01*
X02238*
X02235Y01708*
X02228Y01715*
X0222Y01718*
G37*
G36*
X0221D02*
X02201Y01715D01*
X02194Y01708*
X02191Y017*
X0221*
Y01718*
G37*
G36*
X01455Y01703D02*
Y01685D01*
X01473*
X0147Y01693*
X01463Y017*
X01455Y01703*
G37*
G36*
X01445D02*
X01436Y017D01*
X01429Y01693*
X01426Y01685*
X01445*
Y01703*
G37*
G36*
X01395D02*
Y01685D01*
X01413*
X0141Y01693*
X01403Y017*
X01395Y01703*
G37*
G36*
X01385D02*
X01376Y017D01*
X01369Y01693*
X01366Y01685*
X01385*
Y01703*
G37*
G36*
X01335D02*
Y01685D01*
X01353*
X0135Y01693*
X01343Y017*
X01335Y01703*
G37*
G36*
X01325D02*
X01316Y017D01*
X01309Y01693*
X01306Y01685*
X01325*
Y01703*
G37*
G36*
X02452Y0169D02*
X02433D01*
Y01671*
X02442Y01674*
X02449Y01681*
X02452Y0169*
G37*
G36*
X02423D02*
X02404D01*
X02408Y01681*
X02415Y01674*
X02423Y01671*
Y0169*
G37*
G36*
X02238D02*
X0222D01*
Y01671*
X02228Y01674*
X02235Y01681*
X02238Y0169*
G37*
G36*
X0221D02*
X02191D01*
X02194Y01681*
X02201Y01674*
X0221Y01671*
Y0169*
G37*
G36*
X01473Y01675D02*
X01455D01*
Y01656*
X01463Y01659*
X0147Y01666*
X01473Y01675*
G37*
G36*
X01445D02*
X01426D01*
X01429Y01666*
X01436Y01659*
X01445Y01656*
Y01675*
G37*
G36*
X01413D02*
X01395D01*
Y01656*
X01403Y01659*
X0141Y01666*
X01413Y01675*
G37*
G36*
X01385D02*
X01366D01*
X01369Y01666*
X01376Y01659*
X01385Y01656*
Y01675*
G37*
G36*
X01353D02*
X01335D01*
Y01656*
X01343Y01659*
X0135Y01666*
X01353Y01675*
G37*
G36*
X01325D02*
X01306D01*
X01309Y01666*
X01316Y01659*
X01325Y01656*
Y01675*
G37*
G36*
X01036Y01725D02*
X0096D01*
Y0165*
X01036*
Y01725*
G37*
G36*
X0095D02*
X00874D01*
Y0165*
X0095*
Y01725*
G37*
G36*
X01533Y01654D02*
X01526D01*
X01519Y01651*
X01513Y01645*
X01511Y01638*
Y01631*
X01513Y01624*
X01519Y01618*
X01526Y01616*
X01533*
X0154Y01618*
X01546Y01624*
X01549Y01631*
Y01638*
X01546Y01645*
X0154Y01651*
X01533Y01654*
G37*
G36*
X01455Y01633D02*
Y01615D01*
X01473*
X0147Y01623*
X01463Y0163*
X01455Y01633*
G37*
G36*
X01445D02*
X01436Y0163D01*
X01429Y01623*
X01426Y01615*
X01445*
Y01633*
G37*
G36*
X01395D02*
Y01615D01*
X01413*
X0141Y01623*
X01403Y0163*
X01395Y01633*
G37*
G36*
X01385D02*
X01376Y0163D01*
X01369Y01623*
X01366Y01615*
X01385*
Y01633*
G37*
G36*
X01335D02*
Y01615D01*
X01353*
X0135Y01623*
X01343Y0163*
X01335Y01633*
G37*
G36*
X01325D02*
X01316Y0163D01*
X01309Y01623*
X01306Y01615*
X01325*
Y01633*
G37*
G36*
X01473Y01605D02*
X01455D01*
Y01586*
X01463Y01589*
X0147Y01596*
X01473Y01605*
G37*
G36*
X01445D02*
X01426D01*
X01429Y01596*
X01436Y01589*
X01445Y01586*
Y01605*
G37*
G36*
X01413D02*
X01395D01*
Y01586*
X01403Y01589*
X0141Y01596*
X01413Y01605*
G37*
G36*
X01385D02*
X01366D01*
X01369Y01596*
X01376Y01589*
X01385Y01586*
Y01605*
G37*
G36*
X01353D02*
X01335D01*
Y01586*
X01343Y01589*
X0135Y01596*
X01353Y01605*
G37*
G36*
X01325D02*
X01306D01*
X01309Y01596*
X01316Y01589*
X01325Y01586*
Y01605*
G37*
G36*
X00687Y0172D02*
X00672D01*
X00657Y01718*
X00644Y01712*
X00631Y01704*
X0062Y01693*
X00612Y0168*
X00606Y01667*
X00604Y01652*
Y01637*
X00606Y01622*
X00612Y01609*
X0062Y01596*
X00631Y01585*
X00644Y01577*
X00657Y01571*
X00672Y01569*
X00687*
X00702Y01571*
X00715Y01577*
X00728Y01585*
X00739Y01596*
X00747Y01609*
X00753Y01622*
X00755Y01637*
Y01652*
X00753Y01667*
X00747Y0168*
X00739Y01693*
X00728Y01704*
X00715Y01712*
X00702Y01718*
X00687Y0172*
G37*
G36*
X01036Y0164D02*
X0096D01*
Y01564*
X01036*
Y0164*
G37*
G36*
X0095D02*
X00874D01*
Y01564*
X0095*
Y0164*
G37*
G36*
X02092Y016D02*
X02084D01*
X02077Y01597*
X02072Y01592*
X02069Y01585*
Y01577*
X02072Y0157*
X02077Y01565*
X02084Y01562*
X02092*
X02099Y01565*
X02104Y0157*
X02107Y01577*
Y01585*
X02104Y01592*
X02099Y01597*
X02092Y016*
G37*
G36*
X02334Y01571D02*
X02328D01*
X02323Y01569*
X02319Y01565*
X02316Y01559*
Y01553*
X02319Y01548*
X02323Y01544*
X02328Y01541*
X02334*
X0234Y01544*
X02344Y01548*
X02346Y01553*
Y01559*
X02344Y01565*
X0234Y01569*
X02334Y01571*
G37*
G36*
X02291D02*
X02285D01*
X02279Y01569*
X02275Y01565*
X02273Y01559*
Y01553*
X02275Y01548*
X02279Y01544*
X02285Y01541*
X02291*
X02296Y01544*
X023Y01548*
X02303Y01553*
Y01559*
X023Y01565*
X02296Y01569*
X02291Y01571*
G37*
G36*
X01193Y01544D02*
X01186D01*
X01179Y01541*
X01173Y01535*
X01171Y01528*
Y01521*
X01173Y01514*
X01179Y01508*
X01186Y01506*
X01193*
X012Y01508*
X01206Y01514*
X01209Y01521*
Y01528*
X01206Y01535*
X012Y01541*
X01193Y01544*
G37*
G36*
X02334Y01528D02*
X02328D01*
X02323Y01525*
X02319Y01521*
X02316Y01516*
Y0151*
X02319Y01504*
X02323Y015*
X02328Y01498*
X02334*
X0234Y015*
X02344Y01504*
X02346Y0151*
Y01516*
X02344Y01521*
X0234Y01525*
X02334Y01528*
G37*
G36*
X02291D02*
X02285D01*
X02279Y01525*
X02275Y01521*
X02273Y01516*
Y0151*
X02275Y01504*
X02279Y015*
X02285Y01498*
X02291*
X02296Y015*
X023Y01504*
X02303Y0151*
Y01516*
X023Y01521*
X02296Y01525*
X02291Y01528*
G37*
G36*
X02165Y01513D02*
Y01495D01*
X02183*
X0218Y01503*
X02173Y0151*
X02165Y01513*
G37*
G36*
X02155D02*
X02146Y0151D01*
X02139Y01503*
X02136Y01495*
X02155*
Y01513*
G37*
G36*
X01778Y01529D02*
X01771D01*
X01764Y01526*
X01758Y0152*
X01756Y01513*
Y01506*
X01758Y01499*
X01764Y01493*
X01771Y01491*
X01778*
X01785Y01493*
X01791Y01499*
X01794Y01506*
Y01513*
X01791Y0152*
X01785Y01526*
X01778Y01529*
G37*
G36*
X01403D02*
X01396D01*
X01389Y01526*
X01383Y0152*
X01381Y01513*
Y01506*
X01383Y01499*
X01389Y01493*
X01396Y01491*
X01403*
X0141Y01493*
X01416Y01499*
X01419Y01506*
Y01513*
X01416Y0152*
X0141Y01526*
X01403Y01529*
G37*
G36*
X0247Y01508D02*
Y0149D01*
X02488*
X02485Y01498*
X02478Y01505*
X0247Y01508*
G37*
G36*
X0246D02*
X02451Y01505D01*
X02444Y01498*
X02441Y0149*
X0246*
Y01508*
G37*
G36*
X02183Y01485D02*
X02165D01*
Y01466*
X02173Y01469*
X0218Y01476*
X02183Y01485*
G37*
G36*
X02155D02*
X02136D01*
X02139Y01476*
X02146Y01469*
X02155Y01466*
Y01485*
G37*
G36*
X02488Y0148D02*
X0247D01*
Y01461*
X02478Y01464*
X02485Y01471*
X02488Y0148*
G37*
G36*
X0246D02*
X02441D01*
X02444Y01471*
X02451Y01464*
X0246Y01461*
Y0148*
G37*
G36*
X01748Y01449D02*
X01741D01*
X01734Y01446*
X01728Y0144*
X01726Y01433*
Y01426*
X01728Y01419*
X01734Y01413*
X01741Y01411*
X01748*
X01755Y01413*
X01761Y01419*
X01764Y01426*
Y01433*
X01761Y0144*
X01755Y01446*
X01748Y01449*
G37*
G36*
X0219Y01413D02*
Y01395D01*
X02208*
X02205Y01403*
X02198Y0141*
X0219Y01413*
G37*
G36*
X0218D02*
X02171Y0141D01*
X02164Y01403*
X02161Y01395*
X0218*
Y01413*
G37*
G36*
X02208Y01385D02*
X0219D01*
Y01366*
X02198Y01369*
X02205Y01376*
X02208Y01385*
G37*
G36*
X0218D02*
X02161D01*
X02164Y01376*
X02171Y01369*
X0218Y01366*
Y01385*
G37*
G36*
X01748Y01384D02*
X01741D01*
X01734Y01381*
X01728Y01375*
X01726Y01368*
Y01361*
X01728Y01354*
X01734Y01348*
X01741Y01346*
X01748*
X01755Y01348*
X01761Y01354*
X01764Y01361*
Y01368*
X01761Y01375*
X01755Y01381*
X01748Y01384*
G37*
G36*
X00962Y01456D02*
X00947D01*
X00933Y01453*
X00919Y01448*
X00906Y01439*
X00896Y01429*
X00887Y01416*
X00882Y01402*
X00879Y01388*
Y01373*
X00882Y01358*
X00887Y01344*
X00896Y01332*
X00906Y01321*
X00919Y01313*
X00933Y01307*
X00947Y01304*
X00962*
X00977Y01307*
X00991Y01313*
X01003Y01321*
X01014Y01332*
X01022Y01344*
X01028Y01358*
X01031Y01373*
Y01388*
X01028Y01402*
X01022Y01416*
X01014Y01429*
X01003Y01439*
X00991Y01448*
X00977Y01453*
X00962Y01456*
G37*
G36*
X00687D02*
X00672D01*
X00657Y01453*
X00644Y01448*
X00631Y01439*
X0062Y01429*
X00612Y01416*
X00606Y01402*
X00604Y01388*
Y01373*
X00606Y01358*
X00612Y01344*
X0062Y01332*
X00631Y01321*
X00644Y01313*
X00657Y01307*
X00672Y01304*
X00687*
X00702Y01307*
X00715Y01313*
X00728Y01321*
X00739Y01332*
X00747Y01344*
X00753Y01358*
X00755Y01373*
Y01388*
X00753Y01402*
X00747Y01416*
X00739Y01429*
X00728Y01439*
X00715Y01448*
X00702Y01453*
X00687Y01456*
G37*
G36*
X0175Y01309D02*
Y01295D01*
X01764*
X01761Y01301*
X01756Y01306*
X0175Y01309*
G37*
G36*
X0174D02*
X01733Y01306D01*
X01728Y01301*
X01725Y01295*
X0174*
Y01309*
G37*
G36*
X01764Y01285D02*
X0175D01*
Y0127*
X01756Y01273*
X01761Y01278*
X01764Y01285*
G37*
G36*
X0174D02*
X01725D01*
X01728Y01278*
X01733Y01273*
X0174Y0127*
Y01285*
G37*
G36*
X02513Y01299D02*
X02506D01*
X02499Y01296*
X02493Y0129*
X02491Y01283*
Y01276*
X02493Y01269*
X02499Y01263*
X02506Y01261*
X02513*
X0252Y01263*
X02526Y01269*
X02529Y01276*
Y01283*
X02526Y0129*
X0252Y01296*
X02513Y01299*
G37*
G36*
X02233D02*
X02226D01*
X02219Y01296*
X02213Y0129*
X02211Y01283*
Y01276*
X02213Y01269*
X02219Y01263*
X02226Y01261*
X02233*
X0224Y01263*
X02246Y01269*
X02249Y01276*
Y01283*
X02246Y0129*
X0224Y01296*
X02233Y01299*
G37*
G36*
X02408Y01219D02*
X02401D01*
X02394Y01216*
X02388Y0121*
X02386Y01203*
Y01196*
X02388Y01189*
X02394Y01183*
X02401Y01181*
X02408*
X02415Y01183*
X02421Y01189*
X02424Y01196*
Y01203*
X02421Y0121*
X02415Y01216*
X02408Y01219*
G37*
G36*
X02278D02*
X02271D01*
X02264Y01216*
X02258Y0121*
X02256Y01203*
Y01196*
X02258Y01189*
X02264Y01183*
X02271Y01181*
X02278*
X02285Y01183*
X02291Y01189*
X02294Y01196*
Y01203*
X02291Y0121*
X02285Y01216*
X02278Y01219*
G37*
G36*
X0257Y01154D02*
Y0114D01*
X02584*
X02581Y01146*
X02576Y01151*
X0257Y01154*
G37*
G36*
X0256D02*
X02553Y01151D01*
X02548Y01146*
X02545Y0114*
X0256*
Y01154*
G37*
G36*
X0252D02*
Y0114D01*
X02534*
X02531Y01146*
X02526Y01151*
X0252Y01154*
G37*
G36*
X0251D02*
X02503Y01151D01*
X02498Y01146*
X02495Y0114*
X0251*
Y01154*
G37*
G36*
X0247D02*
Y0114D01*
X02484*
X02481Y01146*
X02476Y01151*
X0247Y01154*
G37*
G36*
X0246D02*
X02453Y01151D01*
X02448Y01146*
X02445Y0114*
X0246*
Y01154*
G37*
G36*
X0242D02*
Y0114D01*
X02434*
X02431Y01146*
X02426Y01151*
X0242Y01154*
G37*
G36*
X0241D02*
X02403Y01151D01*
X02398Y01146*
X02395Y0114*
X0241*
Y01154*
G37*
G36*
X0237D02*
Y0114D01*
X02384*
X02381Y01146*
X02376Y01151*
X0237Y01154*
G37*
G36*
X0236D02*
X02353Y01151D01*
X02348Y01146*
X02345Y0114*
X0236*
Y01154*
G37*
G36*
X02584Y0113D02*
X0257D01*
Y01115*
X02576Y01118*
X02581Y01123*
X02584Y0113*
G37*
G36*
X0256D02*
X02545D01*
X02548Y01123*
X02553Y01118*
X0256Y01115*
Y0113*
G37*
G36*
X02534D02*
X0252D01*
Y01115*
X02526Y01118*
X02531Y01123*
X02534Y0113*
G37*
G36*
X0251D02*
X02495D01*
X02498Y01123*
X02503Y01118*
X0251Y01115*
Y0113*
G37*
G36*
X02484D02*
X0247D01*
Y01115*
X02476Y01118*
X02481Y01123*
X02484Y0113*
G37*
G36*
X0246D02*
X02445D01*
X02448Y01123*
X02453Y01118*
X0246Y01115*
Y0113*
G37*
G36*
X02434D02*
X0242D01*
Y01115*
X02426Y01118*
X02431Y01123*
X02434Y0113*
G37*
G36*
X0241D02*
X02395D01*
X02398Y01123*
X02403Y01118*
X0241Y01115*
Y0113*
G37*
G36*
X02384D02*
X0237D01*
Y01115*
X02376Y01118*
X02381Y01123*
X02384Y0113*
G37*
G36*
X0236D02*
X02345D01*
X02348Y01123*
X02353Y01118*
X0236Y01115*
Y0113*
G37*
G36*
X0237Y01109D02*
Y01095D01*
X02384*
X02381Y01101*
X02376Y01106*
X0237Y01109*
G37*
G36*
X0236D02*
X02353Y01106D01*
X02348Y01101*
X02345Y01095*
X0236*
Y01109*
G37*
G36*
X02384Y01085D02*
X0237D01*
Y0107*
X02376Y01073*
X02381Y01078*
X02384Y01085*
G37*
G36*
X0236D02*
X02345D01*
X02348Y01078*
X02353Y01073*
X0236Y0107*
Y01085*
G37*
G36*
X0237Y01059D02*
Y01045D01*
X02384*
X02381Y01051*
X02376Y01056*
X0237Y01059*
G37*
G36*
X0236D02*
X02353Y01056D01*
X02348Y01051*
X02345Y01045*
X0236*
Y01059*
G37*
G36*
X00961Y01151D02*
X00948D01*
X00936Y01149*
X00924Y01144*
X00914Y01137*
X00905Y01128*
X00898Y01118*
X00893Y01106*
X00891Y01094*
Y01081*
X00893Y01069*
X00898Y01057*
X00905Y01047*
X00914Y01038*
X00924Y01031*
X00936Y01026*
X00948Y01024*
X00961*
X00973Y01026*
X00985Y01031*
X00995Y01038*
X01004Y01047*
X01011Y01057*
X01016Y01069*
X01019Y01081*
Y01094*
X01016Y01106*
X01011Y01118*
X01004Y01128*
X00995Y01137*
X00985Y01144*
X00973Y01149*
X00961Y01151*
G37*
G36*
X02384Y01035D02*
X0237D01*
Y0102*
X02376Y01023*
X02381Y01028*
X02384Y01035*
G37*
G36*
X0236D02*
X02345D01*
X02348Y01028*
X02353Y01023*
X0236Y0102*
Y01035*
G37*
G36*
X0237Y01009D02*
Y00995D01*
X02384*
X02381Y01001*
X02376Y01006*
X0237Y01009*
G37*
G36*
X0236D02*
X02353Y01006D01*
X02348Y01001*
X02345Y00995*
X0236*
Y01009*
G37*
G36*
X02384Y00985D02*
X0237D01*
Y0097*
X02376Y00973*
X02381Y00978*
X02384Y00985*
G37*
G36*
X0236D02*
X02345D01*
X02348Y00978*
X02353Y00973*
X0236Y0097*
Y00985*
G37*
G36*
X0237Y00959D02*
Y00945D01*
X02384*
X02381Y00951*
X02376Y00956*
X0237Y00959*
G37*
G36*
X0236D02*
X02353Y00956D01*
X02348Y00951*
X02345Y00945*
X0236*
Y00959*
G37*
G36*
X02384Y00935D02*
X0237D01*
Y0092*
X02376Y00923*
X02381Y00928*
X02384Y00935*
G37*
G36*
X0236D02*
X02345D01*
X02348Y00928*
X02353Y00923*
X0236Y0092*
Y00935*
G37*
G36*
X0237Y00909D02*
Y00895D01*
X02384*
X02381Y00901*
X02376Y00906*
X0237Y00909*
G37*
G36*
X0236D02*
X02353Y00906D01*
X02348Y00901*
X02345Y00895*
X0236*
Y00909*
G37*
G36*
X01922Y0091D02*
X01917D01*
X01911Y00907*
X01907Y00903*
X01905Y00897*
Y00892*
X01907Y00886*
X01911Y00882*
X01917Y0088*
X01922*
X01928Y00882*
X01932Y00886*
X01935Y00892*
Y00897*
X01932Y00903*
X01928Y00907*
X01922Y0091*
G37*
G36*
X01752D02*
X01747D01*
X01741Y00907*
X01737Y00903*
X01735Y00897*
Y00892*
X01737Y00886*
X01741Y00882*
X01747Y0088*
X01752*
X01758Y00882*
X01762Y00886*
X01765Y00892*
Y00897*
X01762Y00903*
X01758Y00907*
X01752Y0091*
G37*
G36*
X01705Y00894D02*
Y0088D01*
X01719*
X01716Y00886*
X01711Y00891*
X01705Y00894*
G37*
G36*
X0162Y00898D02*
X01611Y00895D01*
X01604Y00888*
X01601Y0088*
X0162*
Y00898*
G37*
G36*
X01793Y00909D02*
X01786D01*
X01779Y00906*
X01773Y009*
X01771Y00893*
Y00886*
X01773Y00879*
X01779Y00873*
X01786Y00871*
X01793*
X018Y00873*
X01806Y00879*
X01809Y00886*
Y00893*
X01806Y009*
X018Y00906*
X01793Y00909*
G37*
G36*
X02384Y00885D02*
X0237D01*
Y0087*
X02376Y00873*
X02381Y00878*
X02384Y00885*
G37*
G36*
X0236D02*
X02345D01*
X02348Y00878*
X02353Y00873*
X0236Y0087*
Y00885*
G37*
G36*
X01719Y0087D02*
X01705D01*
Y00855*
X01711Y00858*
X01716Y00863*
X01719Y0087*
G37*
G36*
X0163Y00898D02*
Y00875D01*
Y00851*
X01638Y00854*
X01645Y00861*
X01645Y00861*
X01651Y00862*
X01654Y00858*
X01661Y00856*
X01668*
X01675Y00858*
X01678Y00861*
X01682Y00863*
X01685Y00861*
X01688Y00858*
X01695Y00855*
Y00875*
Y00894*
X01688Y00891*
X01685Y00888*
X01682Y00886*
X01678Y00888*
X01675Y00891*
X01668Y00894*
X01661*
X01654Y00891*
X01651Y00887*
X01645Y00888*
X01645Y00888*
X01638Y00895*
X0163Y00898*
G37*
G36*
X0162Y0087D02*
X01601D01*
X01604Y00861*
X01611Y00854*
X0162Y00851*
Y0087*
G37*
G36*
X0237Y00859D02*
Y00845D01*
X02384*
X02381Y00851*
X02376Y00856*
X0237Y00859*
G37*
G36*
X0236D02*
X02353Y00856D01*
X02348Y00851*
X02345Y00845*
X0236*
Y00859*
G37*
G36*
X02384Y00835D02*
X0237D01*
Y0082*
X02376Y00823*
X02381Y00828*
X02384Y00835*
G37*
G36*
X0236D02*
X02345D01*
X02348Y00828*
X02353Y00823*
X0236Y0082*
Y00835*
G37*
G36*
X01875Y00834D02*
Y0082D01*
X01889*
X01886Y00826*
X01881Y00831*
X01875Y00834*
G37*
G36*
X01865D02*
X01858Y00831D01*
X01853Y00826*
X0185Y0082*
X01865*
Y00834*
G37*
G36*
X01889Y0081D02*
X01875D01*
Y00795*
X01881Y00798*
X01886Y00803*
X01889Y0081*
G37*
G36*
X01865D02*
X0185D01*
X01853Y00803*
X01858Y00798*
X01865Y00795*
Y0081*
G37*
G36*
X0237Y00809D02*
Y00795D01*
X02384*
X02381Y00801*
X02376Y00806*
X0237Y00809*
G37*
G36*
X0236D02*
X02353Y00806D01*
X02348Y00801*
X02345Y00795*
X0236*
Y00809*
G37*
G36*
X02384Y00785D02*
X0237D01*
Y0077*
X02376Y00773*
X02381Y00778*
X02384Y00785*
G37*
G36*
X0236D02*
X02345D01*
X02348Y00778*
X02353Y00773*
X0236Y0077*
Y00785*
G37*
G36*
X01472Y008D02*
X01467D01*
X01461Y00797*
X01457Y00793*
X01455Y00787*
Y00782*
X01457Y00776*
X01461Y00772*
X01467Y0077*
X01472*
X01478Y00772*
X01482Y00776*
X01485Y00782*
Y00787*
X01482Y00793*
X01478Y00797*
X01472Y008*
G37*
G36*
X0237Y00759D02*
Y00745D01*
X02384*
X02381Y00751*
X02376Y00756*
X0237Y00759*
G37*
G36*
X0236D02*
X02353Y00756D01*
X02348Y00751*
X02345Y00745*
X0236*
Y00759*
G37*
G36*
X02035Y00744D02*
Y0073D01*
X02049*
X02046Y00736*
X02041Y00741*
X02035Y00744*
G37*
G36*
X02025D02*
X02018Y00741D01*
X02013Y00736*
X0201Y0073*
X02025*
Y00744*
G37*
G36*
X02384Y00735D02*
X0237D01*
Y0072*
X02376Y00723*
X02381Y00728*
X02384Y00735*
G37*
G36*
X0236D02*
X02345D01*
X02348Y00728*
X02353Y00723*
X0236Y0072*
Y00735*
G37*
G36*
X02049Y0072D02*
X02035D01*
Y00705*
X02041Y00708*
X02046Y00713*
X02049Y0072*
G37*
G36*
X02025D02*
X0201D01*
X02013Y00713*
X02018Y00708*
X02025Y00705*
Y0072*
G37*
G36*
X0237Y00709D02*
Y00695D01*
X02384*
X02381Y00701*
X02376Y00706*
X0237Y00709*
G37*
G36*
X0236D02*
X02353Y00706D01*
X02348Y00701*
X02345Y00695*
X0236*
Y00709*
G37*
G36*
X0181Y00705D02*
Y0069D01*
X01824*
X01821Y00697*
X01816Y00702*
X0181Y00705*
G37*
G36*
X018D02*
X01793Y00702D01*
X01788Y00697*
X01785Y0069*
X018*
Y00705*
G37*
G36*
X01765D02*
Y0069D01*
X01779*
X01776Y00697*
X01771Y00702*
X01765Y00705*
G37*
G36*
X01755D02*
X01748Y00702D01*
X01743Y00697*
X0174Y0069*
X01755*
Y00705*
G37*
G36*
X0172D02*
Y0069D01*
X01734*
X01731Y00697*
X01726Y00702*
X0172Y00705*
G37*
G36*
X0171D02*
X01703Y00702D01*
X01698Y00697*
X01695Y0069*
X0171*
Y00705*
G37*
G36*
X01922Y00705D02*
X01917D01*
X01911Y00702*
X01907Y00698*
X01905Y00692*
Y00687*
X01907Y00681*
X01911Y00677*
X01917Y00675*
X01922*
X01928Y00677*
X01932Y00681*
X01935Y00687*
Y00692*
X01932Y00698*
X01928Y00702*
X01922Y00705*
G37*
G36*
X02384Y00685D02*
X0237D01*
Y0067*
X02376Y00673*
X02381Y00678*
X02384Y00685*
G37*
G36*
X0236D02*
X02345D01*
X02348Y00678*
X02353Y00673*
X0236Y0067*
Y00685*
G37*
G36*
X01824Y0068D02*
X0181D01*
Y00666*
X01816Y00668*
X01821Y00674*
X01824Y0068*
G37*
G36*
X018D02*
X01785D01*
X01788Y00674*
X01793Y00668*
X018Y00666*
Y0068*
G37*
G36*
X01734D02*
X0172D01*
Y00666*
X01726Y00668*
X01731Y00674*
X01734Y0068*
G37*
G36*
X0171D02*
X01695D01*
X01698Y00674*
X01703Y00668*
X0171Y00666*
Y0068*
G37*
G36*
X01779D02*
X0174D01*
X01743Y00674*
X01742Y0067*
X01738Y00668*
X01731Y00661*
X01729Y00657*
X01726Y00656*
X0172Y00659*
Y0064*
Y0062*
X01726Y00623*
X01729Y00622*
X01731Y00618*
X01738Y00611*
X01743Y00609*
X01744Y00602*
X01743Y00601*
X0174Y00595*
X01779*
X01776Y00601*
X01775Y00602*
X01776Y00609*
X01781Y00611*
X01788Y00618*
X0179Y00623*
X01793Y00623*
X018Y00621*
Y0064*
Y0066*
X01793Y00657*
X01789Y00658*
X01788Y00661*
X01781Y00668*
X01777Y0067*
X01776Y00674*
X01779Y0068*
G37*
G36*
X0181Y0066D02*
Y00645D01*
X01824*
X01821Y00652*
X01816Y00657*
X0181Y0066*
G37*
G36*
X0237Y00659D02*
Y00645D01*
X02384*
X02381Y00651*
X02376Y00656*
X0237Y00659*
G37*
G36*
X0236D02*
X02353Y00656D01*
X02348Y00651*
X02345Y00645*
X0236*
Y00659*
G37*
G36*
X0171D02*
X01703Y00656D01*
X01698Y00651*
X01695Y00645*
X0171*
Y00659*
G37*
G36*
X01824Y00635D02*
X0181D01*
Y00621*
X01816Y00623*
X01821Y00629*
X01824Y00635*
G37*
G36*
X02384Y00635D02*
X0237D01*
Y0062*
X02376Y00623*
X02381Y00628*
X02384Y00635*
G37*
G36*
X0236D02*
X02345D01*
X02348Y00628*
X02353Y00623*
X0236Y0062*
Y00635*
G37*
G36*
X0171D02*
X01695D01*
X01698Y00628*
X01703Y00623*
X0171Y0062*
Y00635*
G37*
G36*
X01617Y00644D02*
X01612D01*
X01606Y00642*
X01602Y00637*
X016Y00632*
Y00626*
X01602Y0062*
X01606Y00616*
X01612Y00614*
X01617*
X01623Y00616*
X01627Y0062*
X0163Y00626*
Y00632*
X01627Y00637*
X01623Y00642*
X01617Y00644*
G37*
G36*
X02203Y00649D02*
X02196D01*
X02189Y00646*
X02183Y0064*
X02181Y00633*
Y00626*
X02183Y00619*
X02189Y00613*
X02196Y00611*
X02203*
X0221Y00613*
X02216Y00619*
X02219Y00626*
Y00633*
X02216Y0064*
X0221Y00646*
X02203Y00649*
G37*
G36*
X0181Y0061D02*
Y00595D01*
X01824*
X01821Y00602*
X01816Y00607*
X0181Y0061*
G37*
G36*
X018D02*
X01793Y00607D01*
X01788Y00602*
X01785Y00595*
X018*
Y0061*
G37*
G36*
X0237Y00609D02*
Y00595D01*
X02384*
X02381Y00601*
X02376Y00606*
X0237Y00609*
G37*
G36*
X0236D02*
X02353Y00606D01*
X02348Y00601*
X02345Y00595*
X0236*
Y00609*
G37*
G36*
X02185D02*
Y00595D01*
X02199*
X02196Y00601*
X02191Y00606*
X02185Y00609*
G37*
G36*
X02175D02*
X02168Y00606D01*
X02163Y00601*
X0216Y00595*
X02175*
Y00609*
G37*
G36*
X02135D02*
Y00595D01*
X02149*
X02146Y00601*
X02141Y00606*
X02135Y00609*
G37*
G36*
X02125D02*
X02118Y00606D01*
X02113Y00601*
X0211Y00595*
X02125*
Y00609*
G37*
G36*
X0172D02*
Y00595D01*
X01734*
X01731Y00601*
X01726Y00606*
X0172Y00609*
G37*
G36*
X0171D02*
X01703Y00606D01*
X01698Y00601*
X01695Y00595*
X0171*
Y00609*
G37*
G36*
X0224Y00594D02*
Y0058D01*
X02254*
X02251Y00586*
X02246Y00591*
X0224Y00594*
G37*
G36*
X0223D02*
X02223Y00591D01*
X02218Y00586*
X02215Y0058*
X0223*
Y00594*
G37*
G36*
X0116Y00593D02*
Y00575D01*
X01178*
X01175Y00583*
X01168Y0059*
X0116Y00593*
G37*
G36*
X0115D02*
X01141Y0059D01*
X01134Y00583*
X01131Y00575*
X0115*
Y00593*
G37*
G36*
X01824Y00585D02*
X0181D01*
Y00571*
X01816Y00573*
X01821Y00579*
X01824Y00585*
G37*
G36*
X018D02*
X01785D01*
X01788Y00579*
X01793Y00573*
X018Y00571*
Y00585*
G37*
G36*
X02384Y00585D02*
X0237D01*
Y0057*
X02376Y00573*
X02381Y00578*
X02384Y00585*
G37*
G36*
X0236D02*
X02345D01*
X02348Y00578*
X02353Y00573*
X0236Y0057*
Y00585*
G37*
G36*
X02199D02*
X02185D01*
Y0057*
X02191Y00573*
X02196Y00578*
X02199Y00585*
G37*
G36*
X02175D02*
X0216D01*
X02163Y00578*
X02168Y00573*
X02175Y0057*
Y00585*
G37*
G36*
X02149D02*
X02135D01*
Y0057*
X02141Y00573*
X02146Y00578*
X02149Y00585*
G37*
G36*
X02125D02*
X0211D01*
X02113Y00578*
X02118Y00573*
X02125Y0057*
Y00585*
G37*
G36*
X01779D02*
X01765D01*
Y0057*
X01771Y00573*
X01776Y00578*
X01779Y00585*
G37*
G36*
X01755D02*
X0174D01*
X01743Y00578*
X01748Y00573*
X01755Y0057*
Y00585*
G37*
G36*
X01734D02*
X0172D01*
Y0057*
X01726Y00573*
X01731Y00578*
X01734Y00585*
G37*
G36*
X0171D02*
X01695D01*
X01698Y00578*
X01703Y00573*
X0171Y0057*
Y00585*
G37*
G36*
X02254Y0057D02*
X0224D01*
Y00555*
X02246Y00558*
X02251Y00563*
X02254Y0057*
G37*
G36*
X0223D02*
X02215D01*
X02218Y00563*
X02223Y00558*
X0223Y00555*
Y0057*
G37*
G36*
X0228Y00564D02*
Y0055D01*
X02294*
X02291Y00556*
X02286Y00561*
X0228Y00564*
G37*
G36*
X0227D02*
X02263Y00561D01*
X02258Y00556*
X02255Y0055*
X0227*
Y00564*
G37*
G36*
X01178Y00565D02*
X0116D01*
Y00546*
X01168Y00549*
X01175Y00556*
X01178Y00565*
G37*
G36*
X0115D02*
X01131D01*
X01134Y00556*
X01141Y00549*
X0115Y00546*
Y00565*
G37*
G36*
X0237Y00559D02*
Y00545D01*
X02384*
X02381Y00551*
X02376Y00556*
X0237Y00559*
G37*
G36*
X0236D02*
X02353Y00556D01*
X02348Y00551*
X02345Y00545*
X0236*
Y00559*
G37*
G36*
X02325D02*
Y00545D01*
X02339*
X02336Y00551*
X02331Y00556*
X02325Y00559*
G37*
G36*
X02315D02*
X02308Y00556D01*
X02303Y00551*
X023Y00545*
X02315*
Y00559*
G37*
G36*
X02185D02*
Y00545D01*
X02199*
X02196Y00551*
X02191Y00556*
X02185Y00559*
G37*
G36*
X02175D02*
X02168Y00556D01*
X02163Y00551*
X0216Y00545*
X02175*
Y00559*
G37*
G36*
X02135D02*
Y00545D01*
X02149*
X02146Y00551*
X02141Y00556*
X02135Y00559*
G37*
G36*
X02125D02*
X02118Y00556D01*
X02113Y00551*
X0211Y00545*
X02125*
Y00559*
G37*
G36*
X02215Y00539D02*
X02208Y00536D01*
X02203Y00532*
X02199Y00534*
X02199Y00535*
X02185*
Y0052*
X02191Y00523*
X02196Y00527*
X022Y00525*
X022Y00525*
X02215*
Y00539*
G37*
G36*
X02294Y0054D02*
X0228D01*
Y00525*
X02286Y00528*
X02291Y00533*
X02294Y0054*
G37*
G36*
X0227D02*
X02255D01*
X02258Y00533*
X02263Y00528*
X0227Y00525*
Y0054*
G37*
G36*
X02225Y00539D02*
Y00525D01*
X02239*
X02236Y00531*
X02231Y00536*
X02225Y00539*
G37*
G36*
X02384Y00535D02*
X0237D01*
Y0052*
X02376Y00523*
X02381Y00528*
X02384Y00535*
G37*
G36*
X0236D02*
X02345D01*
X02348Y00528*
X02353Y00523*
X0236Y0052*
Y00535*
G37*
G36*
X02339D02*
X02325D01*
Y0052*
X02331Y00523*
X02336Y00528*
X02339Y00535*
G37*
G36*
X02315D02*
X023D01*
X02303Y00528*
X02308Y00523*
X02315Y0052*
Y00535*
G37*
G36*
X02175D02*
X0216D01*
X02163Y00528*
X02168Y00523*
X02175Y0052*
Y00535*
G37*
G36*
X02149D02*
X02135D01*
Y0052*
X02141Y00523*
X02146Y00528*
X02149Y00535*
G37*
G36*
X02125D02*
X0211D01*
X02113Y00528*
X02118Y00523*
X02125Y0052*
Y00535*
G37*
G36*
X02239Y00515D02*
X02225D01*
Y005*
X02231Y00503*
X02236Y00508*
X02239Y00515*
G37*
G36*
X02215D02*
X022D01*
X02203Y00508*
X02208Y00503*
X02215Y005*
Y00515*
G37*
G36*
X0237Y00509D02*
Y00495D01*
X02384*
X02381Y00501*
X02376Y00506*
X0237Y00509*
G37*
G36*
X0236D02*
X02353Y00506D01*
X02348Y00501*
X02345Y00495*
X0236*
Y00509*
G37*
G36*
X0227D02*
Y00495D01*
X02284*
X02281Y00501*
X02276Y00506*
X0227Y00509*
G37*
G36*
X0226D02*
X02253Y00506D01*
X02248Y00501*
X02245Y00495*
X0226*
Y00509*
G37*
G36*
X0232Y00504D02*
Y0049D01*
X02334*
X02331Y00496*
X02326Y00501*
X0232Y00504*
G37*
G36*
X0231D02*
X02303Y00501D01*
X02298Y00496*
X02295Y0049*
X0231*
Y00504*
G37*
G36*
X02384Y00485D02*
X0237D01*
Y0047*
X02376Y00473*
X02381Y00478*
X02384Y00485*
G37*
G36*
X0236D02*
X02345D01*
X02348Y00478*
X02353Y00473*
X0236Y0047*
Y00485*
G37*
G36*
X02284D02*
X0227D01*
Y0047*
X02276Y00473*
X02281Y00478*
X02284Y00485*
G37*
G36*
X0226D02*
X02245D01*
X02248Y00478*
X02253Y00473*
X0226Y0047*
Y00485*
G37*
G36*
X02334Y0048D02*
X0232D01*
Y00465*
X02326Y00468*
X02331Y00473*
X02334Y0048*
G37*
G36*
X0231D02*
X02295D01*
X02298Y00473*
X02303Y00468*
X0231Y00465*
Y0048*
G37*
G36*
X02325Y00459D02*
Y00445D01*
X02339*
X02336Y00451*
X02331Y00456*
X02325Y00459*
G37*
G36*
X02315D02*
X02308Y00456D01*
X02303Y00451*
X023Y00445*
X02315*
Y00459*
G37*
G36*
X01988Y00499D02*
X01981D01*
X01974Y00496*
X01968Y0049*
X01966Y00483*
Y00476*
X01968Y00469*
X01972Y00466*
X01971Y0046*
X01971Y0046*
X01964Y00453*
X01961Y00445*
X02008*
X02005Y00453*
X01998Y0046*
X01998Y0046*
X01997Y00466*
X02001Y00469*
X02004Y00476*
Y00483*
X02001Y0049*
X01995Y00496*
X01988Y00499*
G37*
G36*
X0237Y00449D02*
X02363Y00446D01*
X02358Y00441*
X02355Y00435*
X0237*
Y00449*
G37*
G36*
X02339Y00435D02*
X02325D01*
Y0042*
X02331Y00423*
X02336Y00428*
X02339Y00435*
G37*
G36*
X02315D02*
X023D01*
X02303Y00428*
X02308Y00423*
X02315Y0042*
Y00435*
G37*
G36*
X02008D02*
X0199D01*
Y00416*
X01998Y00419*
X02005Y00426*
X02008Y00435*
G37*
G36*
X0198D02*
X01961D01*
X01964Y00426*
X01971Y00419*
X0198Y00416*
Y00435*
G37*
G36*
X0237Y00425D02*
X02355D01*
X02358Y00418*
X02363Y00413*
X0237Y0041*
Y00425*
G37*
G36*
X00325Y00425D02*
X00308D01*
Y004*
X00354*
X00354Y00402*
X00351Y0041*
X00346Y00416*
X0034Y00421*
X00333Y00423*
X00325Y00425*
G37*
G36*
X00154D02*
X00144D01*
Y004*
X00184*
X00183Y00402*
X0018Y0041*
X00176Y00416*
X00169Y00421*
X00162Y00423*
X00154Y00425*
G37*
G36*
X00134D02*
X00123D01*
X00115Y00423*
X00108Y00421*
X00102Y00416*
X00097Y0041*
X00094Y00402*
X00094Y004*
X00134*
Y00425*
G37*
G36*
X00298D02*
X00282D01*
X00274Y00423*
X00267Y00421*
X0026Y00416*
X00256Y0041*
X00253Y00402*
X00252Y004*
X00298*
Y00425*
G37*
G36*
X0235Y00414D02*
Y004D01*
X02364*
X02361Y00406*
X02356Y00411*
X0235Y00414*
G37*
G36*
X0234D02*
X02333Y00411D01*
X02328Y00406*
X02325Y004*
X0234*
Y00414*
G37*
G36*
Y0039D02*
X02325D01*
X02328Y00383*
X02333Y00378*
X0234Y00375*
Y0039*
G37*
G36*
X00505Y00384D02*
Y0037D01*
X00519*
X00516Y00376*
X00511Y00381*
X00505Y00384*
G37*
G36*
X00495D02*
X00488Y00381D01*
X00483Y00376*
X0048Y0037*
X00495*
Y00384*
G37*
G36*
X00354Y0039D02*
X00308D01*
Y00365*
X00325*
X00333Y00366*
X0034Y00369*
X00346Y00373*
X00351Y0038*
X00354Y00387*
X00354Y0039*
G37*
G36*
X00298D02*
X00252D01*
X00253Y00387*
X00256Y0038*
X0026Y00373*
X00267Y00369*
X00274Y00366*
X00282Y00365*
X00298*
Y0039*
G37*
G36*
X00184D02*
X00144D01*
Y00365*
X00154*
X00162Y00366*
X00169Y00369*
X00176Y00373*
X0018Y0038*
X00183Y00387*
X00184Y0039*
G37*
G36*
X00134D02*
X00094D01*
X00094Y00387*
X00097Y0038*
X00102Y00373*
X00108Y00369*
X00115Y00366*
X00123Y00365*
X00134*
Y0039*
G37*
G36*
X02364Y0039D02*
X0235D01*
Y00375*
X0235Y00375*
X02352Y00371*
X02353Y00371*
X0235Y00365*
X02365*
Y00379*
X02364Y00379*
X02362Y00383*
X02361Y00383*
X02364Y0039*
G37*
G36*
X00605Y00364D02*
Y0035D01*
X00619*
X00616Y00356*
X00611Y00361*
X00605Y00364*
G37*
G36*
X00595D02*
X00588Y00361D01*
X00583Y00356*
X0058Y0035*
X00595*
Y00364*
G37*
G36*
X00519Y0036D02*
X00505D01*
Y00345*
X00511Y00348*
X00516Y00353*
X00519Y0036*
G37*
G36*
X00495D02*
X0048D01*
X00483Y00353*
X00488Y00348*
X00495Y00345*
Y0036*
G37*
G36*
X02365Y00355D02*
X0235D01*
X02353Y00348*
X02358Y00343*
X02365Y0034*
Y00355*
G37*
G36*
X00619Y0034D02*
X00605D01*
Y00325*
X00611Y00328*
X00616Y00333*
X00619Y0034*
G37*
G36*
X00595D02*
X0058D01*
X00583Y00333*
X00588Y00328*
X00595Y00325*
Y0034*
G37*
G36*
X00287Y00356D02*
X0028D01*
X00273Y00353*
X00268Y00348*
X00266Y00342*
Y00335*
X00268Y00328*
X00273Y00323*
X0028Y0032*
X00287*
X00294Y00323*
X00299Y00328*
X00301Y00335*
Y00342*
X00299Y00348*
X00294Y00353*
X00287Y00356*
G37*
G36*
X02365Y00334D02*
X02358Y00331D01*
X02353Y00326*
X0235Y0032*
X02365*
Y00334*
G37*
G36*
X01915Y00319D02*
X01908Y00316D01*
X01903Y00311*
X01901Y00307*
X01896*
X01894Y00311*
X01888Y00316*
X01882Y00319*
Y003*
Y0028*
X01888Y00283*
X01894Y00288*
X01896Y00292*
X01901*
X01903Y00288*
X01908Y00283*
X01915Y0028*
Y003*
Y00319*
G37*
G36*
X01925D02*
Y00305D01*
X01939*
X01936Y00311*
X01931Y00316*
X01925Y00319*
G37*
G36*
X01872D02*
X01866Y00316D01*
X0186Y00311*
X01857Y00305*
X01872*
Y00319*
G37*
G36*
X0181D02*
Y00305D01*
X01824*
X01821Y00311*
X01816Y00316*
X0181Y00319*
G37*
G36*
X018D02*
X01793Y00316D01*
X01788Y00311*
X01785Y00305*
X018*
Y00319*
G37*
G36*
X01765D02*
Y00305D01*
X01779*
X01776Y00311*
X01771Y00316*
X01765Y00319*
G37*
G36*
X01755D02*
X01748Y00316D01*
X01743Y00311*
X0174Y00305*
X01755*
Y00319*
G37*
G36*
X01715D02*
Y00305D01*
X01729*
X01726Y00311*
X01721Y00316*
X01715Y00319*
G37*
G36*
X01705D02*
X01698Y00316D01*
X01693Y00311*
X0169Y00305*
X01705*
Y00319*
G37*
G36*
X01665D02*
Y00305D01*
X01679*
X01676Y00311*
X01671Y00316*
X01665Y00319*
G37*
G36*
X01655D02*
X01648Y00316D01*
X01643Y00311*
X0164Y00305*
X01655*
Y00319*
G37*
G36*
X0162D02*
Y00305D01*
X01634*
X01631Y00311*
X01626Y00316*
X0162Y00319*
G37*
G36*
X0161D02*
X01603Y00316D01*
X01598Y00311*
X01595Y00305*
X0161*
Y00319*
G37*
G36*
X00403Y00339D02*
X00396D01*
X00389Y00336*
X00383Y0033*
X00381Y00323*
Y00316*
X00383Y00309*
X00389Y00303*
X00396Y00301*
X00403*
X0041Y00303*
X00416Y00309*
X00419Y00316*
Y00323*
X00416Y0033*
X0041Y00336*
X00403Y00339*
G37*
G36*
X02365Y0031D02*
X0235D01*
X02353Y00303*
X02358Y00298*
X02365Y00295*
Y0031*
G37*
G36*
X0112Y00303D02*
Y00285D01*
X01138*
X01135Y00293*
X01128Y003*
X0112Y00303*
G37*
G36*
X0111D02*
X01101Y003D01*
X01094Y00293*
X01091Y00285*
X0111*
Y00303*
G37*
G36*
X01939Y00295D02*
X01925D01*
Y0028*
X01931Y00283*
X01936Y00288*
X01939Y00295*
G37*
G36*
X01872D02*
X01857D01*
X0186Y00288*
X01866Y00283*
X01872Y0028*
Y00295*
G37*
G36*
X01824D02*
X0181D01*
Y0028*
X01816Y00283*
X01821Y00288*
X01824Y00295*
G37*
G36*
X018D02*
X01785D01*
X01788Y00288*
X01793Y00283*
X018Y0028*
Y00295*
G37*
G36*
X01779D02*
X01765D01*
Y0028*
X01771Y00283*
X01776Y00288*
X01779Y00295*
G37*
G36*
X01755D02*
X0174D01*
X01743Y00288*
X01748Y00283*
X01755Y0028*
Y00295*
G37*
G36*
X01729D02*
X01715D01*
Y0028*
X01721Y00283*
X01726Y00288*
X01729Y00295*
G37*
G36*
X01705D02*
X0169D01*
X01693Y00288*
X01698Y00283*
X01705Y0028*
Y00295*
G37*
G36*
X01679D02*
X01665D01*
Y0028*
X01671Y00283*
X01676Y00288*
X01679Y00295*
G37*
G36*
X01655D02*
X0164D01*
X01643Y00288*
X01648Y00283*
X01655Y0028*
Y00295*
G37*
G36*
X01634D02*
X0162D01*
Y0028*
X01626Y00283*
X01631Y00288*
X01634Y00295*
G37*
G36*
X0161D02*
X01595D01*
X01598Y00288*
X01603Y00283*
X0161Y0028*
Y00295*
G37*
G36*
X01925Y00274D02*
Y0026D01*
X01939*
X01936Y00266*
X01931Y00271*
X01925Y00274*
G37*
G36*
X01915D02*
X01908Y00271D01*
X01903Y00266*
X019Y0026*
X01915*
Y00274*
G37*
G36*
X0162D02*
Y0026D01*
X01634*
X01631Y00266*
X01626Y00271*
X0162Y00274*
G37*
G36*
X0161D02*
X01603Y00271D01*
X01598Y00266*
X01595Y0026*
X0161*
Y00274*
G37*
G36*
X01138Y00275D02*
X0112D01*
Y00256*
X01128Y00259*
X01135Y00266*
X01138Y00275*
G37*
G36*
X0111D02*
X01091D01*
X01094Y00266*
X01101Y00259*
X0111Y00256*
Y00275*
G37*
G36*
X01939Y0025D02*
X01925D01*
Y00235*
X01931Y00238*
X01936Y00243*
X01939Y0025*
G37*
G36*
X01915D02*
X019D01*
X01903Y00243*
X01908Y00238*
X01915Y00235*
Y0025*
G37*
G36*
X01634D02*
X0162D01*
Y00235*
X01626Y00238*
X01631Y00243*
X01634Y0025*
G37*
G36*
X0161D02*
X01595D01*
X01598Y00243*
X01603Y00238*
X0161Y00235*
Y0025*
G37*
G36*
X0162Y00229D02*
Y00215D01*
X01634*
X01631Y00221*
X01626Y00226*
X0162Y00229*
G37*
G36*
X0161D02*
X01603Y00226D01*
X01598Y00221*
X01595Y00215*
X0161*
Y00229*
G37*
G36*
X01925Y00224D02*
Y0021D01*
X01939*
X01936Y00216*
X01931Y00221*
X01925Y00224*
G37*
G36*
X01915D02*
X01908Y00221D01*
X01903Y00216*
X019Y0021*
X01915*
Y00224*
G37*
G36*
X01634Y00205D02*
X0162D01*
Y0019*
X01626Y00193*
X01631Y00198*
X01634Y00205*
G37*
G36*
X0161D02*
X01595D01*
X01598Y00198*
X01603Y00193*
X0161Y0019*
Y00205*
G37*
G36*
X01939Y002D02*
X01925D01*
Y00185*
X01931Y00188*
X01936Y00193*
X01939Y002*
G37*
G36*
X01915D02*
X019D01*
X01903Y00193*
X01908Y00188*
X01915Y00185*
Y002*
G37*
G36*
X01925Y00169D02*
Y00155D01*
X01939*
X01936Y00161*
X01931Y00166*
X01925Y00169*
G37*
G36*
X01915D02*
X01908Y00166D01*
X01903Y00161*
X019Y00155*
X01915*
Y00169*
G37*
G36*
X0162Y00154D02*
Y0014D01*
X01634*
X01631Y00146*
X01626Y00151*
X0162Y00154*
G37*
G36*
X0161D02*
X01603Y00151D01*
X01598Y00146*
X01595Y0014*
X0161*
Y00154*
G37*
G36*
X01939Y00145D02*
X01925D01*
Y0013*
X01931Y00133*
X01936Y00138*
X01939Y00145*
G37*
G36*
X01915D02*
X019D01*
X01903Y00138*
X01908Y00133*
X01915Y0013*
Y00145*
G37*
G36*
X01634Y0013D02*
X0162D01*
Y00115*
X01626Y00118*
X01631Y00123*
X01634Y0013*
G37*
G36*
X0161D02*
X01595D01*
X01598Y00123*
X01603Y00118*
X0161Y00115*
Y0013*
G37*
G36*
X00403Y00149D02*
X00396D01*
X00389Y00146*
X00383Y0014*
X00381Y00133*
Y00126*
X00383Y00119*
X00389Y00113*
X00396Y00111*
X00403*
X0041Y00113*
X00416Y00119*
X00419Y00126*
Y00133*
X00416Y0014*
X0041Y00146*
X00403Y00149*
G37*
G36*
X01178Y00188D02*
X01175D01*
Y00103*
X0126*
Y00107*
X01256Y00125*
X01249Y00141*
X01239Y00156*
X01227Y00168*
X01212Y00178*
X01196Y00185*
X01178Y00188*
G37*
G36*
X01165D02*
X01161D01*
X01143Y00185*
X01127Y00178*
X01112Y00168*
X011Y00156*
X0109Y00141*
X01083Y00125*
X0108Y00107*
Y00103*
X01165*
Y00188*
G37*
G36*
X02481Y00188D02*
X02478D01*
Y00103*
X02563*
Y00107*
X02559Y00125*
X02552Y00141*
X02542Y00156*
X0253Y00168*
X02515Y00178*
X02499Y00185*
X02481Y00188*
G37*
G36*
X02468D02*
X02464D01*
X02446Y00185*
X0243Y00178*
X02415Y00168*
X02403Y00156*
X02393Y00141*
X02386Y00125*
X02383Y00107*
Y00103*
X02468*
Y00188*
G37*
G36*
X01925Y00109D02*
Y00095D01*
X01939*
X01936Y00101*
X01931Y00106*
X01925Y00109*
G37*
G36*
X01915D02*
X01908Y00106D01*
X01903Y00101*
X019Y00095*
X01915*
Y00109*
G37*
G36*
X0187D02*
Y00095D01*
X01884*
X01881Y00101*
X01876Y00106*
X0187Y00109*
G37*
G36*
X0186D02*
X01853Y00106D01*
X01848Y00101*
X01845Y00095*
X0186*
Y00109*
G37*
G36*
X01815D02*
Y00095D01*
X01829*
X01826Y00101*
X01821Y00106*
X01815Y00109*
G37*
G36*
X01805D02*
X01798Y00106D01*
X01793Y00101*
X0179Y00095*
X01805*
Y00109*
G37*
G36*
X01765D02*
Y00095D01*
X01779*
X01776Y00101*
X01771Y00106*
X01765Y00109*
G37*
G36*
X01755D02*
X01748Y00106D01*
X01743Y00101*
X0174Y00095*
X01755*
Y00109*
G37*
G36*
X01715D02*
Y00095D01*
X01729*
X01726Y00101*
X01721Y00106*
X01715Y00109*
G37*
G36*
X01705D02*
X01698Y00106D01*
X01693Y00101*
X0169Y00095*
X01705*
Y00109*
G37*
G36*
X01665D02*
Y00095D01*
X01679*
X01676Y00101*
X01671Y00106*
X01665Y00109*
G37*
G36*
X01655D02*
X01648Y00106D01*
X01643Y00101*
X0164Y00095*
X01655*
Y00109*
G37*
G36*
X0162D02*
Y00095D01*
X01634*
X01631Y00101*
X01626Y00106*
X0162Y00109*
G37*
G36*
X0161D02*
X01603Y00106D01*
X01598Y00101*
X01595Y00095*
X0161*
Y00109*
G37*
G36*
X00287Y00129D02*
X0028D01*
X00273Y00126*
X00268Y00121*
X00266Y00114*
Y00107*
X00268Y00101*
X00273Y00096*
X0028Y00093*
X00287*
X00294Y00096*
X00299Y00101*
X00301Y00107*
Y00114*
X00299Y00121*
X00294Y00126*
X00287Y00129*
G37*
G36*
X00505Y00089D02*
Y00075D01*
X00519*
X00516Y00081*
X00511Y00086*
X00505Y00089*
G37*
G36*
X00495D02*
X00488Y00086D01*
X00483Y00081*
X0048Y00075*
X00495*
Y00089*
G37*
G36*
X01939Y00085D02*
X01925D01*
Y0007*
X01931Y00073*
X01936Y00078*
X01939Y00085*
G37*
G36*
X01915D02*
X019D01*
X01903Y00078*
X01908Y00073*
X01915Y0007*
Y00085*
G37*
G36*
X01884D02*
X0187D01*
Y0007*
X01876Y00073*
X01881Y00078*
X01884Y00085*
G37*
G36*
X0186D02*
X01845D01*
X01848Y00078*
X01853Y00073*
X0186Y0007*
Y00085*
G37*
G36*
X01829D02*
X01815D01*
Y0007*
X01821Y00073*
X01826Y00078*
X01829Y00085*
G37*
G36*
X01805D02*
X0179D01*
X01793Y00078*
X01798Y00073*
X01805Y0007*
Y00085*
G37*
G36*
X01779D02*
X01765D01*
Y0007*
X01771Y00073*
X01776Y00078*
X01779Y00085*
G37*
G36*
X01755D02*
X0174D01*
X01743Y00078*
X01748Y00073*
X01755Y0007*
Y00085*
G37*
G36*
X01729D02*
X01715D01*
Y0007*
X01721Y00073*
X01726Y00078*
X01729Y00085*
G37*
G36*
X01705D02*
X0169D01*
X01693Y00078*
X01698Y00073*
X01705Y0007*
Y00085*
G37*
G36*
X01679D02*
X01665D01*
Y0007*
X01671Y00073*
X01676Y00078*
X01679Y00085*
G37*
G36*
X01655D02*
X0164D01*
X01643Y00078*
X01648Y00073*
X01655Y0007*
Y00085*
G37*
G36*
X01634D02*
X0162D01*
Y0007*
X01626Y00073*
X01631Y00078*
X01634Y00085*
G37*
G36*
X0161D02*
X01595D01*
X01598Y00078*
X01603Y00073*
X0161Y0007*
Y00085*
G37*
G36*
X00325Y00084D02*
X00308D01*
Y00059*
X00354*
X00354Y00062*
X00351Y00069*
X00346Y00076*
X0034Y0008*
X00333Y00083*
X00325Y00084*
G37*
G36*
X00154D02*
X00144D01*
Y00059*
X00184*
X00183Y00062*
X0018Y00069*
X00176Y00076*
X00169Y0008*
X00162Y00083*
X00154Y00084*
G37*
G36*
X00134D02*
X00123D01*
X00115Y00083*
X00108Y0008*
X00102Y00076*
X00097Y00069*
X00094Y00062*
X00094Y00059*
X00134*
Y00084*
G37*
G36*
X00298D02*
X00282D01*
X00274Y00083*
X00267Y0008*
X0026Y00076*
X00256Y00069*
X00253Y00062*
X00252Y00059*
X00298*
Y00084*
G37*
G36*
X00519Y00065D02*
X00505D01*
Y0005*
X00511Y00053*
X00516Y00058*
X00519Y00065*
G37*
G36*
X00495D02*
X0048D01*
X00483Y00058*
X00488Y00053*
X00495Y0005*
Y00065*
G37*
G36*
X00354Y00049D02*
X00308D01*
Y00024*
X00325*
X00333Y00026*
X0034Y00028*
X00346Y00033*
X00351Y00039*
X00354Y00047*
X00354Y00049*
G37*
G36*
X00298D02*
X00252D01*
X00253Y00047*
X00256Y00039*
X0026Y00033*
X00267Y00028*
X00274Y00026*
X00282Y00024*
X00298*
Y00049*
G37*
G36*
X00184D02*
X00144D01*
Y00024*
X00154*
X00162Y00026*
X00169Y00028*
X00176Y00033*
X0018Y00039*
X00183Y00047*
X00184Y00049*
G37*
G36*
X00134D02*
X00094D01*
X00094Y00047*
X00097Y00039*
X00102Y00033*
X00108Y00028*
X00115Y00026*
X00123Y00024*
X00134*
Y00049*
G37*
G36*
X0126Y00093D02*
X01175D01*
Y00008*
X01178*
X01196Y00012*
X01212Y00019*
X01227Y00028*
X01239Y00041*
X01249Y00056*
X01256Y00072*
X0126Y00089*
Y00093*
G37*
G36*
X01165D02*
X0108D01*
Y00089*
X01083Y00072*
X0109Y00056*
X011Y00041*
X01112Y00028*
X01127Y00019*
X01143Y00012*
X01161Y00008*
X01165*
Y00093*
G37*
G36*
X02563Y00093D02*
X02478D01*
Y00008*
X02481*
X02499Y00012*
X02515Y00019*
X0253Y00028*
X02542Y00041*
X02552Y00056*
X02559Y00072*
X02563Y00089*
Y00093*
G37*
G36*
X02468D02*
X02383D01*
Y00089*
X02386Y00072*
X02393Y00056*
X02403Y00041*
X02415Y00028*
X0243Y00019*
X02446Y00012*
X02464Y00008*
X02468*
Y00093*
G37*
%LNpcb-3*%
%LPD*%
G54D56*
X00955Y01937D03*
Y01087D03*
G54D57*
X0068Y01645D03*
Y0138D03*
X00955D03*
G54D58*
X00955Y01645D03*
G54D59*
X00139Y00395D03*
Y00054D03*
G54D60*
X00303Y00395D03*
Y00054D03*
G54D61*
X00284Y00338D03*
Y00111D03*
G54D62*
X0148Y0194D03*
X006Y00345D03*
X005Y00365D03*
X02365Y01135D03*
X02415D03*
X02565D03*
X02515D03*
X02465D03*
X0237Y00315D03*
Y0036D03*
X02345Y00395D03*
X0232Y0044D03*
X02315Y00485D03*
X02265Y0049D03*
X0222Y0052D03*
X0218Y0054D03*
X0213D03*
Y0059D03*
X0218D03*
X02235Y00575D03*
X02275Y00545D03*
X0232Y0054D03*
X02365Y0049D03*
Y0054D03*
Y0059D03*
Y0064D03*
Y0069D03*
Y0074D03*
Y0079D03*
Y0084D03*
Y0089D03*
Y0094D03*
Y0099D03*
Y0104D03*
Y0109D03*
X02375Y0043D03*
X0203Y00725D03*
X0175Y00895D03*
X0245Y0194D03*
X0192Y00895D03*
Y0069D03*
X017Y00875D03*
X0147Y00785D03*
X01615Y00629D03*
X0187Y00815D03*
X02295Y01785D03*
X01615Y00135D03*
Y003D03*
Y00255D03*
Y0021D03*
X0192Y0015D03*
X01615Y0009D03*
X0166D03*
X0171D03*
X0176D03*
X0181D03*
X01865D03*
X0192D03*
Y00205D03*
Y00255D03*
Y003D03*
X01877D03*
X0166D03*
X01805D03*
X0171D03*
X0176D03*
X01805Y0059D03*
X01715Y0059D03*
X0176D03*
X01715Y0064D03*
X005Y0007D03*
X01745Y0129D03*
X01715Y00685D03*
X01805Y0064D03*
Y00685D03*
X0176D03*
G54D63*
X01115Y0028D03*
X02275Y012D03*
X02405D03*
X022Y0063D03*
X02428Y01695D03*
X01985Y0044D03*
Y0048D03*
X01745Y01365D03*
Y0143D03*
X01665Y00875D03*
X01625D03*
X01155Y0057D03*
X0179Y0089D03*
X02185Y0139D03*
X0234Y01785D03*
X01155Y01755D03*
X0251Y0128D03*
X0223D03*
X0216Y0149D03*
X02088Y01581D03*
X02215Y01695D03*
X02465Y01485D03*
X01965Y02095D03*
X01775Y0151D03*
X0153Y01635D03*
X0133Y0161D03*
X0145Y0183D03*
Y01755D03*
Y0168D03*
Y0161D03*
X0139D03*
X0133Y0168D03*
X0139D03*
Y01755D03*
Y0183D03*
X01207Y01789D03*
X0119Y01525D03*
X01155Y01825D03*
X014Y0151D03*
X004Y0032D03*
Y0013D03*
G54D64*
X02473Y00098D03*
X02473Y0249D03*
X0117Y00098D03*
Y0249D03*
G54D65*
X0176Y0064D03*
G54D66*
X02331Y01513D03*
X02288D03*
Y01556D03*
X02331D03*
M02*