%FSTAX23Y23*%
%MOIN*%
%SFA1B1*%

%IPPOS*%
%AMD59*
4,1,8,0.035400,0.000000,0.035400,0.000000,0.015700,0.019700,-0.015700,0.019700,-0.035400,0.000000,-0.035400,0.000000,-0.015700,-0.019700,0.015700,-0.019700,0.035400,0.000000,0.0*
1,1,0.039370,0.015700,0.000000*
1,1,0.039370,0.015700,0.000000*
1,1,0.039370,-0.015700,0.000000*
1,1,0.039370,-0.015700,0.000000*
%
%AMD60*
4,1,8,0.041300,0.000000,0.041300,0.000000,0.021700,0.019700,-0.021700,0.019700,-0.041300,0.000000,-0.041300,0.000000,-0.021700,-0.019700,0.021700,-0.019700,0.041300,0.000000,0.0*
1,1,0.039370,0.021700,0.000000*
1,1,0.039370,0.021700,0.000000*
1,1,0.039370,-0.021700,0.000000*
1,1,0.039370,-0.021700,0.000000*
%
%ADD49C,0.008000*%
%ADD52C,0.020000*%
%ADD55C,0.025000*%
%ADD56C,0.117716*%
%ADD57C,0.141968*%
%ADD58R,0.141968X0.141968*%
G04~CAMADD=59~8~0.0~0.0~393.7~708.7~196.9~0.0~15~0.0~0.0~0.0~0.0~0~0.0~0.0~0.0~0.0~0~0.0~0.0~0.0~270.0~707.0~393.0*
%ADD59D59*%
G04~CAMADD=60~8~0.0~0.0~393.7~826.8~196.9~0.0~15~0.0~0.0~0.0~0.0~0~0.0~0.0~0.0~0.0~0~0.0~0.0~0.0~270.0~828.0~394.0*
%ADD60D60*%
%ADD61C,0.025591*%
%ADD62C,0.028000*%
%ADD63C,0.020000*%
%ADD64C,0.160000*%
%ADD65C,0.050000*%
%ADD66C,0.019685*%
%LNpcb-1*%
%LPD*%
G54D49*
X02275Y012D02*
X02405D01*
X01755Y0079D02*
Y0107D01*
X0192Y0069D02*
Y00895D01*
X0147Y00785D02*
X01555D01*
X01615Y00725*
Y00629D02*
Y00725D01*
G54D52*
X00955Y0138D02*
X01555D01*
X01685Y0151D02*
X01775D01*
X01555Y0138D02*
X01685Y0151D01*
G54D55*
X0119Y01525D02*
D01*
X01192Y01522*
X01195Y0152*
X01198Y01518*
X01201Y01516*
X01204Y01514*
X01207Y01513*
X01211Y01512*
X01214Y01511*
X01218Y0151*
X01221Y0151*
X01225Y0151*
X01226Y0151*
X014*
X01524Y01634*
X01529*
X0153Y01635*
X004Y0013D02*
Y0032D01*
G54D56*
X00955Y01937D03*
Y01087D03*
G54D57*
X0068Y01645D03*
Y0138D03*
X00955D03*
G54D58*
X00955Y01645D03*
G54D59*
X00139Y00395D03*
Y00054D03*
G54D60*
X00303Y00395D03*
Y00054D03*
G54D61*
X00284Y00338D03*
Y00111D03*
G54D62*
X022Y02055D03*
X0179Y0089D03*
X022Y02095D03*
X01115Y0028D03*
X022Y0063D03*
X02428Y01695D03*
X01985Y0044D03*
Y0048D03*
X01745Y01365D03*
Y0143D03*
X01665Y00875D03*
X01625D03*
X01155Y0057D03*
X02185Y0139D03*
X0234Y01785D03*
X01155Y01755D03*
X0251Y0128D03*
X0223D03*
X0216Y0149D03*
X02088Y01581D03*
X02215Y01695D03*
X02465Y01485D03*
X01775Y0151D03*
X0153Y01635D03*
X0133Y0161D03*
X0145Y0183D03*
Y01755D03*
Y0168D03*
Y0161D03*
X0139D03*
X0133Y0168D03*
X0139D03*
Y01755D03*
Y0183D03*
X01207Y01789D03*
X0119Y01525D03*
X01155Y01825D03*
X014Y0151D03*
X004Y0032D03*
Y0013D03*
G54D63*
X0231Y0117D03*
X0179Y0107D03*
X01755D03*
X01735Y00895D03*
X017Y00875D03*
X01605Y02073D03*
X0192Y00895D03*
Y0069D03*
X018Y01995D03*
X01755Y0079D03*
X02275Y012D03*
X02405D03*
X006Y00345D03*
X005Y00365D03*
X02365Y01135D03*
X02415D03*
X02565D03*
X02515D03*
X02465D03*
X0237Y00315D03*
Y0036D03*
X02345Y00395D03*
X0232Y0044D03*
X02315Y00485D03*
X02265Y0049D03*
X0222Y0052D03*
X0218Y0054D03*
X0213D03*
Y0059D03*
X0218D03*
X02235Y00575D03*
X02275Y00545D03*
X0232Y0054D03*
X02365Y0049D03*
Y0054D03*
Y0059D03*
Y0064D03*
Y0069D03*
Y0074D03*
Y0079D03*
Y0084D03*
Y0089D03*
Y0094D03*
Y0099D03*
Y0104D03*
Y0109D03*
X02375Y0043D03*
X0203Y00725D03*
X0147Y00785D03*
X01615Y00629D03*
X0187Y00815D03*
X02295Y01785D03*
X01615Y00135D03*
Y003D03*
Y00255D03*
Y0021D03*
X0192Y0015D03*
X01615Y0009D03*
X0166D03*
X0171D03*
X0176D03*
X0181D03*
X01865D03*
X0192D03*
Y00205D03*
Y00255D03*
Y003D03*
X01877D03*
X0166D03*
X01805D03*
X0171D03*
X0176D03*
X01805Y0059D03*
X01715Y0059D03*
X0176D03*
X01715Y0064D03*
X005Y0007D03*
X01745Y0129D03*
X01715Y00685D03*
X01805Y0064D03*
Y00685D03*
X0176D03*
G54D64*
X02473Y00098D03*
X02473Y0249D03*
X0117Y00098D03*
Y0249D03*
G54D65*
X0176Y0064D03*
G54D66*
X02331Y01513D03*
X02288D03*
Y01556D03*
X02331D03*
M02*