%FSTAX23Y23*%
%MOIN*%
%SFA1B1*%

%IPPOS*%
%AMD13*
4,1,8,0.028500,-0.009800,0.028500,0.009800,0.026500,0.011800,-0.026500,0.011800,-0.028500,0.009800,-0.028500,-0.009800,-0.026500,-0.011800,0.026500,-0.011800,0.028500,-0.009800,0.0*
1,1,0.004016,0.026500,-0.009800*
1,1,0.004016,0.026500,0.009800*
1,1,0.004016,-0.026500,0.009800*
1,1,0.004016,-0.026500,-0.009800*
%
%AMD20*
4,1,8,0.028800,0.011400,-0.028800,0.011400,-0.031700,0.008600,-0.031700,-0.008600,-0.028800,-0.011400,0.028800,-0.011400,0.031700,-0.008600,0.031700,0.008600,0.028800,0.011400,0.0*
1,1,0.005709,0.028800,0.008600*
1,1,0.005709,-0.028800,0.008600*
1,1,0.005709,-0.028800,-0.008600*
1,1,0.005709,0.028800,-0.008600*
%
%AMD25*
4,1,8,-0.014600,-0.005300,0.014600,-0.005300,0.015900,-0.004000,0.015900,0.004000,0.014600,0.005300,-0.014600,0.005300,-0.015900,0.004000,-0.015900,-0.004000,-0.014600,-0.005300,0.0*
1,1,0.002657,-0.014600,-0.004000*
1,1,0.002657,0.014600,-0.004000*
1,1,0.002657,0.014600,0.004000*
1,1,0.002657,-0.014600,0.004000*
%
%AMD26*
4,1,8,-0.004000,-0.015900,0.004000,-0.015900,0.005300,-0.014600,0.005300,0.014600,0.004000,0.015900,-0.004000,0.015900,-0.005300,0.014600,-0.005300,-0.014600,-0.004000,-0.015900,0.0*
1,1,0.002657,-0.004000,-0.014600*
1,1,0.002657,0.004000,-0.014600*
1,1,0.002657,0.004000,0.014600*
1,1,0.002657,-0.004000,0.014600*
%
%AMD43*
4,1,8,0.019300,0.011300,-0.019300,0.011300,-0.030600,0.000000,-0.030600,0.000000,-0.019300,-0.011300,0.019300,-0.011300,0.030600,0.000000,0.030600,0.000000,0.019300,0.011300,0.0*
1,1,0.022524,0.019300,0.000000*
1,1,0.022524,-0.019300,0.000000*
1,1,0.022524,-0.019300,0.000000*
1,1,0.022524,0.019300,0.000000*
%
%ADD12R,0.026306X0.026476*%
G04~CAMADD=13~8~0.0~0.0~236.2~570.9~20.1~0.0~15~0.0~0.0~0.0~0.0~0~0.0~0.0~0.0~0.0~0~0.0~0.0~0.0~270.0~570.0~236.0*
%ADD13D13*%
%ADD14R,0.021260X0.022835*%
%ADD15R,0.025591X0.025591*%
%ADD16R,0.020472X0.020472*%
%ADD17R,0.024409X0.025984*%
%ADD18R,0.020289X0.018601*%
%ADD19R,0.017716X0.023622*%
G04~CAMADD=20~8~0.0~0.0~633.9~228.3~28.5~0.0~15~0.0~0.0~0.0~0.0~0~0.0~0.0~0.0~0.0~0~0.0~0.0~0.0~0.0~633.9~228.3*
%ADD20D20*%
%ADD21R,0.023622X0.021654*%
%ADD22R,0.021654X0.023622*%
%ADD23R,0.070866X0.047244*%
G04~CAMADD=25~8~0.0~0.0~318.9~106.3~13.3~0.0~15~0.0~0.0~0.0~0.0~0~0.0~0.0~0.0~0.0~0~0.0~0.0~0.0~180.0~318.0~106.0*
%ADD25D25*%
G04~CAMADD=26~8~0.0~0.0~106.3~318.9~13.3~0.0~15~0.0~0.0~0.0~0.0~0~0.0~0.0~0.0~0.0~0~0.0~0.0~0.0~180.0~106.0~318.0*
%ADD26D26*%
%ADD27R,0.026476X0.026306*%
%ADD28R,0.057331X0.053324*%
%ADD29R,0.045275X0.011811*%
%ADD30R,0.045275X0.023622*%
%ADD38R,0.106299X0.102362*%
%ADD39R,0.031496X0.013780*%
%ADD40R,0.013780X0.033465*%
%ADD41R,0.022835X0.021260*%
%ADD42R,0.022047X0.020472*%
G04~CAMADD=43~8~0.0~0.0~612.0~225.2~112.6~0.0~15~0.0~0.0~0.0~0.0~0~0.0~0.0~0.0~0.0~0~0.0~0.0~0.0~0.0~612.0~225.2*
%ADD43D43*%
%ADD44R,0.061196X0.022525*%
%ADD45R,0.018432X0.018601*%
%ADD46R,0.023622X0.017716*%
%ADD47R,0.018701X0.019685*%
%ADD48R,0.023622X0.019685*%
%ADD94R,0.035433X0.035433*%
%LNpcb-1*%
%LPD*%
G36*
X01832Y00675D02*
X01796D01*
Y00711*
X01832*
Y00675*
G37*
G36*
X01777D02*
X01741D01*
Y00711*
X01777*
Y00675*
G37*
G36*
X01722D02*
X01686D01*
Y00711*
X01722*
Y00675*
G37*
G36*
X01832Y0062D02*
X01796D01*
Y00656*
X01832*
Y0062*
G37*
G36*
X01722D02*
X01686D01*
Y00656*
X01722*
Y0062*
G37*
G36*
X01832Y00565D02*
X01796D01*
Y00601*
X01832*
Y00565*
G37*
G36*
X01777D02*
X01741D01*
Y00601*
X01777*
Y00565*
G37*
G36*
X01722D02*
X01686D01*
Y00601*
X01722*
Y00565*
G37*
G54D12*
X0188Y0096D03*
X01919D03*
X02295Y0128D03*
X02334D03*
X02444D03*
X02405D03*
X01665Y0096D03*
X01704D03*
G54D13*
X01857Y02145D03*
Y02095D03*
Y02045D03*
Y01995D03*
X02072Y02145D03*
Y02095D03*
Y02045D03*
Y01995D03*
G54D14*
X0215Y02064D03*
Y02095D03*
X0193Y00475D03*
Y00444D03*
X0216Y01554D03*
Y01585D03*
X02084Y00629D03*
Y0066D03*
X01974D03*
Y00629D03*
G54D15*
X0172Y02134D03*
Y02095D03*
Y02049D03*
Y0201D03*
X01825Y0039D03*
Y0043D03*
G54D16*
X01644Y02073D03*
X01675D03*
G54D17*
X01975Y00527D03*
Y00562D03*
X02085Y00567D03*
Y00532D03*
G54D18*
X02044Y00565D03*
X02015D03*
X01289Y01825D03*
X0126D03*
X01289Y0176D03*
X0126D03*
X02044Y0063D03*
X02015D03*
G54D19*
X01628Y00765D03*
X01591D03*
X02378Y01695D03*
X02341D03*
G54D20*
X01232Y00719D03*
Y00669D03*
Y00619D03*
Y00569D03*
X01516D03*
Y00619D03*
Y00669D03*
Y00719D03*
G54D21*
X0104Y00248D03*
Y00281D03*
Y00161D03*
Y00128D03*
G54D22*
X00568Y00395D03*
X00601D03*
G54D23*
X01843Y00147D03*
X01686D03*
Y00242D03*
X01843D03*
G54D25*
X01663Y00569D03*
Y00589D03*
Y00609D03*
Y00628D03*
Y00648D03*
Y00668D03*
Y00687D03*
Y00707D03*
X01855D03*
Y00687D03*
Y00668D03*
Y00648D03*
Y00628D03*
Y00609D03*
Y00589D03*
Y00569D03*
G54D26*
X01828Y00542D03*
X01808D03*
X01789D03*
X01769D03*
X01749D03*
X0173D03*
X0171D03*
X0169D03*
Y00735D03*
X0171D03*
X0173D03*
X01749D03*
X01769D03*
X01789D03*
X01808D03*
X01828D03*
G54D27*
X005Y00115D03*
Y00154D03*
Y0028D03*
Y00319D03*
G54D28*
X0119Y01675D03*
Y01614D03*
G54D29*
X00326Y00293D03*
Y00274D03*
Y00254D03*
Y00234D03*
Y00215D03*
Y00195D03*
Y00175D03*
Y00156D03*
G54D30*
X00326Y00319D03*
Y0013D03*
Y0035D03*
Y00099D03*
G54D38*
X0231Y01535D03*
G54D39*
X02231Y01584D03*
Y01564D03*
Y01544D03*
Y01525D03*
Y01505D03*
Y01485D03*
X02388Y01584D03*
Y01564D03*
Y01544D03*
Y01525D03*
Y01505D03*
Y01485D03*
G54D40*
X0226Y01457D03*
X0228D03*
X023D03*
X02319D03*
X02339D03*
X02359D03*
X0226Y01612D03*
X0228D03*
X023D03*
X02319D03*
X02339D03*
X02359D03*
G54D41*
X02249Y0139D03*
X0228D03*
X02269Y01695D03*
X023D03*
X01589Y0082D03*
X0162D03*
X01789Y00815D03*
X0182D03*
X01605Y01635D03*
X01574D03*
X01695Y008D03*
X01664D03*
G54D42*
X01824Y00335D03*
X01855D03*
X0171D03*
X01679D03*
G54D43*
X01563Y01547D03*
Y0151D03*
Y01472D03*
X01476D03*
Y0151D03*
G54D44*
X01476Y01547D03*
G54D45*
X01684Y0151D03*
X01715D03*
X01675Y0143D03*
X01644D03*
G54D46*
X01317Y01513D03*
Y01476D03*
X0188Y00441D03*
Y00478D03*
X02135Y00668D03*
Y00631D03*
G54D47*
X01639Y0129D03*
X0168D03*
G54D48*
X01681Y01365D03*
X01638D03*
G54D94*
X01759Y00638D03*
M02*