%TF.GenerationSoftware,Altium Limited,Altium Designer,23.10.1 (27)*%
G04 Layer_Color=8421504*
%FSLAX45Y45*%
%MOMM*%
%TF.SameCoordinates,657BE803-862A-4D57-AC19-647AB52C20B0*%
%TF.FilePolarity,Positive*%
%TF.FileFunction,Paste,Top*%
%TF.Part,Single*%
G01*
G75*
%TA.AperFunction,SMDPad,CuDef*%
%ADD12R,0.62000X0.66000*%
%ADD13R,0.51535X0.47247*%
%ADD14R,2.18000X1.60000*%
%ADD15R,2.20000X1.60000*%
%ADD16R,0.54000X0.58000*%
%ADD17R,0.45000X0.60000*%
G04:AMPARAMS|DCode=18|XSize=1.61mm|YSize=0.58mm|CornerRadius=0.0725mm|HoleSize=0mm|Usage=FLASHONLY|Rotation=0.000|XOffset=0mm|YOffset=0mm|HoleType=Round|Shape=RoundedRectangle|*
%AMROUNDEDRECTD18*
21,1,1.61000,0.43500,0,0,0.0*
21,1,1.46500,0.58000,0,0,0.0*
1,1,0.14500,0.73250,-0.21750*
1,1,0.14500,-0.73250,-0.21750*
1,1,0.14500,-0.73250,0.21750*
1,1,0.14500,0.73250,0.21750*
%
%ADD18ROUNDEDRECTD18*%
%ADD19R,0.60000X0.55000*%
%ADD20R,0.55000X0.60000*%
%ADD21R,1.80000X1.20000*%
G04:AMPARAMS|DCode=23|XSize=0.81mm|YSize=0.27mm|CornerRadius=0.03375mm|HoleSize=0mm|Usage=FLASHONLY|Rotation=180.000|XOffset=0mm|YOffset=0mm|HoleType=Round|Shape=RoundedRectangle|*
%AMROUNDEDRECTD23*
21,1,0.81000,0.20250,0,0,180.0*
21,1,0.74250,0.27000,0,0,180.0*
1,1,0.06750,-0.37125,0.10125*
1,1,0.06750,0.37125,0.10125*
1,1,0.06750,0.37125,-0.10125*
1,1,0.06750,-0.37125,-0.10125*
%
%ADD23ROUNDEDRECTD23*%
G04:AMPARAMS|DCode=24|XSize=0.27mm|YSize=0.81mm|CornerRadius=0.03375mm|HoleSize=0mm|Usage=FLASHONLY|Rotation=180.000|XOffset=0mm|YOffset=0mm|HoleType=Round|Shape=RoundedRectangle|*
%AMROUNDEDRECTD24*
21,1,0.27000,0.74250,0,0,180.0*
21,1,0.20250,0.81000,0,0,180.0*
1,1,0.06750,-0.10125,0.37125*
1,1,0.06750,0.10125,0.37125*
1,1,0.06750,0.10125,-0.37125*
1,1,0.06750,-0.10125,-0.37125*
%
%ADD24ROUNDEDRECTD24*%
%ADD25R,0.67248X0.66817*%
%ADD26R,1.45620X1.35443*%
%ADD27R,1.15000X0.30000*%
%ADD28R,1.15000X0.60000*%
%ADD36R,2.70000X2.60000*%
%ADD37R,0.80000X0.35000*%
%ADD38R,0.35000X0.85000*%
%ADD39R,0.66817X0.67248*%
%ADD40R,0.58000X0.54000*%
%ADD41R,0.65000X0.65000*%
%ADD42R,0.56000X0.52000*%
G04:AMPARAMS|DCode=43|XSize=1.55439mm|YSize=0.57213mm|CornerRadius=0.28606mm|HoleSize=0mm|Usage=FLASHONLY|Rotation=0.000|XOffset=0mm|YOffset=0mm|HoleType=Round|Shape=RoundedRectangle|*
%AMROUNDEDRECTD43*
21,1,1.55439,0.00000,0,0,0.0*
21,1,0.98226,0.57213,0,0,0.0*
1,1,0.57213,0.49113,0.00000*
1,1,0.57213,-0.49113,0.00000*
1,1,0.57213,-0.49113,0.00000*
1,1,0.57213,0.49113,0.00000*
%
%ADD43ROUNDEDRECTD43*%
%ADD44R,1.55439X0.57213*%
%ADD45R,0.46818X0.47247*%
%ADD46R,0.60000X0.45000*%
%ADD47R,0.47500X0.50000*%
%ADD48R,0.60000X0.50000*%
%ADD94R,0.90000X0.90000*%
G36*
X4654200Y1716900D02*
X4564200D01*
Y1806900D01*
X4654200D01*
Y1716900D01*
D02*
G37*
G36*
X4514200D02*
X4424200D01*
Y1806900D01*
X4514200D01*
Y1716900D01*
D02*
G37*
G36*
X4374200D02*
X4284200D01*
Y1806900D01*
X4374200D01*
Y1716900D01*
D02*
G37*
G36*
X4654200Y1576900D02*
X4564200D01*
Y1666900D01*
X4654200D01*
Y1576900D01*
D02*
G37*
G36*
X4374200D02*
X4284200D01*
Y1666900D01*
X4374200D01*
Y1576900D01*
D02*
G37*
G36*
X4654200Y1436900D02*
X4564200D01*
Y1526900D01*
X4654200D01*
Y1436900D01*
D02*
G37*
G36*
X4514200D02*
X4424200D01*
Y1526900D01*
X4514200D01*
Y1436900D01*
D02*
G37*
G36*
X4374200D02*
X4284200D01*
Y1526900D01*
X4374200D01*
Y1436900D01*
D02*
G37*
D12*
X5016500Y1340300D02*
D03*
Y1428300D02*
D03*
X5295900Y1441000D02*
D03*
Y1353000D02*
D03*
D13*
X5194056Y1435100D02*
D03*
X5118344D02*
D03*
X3276356Y4635500D02*
D03*
X3200644D02*
D03*
X3276356Y4470400D02*
D03*
X3200644D02*
D03*
X5194056Y1600200D02*
D03*
X5118344D02*
D03*
D14*
X3756900Y5321300D02*
D03*
X6225300D02*
D03*
D15*
X4675900D02*
D03*
X5306300D02*
D03*
D16*
X4902200Y1207400D02*
D03*
Y1129400D02*
D03*
X5486400Y3948800D02*
D03*
Y4026800D02*
D03*
X5295656Y1599300D02*
D03*
Y1677300D02*
D03*
X5016256D02*
D03*
Y1599300D02*
D03*
D17*
X4136900Y1943100D02*
D03*
X4041900D02*
D03*
X6041900Y4305300D02*
D03*
X5946900D02*
D03*
D18*
X3130174Y1827740D02*
D03*
Y1700740D02*
D03*
Y1573740D02*
D03*
Y1446740D02*
D03*
X3851174D02*
D03*
Y1573740D02*
D03*
Y1700740D02*
D03*
Y1827740D02*
D03*
D19*
X2641600Y630600D02*
D03*
Y715600D02*
D03*
Y410800D02*
D03*
Y325800D02*
D03*
D20*
X1443400Y1003300D02*
D03*
X1528400D02*
D03*
D21*
X4683100Y375300D02*
D03*
X4283100D02*
D03*
Y615300D02*
D03*
X4683100D02*
D03*
D23*
X4224200Y1446900D02*
D03*
Y1496900D02*
D03*
Y1546900D02*
D03*
Y1596900D02*
D03*
Y1646900D02*
D03*
Y1696900D02*
D03*
Y1746900D02*
D03*
Y1796900D02*
D03*
X4714200D02*
D03*
Y1746900D02*
D03*
Y1696900D02*
D03*
Y1646900D02*
D03*
Y1596900D02*
D03*
Y1546900D02*
D03*
Y1496900D02*
D03*
Y1446900D02*
D03*
D24*
X4644200Y1376900D02*
D03*
X4594200D02*
D03*
X4544200D02*
D03*
X4494200D02*
D03*
X4444200D02*
D03*
X4394200D02*
D03*
X4344200D02*
D03*
X4294200D02*
D03*
Y1866900D02*
D03*
X4344200D02*
D03*
X4394200D02*
D03*
X4444200D02*
D03*
X4494200D02*
D03*
X4544200D02*
D03*
X4594200D02*
D03*
X4644200D02*
D03*
D25*
X1270000Y292685D02*
D03*
Y393115D02*
D03*
Y711785D02*
D03*
Y812215D02*
D03*
D26*
X3022600Y4255889D02*
D03*
Y4100712D02*
D03*
D27*
X828900Y746500D02*
D03*
Y696500D02*
D03*
Y646500D02*
D03*
Y596500D02*
D03*
Y546500D02*
D03*
Y496500D02*
D03*
Y446500D02*
D03*
Y396500D02*
D03*
D28*
Y811500D02*
D03*
Y331500D02*
D03*
Y891500D02*
D03*
Y251500D02*
D03*
D36*
X5867400Y3898900D02*
D03*
D37*
X5667400Y4023900D02*
D03*
Y3973900D02*
D03*
Y3923900D02*
D03*
Y3873900D02*
D03*
Y3823900D02*
D03*
Y3773900D02*
D03*
X6067400Y4023900D02*
D03*
Y3973900D02*
D03*
Y3923900D02*
D03*
Y3873900D02*
D03*
Y3823900D02*
D03*
Y3773900D02*
D03*
D38*
X5742400Y3701400D02*
D03*
X5792400D02*
D03*
X5842400D02*
D03*
X5892400D02*
D03*
X5942400D02*
D03*
X5992400D02*
D03*
X5742400Y4096400D02*
D03*
X5792400D02*
D03*
X5842400D02*
D03*
X5892400D02*
D03*
X5942400D02*
D03*
X5992400D02*
D03*
D39*
X5829885Y3251200D02*
D03*
X5930315D02*
D03*
X6209715D02*
D03*
X6109285D02*
D03*
X4775785Y2438400D02*
D03*
X4876215D02*
D03*
X4229685D02*
D03*
X4330115D02*
D03*
D40*
X5714100Y3530600D02*
D03*
X5792100D02*
D03*
X5764900Y4305300D02*
D03*
X5842900D02*
D03*
X4037700Y2082800D02*
D03*
X4115700D02*
D03*
X4545700Y2070100D02*
D03*
X4623700D02*
D03*
X4077600Y4152900D02*
D03*
X3999600D02*
D03*
X4306200Y2032000D02*
D03*
X4228200D02*
D03*
D41*
X4635500Y992200D02*
D03*
Y1092200D02*
D03*
D42*
X4634600Y850900D02*
D03*
X4712600D02*
D03*
X4344300D02*
D03*
X4266300D02*
D03*
D43*
X3970829Y3930400D02*
D03*
Y3835400D02*
D03*
Y3740400D02*
D03*
X3750771D02*
D03*
Y3835400D02*
D03*
D44*
Y3930400D02*
D03*
D45*
X4277785Y3835400D02*
D03*
X4358215D02*
D03*
X4256615Y3632200D02*
D03*
X4176185D02*
D03*
D46*
X3346450Y3844800D02*
D03*
Y3749800D02*
D03*
X4775200Y1120900D02*
D03*
Y1215900D02*
D03*
X5422900Y1698500D02*
D03*
Y1603500D02*
D03*
D47*
X4165145Y3276600D02*
D03*
X4267655D02*
D03*
D48*
X4271400Y3467100D02*
D03*
X4161400D02*
D03*
D94*
X4469200Y1621900D02*
D03*
%TF.MD5,77d68db2872ffade56c83fa3aaf0f864*%
M02*
