%TF.GenerationSoftware,Altium Limited,Altium Designer,23.10.1 (27)*%
G04 Layer_Color=16711935*
%FSLAX45Y45*%
%MOMM*%
%TF.SameCoordinates,2CED323B-BA49-4281-A081-A7916B394634*%
%TF.FilePolarity,Negative*%
%TF.FileFunction,Soldermask,Bot*%
%TF.Part,Single*%
G01*
G75*
%TA.AperFunction,ComponentPad*%
%ADD53C,0.65000*%
G04:AMPARAMS|DCode=54|XSize=1mm|YSize=2.1mm|CornerRadius=0.5mm|HoleSize=0mm|Usage=FLASHONLY|Rotation=270.000|XOffset=0mm|YOffset=0mm|HoleType=Round|Shape=RoundedRectangle|*
%AMROUNDEDRECTD54*
21,1,1.00000,1.10000,0,0,270.0*
21,1,0.00000,2.10000,0,0,270.0*
1,1,1.00000,-0.55000,0.00000*
1,1,1.00000,-0.55000,0.00000*
1,1,1.00000,0.55000,0.00000*
1,1,1.00000,0.55000,0.00000*
%
%ADD54ROUNDEDRECTD54*%
G04:AMPARAMS|DCode=55|XSize=1mm|YSize=1.8mm|CornerRadius=0.5mm|HoleSize=0mm|Usage=FLASHONLY|Rotation=270.000|XOffset=0mm|YOffset=0mm|HoleType=Round|Shape=RoundedRectangle|*
%AMROUNDEDRECTD55*
21,1,1.00000,0.80000,0,0,270.0*
21,1,0.00000,1.80000,0,0,270.0*
1,1,1.00000,-0.40000,0.00000*
1,1,1.00000,-0.40000,0.00000*
1,1,1.00000,0.40000,0.00000*
1,1,1.00000,0.40000,0.00000*
%
%ADD55ROUNDEDRECTD55*%
%TA.AperFunction,ViaPad*%
%ADD60C,0.71120*%
%TA.AperFunction,ComponentPad*%
%ADD80C,2.00320*%
%ADD81R,2.00320X2.00320*%
%TA.AperFunction,ViaPad*%
%ADD82C,0.70320*%
%ADD83C,0.91440*%
%ADD84C,1.47320*%
D53*
X480100Y1031800D02*
D03*
Y1609800D02*
D03*
D54*
X530100Y888800D02*
D03*
Y1752800D02*
D03*
D55*
X112100Y888800D02*
D03*
Y1752800D02*
D03*
D60*
X4191000Y1066800D02*
D03*
X4318000Y965200D02*
D03*
X4191000Y774700D02*
D03*
X4318000Y508000D02*
D03*
X4356100Y673100D02*
D03*
X2946400Y2425700D02*
D03*
X2950166Y1286466D02*
D03*
X3192796Y1259393D02*
D03*
X3209902Y1373625D02*
D03*
X3197202Y1119625D02*
D03*
X4076700Y2425700D02*
D03*
X3721100Y2540000D02*
D03*
X3695700Y2070100D02*
D03*
X3657600Y1701800D02*
D03*
X3937000Y2070100D02*
D03*
X3644900Y1333500D02*
D03*
X3632200Y1511300D02*
D03*
X3403600Y1816100D02*
D03*
X1651000Y1905000D02*
D03*
X4318000Y2451100D02*
D03*
Y88900D02*
D03*
Y228600D02*
D03*
Y368300D02*
D03*
Y2298700D02*
D03*
Y2171700D02*
D03*
Y2044700D02*
D03*
Y1905000D02*
D03*
Y1752600D02*
D03*
Y1600200D02*
D03*
Y1447800D02*
D03*
Y1295400D02*
D03*
X4051300Y863600D02*
D03*
X3324202Y1119625D02*
D03*
X3451202Y1132325D02*
D03*
Y1259325D02*
D03*
Y1373625D02*
D03*
X3324202D02*
D03*
X4318000Y1130300D02*
D03*
X1079500Y1498600D02*
D03*
X1041400Y1003300D02*
D03*
X927100Y1943100D02*
D03*
X2578100Y1866900D02*
D03*
X3848100Y1384300D02*
D03*
X3797300Y673100D02*
D03*
X2768600Y1866900D02*
D03*
X1879600Y2425700D02*
D03*
X1409700Y2489200D02*
D03*
X177800Y2197100D02*
D03*
Y469900D02*
D03*
X1905000Y1155700D02*
D03*
X2933700Y609600D02*
D03*
X3263900Y1663700D02*
D03*
X1117600Y444500D02*
D03*
Y2247900D02*
D03*
X2039800Y1773100D02*
D03*
X3276600Y533400D02*
D03*
X2857500Y457200D02*
D03*
Y292100D02*
D03*
Y114300D02*
D03*
X3683000Y482600D02*
D03*
Y304800D02*
D03*
Y127000D02*
D03*
X3111500Y533400D02*
D03*
D80*
X2197100Y419100D02*
D03*
D81*
X1689100D02*
D03*
D82*
X3534800Y2366400D02*
D03*
Y2256400D02*
D03*
X3424800D02*
D03*
Y2366400D02*
D03*
D83*
X1422400Y2057400D02*
D03*
X4191000Y1447800D02*
D03*
X3530600Y635000D02*
D03*
X876300Y889000D02*
D03*
D84*
X3327400Y1257300D02*
D03*
%TF.MD5,3ed2f026d7239ccdf66a387f0ad78123*%
M02*
