%TF.GenerationSoftware,Altium Limited,Altium Designer,23.10.1 (27)*%
G04 Layer_Color=8388736*
%FSLAX45Y45*%
%MOMM*%
%TF.SameCoordinates,2CED323B-BA49-4281-A081-A7916B394634*%
%TF.FilePolarity,Negative*%
%TF.FileFunction,Soldermask,Top*%
%TF.Part,Single*%
G01*
G75*
%TA.AperFunction,SMDPad,CuDef*%
%ADD18R,0.51535X0.47247*%
%ADD23R,0.66817X0.67248*%
%ADD24R,0.67248X0.66817*%
%TA.AperFunction,ConnectorPad*%
%ADD26R,0.60000X0.45000*%
%TA.AperFunction,SMDPad,CuDef*%
%ADD31R,0.60000X0.45000*%
%ADD32R,1.80000X1.20000*%
%ADD35R,1.45620X1.35443*%
%ADD36R,0.60000X0.55000*%
%TA.AperFunction,ConnectorPad*%
%ADD37R,1.15000X0.60000*%
%ADD38R,1.15000X0.30000*%
%TA.AperFunction,SMDPad,CuDef*%
G04:AMPARAMS|DCode=39|XSize=1.55439mm|YSize=0.57213mm|CornerRadius=0.28606mm|HoleSize=0mm|Usage=FLASHONLY|Rotation=0.000|XOffset=0mm|YOffset=0mm|HoleType=Round|Shape=RoundedRectangle|*
%AMROUNDEDRECTD39*
21,1,1.55439,0.00000,0,0,0.0*
21,1,0.98226,0.57213,0,0,0.0*
1,1,0.57213,0.49113,0.00000*
1,1,0.57213,-0.49113,0.00000*
1,1,0.57213,-0.49113,0.00000*
1,1,0.57213,0.49113,0.00000*
%
%ADD39ROUNDEDRECTD39*%
%ADD40R,1.55439X0.57213*%
%ADD44R,0.46818X0.47247*%
%ADD45R,0.47500X0.50000*%
%ADD46R,0.47247X0.51535*%
%ADD47R,0.60000X0.50000*%
%ADD48R,0.45000X0.60000*%
%TA.AperFunction,ComponentPad*%
%ADD53C,0.65000*%
G04:AMPARAMS|DCode=54|XSize=1mm|YSize=2.1mm|CornerRadius=0.5mm|HoleSize=0mm|Usage=FLASHONLY|Rotation=270.000|XOffset=0mm|YOffset=0mm|HoleType=Round|Shape=RoundedRectangle|*
%AMROUNDEDRECTD54*
21,1,1.00000,1.10000,0,0,270.0*
21,1,0.00000,2.10000,0,0,270.0*
1,1,1.00000,-0.55000,0.00000*
1,1,1.00000,-0.55000,0.00000*
1,1,1.00000,0.55000,0.00000*
1,1,1.00000,0.55000,0.00000*
%
%ADD54ROUNDEDRECTD54*%
G04:AMPARAMS|DCode=55|XSize=1mm|YSize=1.8mm|CornerRadius=0.5mm|HoleSize=0mm|Usage=FLASHONLY|Rotation=270.000|XOffset=0mm|YOffset=0mm|HoleType=Round|Shape=RoundedRectangle|*
%AMROUNDEDRECTD55*
21,1,1.00000,0.80000,0,0,270.0*
21,1,0.00000,1.80000,0,0,270.0*
1,1,1.00000,-0.40000,0.00000*
1,1,1.00000,-0.40000,0.00000*
1,1,1.00000,0.40000,0.00000*
1,1,1.00000,0.40000,0.00000*
%
%ADD55ROUNDEDRECTD55*%
%TA.AperFunction,ViaPad*%
%ADD60C,0.71120*%
%TA.AperFunction,SMDPad,CuDef*%
G04:AMPARAMS|DCode=66|XSize=1.8132mm|YSize=0.7832mm|CornerRadius=0.1741mm|HoleSize=0mm|Usage=FLASHONLY|Rotation=0.000|XOffset=0mm|YOffset=0mm|HoleType=Round|Shape=RoundedRectangle|*
%AMROUNDEDRECTD66*
21,1,1.81320,0.43500,0,0,0.0*
21,1,1.46500,0.78320,0,0,0.0*
1,1,0.34820,0.73250,-0.21750*
1,1,0.34820,-0.73250,-0.21750*
1,1,0.34820,-0.73250,0.21750*
1,1,0.34820,0.73250,0.21750*
%
%ADD66ROUNDEDRECTD66*%
%TA.AperFunction,ConnectorPad*%
%ADD67R,2.80320X2.90320*%
%ADD68R,0.55320X1.00320*%
%ADD69R,1.05320X0.55320*%
%TA.AperFunction,SMDPad,CuDef*%
%ADD70R,0.74320X0.78320*%
%ADD71R,0.78320X0.74320*%
%ADD72R,0.82320X0.86320*%
%ADD73R,2.38320X1.80320*%
%ADD74R,2.40320X1.80320*%
%ADD75R,0.85320X0.85320*%
%ADD76R,0.76320X0.72320*%
G04:AMPARAMS|DCode=77|XSize=0.4732mm|YSize=1.0132mm|CornerRadius=0.13535mm|HoleSize=0mm|Usage=FLASHONLY|Rotation=180.000|XOffset=0mm|YOffset=0mm|HoleType=Round|Shape=RoundedRectangle|*
%AMROUNDEDRECTD77*
21,1,0.47320,0.74250,0,0,180.0*
21,1,0.20250,1.01320,0,0,180.0*
1,1,0.27070,-0.10125,0.37125*
1,1,0.27070,0.10125,0.37125*
1,1,0.27070,0.10125,-0.37125*
1,1,0.27070,-0.10125,-0.37125*
%
%ADD77ROUNDEDRECTD77*%
G04:AMPARAMS|DCode=78|XSize=1.0132mm|YSize=0.4732mm|CornerRadius=0.13535mm|HoleSize=0mm|Usage=FLASHONLY|Rotation=180.000|XOffset=0mm|YOffset=0mm|HoleType=Round|Shape=RoundedRectangle|*
%AMROUNDEDRECTD78*
21,1,1.01320,0.20250,0,0,180.0*
21,1,0.74250,0.47320,0,0,180.0*
1,1,0.27070,-0.37125,0.10125*
1,1,0.27070,0.37125,0.10125*
1,1,0.27070,0.37125,-0.10125*
1,1,0.27070,-0.37125,-0.10125*
%
%ADD78ROUNDEDRECTD78*%
%ADD79R,3.90320X3.90320*%
%TA.AperFunction,ComponentPad*%
%ADD80C,2.00320*%
%ADD81R,2.00320X2.00320*%
%TA.AperFunction,ViaPad*%
%ADD82C,0.70320*%
%ADD83C,0.91440*%
%ADD84C,1.47320*%
D18*
X3810244Y1079500D02*
D03*
X3885956D02*
D03*
Y1206500D02*
D03*
X3810244D02*
D03*
D23*
X4038015Y2209800D02*
D03*
X3937585D02*
D03*
X367715Y1993900D02*
D03*
X267285D02*
D03*
X380415Y685800D02*
D03*
X279985D02*
D03*
D24*
X3911600Y2539415D02*
D03*
Y2438985D02*
D03*
X3848100Y1625015D02*
D03*
Y1524585D02*
D03*
X3263900Y1904415D02*
D03*
Y1803985D02*
D03*
D26*
X3136900Y2511300D02*
D03*
Y2416300D02*
D03*
D31*
X2946400Y1654300D02*
D03*
Y1749300D02*
D03*
X1511300Y2371600D02*
D03*
Y2276600D02*
D03*
X4114800Y1279400D02*
D03*
Y1184400D02*
D03*
D32*
X3463900Y374000D02*
D03*
X3063900D02*
D03*
Y134000D02*
D03*
X3463900D02*
D03*
D35*
X2590800Y2477888D02*
D03*
Y2322711D02*
D03*
D36*
X927100Y1185500D02*
D03*
Y1100500D02*
D03*
Y1354500D02*
D03*
Y1439500D02*
D03*
Y1672000D02*
D03*
Y1757000D02*
D03*
D37*
X587600Y1000800D02*
D03*
Y1640800D02*
D03*
Y1080800D02*
D03*
Y1560800D02*
D03*
D38*
Y1145800D02*
D03*
Y1195800D02*
D03*
Y1245800D02*
D03*
Y1295800D02*
D03*
Y1345800D02*
D03*
Y1395800D02*
D03*
Y1445800D02*
D03*
Y1495800D02*
D03*
D39*
X2002329Y2469900D02*
D03*
Y2374900D02*
D03*
Y2279900D02*
D03*
X1782271D02*
D03*
Y2374900D02*
D03*
D40*
Y2469900D02*
D03*
D44*
X1869015Y2082800D02*
D03*
X1788585D02*
D03*
X2237315Y2184400D02*
D03*
X2156885D02*
D03*
D45*
X1880055Y1905000D02*
D03*
X1777545D02*
D03*
D46*
X2565400Y2070100D02*
D03*
Y2145813D02*
D03*
X2730500Y2070344D02*
D03*
Y2146056D02*
D03*
D47*
X2252100Y2032000D02*
D03*
X2142100D02*
D03*
D48*
X3603500Y774700D02*
D03*
X3508500D02*
D03*
D53*
X480100Y1031800D02*
D03*
Y1609800D02*
D03*
D54*
X530100Y888800D02*
D03*
Y1752800D02*
D03*
D55*
X112100Y888800D02*
D03*
Y1752800D02*
D03*
D60*
X4191000Y1066800D02*
D03*
X4318000Y965200D02*
D03*
X4191000Y774700D02*
D03*
X4318000Y508000D02*
D03*
X4356100Y673100D02*
D03*
X2946400Y2425700D02*
D03*
X2950166Y1286466D02*
D03*
X3192796Y1259393D02*
D03*
X3209902Y1373625D02*
D03*
X3197202Y1119625D02*
D03*
X4076700Y2425700D02*
D03*
X3721100Y2540000D02*
D03*
X3695700Y2070100D02*
D03*
X3657600Y1701800D02*
D03*
X3937000Y2070100D02*
D03*
X3644900Y1333500D02*
D03*
X3632200Y1511300D02*
D03*
X3403600Y1816100D02*
D03*
X1651000Y1905000D02*
D03*
X4318000Y2451100D02*
D03*
Y88900D02*
D03*
Y228600D02*
D03*
Y368300D02*
D03*
Y2298700D02*
D03*
Y2171700D02*
D03*
Y2044700D02*
D03*
Y1905000D02*
D03*
Y1752600D02*
D03*
Y1600200D02*
D03*
Y1447800D02*
D03*
Y1295400D02*
D03*
X4051300Y863600D02*
D03*
X3324202Y1119625D02*
D03*
X3451202Y1132325D02*
D03*
Y1259325D02*
D03*
Y1373625D02*
D03*
X3324202D02*
D03*
X4318000Y1130300D02*
D03*
X1079500Y1498600D02*
D03*
X1041400Y1003300D02*
D03*
X927100Y1943100D02*
D03*
X2578100Y1866900D02*
D03*
X3848100Y1384300D02*
D03*
X3797300Y673100D02*
D03*
X2768600Y1866900D02*
D03*
X1879600Y2425700D02*
D03*
X1409700Y2489200D02*
D03*
X177800Y2197100D02*
D03*
Y469900D02*
D03*
X1905000Y1155700D02*
D03*
X2933700Y609600D02*
D03*
X3263900Y1663700D02*
D03*
X1117600Y444500D02*
D03*
Y2247900D02*
D03*
X2039800Y1773100D02*
D03*
X3276600Y533400D02*
D03*
X2857500Y457200D02*
D03*
Y292100D02*
D03*
Y114300D02*
D03*
X3683000Y482600D02*
D03*
Y304800D02*
D03*
Y127000D02*
D03*
X3111500Y533400D02*
D03*
D66*
X1887400Y1651000D02*
D03*
Y1524000D02*
D03*
Y1397000D02*
D03*
Y1270000D02*
D03*
X2608400D02*
D03*
Y1397000D02*
D03*
Y1524000D02*
D03*
Y1651000D02*
D03*
D67*
X3479800Y2311400D02*
D03*
D68*
X3354800Y2111400D02*
D03*
X3404800D02*
D03*
X3454800D02*
D03*
X3504800D02*
D03*
X3554800D02*
D03*
X3604800D02*
D03*
X3354800Y2511400D02*
D03*
X3404800D02*
D03*
X3454800D02*
D03*
X3504800D02*
D03*
X3554800D02*
D03*
X3604800D02*
D03*
D69*
X3677300Y2186400D02*
D03*
Y2236400D02*
D03*
Y2286400D02*
D03*
Y2336400D02*
D03*
Y2386400D02*
D03*
Y2436400D02*
D03*
X3282300Y2186400D02*
D03*
Y2236400D02*
D03*
Y2286400D02*
D03*
Y2336400D02*
D03*
Y2386400D02*
D03*
Y2436400D02*
D03*
D70*
X3797300Y2094600D02*
D03*
Y2172600D02*
D03*
X3987800Y1192900D02*
D03*
Y1270900D02*
D03*
X2794000Y1650100D02*
D03*
Y1728100D02*
D03*
X3124200Y1662800D02*
D03*
Y1740800D02*
D03*
X2247900Y2424800D02*
D03*
Y2502800D02*
D03*
X3403600Y1740800D02*
D03*
Y1662800D02*
D03*
X3708400Y1270900D02*
D03*
Y1192900D02*
D03*
D71*
X3047100Y2286000D02*
D03*
X3125100D02*
D03*
X3047100Y2120900D02*
D03*
X3125100D02*
D03*
X3582300Y901700D02*
D03*
X3504300D02*
D03*
D72*
X3708400Y1072700D02*
D03*
Y984700D02*
D03*
X4013200D02*
D03*
Y1072700D02*
D03*
D73*
X1119900Y2425700D02*
D03*
X1107200Y228600D02*
D03*
D74*
X200900Y2425700D02*
D03*
X188200Y228600D02*
D03*
D75*
X3390900Y623100D02*
D03*
Y723100D02*
D03*
D76*
X3402700Y520700D02*
D03*
X3480700D02*
D03*
X3085200Y736600D02*
D03*
X3163200D02*
D03*
D77*
X3502400Y1502300D02*
D03*
X3452400D02*
D03*
X3402400D02*
D03*
X3352400D02*
D03*
X3302400D02*
D03*
X3252400D02*
D03*
X3202400D02*
D03*
X3152400D02*
D03*
Y1012300D02*
D03*
X3202400D02*
D03*
X3252400D02*
D03*
X3302400D02*
D03*
X3352400D02*
D03*
X3402400D02*
D03*
X3452400D02*
D03*
X3502400D02*
D03*
D78*
X3572400Y1082300D02*
D03*
Y1132300D02*
D03*
Y1182300D02*
D03*
Y1232300D02*
D03*
Y1282300D02*
D03*
Y1332300D02*
D03*
Y1382300D02*
D03*
Y1432300D02*
D03*
X3082400D02*
D03*
Y1382300D02*
D03*
Y1332300D02*
D03*
Y1282300D02*
D03*
Y1232300D02*
D03*
Y1182300D02*
D03*
Y1132300D02*
D03*
Y1082300D02*
D03*
D79*
X3327400Y1257300D02*
D03*
D80*
X2197100Y419100D02*
D03*
D81*
X1689100D02*
D03*
D82*
X3534800Y2366400D02*
D03*
Y2256400D02*
D03*
X3424800D02*
D03*
Y2366400D02*
D03*
D83*
X1422400Y2057400D02*
D03*
X4191000Y1447800D02*
D03*
X3530600Y635000D02*
D03*
X876300Y889000D02*
D03*
D84*
X3327400Y1257300D02*
D03*
%TF.MD5,1da0502d4bb7d89c6e4775cfb2933761*%
M02*
