%TF.GenerationSoftware,Altium Limited,Altium Designer,23.10.1 (27)*%
G04 Layer_Color=2752767*
%FSLAX45Y45*%
%MOMM*%
%TF.SameCoordinates,2CED323B-BA49-4281-A081-A7916B394634*%
%TF.FilePolarity,Positive*%
%TF.FileFunction,Drawing*%
%TF.Part,Single*%
G01*
G75*
%TA.AperFunction,NonConductor*%
%ADD64C,0.12700*%
%ADD95C,0.16933*%
D64*
X530100Y838000D02*
X479300Y939600D01*
X580900D01*
X530100Y838000D01*
Y1702000D02*
X479300Y1803600D01*
X580900D01*
X530100Y1702000D01*
X112100Y838000D02*
X137500Y863400D01*
X162900D01*
X137500Y888800D01*
X162900Y914200D01*
X137500D01*
X112100Y939600D01*
X86700Y914200D01*
X61300D01*
X86700Y888800D01*
X61300Y863400D01*
X86700D01*
X112100Y838000D01*
Y1702000D02*
X137500Y1727400D01*
X162900D01*
X137500Y1752800D01*
X162900Y1778200D01*
X137500D01*
X112100Y1803600D01*
X86700Y1778200D01*
X61300D01*
X86700Y1752800D01*
X61300Y1727400D01*
X86700D01*
X112100Y1702000D01*
X2146300Y368300D02*
Y469900D01*
X2247900D01*
Y368300D01*
X2146300D01*
X1638300D02*
Y469900D01*
X1739900D01*
Y368300D01*
X1638300D01*
X4140200Y1016000D02*
X4165600Y1066800D01*
X4140200Y1117600D01*
X4191000Y1092200D01*
X4241800Y1117600D01*
X4216400Y1066800D01*
X4241800Y1016000D01*
X4191000Y1041400D01*
X4140200Y1016000D01*
X4267200Y914400D02*
X4292600Y965200D01*
X4267200Y1016000D01*
X4318000Y990600D01*
X4368800Y1016000D01*
X4343400Y965200D01*
X4368800Y914400D01*
X4318000Y939800D01*
X4267200Y914400D01*
X4140200Y723900D02*
X4165600Y774700D01*
X4140200Y825500D01*
X4191000Y800100D01*
X4241800Y825500D01*
X4216400Y774700D01*
X4241800Y723900D01*
X4191000Y749300D01*
X4140200Y723900D01*
X4267200Y457200D02*
X4292600Y508000D01*
X4267200Y558800D01*
X4318000Y533400D01*
X4368800Y558800D01*
X4343400Y508000D01*
X4368800Y457200D01*
X4318000Y482600D01*
X4267200Y457200D01*
X4305300Y622300D02*
X4330700Y673100D01*
X4305300Y723900D01*
X4356100Y698500D01*
X4406900Y723900D01*
X4381500Y673100D01*
X4406900Y622300D01*
X4356100Y647700D01*
X4305300Y622300D01*
X2895600Y2374900D02*
X2921000Y2425700D01*
X2895600Y2476500D01*
X2946400Y2451100D01*
X2997200Y2476500D01*
X2971800Y2425700D01*
X2997200Y2374900D01*
X2946400Y2400300D01*
X2895600Y2374900D01*
X2899366Y1235666D02*
X2924766Y1286466D01*
X2899366Y1337266D01*
X2950166Y1311866D01*
X3000966Y1337266D01*
X2975566Y1286466D01*
X3000966Y1235666D01*
X2950166Y1261066D01*
X2899366Y1235666D01*
X3141996Y1208593D02*
X3167396Y1259393D01*
X3141996Y1310193D01*
X3192796Y1284793D01*
X3243596Y1310193D01*
X3218196Y1259393D01*
X3243596Y1208593D01*
X3192796Y1233993D01*
X3141996Y1208593D01*
X3159102Y1322825D02*
X3184502Y1373625D01*
X3159102Y1424425D01*
X3209902Y1399025D01*
X3260702Y1424425D01*
X3235302Y1373625D01*
X3260702Y1322825D01*
X3209902Y1348225D01*
X3159102Y1322825D01*
X3146402Y1068825D02*
X3171802Y1119625D01*
X3146402Y1170425D01*
X3197202Y1145025D01*
X3248002Y1170425D01*
X3222602Y1119625D01*
X3248002Y1068825D01*
X3197202Y1094225D01*
X3146402Y1068825D01*
X4025900Y2374900D02*
X4051300Y2425700D01*
X4025900Y2476500D01*
X4076700Y2451100D01*
X4127500Y2476500D01*
X4102100Y2425700D01*
X4127500Y2374900D01*
X4076700Y2400300D01*
X4025900Y2374900D01*
X3670300Y2489200D02*
X3695700Y2540000D01*
X3670300Y2590800D01*
X3721100Y2565400D01*
X3771900Y2590800D01*
X3746500Y2540000D01*
X3771900Y2489200D01*
X3721100Y2514600D01*
X3670300Y2489200D01*
X3484000Y2366400D02*
X3534800Y2417200D01*
X3585600Y2366400D01*
X3534800Y2315600D01*
X3484000Y2366400D01*
Y2256400D02*
X3534800Y2307200D01*
X3585600Y2256400D01*
X3534800Y2205600D01*
X3484000Y2256400D01*
X3374000D02*
X3424800Y2307200D01*
X3475600Y2256400D01*
X3424800Y2205600D01*
X3374000Y2256400D01*
Y2366400D02*
X3424800Y2417200D01*
X3475600Y2366400D01*
X3424800Y2315600D01*
X3374000Y2366400D01*
X3644900Y2019300D02*
X3670300Y2070100D01*
X3644900Y2120900D01*
X3695700Y2095500D01*
X3746500Y2120900D01*
X3721100Y2070100D01*
X3746500Y2019300D01*
X3695700Y2044700D01*
X3644900Y2019300D01*
X3606800Y1651000D02*
X3632200Y1701800D01*
X3606800Y1752600D01*
X3657600Y1727200D01*
X3708400Y1752600D01*
X3683000Y1701800D01*
X3708400Y1651000D01*
X3657600Y1676400D01*
X3606800Y1651000D01*
X3886200Y2019300D02*
X3911600Y2070100D01*
X3886200Y2120900D01*
X3937000Y2095500D01*
X3987800Y2120900D01*
X3962400Y2070100D01*
X3987800Y2019300D01*
X3937000Y2044700D01*
X3886200Y2019300D01*
X3594100Y1282700D02*
X3619500Y1333500D01*
X3594100Y1384300D01*
X3644900Y1358900D01*
X3695700Y1384300D01*
X3670300Y1333500D01*
X3695700Y1282700D01*
X3644900Y1308100D01*
X3594100Y1282700D01*
X3581400Y1460500D02*
X3606800Y1511300D01*
X3581400Y1562100D01*
X3632200Y1536700D01*
X3683000Y1562100D01*
X3657600Y1511300D01*
X3683000Y1460500D01*
X3632200Y1485900D01*
X3581400Y1460500D01*
X3352800Y1765300D02*
X3378200Y1816100D01*
X3352800Y1866900D01*
X3403600Y1841500D01*
X3454400Y1866900D01*
X3429000Y1816100D01*
X3454400Y1765300D01*
X3403600Y1790700D01*
X3352800Y1765300D01*
X1397000Y2032000D02*
Y2006600D01*
X1447800D01*
Y2032000D01*
X1473200D01*
Y2082800D01*
X1447800D01*
Y2108200D01*
X1397000D01*
Y2082800D01*
X1371600D01*
Y2032000D01*
X1397000D01*
X1600200Y1854200D02*
X1625600Y1905000D01*
X1600200Y1955800D01*
X1651000Y1930400D01*
X1701800Y1955800D01*
X1676400Y1905000D01*
X1701800Y1854200D01*
X1651000Y1879600D01*
X1600200Y1854200D01*
X4267200Y2400300D02*
X4292600Y2451100D01*
X4267200Y2501900D01*
X4318000Y2476500D01*
X4368800Y2501900D01*
X4343400Y2451100D01*
X4368800Y2400300D01*
X4318000Y2425700D01*
X4267200Y2400300D01*
Y38100D02*
X4292600Y88900D01*
X4267200Y139700D01*
X4318000Y114300D01*
X4368800Y139700D01*
X4343400Y88900D01*
X4368800Y38100D01*
X4318000Y63500D01*
X4267200Y38100D01*
Y177800D02*
X4292600Y228600D01*
X4267200Y279400D01*
X4318000Y254000D01*
X4368800Y279400D01*
X4343400Y228600D01*
X4368800Y177800D01*
X4318000Y203200D01*
X4267200Y177800D01*
Y317500D02*
X4292600Y368300D01*
X4267200Y419100D01*
X4318000Y393700D01*
X4368800Y419100D01*
X4343400Y368300D01*
X4368800Y317500D01*
X4318000Y342900D01*
X4267200Y317500D01*
Y2247900D02*
X4292600Y2298700D01*
X4267200Y2349500D01*
X4318000Y2324100D01*
X4368800Y2349500D01*
X4343400Y2298700D01*
X4368800Y2247900D01*
X4318000Y2273300D01*
X4267200Y2247900D01*
Y2120900D02*
X4292600Y2171700D01*
X4267200Y2222500D01*
X4318000Y2197100D01*
X4368800Y2222500D01*
X4343400Y2171700D01*
X4368800Y2120900D01*
X4318000Y2146300D01*
X4267200Y2120900D01*
Y1993900D02*
X4292600Y2044700D01*
X4267200Y2095500D01*
X4318000Y2070100D01*
X4368800Y2095500D01*
X4343400Y2044700D01*
X4368800Y1993900D01*
X4318000Y2019300D01*
X4267200Y1993900D01*
Y1854200D02*
X4292600Y1905000D01*
X4267200Y1955800D01*
X4318000Y1930400D01*
X4368800Y1955800D01*
X4343400Y1905000D01*
X4368800Y1854200D01*
X4318000Y1879600D01*
X4267200Y1854200D01*
Y1701800D02*
X4292600Y1752600D01*
X4267200Y1803400D01*
X4318000Y1778000D01*
X4368800Y1803400D01*
X4343400Y1752600D01*
X4368800Y1701800D01*
X4318000Y1727200D01*
X4267200Y1701800D01*
Y1549400D02*
X4292600Y1600200D01*
X4267200Y1651000D01*
X4318000Y1625600D01*
X4368800Y1651000D01*
X4343400Y1600200D01*
X4368800Y1549400D01*
X4318000Y1574800D01*
X4267200Y1549400D01*
Y1397000D02*
X4292600Y1447800D01*
X4267200Y1498600D01*
X4318000Y1473200D01*
X4368800Y1498600D01*
X4343400Y1447800D01*
X4368800Y1397000D01*
X4318000Y1422400D01*
X4267200Y1397000D01*
Y1244600D02*
X4292600Y1295400D01*
X4267200Y1346200D01*
X4318000Y1320800D01*
X4368800Y1346200D01*
X4343400Y1295400D01*
X4368800Y1244600D01*
X4318000Y1270000D01*
X4267200Y1244600D01*
X4000500Y812800D02*
X4025900Y863600D01*
X4000500Y914400D01*
X4051300Y889000D01*
X4102100Y914400D01*
X4076700Y863600D01*
X4102100Y812800D01*
X4051300Y838200D01*
X4000500Y812800D01*
X3276600Y1206500D02*
X3302000D01*
X3327400Y1231900D01*
X3352800Y1206500D01*
X3378200D01*
Y1231900D01*
X3352800Y1257300D01*
X3378200Y1282700D01*
Y1308100D01*
X3352800D01*
X3327400Y1282700D01*
X3302000Y1308100D01*
X3276600D01*
Y1282700D01*
X3302000Y1257300D01*
X3276600Y1231900D01*
Y1206500D01*
X3273402Y1068825D02*
X3298802Y1119625D01*
X3273402Y1170425D01*
X3324202Y1145025D01*
X3375002Y1170425D01*
X3349602Y1119625D01*
X3375002Y1068825D01*
X3324202Y1094225D01*
X3273402Y1068825D01*
X3400402Y1081525D02*
X3425802Y1132325D01*
X3400402Y1183125D01*
X3451202Y1157725D01*
X3502002Y1183125D01*
X3476602Y1132325D01*
X3502002Y1081525D01*
X3451202Y1106925D01*
X3400402Y1081525D01*
Y1208525D02*
X3425802Y1259325D01*
X3400402Y1310125D01*
X3451202Y1284725D01*
X3502002Y1310125D01*
X3476602Y1259325D01*
X3502002Y1208525D01*
X3451202Y1233925D01*
X3400402Y1208525D01*
Y1322825D02*
X3425802Y1373625D01*
X3400402Y1424425D01*
X3451202Y1399025D01*
X3502002Y1424425D01*
X3476602Y1373625D01*
X3502002Y1322825D01*
X3451202Y1348225D01*
X3400402Y1322825D01*
X3273402D02*
X3298802Y1373625D01*
X3273402Y1424425D01*
X3324202Y1399025D01*
X3375002Y1424425D01*
X3349602Y1373625D01*
X3375002Y1322825D01*
X3324202Y1348225D01*
X3273402Y1322825D01*
X4267200Y1079500D02*
X4292600Y1130300D01*
X4267200Y1181100D01*
X4318000Y1155700D01*
X4368800Y1181100D01*
X4343400Y1130300D01*
X4368800Y1079500D01*
X4318000Y1104900D01*
X4267200Y1079500D01*
X1028700Y1447800D02*
X1054100Y1498600D01*
X1028700Y1549400D01*
X1079500Y1524000D01*
X1130300Y1549400D01*
X1104900Y1498600D01*
X1130300Y1447800D01*
X1079500Y1473200D01*
X1028700Y1447800D01*
X990600Y952500D02*
X1016000Y1003300D01*
X990600Y1054100D01*
X1041400Y1028700D01*
X1092200Y1054100D01*
X1066800Y1003300D01*
X1092200Y952500D01*
X1041400Y977900D01*
X990600Y952500D01*
X876300Y1892300D02*
X901700Y1943100D01*
X876300Y1993900D01*
X927100Y1968500D01*
X977900Y1993900D01*
X952500Y1943100D01*
X977900Y1892300D01*
X927100Y1917700D01*
X876300Y1892300D01*
X2527300Y1816100D02*
X2552700Y1866900D01*
X2527300Y1917700D01*
X2578100Y1892300D01*
X2628900Y1917700D01*
X2603500Y1866900D01*
X2628900Y1816100D01*
X2578100Y1841500D01*
X2527300Y1816100D01*
X3797300Y1333500D02*
X3822700Y1384300D01*
X3797300Y1435100D01*
X3848100Y1409700D01*
X3898900Y1435100D01*
X3873500Y1384300D01*
X3898900Y1333500D01*
X3848100Y1358900D01*
X3797300Y1333500D01*
X3746500Y622300D02*
X3771900Y673100D01*
X3746500Y723900D01*
X3797300Y698500D01*
X3848100Y723900D01*
X3822700Y673100D01*
X3848100Y622300D01*
X3797300Y647700D01*
X3746500Y622300D01*
X2717800Y1816100D02*
X2743200Y1866900D01*
X2717800Y1917700D01*
X2768600Y1892300D01*
X2819400Y1917700D01*
X2794000Y1866900D01*
X2819400Y1816100D01*
X2768600Y1841500D01*
X2717800Y1816100D01*
X1828800Y2374900D02*
X1854200Y2425700D01*
X1828800Y2476500D01*
X1879600Y2451100D01*
X1930400Y2476500D01*
X1905000Y2425700D01*
X1930400Y2374900D01*
X1879600Y2400300D01*
X1828800Y2374900D01*
X1358900Y2438400D02*
X1384300Y2489200D01*
X1358900Y2540000D01*
X1409700Y2514600D01*
X1460500Y2540000D01*
X1435100Y2489200D01*
X1460500Y2438400D01*
X1409700Y2463800D01*
X1358900Y2438400D01*
X127000Y2146300D02*
X152400Y2197100D01*
X127000Y2247900D01*
X177800Y2222500D01*
X228600Y2247900D01*
X203200Y2197100D01*
X228600Y2146300D01*
X177800Y2171700D01*
X127000Y2146300D01*
Y419100D02*
X152400Y469900D01*
X127000Y520700D01*
X177800Y495300D01*
X228600Y520700D01*
X203200Y469900D01*
X228600Y419100D01*
X177800Y444500D01*
X127000Y419100D01*
X1854200Y1104900D02*
X1879600Y1155700D01*
X1854200Y1206500D01*
X1905000Y1181100D01*
X1955800Y1206500D01*
X1930400Y1155700D01*
X1955800Y1104900D01*
X1905000Y1130300D01*
X1854200Y1104900D01*
X4165600Y1422400D02*
Y1397000D01*
X4216400D01*
Y1422400D01*
X4241800D01*
Y1473200D01*
X4216400D01*
Y1498600D01*
X4165600D01*
Y1473200D01*
X4140200D01*
Y1422400D01*
X4165600D01*
X3505200Y609600D02*
Y584200D01*
X3556000D01*
Y609600D01*
X3581400D01*
Y660400D01*
X3556000D01*
Y685800D01*
X3505200D01*
Y660400D01*
X3479800D01*
Y609600D01*
X3505200D01*
X2882900Y558800D02*
X2908300Y609600D01*
X2882900Y660400D01*
X2933700Y635000D01*
X2984500Y660400D01*
X2959100Y609600D01*
X2984500Y558800D01*
X2933700Y584200D01*
X2882900Y558800D01*
X3213100Y1612900D02*
X3238500Y1663700D01*
X3213100Y1714500D01*
X3263900Y1689100D01*
X3314700Y1714500D01*
X3289300Y1663700D01*
X3314700Y1612900D01*
X3263900Y1638300D01*
X3213100Y1612900D01*
X1066800Y393700D02*
X1092200Y444500D01*
X1066800Y495300D01*
X1117600Y469900D01*
X1168400Y495300D01*
X1143000Y444500D01*
X1168400Y393700D01*
X1117600Y419100D01*
X1066800Y393700D01*
Y2197100D02*
X1092200Y2247900D01*
X1066800Y2298700D01*
X1117600Y2273300D01*
X1168400Y2298700D01*
X1143000Y2247900D01*
X1168400Y2197100D01*
X1117600Y2222500D01*
X1066800Y2197100D01*
X850900Y863600D02*
Y838200D01*
X901700D01*
Y863600D01*
X927100D01*
Y914400D01*
X901700D01*
Y939800D01*
X850900D01*
Y914400D01*
X825500D01*
Y863600D01*
X850900D01*
X1989000Y1722300D02*
X2014400Y1773100D01*
X1989000Y1823900D01*
X2039800Y1798500D01*
X2090600Y1823900D01*
X2065200Y1773100D01*
X2090600Y1722300D01*
X2039800Y1747700D01*
X1989000Y1722300D01*
X3225800Y482600D02*
X3251200Y533400D01*
X3225800Y584200D01*
X3276600Y558800D01*
X3327400Y584200D01*
X3302000Y533400D01*
X3327400Y482600D01*
X3276600Y508000D01*
X3225800Y482600D01*
X2806700Y406400D02*
X2832100Y457200D01*
X2806700Y508000D01*
X2857500Y482600D01*
X2908300Y508000D01*
X2882900Y457200D01*
X2908300Y406400D01*
X2857500Y431800D01*
X2806700Y406400D01*
Y241300D02*
X2832100Y292100D01*
X2806700Y342900D01*
X2857500Y317500D01*
X2908300Y342900D01*
X2882900Y292100D01*
X2908300Y241300D01*
X2857500Y266700D01*
X2806700Y241300D01*
Y63500D02*
X2832100Y114300D01*
X2806700Y165100D01*
X2857500Y139700D01*
X2908300Y165100D01*
X2882900Y114300D01*
X2908300Y63500D01*
X2857500Y88900D01*
X2806700Y63500D01*
X3632200Y431800D02*
X3657600Y482600D01*
X3632200Y533400D01*
X3683000Y508000D01*
X3733800Y533400D01*
X3708400Y482600D01*
X3733800Y431800D01*
X3683000Y457200D01*
X3632200Y431800D01*
Y254000D02*
X3657600Y304800D01*
X3632200Y355600D01*
X3683000Y330200D01*
X3733800Y355600D01*
X3708400Y304800D01*
X3733800Y254000D01*
X3683000Y279400D01*
X3632200Y254000D01*
Y76200D02*
X3657600Y127000D01*
X3632200Y177800D01*
X3683000Y152400D01*
X3733800Y177800D01*
X3708400Y127000D01*
X3733800Y76200D01*
X3683000Y101600D01*
X3632200Y76200D01*
X3060700Y482600D02*
X3086100Y533400D01*
X3060700Y584200D01*
X3111500Y558800D01*
X3162300Y584200D01*
X3136900Y533400D01*
X3162300Y482600D01*
X3111500Y508000D01*
X3060700Y482600D01*
D95*
X530900Y1031800D02*
G03*
X530900Y1031800I-50800J0D01*
G01*
Y1609800D02*
G03*
X530900Y1609800I-50800J0D01*
G01*
%TF.MD5,e2ada4525a309f27f5bd018aa608b1c3*%
M02*
