%TF.GenerationSoftware,Altium Limited,Altium Designer,23.10.1 (27)*%
G04 Layer_Physical_Order=2*
G04 Layer_Color=36540*
%FSLAX45Y45*%
%MOMM*%
%TF.SameCoordinates,42AF00E3-6381-46FF-AB9D-67395AE948A0*%
%TF.FilePolarity,Positive*%
%TF.FileFunction,Copper,L2,Inr,Signal*%
%TF.Part,Single*%
G01*
G75*
%TA.AperFunction,ComponentPad*%
%ADD56C,2.99000*%
%ADD57C,3.60600*%
%ADD58R,3.60600X3.60600*%
G04:AMPARAMS|DCode=59|XSize=1mm|YSize=1.8mm|CornerRadius=0.5mm|HoleSize=0mm|Usage=FLASHONLY|Rotation=270.000|XOffset=0mm|YOffset=0mm|HoleType=Round|Shape=RoundedRectangle|*
%AMROUNDEDRECTD59*
21,1,1.00000,0.80000,0,0,270.0*
21,1,0.00000,1.80000,0,0,270.0*
1,1,1.00000,-0.40000,0.00000*
1,1,1.00000,-0.40000,0.00000*
1,1,1.00000,0.40000,0.00000*
1,1,1.00000,0.40000,0.00000*
%
%ADD59ROUNDEDRECTD59*%
G04:AMPARAMS|DCode=60|XSize=1mm|YSize=2.1mm|CornerRadius=0.5mm|HoleSize=0mm|Usage=FLASHONLY|Rotation=270.000|XOffset=0mm|YOffset=0mm|HoleType=Round|Shape=RoundedRectangle|*
%AMROUNDEDRECTD60*
21,1,1.00000,1.10000,0,0,270.0*
21,1,0.00000,2.10000,0,0,270.0*
1,1,1.00000,-0.55000,0.00000*
1,1,1.00000,-0.55000,0.00000*
1,1,1.00000,0.55000,0.00000*
1,1,1.00000,0.55000,0.00000*
%
%ADD60ROUNDEDRECTD60*%
%ADD61C,0.65000*%
%TA.AperFunction,ViaPad*%
%ADD62C,0.71120*%
%ADD63C,0.50800*%
%ADD64C,4.06400*%
%ADD65C,1.27000*%
%ADD66C,0.50000*%
G36*
X6603999Y2831710D02*
X6591690Y2819400D01*
X6070600D01*
Y1142536D01*
X6057900Y1136664D01*
X6045200Y1141925D01*
Y1092200D01*
Y1042475D01*
X6057900Y1047736D01*
X6070600Y1041864D01*
Y953403D01*
X6057900Y948142D01*
X6048576Y957466D01*
X6032500Y964125D01*
Y914400D01*
Y864675D01*
X6048576Y871334D01*
X6057900Y880658D01*
X6070600Y875397D01*
Y839103D01*
X6057900Y833842D01*
X6048576Y843166D01*
X6032500Y849825D01*
Y800100D01*
Y750375D01*
X6048576Y757034D01*
X6057900Y766358D01*
X6070600Y761097D01*
Y723900D01*
X6074241Y720259D01*
X6604000D01*
Y-22186D01*
X6594998Y-31145D01*
X-3Y-1D01*
Y6604000D01*
X6603999D01*
X6603999Y2831710D01*
D02*
G37*
%LPC*%
G36*
X6304137Y6553200D02*
X6294322D01*
Y6337300D01*
X6510222D01*
Y6347115D01*
X6501437Y6391280D01*
X6484205Y6432883D01*
X6459187Y6470324D01*
X6427346Y6502165D01*
X6389905Y6527183D01*
X6348302Y6544415D01*
X6304137Y6553200D01*
D02*
G37*
G36*
X6268922D02*
X6259107D01*
X6214942Y6544415D01*
X6173339Y6527183D01*
X6135898Y6502165D01*
X6104057Y6470324D01*
X6079039Y6432883D01*
X6061807Y6391280D01*
X6053022Y6347115D01*
Y6337300D01*
X6268922D01*
Y6553200D01*
D02*
G37*
G36*
X2994315D02*
X2984500D01*
Y6337300D01*
X3200400D01*
Y6347115D01*
X3191615Y6391280D01*
X3174383Y6432883D01*
X3149365Y6470324D01*
X3117524Y6502165D01*
X3080083Y6527183D01*
X3038480Y6544415D01*
X2994315Y6553200D01*
D02*
G37*
G36*
X2959100D02*
X2949285D01*
X2905120Y6544415D01*
X2863517Y6527183D01*
X2826076Y6502165D01*
X2794235Y6470324D01*
X2769217Y6432883D01*
X2751985Y6391280D01*
X2743200Y6347115D01*
Y6337300D01*
X2959100D01*
Y6553200D01*
D02*
G37*
G36*
X6510222Y6311900D02*
X6294322D01*
Y6096000D01*
X6304137D01*
X6348302Y6104785D01*
X6389905Y6122017D01*
X6427346Y6147035D01*
X6459187Y6178876D01*
X6484205Y6216317D01*
X6501437Y6257920D01*
X6510222Y6302085D01*
Y6311900D01*
D02*
G37*
G36*
X6268922D02*
X6053022D01*
Y6302085D01*
X6061807Y6257920D01*
X6079039Y6216317D01*
X6104057Y6178876D01*
X6135898Y6147035D01*
X6173339Y6122017D01*
X6214942Y6104785D01*
X6259107Y6096000D01*
X6268922D01*
Y6311900D01*
D02*
G37*
G36*
X3200400D02*
X2984500D01*
Y6096000D01*
X2994315D01*
X3038480Y6104785D01*
X3080083Y6122017D01*
X3117524Y6147035D01*
X3149365Y6178876D01*
X3174383Y6216317D01*
X3191615Y6257920D01*
X3200400Y6302085D01*
Y6311900D01*
D02*
G37*
G36*
X2959100D02*
X2743200D01*
Y6302085D01*
X2751985Y6257920D01*
X2769217Y6216317D01*
X2794235Y6178876D01*
X2826076Y6147035D01*
X2863517Y6122017D01*
X2905120Y6104785D01*
X2949285Y6096000D01*
X2959100D01*
Y6311900D01*
D02*
G37*
G36*
X4089400Y5315145D02*
Y5278120D01*
X4126425D01*
X4119766Y5294196D01*
X4105476Y5308486D01*
X4089400Y5315145D01*
D02*
G37*
G36*
X4064000D02*
X4047924Y5308486D01*
X4033634Y5294196D01*
X4026975Y5278120D01*
X4064000D01*
Y5315145D01*
D02*
G37*
G36*
X5597599Y5369560D02*
X5578401D01*
X5560663Y5362213D01*
X5547087Y5348637D01*
X5539740Y5330899D01*
Y5311701D01*
X5547087Y5293963D01*
X5555205Y5285845D01*
X5553476Y5271436D01*
X5553273Y5271184D01*
X5536321Y5254231D01*
X5527278Y5232400D01*
X5648722D01*
X5639679Y5254231D01*
X5622727Y5271184D01*
X5622524Y5271436D01*
X5620795Y5285845D01*
X5628913Y5293963D01*
X5636260Y5311701D01*
Y5330899D01*
X5628913Y5348637D01*
X5615337Y5362213D01*
X5597599Y5369560D01*
D02*
G37*
G36*
X4126425Y5252720D02*
X4089400D01*
Y5215695D01*
X4105476Y5222354D01*
X4119766Y5236644D01*
X4126425Y5252720D01*
D02*
G37*
G36*
X4064000D02*
X4026975D01*
X4033634Y5236644D01*
X4047924Y5222354D01*
X4064000Y5215695D01*
Y5252720D01*
D02*
G37*
G36*
X5648722Y5207000D02*
X5600700D01*
Y5158978D01*
X5622531Y5168021D01*
X5639679Y5185169D01*
X5648722Y5207000D01*
D02*
G37*
G36*
X5575300D02*
X5527278D01*
X5536321Y5185169D01*
X5553469Y5168021D01*
X5575300Y5158978D01*
Y5207000D01*
D02*
G37*
G36*
X4584700Y5117025D02*
Y5080000D01*
X4621725D01*
X4615066Y5096076D01*
X4600776Y5110366D01*
X4584700Y5117025D01*
D02*
G37*
G36*
X4559300D02*
X4543224Y5110366D01*
X4528934Y5096076D01*
X4522275Y5080000D01*
X4559300D01*
Y5117025D01*
D02*
G37*
G36*
X4621725Y5054600D02*
X4584700D01*
Y5017575D01*
X4600776Y5024234D01*
X4615066Y5038524D01*
X4621725Y5054600D01*
D02*
G37*
G36*
X4559300D02*
X4522275D01*
X4528934Y5038524D01*
X4543224Y5024234D01*
X4559300Y5017575D01*
Y5054600D01*
D02*
G37*
G36*
X2442175Y5084500D02*
X2410225D01*
X2378888Y5078267D01*
X2349370Y5066040D01*
X2322804Y5048289D01*
X2300211Y5025696D01*
X2282461Y4999130D01*
X2270233Y4969612D01*
X2264000Y4938275D01*
Y4906325D01*
X2270233Y4874988D01*
X2282461Y4845470D01*
X2300211Y4818904D01*
X2322804Y4796311D01*
X2349370Y4778560D01*
X2378888Y4766333D01*
X2410225Y4760100D01*
X2442175D01*
X2473512Y4766333D01*
X2503031Y4778560D01*
X2529596Y4796311D01*
X2552189Y4818904D01*
X2569940Y4845470D01*
X2582167Y4874988D01*
X2588400Y4906325D01*
Y4938275D01*
X2582167Y4969612D01*
X2569940Y4999130D01*
X2552189Y5025696D01*
X2529596Y5048289D01*
X2503031Y5066040D01*
X2473512Y5078267D01*
X2442175Y5084500D01*
D02*
G37*
G36*
X3695700Y4708922D02*
Y4660900D01*
X3743722D01*
X3734679Y4682731D01*
X3717531Y4699879D01*
X3695700Y4708922D01*
D02*
G37*
G36*
X3670300D02*
X3648469Y4699879D01*
X3631321Y4682731D01*
X3622278Y4660900D01*
X3670300D01*
Y4708922D01*
D02*
G37*
G36*
X3543300D02*
Y4660900D01*
X3591322D01*
X3582279Y4682731D01*
X3565131Y4699879D01*
X3543300Y4708922D01*
D02*
G37*
G36*
X3517900D02*
X3496069Y4699879D01*
X3478921Y4682731D01*
X3469878Y4660900D01*
X3517900D01*
Y4708922D01*
D02*
G37*
G36*
X3743722Y4635500D02*
X3695700D01*
Y4587478D01*
X3717531Y4596521D01*
X3734679Y4613669D01*
X3743722Y4635500D01*
D02*
G37*
G36*
X3670300D02*
X3622278D01*
X3631321Y4613669D01*
X3648469Y4596521D01*
X3670300Y4587478D01*
Y4635500D01*
D02*
G37*
G36*
X3591322D02*
X3543300D01*
Y4587478D01*
X3565131Y4596521D01*
X3582279Y4613669D01*
X3591322Y4635500D01*
D02*
G37*
G36*
X3517900D02*
X3469878D01*
X3478921Y4613669D01*
X3496069Y4596521D01*
X3517900Y4587478D01*
Y4635500D01*
D02*
G37*
G36*
X2943299Y4683760D02*
X2924101D01*
X2906363Y4676413D01*
X2892787Y4662837D01*
X2885440Y4645099D01*
Y4625901D01*
X2892787Y4608163D01*
X2906363Y4594587D01*
X2924101Y4587240D01*
X2943299D01*
X2961037Y4594587D01*
X2974613Y4608163D01*
X2981960Y4625901D01*
Y4645099D01*
X2974613Y4662837D01*
X2961037Y4676413D01*
X2943299Y4683760D01*
D02*
G37*
G36*
X5842000Y4583625D02*
Y4546600D01*
X5879025D01*
X5872366Y4562676D01*
X5858076Y4576966D01*
X5842000Y4583625D01*
D02*
G37*
G36*
X5816600D02*
X5800524Y4576966D01*
X5786234Y4562676D01*
X5779575Y4546600D01*
X5816600D01*
Y4583625D01*
D02*
G37*
G36*
X3075954Y4592843D02*
X3056755D01*
X3039018Y4585496D01*
X3025442Y4571920D01*
X3018095Y4554182D01*
Y4534983D01*
X3025442Y4517246D01*
X3039018Y4503670D01*
X3056755Y4496323D01*
X3075954D01*
X3093692Y4503670D01*
X3107267Y4517246D01*
X3114615Y4534983D01*
Y4554182D01*
X3107267Y4571920D01*
X3093692Y4585496D01*
X3075954Y4592843D01*
D02*
G37*
G36*
X5953199Y4582160D02*
X5934001D01*
X5916263Y4574813D01*
X5902687Y4561237D01*
X5895340Y4543499D01*
Y4524301D01*
X5902687Y4506563D01*
X5916263Y4492987D01*
X5934001Y4485640D01*
X5953199D01*
X5970937Y4492987D01*
X5984513Y4506563D01*
X5991860Y4524301D01*
Y4543499D01*
X5984513Y4561237D01*
X5970937Y4574813D01*
X5953199Y4582160D01*
D02*
G37*
G36*
X5879025Y4521200D02*
X5842000D01*
Y4484175D01*
X5858076Y4490834D01*
X5872366Y4505124D01*
X5879025Y4521200D01*
D02*
G37*
G36*
X5816600D02*
X5779575D01*
X5786234Y4505124D01*
X5800524Y4490834D01*
X5816600Y4484175D01*
Y4521200D01*
D02*
G37*
G36*
X3695700Y4518422D02*
Y4470400D01*
X3743722D01*
X3734679Y4492231D01*
X3717531Y4509379D01*
X3695700Y4518422D01*
D02*
G37*
G36*
X3670300D02*
X3648469Y4509379D01*
X3631321Y4492231D01*
X3622278Y4470400D01*
X3670300D01*
Y4518422D01*
D02*
G37*
G36*
X3543300D02*
Y4470400D01*
X3591322D01*
X3582279Y4492231D01*
X3565131Y4509379D01*
X3543300Y4518422D01*
D02*
G37*
G36*
X3517900D02*
X3496069Y4509379D01*
X3478921Y4492231D01*
X3469878Y4470400D01*
X3517900D01*
Y4518422D01*
D02*
G37*
G36*
X2943299Y4505960D02*
X2924101D01*
X2906363Y4498613D01*
X2892787Y4485037D01*
X2885440Y4467299D01*
Y4448101D01*
X2892787Y4430363D01*
X2906363Y4416787D01*
X2924101Y4409440D01*
X2943299D01*
X2961037Y4416787D01*
X2974613Y4430363D01*
X2981960Y4448101D01*
Y4467299D01*
X2974613Y4485037D01*
X2961037Y4498613D01*
X2943299Y4505960D01*
D02*
G37*
G36*
X3743722Y4445000D02*
X3695700D01*
Y4396978D01*
X3717531Y4406021D01*
X3734679Y4423169D01*
X3743722Y4445000D01*
D02*
G37*
G36*
X3670300D02*
X3622278D01*
X3631321Y4423169D01*
X3648469Y4406021D01*
X3670300Y4396978D01*
Y4445000D01*
D02*
G37*
G36*
X3591322D02*
X3543300D01*
Y4396978D01*
X3565131Y4406021D01*
X3582279Y4423169D01*
X3591322Y4445000D01*
D02*
G37*
G36*
X3517900D02*
X3469878D01*
X3478921Y4423169D01*
X3496069Y4406021D01*
X3517900Y4396978D01*
Y4445000D01*
D02*
G37*
G36*
X6181600Y4366022D02*
Y4318000D01*
X6229622D01*
X6220579Y4339831D01*
X6203431Y4356979D01*
X6181600Y4366022D01*
D02*
G37*
G36*
X6156200D02*
X6134369Y4356979D01*
X6117221Y4339831D01*
X6108178Y4318000D01*
X6156200D01*
Y4366022D01*
D02*
G37*
G36*
X5638800D02*
Y4318000D01*
X5686822D01*
X5677779Y4339831D01*
X5660631Y4356979D01*
X5638800Y4366022D01*
D02*
G37*
G36*
X5613400D02*
X5591569Y4356979D01*
X5574421Y4339831D01*
X5565378Y4318000D01*
X5613400D01*
Y4366022D01*
D02*
G37*
G36*
X3695700Y4327922D02*
Y4279900D01*
X3743722D01*
X3734679Y4301731D01*
X3717531Y4318879D01*
X3695700Y4327922D01*
D02*
G37*
G36*
X3670300D02*
X3648469Y4318879D01*
X3631321Y4301731D01*
X3622278Y4279900D01*
X3670300D01*
Y4327922D01*
D02*
G37*
G36*
X3543300D02*
Y4279900D01*
X3591322D01*
X3582279Y4301731D01*
X3565131Y4318879D01*
X3543300Y4327922D01*
D02*
G37*
G36*
X3517900D02*
X3496069Y4318879D01*
X3478921Y4301731D01*
X3469878Y4279900D01*
X3517900D01*
Y4327922D01*
D02*
G37*
G36*
X3390900D02*
Y4279900D01*
X3438922D01*
X3429879Y4301731D01*
X3412731Y4318879D01*
X3390900Y4327922D01*
D02*
G37*
G36*
X3365500D02*
X3343669Y4318879D01*
X3326521Y4301731D01*
X3317478Y4279900D01*
X3365500D01*
Y4327922D01*
D02*
G37*
G36*
X6229622Y4292600D02*
X6181600D01*
Y4244578D01*
X6203431Y4253621D01*
X6220579Y4270769D01*
X6229622Y4292600D01*
D02*
G37*
G36*
X6156200D02*
X6108178D01*
X6117221Y4270769D01*
X6134369Y4253621D01*
X6156200Y4244578D01*
Y4292600D01*
D02*
G37*
G36*
X5686822D02*
X5638800D01*
Y4244578D01*
X5660631Y4253621D01*
X5677779Y4270769D01*
X5686822Y4292600D01*
D02*
G37*
G36*
X5613400D02*
X5565378D01*
X5574421Y4270769D01*
X5591569Y4253621D01*
X5613400Y4244578D01*
Y4292600D01*
D02*
G37*
G36*
X3743722Y4254500D02*
X3695700D01*
Y4206478D01*
X3717531Y4215521D01*
X3734679Y4232669D01*
X3743722Y4254500D01*
D02*
G37*
G36*
X3670300D02*
X3622278D01*
X3631321Y4232669D01*
X3648469Y4215521D01*
X3670300Y4206478D01*
Y4254500D01*
D02*
G37*
G36*
X3591322D02*
X3543300D01*
Y4206478D01*
X3565131Y4215521D01*
X3582279Y4232669D01*
X3591322Y4254500D01*
D02*
G37*
G36*
X3517900D02*
X3469878D01*
X3478921Y4232669D01*
X3496069Y4215521D01*
X3517900Y4206478D01*
Y4254500D01*
D02*
G37*
G36*
X3438922D02*
X3390900D01*
Y4206478D01*
X3412731Y4215521D01*
X3429879Y4232669D01*
X3438922Y4254500D01*
D02*
G37*
G36*
X3365500D02*
X3317478D01*
X3326521Y4232669D01*
X3343669Y4215521D01*
X3365500Y4206478D01*
Y4254500D01*
D02*
G37*
G36*
X2631900Y4384000D02*
X2438900D01*
Y4191000D01*
X2631900D01*
Y4384000D01*
D02*
G37*
G36*
X2413500D02*
X2220500D01*
Y4191000D01*
X2413500D01*
Y4384000D01*
D02*
G37*
G36*
X3895799Y4201160D02*
X3876601D01*
X3858863Y4193813D01*
X3845287Y4180237D01*
X3837940Y4162499D01*
Y4143301D01*
X3845287Y4125563D01*
X3858863Y4111987D01*
X3876601Y4104640D01*
X3895799D01*
X3913537Y4111987D01*
X3927113Y4125563D01*
X3934460Y4143301D01*
Y4162499D01*
X3927113Y4180237D01*
X3913537Y4193813D01*
X3895799Y4201160D01*
D02*
G37*
G36*
X3695700Y4150122D02*
Y4102100D01*
X3743722D01*
X3734679Y4123931D01*
X3717531Y4141079D01*
X3695700Y4150122D01*
D02*
G37*
G36*
X3670300D02*
X3648469Y4141079D01*
X3631321Y4123931D01*
X3622278Y4102100D01*
X3670300D01*
Y4150122D01*
D02*
G37*
G36*
X3543300D02*
Y4102100D01*
X3591322D01*
X3582279Y4123931D01*
X3565131Y4141079D01*
X3543300Y4150122D01*
D02*
G37*
G36*
X3517900D02*
X3496069Y4141079D01*
X3478921Y4123931D01*
X3469878Y4102100D01*
X3517900D01*
Y4150122D01*
D02*
G37*
G36*
X3390900D02*
Y4102100D01*
X3438922D01*
X3429879Y4123931D01*
X3412731Y4141079D01*
X3390900Y4150122D01*
D02*
G37*
G36*
X3365500D02*
X3343669Y4141079D01*
X3326521Y4123931D01*
X3317478Y4102100D01*
X3365500D01*
Y4150122D01*
D02*
G37*
G36*
X3743722Y4076700D02*
X3695700D01*
Y4028678D01*
X3717531Y4037721D01*
X3734679Y4054869D01*
X3743722Y4076700D01*
D02*
G37*
G36*
X3670300D02*
X3622278D01*
X3631321Y4054869D01*
X3648469Y4037721D01*
X3670300Y4028678D01*
Y4076700D01*
D02*
G37*
G36*
X3591322D02*
X3543300D01*
Y4028678D01*
X3565131Y4037721D01*
X3582279Y4054869D01*
X3591322Y4076700D01*
D02*
G37*
G36*
X3517900D02*
X3469878D01*
X3478921Y4054869D01*
X3496069Y4037721D01*
X3517900Y4028678D01*
Y4076700D01*
D02*
G37*
G36*
X3438922D02*
X3390900D01*
Y4028678D01*
X3412731Y4037721D01*
X3429879Y4054869D01*
X3438922Y4076700D01*
D02*
G37*
G36*
X3365500D02*
X3317478D01*
X3326521Y4054869D01*
X3343669Y4037721D01*
X3365500Y4028678D01*
Y4076700D01*
D02*
G37*
G36*
X1746209Y4371300D02*
X1708191D01*
X1670904Y4363883D01*
X1635780Y4349334D01*
X1604170Y4328213D01*
X1577287Y4301330D01*
X1556166Y4269720D01*
X1541617Y4234596D01*
X1534200Y4197309D01*
Y4159291D01*
X1541617Y4122004D01*
X1556166Y4086880D01*
X1577287Y4055270D01*
X1604170Y4028387D01*
X1635780Y4007266D01*
X1670904Y3992717D01*
X1708191Y3985300D01*
X1746209D01*
X1783496Y3992717D01*
X1818620Y4007266D01*
X1850230Y4028387D01*
X1877113Y4055270D01*
X1898234Y4086880D01*
X1912783Y4122004D01*
X1920200Y4159291D01*
Y4197309D01*
X1912783Y4234596D01*
X1898234Y4269720D01*
X1877113Y4301330D01*
X1850230Y4328213D01*
X1818620Y4349334D01*
X1783496Y4363883D01*
X1746209Y4371300D01*
D02*
G37*
G36*
X2631900Y4165600D02*
X2438900D01*
Y3972600D01*
X2631900D01*
Y4165600D01*
D02*
G37*
G36*
X2413500D02*
X2220500D01*
Y3972600D01*
X2413500D01*
Y4165600D01*
D02*
G37*
G36*
X5313771Y4064954D02*
X5294572D01*
X5276834Y4057606D01*
X5263258Y4044031D01*
X5255911Y4026293D01*
Y4007094D01*
X5263258Y3989357D01*
X5276834Y3975781D01*
X5294572Y3968434D01*
X5313771D01*
X5331508Y3975781D01*
X5345084Y3989357D01*
X5352431Y4007094D01*
Y4026293D01*
X5345084Y4044031D01*
X5331508Y4057606D01*
X5313771Y4064954D01*
D02*
G37*
G36*
X5929899Y3991600D02*
X5914901D01*
X5901045Y3985860D01*
X5890439Y3975255D01*
X5884700Y3961399D01*
Y3946401D01*
X5890439Y3932545D01*
X5901045Y3921939D01*
X5914901Y3916200D01*
X5929899D01*
X5943755Y3921939D01*
X5954360Y3932545D01*
X5960100Y3946401D01*
Y3961399D01*
X5954360Y3975255D01*
X5943755Y3985860D01*
X5929899Y3991600D01*
D02*
G37*
G36*
X5819899D02*
X5804901D01*
X5791045Y3985860D01*
X5780440Y3975255D01*
X5774700Y3961399D01*
Y3946401D01*
X5780440Y3932545D01*
X5791045Y3921939D01*
X5804901Y3916200D01*
X5819899D01*
X5833755Y3921939D01*
X5844361Y3932545D01*
X5850100Y3946401D01*
Y3961399D01*
X5844361Y3975255D01*
X5833755Y3985860D01*
X5819899Y3991600D01*
D02*
G37*
G36*
X3032199Y3921760D02*
X3013001D01*
X2995263Y3914413D01*
X2981687Y3900837D01*
X2974340Y3883099D01*
Y3863901D01*
X2981687Y3846163D01*
X2995263Y3832587D01*
X3013001Y3825240D01*
X3032199D01*
X3049937Y3832587D01*
X3063513Y3846163D01*
X3070860Y3863901D01*
Y3883099D01*
X3063513Y3900837D01*
X3049937Y3914413D01*
X3032199Y3921760D01*
D02*
G37*
G36*
X5929899Y3881600D02*
X5914901D01*
X5901045Y3875861D01*
X5890439Y3865255D01*
X5884700Y3851399D01*
Y3836401D01*
X5890439Y3822545D01*
X5901045Y3811940D01*
X5914901Y3806200D01*
X5929899D01*
X5943755Y3811940D01*
X5954360Y3822545D01*
X5960100Y3836401D01*
Y3851399D01*
X5954360Y3865255D01*
X5943755Y3875861D01*
X5929899Y3881600D01*
D02*
G37*
G36*
X5819899D02*
X5804901D01*
X5791045Y3875861D01*
X5780440Y3865255D01*
X5774700Y3851399D01*
Y3836401D01*
X5780440Y3822545D01*
X5791045Y3811940D01*
X5804901Y3806200D01*
X5819899D01*
X5833755Y3811940D01*
X5844361Y3822545D01*
X5850100Y3836401D01*
Y3851399D01*
X5844361Y3865255D01*
X5833755Y3875861D01*
X5819899Y3881600D01*
D02*
G37*
G36*
X5499100Y3845322D02*
Y3797300D01*
X5547122D01*
X5538079Y3819131D01*
X5520931Y3836279D01*
X5499100Y3845322D01*
D02*
G37*
G36*
X5473700D02*
X5451869Y3836279D01*
X5434721Y3819131D01*
X5425678Y3797300D01*
X5473700D01*
Y3845322D01*
D02*
G37*
G36*
X4518099Y3883660D02*
X4498901D01*
X4481163Y3876313D01*
X4467587Y3862737D01*
X4460240Y3844999D01*
Y3825801D01*
X4467587Y3808063D01*
X4481163Y3794487D01*
X4498901Y3787140D01*
X4518099D01*
X4535837Y3794487D01*
X4549413Y3808063D01*
X4556760Y3825801D01*
Y3844999D01*
X4549413Y3862737D01*
X4535837Y3876313D01*
X4518099Y3883660D01*
D02*
G37*
G36*
X3565599D02*
X3546401D01*
X3528663Y3876313D01*
X3515087Y3862737D01*
X3507740Y3844999D01*
Y3825801D01*
X3515087Y3808063D01*
X3528663Y3794487D01*
X3546401Y3787140D01*
X3565599D01*
X3583337Y3794487D01*
X3596913Y3808063D01*
X3604260Y3825801D01*
Y3844999D01*
X3596913Y3862737D01*
X3583337Y3876313D01*
X3565599Y3883660D01*
D02*
G37*
G36*
X6273800Y3832622D02*
Y3784600D01*
X6321822D01*
X6312779Y3806431D01*
X6295631Y3823579D01*
X6273800Y3832622D01*
D02*
G37*
G36*
X6248400D02*
X6226569Y3823579D01*
X6209421Y3806431D01*
X6200378Y3784600D01*
X6248400D01*
Y3832622D01*
D02*
G37*
G36*
X5547122Y3771900D02*
X5499100D01*
Y3723878D01*
X5520931Y3732921D01*
X5538079Y3750069D01*
X5547122Y3771900D01*
D02*
G37*
G36*
X5473700D02*
X5425678D01*
X5434721Y3750069D01*
X5451869Y3732921D01*
X5473700Y3723878D01*
Y3771900D01*
D02*
G37*
G36*
X6321822Y3759200D02*
X6273800D01*
Y3711178D01*
X6295631Y3720221D01*
X6312779Y3737369D01*
X6321822Y3759200D01*
D02*
G37*
G36*
X6248400D02*
X6200378D01*
X6209421Y3737369D01*
X6226569Y3720221D01*
X6248400Y3711178D01*
Y3759200D01*
D02*
G37*
G36*
X4441899Y3680460D02*
X4422701D01*
X4404963Y3673113D01*
X4391387Y3659537D01*
X4384040Y3641799D01*
Y3622601D01*
X4391387Y3604863D01*
X4404963Y3591287D01*
X4422701Y3583940D01*
X4441899D01*
X4459637Y3591287D01*
X4473213Y3604863D01*
X4480560Y3622601D01*
Y3641799D01*
X4473213Y3659537D01*
X4459637Y3673113D01*
X4441899Y3680460D01*
D02*
G37*
G36*
X5562600Y3591322D02*
Y3543300D01*
X5610622D01*
X5601579Y3565131D01*
X5584431Y3582279D01*
X5562600Y3591322D01*
D02*
G37*
G36*
X5537200D02*
X5515369Y3582279D01*
X5498221Y3565131D01*
X5489178Y3543300D01*
X5537200D01*
Y3591322D01*
D02*
G37*
G36*
X5610622Y3517900D02*
X5562600D01*
Y3469878D01*
X5584431Y3478921D01*
X5601579Y3496069D01*
X5610622Y3517900D01*
D02*
G37*
G36*
X5537200D02*
X5489178D01*
X5498221Y3496069D01*
X5515369Y3478921D01*
X5537200Y3469878D01*
Y3517900D01*
D02*
G37*
G36*
X4441899Y3515360D02*
X4422701D01*
X4404963Y3508013D01*
X4391387Y3494437D01*
X4384040Y3476699D01*
Y3457501D01*
X4391387Y3439763D01*
X4404963Y3426187D01*
X4422701Y3418840D01*
X4441899D01*
X4459637Y3426187D01*
X4473213Y3439763D01*
X4480560Y3457501D01*
Y3476699D01*
X4473213Y3494437D01*
X4459637Y3508013D01*
X4441899Y3515360D01*
D02*
G37*
G36*
X2445209Y3700300D02*
X2407191D01*
X2369904Y3692883D01*
X2334780Y3678335D01*
X2303170Y3657213D01*
X2276287Y3630330D01*
X2255166Y3598720D01*
X2240617Y3563596D01*
X2233200Y3526309D01*
Y3488291D01*
X2240617Y3451004D01*
X2255166Y3415880D01*
X2276287Y3384270D01*
X2303170Y3357387D01*
X2334780Y3336266D01*
X2369904Y3321717D01*
X2407191Y3314300D01*
X2445209D01*
X2482496Y3321717D01*
X2517620Y3336266D01*
X2549230Y3357387D01*
X2576113Y3384270D01*
X2597235Y3415880D01*
X2611783Y3451004D01*
X2619200Y3488291D01*
Y3526309D01*
X2611783Y3563596D01*
X2597235Y3598720D01*
X2576113Y3630330D01*
X2549230Y3657213D01*
X2517620Y3678335D01*
X2482496Y3692883D01*
X2445209Y3700300D01*
D02*
G37*
G36*
X1746209D02*
X1708191D01*
X1670904Y3692883D01*
X1635780Y3678335D01*
X1604170Y3657213D01*
X1577287Y3630330D01*
X1556166Y3598720D01*
X1541617Y3563596D01*
X1534200Y3526309D01*
Y3488291D01*
X1541617Y3451004D01*
X1556166Y3415880D01*
X1577287Y3384270D01*
X1604170Y3357387D01*
X1635780Y3336266D01*
X1670904Y3321717D01*
X1708191Y3314300D01*
X1746209D01*
X1783496Y3321717D01*
X1818620Y3336266D01*
X1850230Y3357387D01*
X1877113Y3384270D01*
X1898234Y3415880D01*
X1912783Y3451004D01*
X1920200Y3488291D01*
Y3526309D01*
X1912783Y3563596D01*
X1898234Y3598720D01*
X1877113Y3630330D01*
X1850230Y3657213D01*
X1818620Y3678335D01*
X1783496Y3692883D01*
X1746209Y3700300D01*
D02*
G37*
G36*
X4445000Y3326325D02*
Y3289300D01*
X4482025D01*
X4475366Y3305376D01*
X4461076Y3319666D01*
X4445000Y3326325D01*
D02*
G37*
G36*
X4419600D02*
X4403524Y3319666D01*
X4389234Y3305376D01*
X4382575Y3289300D01*
X4419600D01*
Y3326325D01*
D02*
G37*
G36*
X4482025Y3263900D02*
X4445000D01*
Y3226875D01*
X4461076Y3233534D01*
X4475366Y3247824D01*
X4482025Y3263900D01*
D02*
G37*
G36*
X4419600D02*
X4382575D01*
X4389234Y3247824D01*
X4403524Y3233534D01*
X4419600Y3226875D01*
Y3263900D01*
D02*
G37*
G36*
X6384999Y3299460D02*
X6365801D01*
X6348063Y3292113D01*
X6334487Y3278537D01*
X6327140Y3260799D01*
Y3241601D01*
X6334487Y3223863D01*
X6348063Y3210287D01*
X6365801Y3202940D01*
X6384999D01*
X6402737Y3210287D01*
X6416313Y3223863D01*
X6423660Y3241601D01*
Y3260799D01*
X6416313Y3278537D01*
X6402737Y3292113D01*
X6384999Y3299460D01*
D02*
G37*
G36*
X5673799D02*
X5654601D01*
X5636863Y3292113D01*
X5623287Y3278537D01*
X5615940Y3260799D01*
Y3241601D01*
X5623287Y3223863D01*
X5636863Y3210287D01*
X5654601Y3202940D01*
X5673799D01*
X5691537Y3210287D01*
X5705113Y3223863D01*
X5712460Y3241601D01*
Y3260799D01*
X5705113Y3278537D01*
X5691537Y3292113D01*
X5673799Y3299460D01*
D02*
G37*
G36*
X6116279Y3086100D02*
X6101121D01*
X6087118Y3080300D01*
X6076400Y3069582D01*
X6070600Y3055579D01*
Y3040421D01*
X6076400Y3026418D01*
X6087118Y3015700D01*
X6101121Y3009900D01*
X6116279D01*
X6130282Y3015700D01*
X6141000Y3026418D01*
X6146800Y3040421D01*
Y3055579D01*
X6141000Y3069582D01*
X6130282Y3080300D01*
X6116279Y3086100D01*
D02*
G37*
G36*
X5786079D02*
X5770921D01*
X5756918Y3080300D01*
X5746200Y3069582D01*
X5740400Y3055579D01*
Y3040421D01*
X5746200Y3026418D01*
X5756918Y3015700D01*
X5770921Y3009900D01*
X5786079D01*
X5800082Y3015700D01*
X5810800Y3026418D01*
X5816600Y3040421D01*
Y3055579D01*
X5810800Y3069582D01*
X5800082Y3080300D01*
X5786079Y3086100D01*
D02*
G37*
G36*
X5880100Y3021525D02*
Y2984500D01*
X5917125D01*
X5910466Y3000576D01*
X5896176Y3014866D01*
X5880100Y3021525D01*
D02*
G37*
G36*
X5854700D02*
X5838624Y3014866D01*
X5824334Y3000576D01*
X5817675Y2984500D01*
X5854700D01*
Y3021525D01*
D02*
G37*
G36*
X5917125Y2959100D02*
X5880100D01*
Y2922075D01*
X5896176Y2928734D01*
X5910466Y2943024D01*
X5917125Y2959100D01*
D02*
G37*
G36*
X5854700D02*
X5817675D01*
X5824334Y2943024D01*
X5838624Y2928734D01*
X5854700Y2922075D01*
Y2959100D01*
D02*
G37*
G36*
X6527800Y2932625D02*
Y2895600D01*
X6564825D01*
X6558166Y2911676D01*
X6543876Y2925966D01*
X6527800Y2932625D01*
D02*
G37*
G36*
X6502400D02*
X6486324Y2925966D01*
X6472034Y2911676D01*
X6465375Y2895600D01*
X6502400D01*
Y2932625D01*
D02*
G37*
G36*
X6400800D02*
Y2895600D01*
X6437825D01*
X6431166Y2911676D01*
X6416876Y2925966D01*
X6400800Y2932625D01*
D02*
G37*
G36*
X6375400D02*
X6359324Y2925966D01*
X6345034Y2911676D01*
X6338375Y2895600D01*
X6375400D01*
Y2932625D01*
D02*
G37*
G36*
X6273800D02*
Y2895600D01*
X6310825D01*
X6304166Y2911676D01*
X6289876Y2925966D01*
X6273800Y2932625D01*
D02*
G37*
G36*
X6248400D02*
X6232324Y2925966D01*
X6218034Y2911676D01*
X6211375Y2895600D01*
X6248400D01*
Y2932625D01*
D02*
G37*
G36*
X6146800D02*
Y2895600D01*
X6183825D01*
X6177166Y2911676D01*
X6162876Y2925966D01*
X6146800Y2932625D01*
D02*
G37*
G36*
X6121400D02*
X6105324Y2925966D01*
X6091034Y2911676D01*
X6084375Y2895600D01*
X6121400D01*
Y2932625D01*
D02*
G37*
G36*
X6019800D02*
Y2895600D01*
X6056825D01*
X6050166Y2911676D01*
X6035876Y2925966D01*
X6019800Y2932625D01*
D02*
G37*
G36*
X5994400D02*
X5978324Y2925966D01*
X5964034Y2911676D01*
X5957375Y2895600D01*
X5994400D01*
Y2932625D01*
D02*
G37*
G36*
X6564825Y2870200D02*
X6527800D01*
Y2833175D01*
X6543876Y2839834D01*
X6558166Y2854124D01*
X6564825Y2870200D01*
D02*
G37*
G36*
X6502400D02*
X6465375D01*
X6472034Y2854124D01*
X6486324Y2839834D01*
X6502400Y2833175D01*
Y2870200D01*
D02*
G37*
G36*
X6437825D02*
X6400800D01*
Y2833175D01*
X6416876Y2839834D01*
X6431166Y2854124D01*
X6437825Y2870200D01*
D02*
G37*
G36*
X6375400D02*
X6338375D01*
X6345034Y2854124D01*
X6359324Y2839834D01*
X6375400Y2833175D01*
Y2870200D01*
D02*
G37*
G36*
X6310825D02*
X6273800D01*
Y2833175D01*
X6289876Y2839834D01*
X6304166Y2854124D01*
X6310825Y2870200D01*
D02*
G37*
G36*
X6248400D02*
X6211375D01*
X6218034Y2854124D01*
X6232324Y2839834D01*
X6248400Y2833175D01*
Y2870200D01*
D02*
G37*
G36*
X6183825D02*
X6146800D01*
Y2833175D01*
X6162876Y2839834D01*
X6177166Y2854124D01*
X6183825Y2870200D01*
D02*
G37*
G36*
X6121400D02*
X6084375D01*
X6091034Y2854124D01*
X6105324Y2839834D01*
X6121400Y2833175D01*
Y2870200D01*
D02*
G37*
G36*
X6056825D02*
X6019800D01*
Y2833175D01*
X6035876Y2839834D01*
X6050166Y2854124D01*
X6056825Y2870200D01*
D02*
G37*
G36*
X5994400D02*
X5957375D01*
X5964034Y2854124D01*
X5978324Y2839834D01*
X5994400Y2833175D01*
Y2870200D01*
D02*
G37*
G36*
X6019800Y2818325D02*
Y2781300D01*
X6056825D01*
X6050166Y2797376D01*
X6035876Y2811666D01*
X6019800Y2818325D01*
D02*
G37*
G36*
X5994400D02*
X5978324Y2811666D01*
X5964034Y2797376D01*
X5957375Y2781300D01*
X5994400D01*
Y2818325D01*
D02*
G37*
G36*
X4533900Y2767525D02*
X4517824Y2760866D01*
X4503534Y2746576D01*
X4502150Y2743235D01*
X4497884Y2741882D01*
X4487742Y2741639D01*
X4479282Y2750100D01*
X4465279Y2755900D01*
X4450121D01*
X4436118Y2750100D01*
X4425400Y2739382D01*
X4419600Y2725379D01*
Y2710221D01*
X4425400Y2696218D01*
X4436118Y2685500D01*
X4450121Y2679700D01*
X4465279D01*
X4479282Y2685500D01*
X4487742Y2693961D01*
X4497884Y2693718D01*
X4502150Y2692365D01*
X4503534Y2689024D01*
X4517824Y2674734D01*
X4533900Y2668075D01*
Y2717800D01*
Y2767525D01*
D02*
G37*
G36*
X4559300D02*
Y2730500D01*
X4596325D01*
X4589666Y2746576D01*
X4575376Y2760866D01*
X4559300Y2767525D01*
D02*
G37*
G36*
X5994400Y2755900D02*
X5957375D01*
X5964034Y2739824D01*
X5978324Y2725534D01*
X5994400Y2718875D01*
Y2755900D01*
D02*
G37*
G36*
X6056825D02*
X6019800D01*
Y2718875D01*
X6035876Y2725534D01*
X6050166Y2739824D01*
X6056825Y2755900D01*
D02*
G37*
G36*
X4596325Y2705100D02*
X4559300D01*
Y2668075D01*
X4575376Y2674734D01*
X4589666Y2689024D01*
X4596325Y2705100D01*
D02*
G37*
G36*
X6019800Y2691325D02*
Y2654300D01*
X6056825D01*
X6050166Y2670376D01*
X6035876Y2684666D01*
X6019800Y2691325D01*
D02*
G37*
G36*
X5994400D02*
X5978324Y2684666D01*
X5964034Y2670376D01*
X5957375Y2654300D01*
X5994400D01*
Y2691325D01*
D02*
G37*
G36*
X2442175Y2925500D02*
X2410225D01*
X2378888Y2919267D01*
X2349370Y2907040D01*
X2322804Y2889289D01*
X2300211Y2866696D01*
X2282461Y2840130D01*
X2270233Y2810612D01*
X2264000Y2779275D01*
Y2747325D01*
X2270233Y2715988D01*
X2282461Y2686470D01*
X2300211Y2659904D01*
X2322804Y2637311D01*
X2349370Y2619560D01*
X2378888Y2607333D01*
X2410225Y2601100D01*
X2442175D01*
X2473512Y2607333D01*
X2503031Y2619560D01*
X2529596Y2637311D01*
X2552189Y2659904D01*
X2569940Y2686470D01*
X2582167Y2715988D01*
X2588400Y2747325D01*
Y2779275D01*
X2582167Y2810612D01*
X2569940Y2840130D01*
X2552189Y2866696D01*
X2529596Y2889289D01*
X2503031Y2907040D01*
X2473512Y2919267D01*
X2442175Y2925500D01*
D02*
G37*
G36*
X6056825Y2628900D02*
X6019800D01*
Y2591875D01*
X6035876Y2598534D01*
X6050166Y2612824D01*
X6056825Y2628900D01*
D02*
G37*
G36*
X5994400D02*
X5957375D01*
X5964034Y2612824D01*
X5978324Y2598534D01*
X5994400Y2591875D01*
Y2628900D01*
D02*
G37*
G36*
X6019800Y2564325D02*
Y2527300D01*
X6056825D01*
X6050166Y2543376D01*
X6035876Y2557666D01*
X6019800Y2564325D01*
D02*
G37*
G36*
X5994400D02*
X5978324Y2557666D01*
X5964034Y2543376D01*
X5957375Y2527300D01*
X5994400D01*
Y2564325D01*
D02*
G37*
G36*
X6056825Y2501900D02*
X6019800D01*
Y2464875D01*
X6035876Y2471534D01*
X6050166Y2485824D01*
X6056825Y2501900D01*
D02*
G37*
G36*
X5994400D02*
X5957375D01*
X5964034Y2485824D01*
X5978324Y2471534D01*
X5994400Y2464875D01*
Y2501900D01*
D02*
G37*
G36*
X6019800Y2437325D02*
Y2400300D01*
X6056825D01*
X6050166Y2416376D01*
X6035876Y2430666D01*
X6019800Y2437325D01*
D02*
G37*
G36*
X5994400D02*
X5978324Y2430666D01*
X5964034Y2416376D01*
X5957375Y2400300D01*
X5994400D01*
Y2437325D01*
D02*
G37*
G36*
X6056825Y2374900D02*
X6019800D01*
Y2337875D01*
X6035876Y2344534D01*
X6050166Y2358824D01*
X6056825Y2374900D01*
D02*
G37*
G36*
X5994400D02*
X5957375D01*
X5964034Y2358824D01*
X5978324Y2344534D01*
X5994400Y2337875D01*
Y2374900D01*
D02*
G37*
G36*
X6019800Y2310325D02*
Y2273300D01*
X6056825D01*
X6050166Y2289376D01*
X6035876Y2303666D01*
X6019800Y2310325D01*
D02*
G37*
G36*
X5994400D02*
X5978324Y2303666D01*
X5964034Y2289376D01*
X5957375Y2273300D01*
X5994400D01*
Y2310325D01*
D02*
G37*
G36*
X4414479Y2311400D02*
X4399321D01*
X4385318Y2305600D01*
X4374600Y2294882D01*
X4368800Y2280879D01*
Y2265721D01*
X4372749Y2256186D01*
X4361066Y2251276D01*
X4355922Y2256420D01*
X4346776Y2265566D01*
X4330700Y2272225D01*
Y2235200D01*
X4367725D01*
X4362917Y2246808D01*
X4374600Y2251718D01*
X4385318Y2241000D01*
X4399321Y2235200D01*
X4414479D01*
X4428482Y2241000D01*
X4439200Y2251718D01*
X4445000Y2265721D01*
Y2280879D01*
X4439200Y2294882D01*
X4428482Y2305600D01*
X4414479Y2311400D01*
D02*
G37*
G36*
X4884379D02*
X4869221D01*
X4855218Y2305600D01*
X4844500Y2294882D01*
X4838700Y2280879D01*
Y2265721D01*
X4844500Y2251718D01*
X4855218Y2241000D01*
X4869221Y2235200D01*
X4884379D01*
X4898382Y2241000D01*
X4909100Y2251718D01*
X4914900Y2265721D01*
Y2280879D01*
X4909100Y2294882D01*
X4898382Y2305600D01*
X4884379Y2311400D01*
D02*
G37*
G36*
X4114800Y2283222D02*
X4092969Y2274179D01*
X4075821Y2257031D01*
X4066778Y2235200D01*
X4114800D01*
Y2283222D01*
D02*
G37*
G36*
X4556199Y2308860D02*
X4537001D01*
X4519263Y2301513D01*
X4505687Y2287937D01*
X4498340Y2270199D01*
Y2251001D01*
X4505687Y2233263D01*
X4519263Y2219687D01*
X4537001Y2212340D01*
X4556199D01*
X4573937Y2219687D01*
X4587513Y2233263D01*
X4594860Y2251001D01*
Y2270199D01*
X4587513Y2287937D01*
X4573937Y2301513D01*
X4556199Y2308860D01*
D02*
G37*
G36*
X6056825Y2247900D02*
X6019800D01*
Y2210875D01*
X6035876Y2217534D01*
X6050166Y2231824D01*
X6056825Y2247900D01*
D02*
G37*
G36*
X5994400D02*
X5957375D01*
X5964034Y2231824D01*
X5978324Y2217534D01*
X5994400Y2210875D01*
Y2247900D01*
D02*
G37*
G36*
X4367725Y2209800D02*
X4330700D01*
Y2172775D01*
X4346776Y2179434D01*
X4361066Y2193724D01*
X4367725Y2209800D01*
D02*
G37*
G36*
X4140200Y2283222D02*
Y2222500D01*
Y2161778D01*
X4162031Y2170821D01*
X4178984Y2187773D01*
X4179236Y2187976D01*
X4193645Y2189705D01*
X4201763Y2181587D01*
X4219501Y2174240D01*
X4238699D01*
X4256437Y2181587D01*
X4263457Y2188607D01*
X4273319Y2193004D01*
X4280051Y2188607D01*
X4289224Y2179434D01*
X4305300Y2172775D01*
Y2222500D01*
Y2272225D01*
X4289224Y2265566D01*
X4280051Y2256393D01*
X4273319Y2251996D01*
X4263457Y2256393D01*
X4256437Y2263413D01*
X4238699Y2270760D01*
X4219501D01*
X4201763Y2263413D01*
X4193645Y2255295D01*
X4179236Y2257024D01*
X4178984Y2257227D01*
X4162031Y2274179D01*
X4140200Y2283222D01*
D02*
G37*
G36*
X4114800Y2209800D02*
X4066778D01*
X4075821Y2187969D01*
X4092969Y2170821D01*
X4114800Y2161778D01*
Y2209800D01*
D02*
G37*
G36*
X6019800Y2183325D02*
Y2146300D01*
X6056825D01*
X6050166Y2162376D01*
X6035876Y2176666D01*
X6019800Y2183325D01*
D02*
G37*
G36*
X5994400D02*
X5978324Y2176666D01*
X5964034Y2162376D01*
X5957375Y2146300D01*
X5994400D01*
Y2183325D01*
D02*
G37*
G36*
X6056825Y2120900D02*
X6019800D01*
Y2083875D01*
X6035876Y2090534D01*
X6050166Y2104824D01*
X6056825Y2120900D01*
D02*
G37*
G36*
X5994400D02*
X5957375D01*
X5964034Y2104824D01*
X5978324Y2090534D01*
X5994400Y2083875D01*
Y2120900D01*
D02*
G37*
G36*
X4762500Y2119825D02*
Y2082800D01*
X4799525D01*
X4792866Y2098876D01*
X4778576Y2113166D01*
X4762500Y2119825D01*
D02*
G37*
G36*
X4737100D02*
X4721024Y2113166D01*
X4706734Y2098876D01*
X4700075Y2082800D01*
X4737100D01*
Y2119825D01*
D02*
G37*
G36*
X4799525Y2057400D02*
X4762500D01*
Y2020375D01*
X4778576Y2027034D01*
X4792866Y2041324D01*
X4799525Y2057400D01*
D02*
G37*
G36*
X4737100D02*
X4700075D01*
X4706734Y2041324D01*
X4721024Y2027034D01*
X4737100Y2020375D01*
Y2057400D01*
D02*
G37*
G36*
X6019800Y2056325D02*
Y2019300D01*
X6056825D01*
X6050166Y2035376D01*
X6035876Y2049666D01*
X6019800Y2056325D01*
D02*
G37*
G36*
X5994400D02*
X5978324Y2049666D01*
X5964034Y2035376D01*
X5957375Y2019300D01*
X5994400D01*
Y2056325D01*
D02*
G37*
G36*
X4465279Y2044700D02*
X4450121D01*
X4436118Y2038900D01*
X4425400Y2028182D01*
X4419600Y2014179D01*
Y1999021D01*
X4425400Y1985018D01*
X4436118Y1974300D01*
X4450121Y1968500D01*
X4465279D01*
X4479282Y1974300D01*
X4490000Y1985018D01*
X4495800Y1999021D01*
Y2014179D01*
X4490000Y2028182D01*
X4479282Y2038900D01*
X4465279Y2044700D01*
D02*
G37*
G36*
X6056825Y1993900D02*
X6019800D01*
Y1956875D01*
X6035876Y1963534D01*
X6050166Y1977824D01*
X6056825Y1993900D01*
D02*
G37*
G36*
X5994400D02*
X5957375D01*
X5964034Y1977824D01*
X5978324Y1963534D01*
X5994400Y1956875D01*
Y1993900D01*
D02*
G37*
G36*
X3741379Y2032000D02*
X3726221D01*
X3712218Y2026200D01*
X3701500Y2015482D01*
X3695700Y2001479D01*
Y1986321D01*
X3701500Y1972318D01*
X3712218Y1961600D01*
X3726221Y1955800D01*
X3741379D01*
X3755382Y1961600D01*
X3766100Y1972318D01*
X3771900Y1986321D01*
Y2001479D01*
X3766100Y2015482D01*
X3755382Y2026200D01*
X3741379Y2032000D01*
D02*
G37*
G36*
X6019800Y1929325D02*
Y1892300D01*
X6056825D01*
X6050166Y1908376D01*
X6035876Y1922666D01*
X6019800Y1929325D01*
D02*
G37*
G36*
X5994400D02*
X5978324Y1922666D01*
X5964034Y1908376D01*
X5957375Y1892300D01*
X5994400D01*
Y1929325D01*
D02*
G37*
G36*
X5168900Y1891225D02*
Y1854200D01*
X5205925D01*
X5199266Y1870276D01*
X5184976Y1884566D01*
X5168900Y1891225D01*
D02*
G37*
G36*
X5143500D02*
X5127424Y1884566D01*
X5113134Y1870276D01*
X5106475Y1854200D01*
X5143500D01*
Y1891225D01*
D02*
G37*
G36*
X6056825Y1866900D02*
X6019800D01*
Y1829875D01*
X6035876Y1836534D01*
X6050166Y1850824D01*
X6056825Y1866900D01*
D02*
G37*
G36*
X5994400D02*
X5957375D01*
X5964034Y1850824D01*
X5978324Y1836534D01*
X5994400Y1829875D01*
Y1866900D01*
D02*
G37*
G36*
X5205925Y1828800D02*
X5168900D01*
Y1791775D01*
X5184976Y1798434D01*
X5199266Y1812724D01*
X5205925Y1828800D01*
D02*
G37*
G36*
X5143500D02*
X5106475D01*
X5113134Y1812724D01*
X5127424Y1798434D01*
X5143500Y1791775D01*
Y1828800D01*
D02*
G37*
G36*
X6019800Y1802325D02*
Y1765300D01*
X6056825D01*
X6050166Y1781376D01*
X6035876Y1795666D01*
X6019800Y1802325D01*
D02*
G37*
G36*
X5994400D02*
X5978324Y1795666D01*
X5964034Y1781376D01*
X5957375Y1765300D01*
X5994400D01*
Y1802325D01*
D02*
G37*
G36*
X4597400Y1791650D02*
Y1754625D01*
X4634425D01*
X4627766Y1770701D01*
X4613476Y1784991D01*
X4597400Y1791650D01*
D02*
G37*
G36*
X4572000D02*
X4555924Y1784991D01*
X4541634Y1770701D01*
X4534975Y1754625D01*
X4572000D01*
Y1791650D01*
D02*
G37*
G36*
X4483100D02*
Y1754625D01*
X4520125D01*
X4513466Y1770701D01*
X4499176Y1784991D01*
X4483100Y1791650D01*
D02*
G37*
G36*
X4457700D02*
X4441624Y1784991D01*
X4427334Y1770701D01*
X4420675Y1754625D01*
X4457700D01*
Y1791650D01*
D02*
G37*
G36*
X4368800D02*
Y1754625D01*
X4405825D01*
X4399166Y1770701D01*
X4384876Y1784991D01*
X4368800Y1791650D01*
D02*
G37*
G36*
X4343400D02*
X4327324Y1784991D01*
X4313034Y1770701D01*
X4306375Y1754625D01*
X4343400D01*
Y1791650D01*
D02*
G37*
G36*
X4884379Y1790700D02*
X4869221D01*
X4855218Y1784900D01*
X4844500Y1774182D01*
X4838700Y1760179D01*
Y1745021D01*
X4844500Y1731018D01*
X4855218Y1720300D01*
X4869221Y1714500D01*
X4884379D01*
X4898382Y1720300D01*
X4909100Y1731018D01*
X4914900Y1745021D01*
Y1760179D01*
X4909100Y1774182D01*
X4898382Y1784900D01*
X4884379Y1790700D01*
D02*
G37*
G36*
X6056825Y1739900D02*
X6019800D01*
Y1702875D01*
X6035876Y1709534D01*
X6050166Y1723824D01*
X6056825Y1739900D01*
D02*
G37*
G36*
X5994400D02*
X5957375D01*
X5964034Y1723824D01*
X5978324Y1709534D01*
X5994400Y1702875D01*
Y1739900D01*
D02*
G37*
G36*
X4634425Y1729225D02*
X4597400D01*
Y1692200D01*
X4613476Y1698859D01*
X4627766Y1713149D01*
X4634425Y1729225D01*
D02*
G37*
G36*
X4572000D02*
X4534975D01*
X4541634Y1713149D01*
X4555924Y1698859D01*
X4572000Y1692200D01*
Y1729225D01*
D02*
G37*
G36*
X4405825D02*
X4368800D01*
Y1692200D01*
X4384876Y1698859D01*
X4399166Y1713149D01*
X4405825Y1729225D01*
D02*
G37*
G36*
X4343400D02*
X4306375D01*
X4313034Y1713149D01*
X4327324Y1698859D01*
X4343400Y1692200D01*
Y1729225D01*
D02*
G37*
G36*
X4520125D02*
X4420675D01*
X4427334Y1713149D01*
X4425943Y1702586D01*
X4415814Y1696738D01*
X4399262Y1680186D01*
X4393248Y1669769D01*
X4384876Y1668666D01*
X4368800Y1675325D01*
Y1625600D01*
Y1575875D01*
X4384876Y1582534D01*
X4393248Y1581431D01*
X4399262Y1571014D01*
X4415814Y1554462D01*
X4428903Y1546905D01*
X4431487Y1531529D01*
X4427334Y1527376D01*
X4420675Y1511300D01*
X4520125D01*
X4513466Y1527376D01*
X4509313Y1531529D01*
X4511897Y1546905D01*
X4524986Y1554462D01*
X4541538Y1571014D01*
X4548817Y1583623D01*
X4555924Y1584559D01*
X4572000Y1577900D01*
Y1627625D01*
Y1677350D01*
X4555924Y1670691D01*
X4546287Y1671960D01*
X4541538Y1680186D01*
X4524986Y1696738D01*
X4514857Y1702586D01*
X4513466Y1713149D01*
X4520125Y1729225D01*
D02*
G37*
G36*
X4597400Y1677350D02*
Y1640325D01*
X4634425D01*
X4627766Y1656401D01*
X4613476Y1670691D01*
X4597400Y1677350D01*
D02*
G37*
G36*
X6019800Y1675325D02*
Y1638300D01*
X6056825D01*
X6050166Y1654376D01*
X6035876Y1668666D01*
X6019800Y1675325D01*
D02*
G37*
G36*
X5994400D02*
X5978324Y1668666D01*
X5964034Y1654376D01*
X5957375Y1638300D01*
X5994400D01*
Y1675325D01*
D02*
G37*
G36*
X4343400D02*
X4327324Y1668666D01*
X4313034Y1654376D01*
X4306375Y1638300D01*
X4343400D01*
Y1675325D01*
D02*
G37*
G36*
X4634425Y1614925D02*
X4597400D01*
Y1577900D01*
X4613476Y1584559D01*
X4627766Y1598849D01*
X4634425Y1614925D01*
D02*
G37*
G36*
X6056825Y1612900D02*
X6019800D01*
Y1575875D01*
X6035876Y1582534D01*
X6050166Y1596824D01*
X6056825Y1612900D01*
D02*
G37*
G36*
X5994400D02*
X5957375D01*
X5964034Y1596824D01*
X5978324Y1582534D01*
X5994400Y1575875D01*
Y1612900D01*
D02*
G37*
G36*
X4343400D02*
X4306375D01*
X4313034Y1596824D01*
X4327324Y1582534D01*
X4343400Y1575875D01*
Y1612900D01*
D02*
G37*
G36*
X4109679Y1636740D02*
X4094521D01*
X4080518Y1630940D01*
X4069800Y1620222D01*
X4064000Y1606219D01*
Y1591061D01*
X4069800Y1577058D01*
X4080518Y1566340D01*
X4094521Y1560540D01*
X4109679D01*
X4123682Y1566340D01*
X4134400Y1577058D01*
X4140200Y1591061D01*
Y1606219D01*
X4134400Y1620222D01*
X4123682Y1630940D01*
X4109679Y1636740D01*
D02*
G37*
G36*
X5597599Y1648460D02*
X5578401D01*
X5560663Y1641113D01*
X5547087Y1627537D01*
X5539740Y1609799D01*
Y1590601D01*
X5547087Y1572863D01*
X5560663Y1559287D01*
X5578401Y1551940D01*
X5597599D01*
X5615337Y1559287D01*
X5628913Y1572863D01*
X5636260Y1590601D01*
Y1609799D01*
X5628913Y1627537D01*
X5615337Y1641113D01*
X5597599Y1648460D01*
D02*
G37*
G36*
X4597400Y1550350D02*
Y1513325D01*
X4634425D01*
X4627766Y1529401D01*
X4613476Y1543691D01*
X4597400Y1550350D01*
D02*
G37*
G36*
X4572000D02*
X4555924Y1543691D01*
X4541634Y1529401D01*
X4534975Y1513325D01*
X4572000D01*
Y1550350D01*
D02*
G37*
G36*
X6019800Y1548325D02*
Y1511300D01*
X6056825D01*
X6050166Y1527376D01*
X6035876Y1541666D01*
X6019800Y1548325D01*
D02*
G37*
G36*
X5994400D02*
X5978324Y1541666D01*
X5964034Y1527376D01*
X5957375Y1511300D01*
X5994400D01*
Y1548325D01*
D02*
G37*
G36*
X5549900D02*
Y1511300D01*
X5586925D01*
X5580266Y1527376D01*
X5565976Y1541666D01*
X5549900Y1548325D01*
D02*
G37*
G36*
X5524500D02*
X5508424Y1541666D01*
X5494134Y1527376D01*
X5487475Y1511300D01*
X5524500D01*
Y1548325D01*
D02*
G37*
G36*
X5422900D02*
Y1511300D01*
X5459925D01*
X5453266Y1527376D01*
X5438976Y1541666D01*
X5422900Y1548325D01*
D02*
G37*
G36*
X5397500D02*
X5381424Y1541666D01*
X5367134Y1527376D01*
X5360475Y1511300D01*
X5397500D01*
Y1548325D01*
D02*
G37*
G36*
X4368800D02*
Y1511300D01*
X4405825D01*
X4399166Y1527376D01*
X4384876Y1541666D01*
X4368800Y1548325D01*
D02*
G37*
G36*
X4343400D02*
X4327324Y1541666D01*
X4313034Y1527376D01*
X4306375Y1511300D01*
X4343400D01*
Y1548325D01*
D02*
G37*
G36*
X5689600Y1510225D02*
Y1473200D01*
X5726625D01*
X5719966Y1489276D01*
X5705676Y1503566D01*
X5689600Y1510225D01*
D02*
G37*
G36*
X5664200D02*
X5648124Y1503566D01*
X5633834Y1489276D01*
X5627175Y1473200D01*
X5664200D01*
Y1510225D01*
D02*
G37*
G36*
X2946400Y1508522D02*
Y1460500D01*
X2994422D01*
X2985379Y1482331D01*
X2968231Y1499479D01*
X2946400Y1508522D01*
D02*
G37*
G36*
X2921000D02*
X2899169Y1499479D01*
X2882021Y1482331D01*
X2872978Y1460500D01*
X2921000D01*
Y1508522D01*
D02*
G37*
G36*
X4634425Y1487925D02*
X4597400D01*
Y1450900D01*
X4613476Y1457559D01*
X4627766Y1471849D01*
X4634425Y1487925D01*
D02*
G37*
G36*
X4572000D02*
X4534975D01*
X4541634Y1471849D01*
X4555924Y1457559D01*
X4572000Y1450900D01*
Y1487925D01*
D02*
G37*
G36*
X6056825Y1485900D02*
X6019800D01*
Y1448875D01*
X6035876Y1455534D01*
X6050166Y1469824D01*
X6056825Y1485900D01*
D02*
G37*
G36*
X5994400D02*
X5957375D01*
X5964034Y1469824D01*
X5978324Y1455534D01*
X5994400Y1448875D01*
Y1485900D01*
D02*
G37*
G36*
X5586925D02*
X5549900D01*
Y1448875D01*
X5565976Y1455534D01*
X5580266Y1469824D01*
X5586925Y1485900D01*
D02*
G37*
G36*
X5524500D02*
X5487475D01*
X5494134Y1469824D01*
X5508424Y1455534D01*
X5524500Y1448875D01*
Y1485900D01*
D02*
G37*
G36*
X5459925D02*
X5422900D01*
Y1448875D01*
X5438976Y1455534D01*
X5453266Y1469824D01*
X5459925Y1485900D01*
D02*
G37*
G36*
X5397500D02*
X5360475D01*
X5367134Y1469824D01*
X5381424Y1455534D01*
X5397500Y1448875D01*
Y1485900D01*
D02*
G37*
G36*
X4520125D02*
X4483100D01*
Y1448875D01*
X4499176Y1455534D01*
X4513466Y1469824D01*
X4520125Y1485900D01*
D02*
G37*
G36*
X4457700D02*
X4420675D01*
X4427334Y1469824D01*
X4441624Y1455534D01*
X4457700Y1448875D01*
Y1485900D01*
D02*
G37*
G36*
X4405825D02*
X4368800D01*
Y1448875D01*
X4384876Y1455534D01*
X4399166Y1469824D01*
X4405825Y1485900D01*
D02*
G37*
G36*
X4343400D02*
X4306375D01*
X4313034Y1469824D01*
X4327324Y1455534D01*
X4343400Y1448875D01*
Y1485900D01*
D02*
G37*
G36*
X5726625Y1447800D02*
X5689600D01*
Y1410775D01*
X5705676Y1417434D01*
X5719966Y1431724D01*
X5726625Y1447800D01*
D02*
G37*
G36*
X5664200D02*
X5627175D01*
X5633834Y1431724D01*
X5648124Y1417434D01*
X5664200Y1410775D01*
Y1447800D01*
D02*
G37*
G36*
X5791200Y1434025D02*
Y1397000D01*
X5828225D01*
X5821566Y1413076D01*
X5807276Y1427366D01*
X5791200Y1434025D01*
D02*
G37*
G36*
X5765800D02*
X5749724Y1427366D01*
X5735434Y1413076D01*
X5728775Y1397000D01*
X5765800D01*
Y1434025D01*
D02*
G37*
G36*
X2994422Y1435100D02*
X2946400D01*
Y1387078D01*
X2968231Y1396121D01*
X2985379Y1413269D01*
X2994422Y1435100D01*
D02*
G37*
G36*
X2921000D02*
X2872978D01*
X2882021Y1413269D01*
X2899169Y1396121D01*
X2921000Y1387078D01*
Y1435100D01*
D02*
G37*
G36*
X6019800Y1421325D02*
Y1384300D01*
X6056825D01*
X6050166Y1400376D01*
X6035876Y1414666D01*
X6019800Y1421325D01*
D02*
G37*
G36*
X5994400D02*
X5978324Y1414666D01*
X5964034Y1400376D01*
X5957375Y1384300D01*
X5994400D01*
Y1421325D01*
D02*
G37*
G36*
X5905500D02*
Y1384300D01*
X5942525D01*
X5935866Y1400376D01*
X5921576Y1414666D01*
X5905500Y1421325D01*
D02*
G37*
G36*
X5880100D02*
X5864024Y1414666D01*
X5849734Y1400376D01*
X5843075Y1384300D01*
X5880100D01*
Y1421325D01*
D02*
G37*
G36*
X5549900D02*
Y1384300D01*
X5586925D01*
X5580266Y1400376D01*
X5565976Y1414666D01*
X5549900Y1421325D01*
D02*
G37*
G36*
X5524500D02*
X5508424Y1414666D01*
X5494134Y1400376D01*
X5487475Y1384300D01*
X5524500D01*
Y1421325D01*
D02*
G37*
G36*
X5422900D02*
Y1384300D01*
X5459925D01*
X5453266Y1400376D01*
X5438976Y1414666D01*
X5422900Y1421325D01*
D02*
G37*
G36*
X5397500D02*
X5381424Y1414666D01*
X5367134Y1400376D01*
X5360475Y1384300D01*
X5397500D01*
Y1421325D01*
D02*
G37*
G36*
X5626100Y1370525D02*
X5610024Y1363866D01*
X5597570Y1351412D01*
X5586803Y1358606D01*
X5586925Y1358900D01*
X5549900D01*
Y1321875D01*
X5565976Y1328534D01*
X5578430Y1340988D01*
X5589197Y1333794D01*
X5589075Y1333500D01*
X5626100D01*
Y1370525D01*
D02*
G37*
G36*
X5828225Y1371600D02*
X5791200D01*
Y1334575D01*
X5807276Y1341234D01*
X5821566Y1355524D01*
X5828225Y1371600D01*
D02*
G37*
G36*
X5765800D02*
X5728775D01*
X5735434Y1355524D01*
X5749724Y1341234D01*
X5765800Y1334575D01*
Y1371600D01*
D02*
G37*
G36*
X5651500Y1370525D02*
Y1333500D01*
X5688525D01*
X5681866Y1349576D01*
X5667576Y1363866D01*
X5651500Y1370525D01*
D02*
G37*
G36*
X6056825Y1358900D02*
X6019800D01*
Y1321875D01*
X6035876Y1328534D01*
X6050166Y1342824D01*
X6056825Y1358900D01*
D02*
G37*
G36*
X5994400D02*
X5957375D01*
X5964034Y1342824D01*
X5978324Y1328534D01*
X5994400Y1321875D01*
Y1358900D01*
D02*
G37*
G36*
X5942525D02*
X5905500D01*
Y1321875D01*
X5921576Y1328534D01*
X5935866Y1342824D01*
X5942525Y1358900D01*
D02*
G37*
G36*
X5880100D02*
X5843075D01*
X5849734Y1342824D01*
X5864024Y1328534D01*
X5880100Y1321875D01*
Y1358900D01*
D02*
G37*
G36*
X5524500D02*
X5487475D01*
X5494134Y1342824D01*
X5508424Y1328534D01*
X5524500Y1321875D01*
Y1358900D01*
D02*
G37*
G36*
X5459925D02*
X5422900D01*
Y1321875D01*
X5438976Y1328534D01*
X5453266Y1342824D01*
X5459925Y1358900D01*
D02*
G37*
G36*
X5397500D02*
X5360475D01*
X5367134Y1342824D01*
X5381424Y1328534D01*
X5397500Y1321875D01*
Y1358900D01*
D02*
G37*
G36*
X5688525Y1308100D02*
X5651500D01*
Y1271075D01*
X5667576Y1277734D01*
X5681866Y1292024D01*
X5688525Y1308100D01*
D02*
G37*
G36*
X5626100D02*
X5589075D01*
X5595734Y1292024D01*
X5610024Y1277734D01*
X5626100Y1271075D01*
Y1308100D01*
D02*
G37*
G36*
X6019800Y1294325D02*
Y1257300D01*
X6056825D01*
X6050166Y1273376D01*
X6035876Y1287666D01*
X6019800Y1294325D01*
D02*
G37*
G36*
X5994400D02*
X5978324Y1287666D01*
X5964034Y1273376D01*
X5957375Y1257300D01*
X5994400D01*
Y1294325D01*
D02*
G37*
G36*
X5765800D02*
Y1257300D01*
X5802825D01*
X5796166Y1273376D01*
X5781876Y1287666D01*
X5765800Y1294325D01*
D02*
G37*
G36*
X5740400D02*
X5724324Y1287666D01*
X5710034Y1273376D01*
X5703375Y1257300D01*
X5740400D01*
Y1294325D01*
D02*
G37*
G36*
X5892800Y1281625D02*
Y1244600D01*
X5929825D01*
X5923166Y1260676D01*
X5908876Y1274966D01*
X5892800Y1281625D01*
D02*
G37*
G36*
X5867400D02*
X5851324Y1274966D01*
X5837034Y1260676D01*
X5830375Y1244600D01*
X5867400D01*
Y1281625D01*
D02*
G37*
G36*
X6056825Y1231900D02*
X6019800D01*
Y1194875D01*
X6035876Y1201534D01*
X6050166Y1215824D01*
X6056825Y1231900D01*
D02*
G37*
G36*
X5994400D02*
X5957375D01*
X5964034Y1215824D01*
X5978324Y1201534D01*
X5994400Y1194875D01*
Y1231900D01*
D02*
G37*
G36*
X5802825D02*
X5765800D01*
Y1194875D01*
X5781876Y1201534D01*
X5796166Y1215824D01*
X5802825Y1231900D01*
D02*
G37*
G36*
X5740400D02*
X5703375D01*
X5710034Y1215824D01*
X5724324Y1201534D01*
X5740400Y1194875D01*
Y1231900D01*
D02*
G37*
G36*
X5929825Y1219200D02*
X5892800D01*
Y1182175D01*
X5908876Y1188834D01*
X5923166Y1203124D01*
X5929825Y1219200D01*
D02*
G37*
G36*
X5867400D02*
X5830375D01*
X5837034Y1203124D01*
X5851324Y1188834D01*
X5867400Y1182175D01*
Y1219200D01*
D02*
G37*
G36*
X5905500Y1167325D02*
Y1130300D01*
X5942525D01*
X5935866Y1146376D01*
X5921576Y1160666D01*
X5905500Y1167325D01*
D02*
G37*
G36*
X5880100D02*
X5864024Y1160666D01*
X5849734Y1146376D01*
X5843075Y1130300D01*
X5880100D01*
Y1167325D01*
D02*
G37*
G36*
X5051499Y1267460D02*
X5032301D01*
X5014563Y1260113D01*
X5000987Y1246537D01*
X4993640Y1228799D01*
Y1209601D01*
X5000987Y1191863D01*
X5009105Y1183745D01*
X5007376Y1169336D01*
X5007173Y1169084D01*
X4990221Y1152131D01*
X4981178Y1130300D01*
X5102622D01*
X5093579Y1152131D01*
X5076627Y1169084D01*
X5076424Y1169336D01*
X5074695Y1183745D01*
X5082813Y1191863D01*
X5090160Y1209601D01*
Y1228799D01*
X5082813Y1246537D01*
X5069237Y1260113D01*
X5051499Y1267460D01*
D02*
G37*
G36*
X6019800Y1141925D02*
X6003724Y1135266D01*
X5989434Y1120976D01*
X5982775Y1104900D01*
X6019800D01*
Y1141925D01*
D02*
G37*
G36*
X5942525Y1104900D02*
X5905500D01*
Y1067875D01*
X5921576Y1074534D01*
X5935866Y1088824D01*
X5942525Y1104900D01*
D02*
G37*
G36*
X5880100D02*
X5843075D01*
X5849734Y1088824D01*
X5864024Y1074534D01*
X5880100Y1067875D01*
Y1104900D01*
D02*
G37*
G36*
X5102622D02*
X5054600D01*
Y1056878D01*
X5076431Y1065921D01*
X5093579Y1083069D01*
X5102622Y1104900D01*
D02*
G37*
G36*
X5029200D02*
X4981178D01*
X4990221Y1083069D01*
X5007369Y1065921D01*
X5029200Y1056878D01*
Y1104900D01*
D02*
G37*
G36*
X6019800Y1079500D02*
X5982775D01*
X5989434Y1063424D01*
X6003724Y1049134D01*
X6019800Y1042475D01*
Y1079500D01*
D02*
G37*
G36*
X826400Y1079551D02*
X784100D01*
Y1016200D01*
X900779D01*
X899859Y1023183D01*
X892262Y1041525D01*
X880176Y1057276D01*
X864425Y1069362D01*
X846083Y1076959D01*
X826400Y1079551D01*
D02*
G37*
G36*
X393400D02*
X366100D01*
Y1016200D01*
X467779D01*
X466859Y1023183D01*
X459262Y1041525D01*
X447176Y1057276D01*
X431425Y1069362D01*
X413084Y1076959D01*
X393400Y1079551D01*
D02*
G37*
G36*
X340700D02*
X313400D01*
X293717Y1076959D01*
X275375Y1069362D01*
X259624Y1057276D01*
X247538Y1041525D01*
X239941Y1023183D01*
X239021Y1016200D01*
X340700D01*
Y1079551D01*
D02*
G37*
G36*
X758700D02*
X716400D01*
X696716Y1076959D01*
X678374Y1069362D01*
X662624Y1057276D01*
X650538Y1041525D01*
X642940Y1023183D01*
X642021Y1016200D01*
X758700D01*
Y1079551D01*
D02*
G37*
G36*
X5969000Y1053025D02*
Y1016000D01*
X6006025D01*
X5999366Y1032076D01*
X5985076Y1046366D01*
X5969000Y1053025D01*
D02*
G37*
G36*
X5943600D02*
X5927524Y1046366D01*
X5913234Y1032076D01*
X5906575Y1016000D01*
X5943600D01*
Y1053025D01*
D02*
G37*
G36*
Y990600D02*
X5906575D01*
X5913234Y974524D01*
X5927524Y960234D01*
X5943600Y953575D01*
Y990600D01*
D02*
G37*
G36*
X1282700Y976825D02*
Y939800D01*
X1319725D01*
X1313066Y955876D01*
X1298776Y970166D01*
X1282700Y976825D01*
D02*
G37*
G36*
X1257300D02*
X1241224Y970166D01*
X1226934Y955876D01*
X1220275Y939800D01*
X1257300D01*
Y976825D01*
D02*
G37*
G36*
X900779Y990800D02*
X784100D01*
Y927449D01*
X826400D01*
X846083Y930041D01*
X864425Y937638D01*
X880176Y949724D01*
X892262Y965475D01*
X899859Y983816D01*
X900779Y990800D01*
D02*
G37*
G36*
X758700D02*
X642021D01*
X642940Y983816D01*
X650538Y965475D01*
X662624Y949724D01*
X678374Y937638D01*
X696716Y930041D01*
X716400Y927449D01*
X758700D01*
Y990800D01*
D02*
G37*
G36*
X467779D02*
X366100D01*
Y927449D01*
X393400D01*
X413084Y930041D01*
X431425Y937638D01*
X447176Y949724D01*
X459262Y965475D01*
X466859Y983816D01*
X467779Y990800D01*
D02*
G37*
G36*
X340700D02*
X239021D01*
X239941Y983816D01*
X247538Y965475D01*
X259624Y949724D01*
X275375Y937638D01*
X293717Y930041D01*
X313400Y927449D01*
X340700D01*
Y990800D01*
D02*
G37*
G36*
X6006025Y990600D02*
X5969000D01*
Y953575D01*
X5969294Y953697D01*
X5976357Y943709D01*
X5976662Y943002D01*
X5970075Y927100D01*
X6007100D01*
Y964125D01*
X6006806Y964003D01*
X5999743Y973991D01*
X5999438Y974698D01*
X6006025Y990600D01*
D02*
G37*
G36*
X1536700Y926025D02*
Y889000D01*
X1573725D01*
X1567066Y905076D01*
X1552776Y919366D01*
X1536700Y926025D01*
D02*
G37*
G36*
X1511300D02*
X1495224Y919366D01*
X1480934Y905076D01*
X1474275Y889000D01*
X1511300D01*
Y926025D01*
D02*
G37*
G36*
X1319725Y914400D02*
X1282700D01*
Y877375D01*
X1298776Y884034D01*
X1313066Y898324D01*
X1319725Y914400D01*
D02*
G37*
G36*
X1257300D02*
X1220275D01*
X1226934Y898324D01*
X1241224Y884034D01*
X1257300Y877375D01*
Y914400D01*
D02*
G37*
G36*
X6007100Y901700D02*
X5970075D01*
X5976734Y885624D01*
X5991024Y871334D01*
X6007100Y864675D01*
Y901700D01*
D02*
G37*
G36*
X1573725Y863600D02*
X1536700D01*
Y826575D01*
X1552776Y833234D01*
X1567066Y847524D01*
X1573725Y863600D01*
D02*
G37*
G36*
X1511300D02*
X1474275D01*
X1480934Y847524D01*
X1495224Y833234D01*
X1511300Y826575D01*
Y863600D01*
D02*
G37*
G36*
X730391Y905700D02*
X712409D01*
X695796Y898819D01*
X683081Y886104D01*
X676200Y869491D01*
Y851509D01*
X683081Y834896D01*
X695796Y822181D01*
X712409Y815300D01*
X730391D01*
X747004Y822181D01*
X759719Y834896D01*
X766600Y851509D01*
Y869491D01*
X759719Y886104D01*
X747004Y898819D01*
X730391Y905700D01*
D02*
G37*
G36*
X6007100Y849825D02*
X5991024Y843166D01*
X5976734Y828876D01*
X5970075Y812800D01*
X6007100D01*
Y849825D01*
D02*
G37*
G36*
X4864100Y811725D02*
X4848024Y805066D01*
X4833734Y790776D01*
X4829609Y780817D01*
X4815862D01*
X4811737Y790776D01*
X4797447Y805066D01*
X4781371Y811725D01*
Y762000D01*
Y712275D01*
X4797447Y718934D01*
X4811737Y733224D01*
X4815862Y743183D01*
X4829609D01*
X4833734Y733224D01*
X4848024Y718934D01*
X4864100Y712275D01*
Y762000D01*
Y811725D01*
D02*
G37*
G36*
X4889500D02*
Y774700D01*
X4926525D01*
X4919866Y790776D01*
X4905576Y805066D01*
X4889500Y811725D01*
D02*
G37*
G36*
X4755971D02*
X4739895Y805066D01*
X4725604Y790776D01*
X4718946Y774700D01*
X4755971D01*
Y811725D01*
D02*
G37*
G36*
X4597400D02*
Y774700D01*
X4634425D01*
X4627766Y790776D01*
X4613476Y805066D01*
X4597400Y811725D01*
D02*
G37*
G36*
X4572000D02*
X4555924Y805066D01*
X4541634Y790776D01*
X4534975Y774700D01*
X4572000D01*
Y811725D01*
D02*
G37*
G36*
X4483100D02*
Y774700D01*
X4520125D01*
X4513466Y790776D01*
X4499176Y805066D01*
X4483100Y811725D01*
D02*
G37*
G36*
X4457700D02*
X4441624Y805066D01*
X4427334Y790776D01*
X4420675Y774700D01*
X4457700D01*
Y811725D01*
D02*
G37*
G36*
X4356100D02*
Y774700D01*
X4393125D01*
X4386466Y790776D01*
X4372176Y805066D01*
X4356100Y811725D01*
D02*
G37*
G36*
X4330700D02*
X4314624Y805066D01*
X4300334Y790776D01*
X4293675Y774700D01*
X4330700D01*
Y811725D01*
D02*
G37*
G36*
X4229100D02*
Y774700D01*
X4266125D01*
X4259466Y790776D01*
X4245176Y805066D01*
X4229100Y811725D01*
D02*
G37*
G36*
X4203700D02*
X4187624Y805066D01*
X4173334Y790776D01*
X4166675Y774700D01*
X4203700D01*
Y811725D01*
D02*
G37*
G36*
X4114800D02*
Y774700D01*
X4151825D01*
X4145166Y790776D01*
X4130876Y805066D01*
X4114800Y811725D01*
D02*
G37*
G36*
X4089400D02*
X4073324Y805066D01*
X4059034Y790776D01*
X4052375Y774700D01*
X4089400D01*
Y811725D01*
D02*
G37*
G36*
X1025599Y861060D02*
X1006401D01*
X988663Y853713D01*
X975087Y840137D01*
X967740Y822399D01*
Y803201D01*
X975087Y785463D01*
X988663Y771887D01*
X1006401Y764540D01*
X1025599D01*
X1043337Y771887D01*
X1056913Y785463D01*
X1064260Y803201D01*
Y822399D01*
X1056913Y840137D01*
X1043337Y853713D01*
X1025599Y861060D01*
D02*
G37*
G36*
X6007100Y787400D02*
X5970075D01*
X5976734Y771324D01*
X5991024Y757034D01*
X6007100Y750375D01*
Y787400D01*
D02*
G37*
G36*
X2844800Y771922D02*
Y723900D01*
X2892822D01*
X2883779Y745731D01*
X2866631Y762879D01*
X2844800Y771922D01*
D02*
G37*
G36*
X2819400D02*
X2797569Y762879D01*
X2780421Y745731D01*
X2771378Y723900D01*
X2819400D01*
Y771922D01*
D02*
G37*
G36*
X4926525Y749300D02*
X4889500D01*
Y712275D01*
X4905576Y718934D01*
X4919866Y733224D01*
X4926525Y749300D01*
D02*
G37*
G36*
X4755971D02*
X4718946D01*
X4725604Y733224D01*
X4739895Y718934D01*
X4755971Y712275D01*
Y749300D01*
D02*
G37*
G36*
X4634425D02*
X4597400D01*
Y712275D01*
X4613476Y718934D01*
X4627766Y733224D01*
X4634425Y749300D01*
D02*
G37*
G36*
X4572000D02*
X4534975D01*
X4541634Y733224D01*
X4555924Y718934D01*
X4572000Y712275D01*
Y749300D01*
D02*
G37*
G36*
X4520125D02*
X4483100D01*
Y712275D01*
X4499176Y718934D01*
X4513466Y733224D01*
X4520125Y749300D01*
D02*
G37*
G36*
X4457700D02*
X4420675D01*
X4427334Y733224D01*
X4441624Y718934D01*
X4457700Y712275D01*
Y749300D01*
D02*
G37*
G36*
X4393125D02*
X4356100D01*
Y712275D01*
X4372176Y718934D01*
X4386466Y733224D01*
X4393125Y749300D01*
D02*
G37*
G36*
X4330700D02*
X4293675D01*
X4300334Y733224D01*
X4314624Y718934D01*
X4330700Y712275D01*
Y749300D01*
D02*
G37*
G36*
X4266125D02*
X4229100D01*
Y712275D01*
X4245176Y718934D01*
X4259466Y733224D01*
X4266125Y749300D01*
D02*
G37*
G36*
X4203700D02*
X4166675D01*
X4173334Y733224D01*
X4187624Y718934D01*
X4203700Y712275D01*
Y749300D01*
D02*
G37*
G36*
X4151825D02*
X4114800D01*
Y712275D01*
X4130876Y718934D01*
X4145166Y733224D01*
X4151825Y749300D01*
D02*
G37*
G36*
X4089400D02*
X4052375D01*
X4059034Y733224D01*
X4073324Y718934D01*
X4089400Y712275D01*
Y749300D01*
D02*
G37*
G36*
X4889500Y697425D02*
Y660400D01*
X4926525D01*
X4919866Y676476D01*
X4905576Y690766D01*
X4889500Y697425D01*
D02*
G37*
G36*
X4864100D02*
X4848024Y690766D01*
X4833734Y676476D01*
X4827075Y660400D01*
X4864100D01*
Y697425D01*
D02*
G37*
G36*
X4114800D02*
Y660400D01*
X4151825D01*
X4145166Y676476D01*
X4130876Y690766D01*
X4114800Y697425D01*
D02*
G37*
G36*
X4089400D02*
X4073324Y690766D01*
X4059034Y676476D01*
X4052375Y660400D01*
X4089400D01*
Y697425D01*
D02*
G37*
G36*
X2892822Y698500D02*
X2844800D01*
Y650478D01*
X2866631Y659521D01*
X2883779Y676669D01*
X2892822Y698500D01*
D02*
G37*
G36*
X2819400D02*
X2771378D01*
X2780421Y676669D01*
X2797569Y659521D01*
X2819400Y650478D01*
Y698500D01*
D02*
G37*
G36*
X4926525Y635000D02*
X4889500D01*
Y597975D01*
X4905576Y604634D01*
X4919866Y618924D01*
X4926525Y635000D01*
D02*
G37*
G36*
X4864100D02*
X4827075D01*
X4833734Y618924D01*
X4848024Y604634D01*
X4864100Y597975D01*
Y635000D01*
D02*
G37*
G36*
X4151825D02*
X4114800D01*
Y597975D01*
X4130876Y604634D01*
X4145166Y618924D01*
X4151825Y635000D01*
D02*
G37*
G36*
X4089400D02*
X4052375D01*
X4059034Y618924D01*
X4073324Y604634D01*
X4089400Y597975D01*
Y635000D01*
D02*
G37*
G36*
X4114800Y583125D02*
Y546100D01*
X4151825D01*
X4145166Y562176D01*
X4130876Y576466D01*
X4114800Y583125D01*
D02*
G37*
G36*
X4089400D02*
X4073324Y576466D01*
X4059034Y562176D01*
X4052375Y546100D01*
X4089400D01*
Y583125D01*
D02*
G37*
G36*
X4889500Y570425D02*
Y533400D01*
X4926525D01*
X4919866Y549476D01*
X4905576Y563766D01*
X4889500Y570425D01*
D02*
G37*
G36*
X4864100D02*
X4848024Y563766D01*
X4833734Y549476D01*
X4827075Y533400D01*
X4864100D01*
Y570425D01*
D02*
G37*
G36*
X4151825Y520700D02*
X4114800D01*
Y483675D01*
X4130876Y490334D01*
X4145166Y504624D01*
X4151825Y520700D01*
D02*
G37*
G36*
X4089400D02*
X4052375D01*
X4059034Y504624D01*
X4073324Y490334D01*
X4089400Y483675D01*
Y520700D01*
D02*
G37*
G36*
X4926525Y508000D02*
X4889500D01*
Y470975D01*
X4905576Y477634D01*
X4919866Y491924D01*
X4926525Y508000D01*
D02*
G37*
G36*
X4864100D02*
X4827075D01*
X4833734Y491924D01*
X4848024Y477634D01*
X4864100Y470975D01*
Y508000D01*
D02*
G37*
G36*
X4889500Y430725D02*
Y393700D01*
X4926525D01*
X4919866Y409776D01*
X4905576Y424066D01*
X4889500Y430725D01*
D02*
G37*
G36*
X4864100D02*
X4848024Y424066D01*
X4833734Y409776D01*
X4827075Y393700D01*
X4864100D01*
Y430725D01*
D02*
G37*
G36*
X4114800Y392625D02*
Y355600D01*
X4151825D01*
X4145166Y371676D01*
X4130876Y385966D01*
X4114800Y392625D01*
D02*
G37*
G36*
X4089400D02*
X4073324Y385966D01*
X4059034Y371676D01*
X4052375Y355600D01*
X4089400D01*
Y392625D01*
D02*
G37*
G36*
X4926525Y368300D02*
X4889500D01*
Y331275D01*
X4905576Y337934D01*
X4919866Y352224D01*
X4926525Y368300D01*
D02*
G37*
G36*
X4864100D02*
X4827075D01*
X4833734Y352224D01*
X4848024Y337934D01*
X4864100Y331275D01*
Y368300D01*
D02*
G37*
G36*
X4151825Y330200D02*
X4114800D01*
Y293175D01*
X4130876Y299834D01*
X4145166Y314124D01*
X4151825Y330200D01*
D02*
G37*
G36*
X4089400D02*
X4052375D01*
X4059034Y314124D01*
X4073324Y299834D01*
X4089400Y293175D01*
Y330200D01*
D02*
G37*
G36*
X1025599Y378460D02*
X1006401D01*
X988663Y371113D01*
X975087Y357537D01*
X967740Y339799D01*
Y320601D01*
X975087Y302863D01*
X988663Y289287D01*
X1006401Y281940D01*
X1025599D01*
X1043337Y289287D01*
X1056913Y302863D01*
X1064260Y320601D01*
Y339799D01*
X1056913Y357537D01*
X1043337Y371113D01*
X1025599Y378460D01*
D02*
G37*
G36*
X2994315Y479585D02*
X2984500D01*
Y263685D01*
X3200400D01*
Y273500D01*
X3191615Y317665D01*
X3174383Y359267D01*
X3149365Y396709D01*
X3117524Y428550D01*
X3080083Y453567D01*
X3038480Y470800D01*
X2994315Y479585D01*
D02*
G37*
G36*
X2959100D02*
X2949285D01*
X2905120Y470800D01*
X2863517Y453567D01*
X2826076Y428550D01*
X2794235Y396709D01*
X2769217Y359267D01*
X2751985Y317665D01*
X2743200Y273500D01*
Y263685D01*
X2959100D01*
Y479585D01*
D02*
G37*
G36*
X6303935Y479552D02*
X6294120D01*
Y263652D01*
X6510020D01*
Y273467D01*
X6501235Y317632D01*
X6484003Y359235D01*
X6458985Y396676D01*
X6427144Y428517D01*
X6389703Y453535D01*
X6348100Y470767D01*
X6303935Y479552D01*
D02*
G37*
G36*
X6268720D02*
X6258905D01*
X6214740Y470767D01*
X6173137Y453535D01*
X6135696Y428517D01*
X6103855Y396676D01*
X6078837Y359235D01*
X6061605Y317632D01*
X6052820Y273467D01*
Y263652D01*
X6268720D01*
Y479552D01*
D02*
G37*
G36*
X4889500Y278325D02*
Y241300D01*
X4926525D01*
X4919866Y257376D01*
X4905576Y271666D01*
X4889500Y278325D01*
D02*
G37*
G36*
X4864100D02*
X4848024Y271666D01*
X4833734Y257376D01*
X4827075Y241300D01*
X4864100D01*
Y278325D01*
D02*
G37*
G36*
X4749800D02*
Y241300D01*
X4786825D01*
X4780166Y257376D01*
X4765876Y271666D01*
X4749800Y278325D01*
D02*
G37*
G36*
X4724400D02*
X4708324Y271666D01*
X4694034Y257376D01*
X4687375Y241300D01*
X4724400D01*
Y278325D01*
D02*
G37*
G36*
X4610100D02*
Y241300D01*
X4647125D01*
X4640466Y257376D01*
X4626176Y271666D01*
X4610100Y278325D01*
D02*
G37*
G36*
X4584700D02*
X4568624Y271666D01*
X4554334Y257376D01*
X4547675Y241300D01*
X4584700D01*
Y278325D01*
D02*
G37*
G36*
X4483100D02*
Y241300D01*
X4520125D01*
X4513466Y257376D01*
X4499176Y271666D01*
X4483100Y278325D01*
D02*
G37*
G36*
X4457700D02*
X4441624Y271666D01*
X4427334Y257376D01*
X4420675Y241300D01*
X4457700D01*
Y278325D01*
D02*
G37*
G36*
X4356100D02*
Y241300D01*
X4393125D01*
X4386466Y257376D01*
X4372176Y271666D01*
X4356100Y278325D01*
D02*
G37*
G36*
X4330700D02*
X4314624Y271666D01*
X4300334Y257376D01*
X4293675Y241300D01*
X4330700D01*
Y278325D01*
D02*
G37*
G36*
X4229100D02*
Y241300D01*
X4266125D01*
X4259466Y257376D01*
X4245176Y271666D01*
X4229100Y278325D01*
D02*
G37*
G36*
X4203700D02*
X4187624Y271666D01*
X4173334Y257376D01*
X4166675Y241300D01*
X4203700D01*
Y278325D01*
D02*
G37*
G36*
X4114800D02*
Y241300D01*
X4151825D01*
X4145166Y257376D01*
X4130876Y271666D01*
X4114800Y278325D01*
D02*
G37*
G36*
X4089400D02*
X4073324Y271666D01*
X4059034Y257376D01*
X4052375Y241300D01*
X4089400D01*
Y278325D01*
D02*
G37*
G36*
X730391Y327700D02*
X712409D01*
X695796Y320819D01*
X683081Y308104D01*
X676200Y291491D01*
Y273509D01*
X683081Y256896D01*
X695796Y244181D01*
X712409Y237300D01*
X730391D01*
X747004Y244181D01*
X759719Y256896D01*
X766600Y273509D01*
Y291491D01*
X759719Y308104D01*
X747004Y320819D01*
X730391Y327700D01*
D02*
G37*
G36*
X1282700Y227525D02*
Y190500D01*
X1319725D01*
X1313066Y206576D01*
X1298776Y220866D01*
X1282700Y227525D01*
D02*
G37*
G36*
X1257300D02*
X1241224Y220866D01*
X1226934Y206576D01*
X1220275Y190500D01*
X1257300D01*
Y227525D01*
D02*
G37*
G36*
X4926525Y215900D02*
X4889500D01*
Y178875D01*
X4905576Y185534D01*
X4919866Y199824D01*
X4926525Y215900D01*
D02*
G37*
G36*
X4864100D02*
X4827075D01*
X4833734Y199824D01*
X4848024Y185534D01*
X4864100Y178875D01*
Y215900D01*
D02*
G37*
G36*
X4786825D02*
X4749800D01*
Y178875D01*
X4765876Y185534D01*
X4780166Y199824D01*
X4786825Y215900D01*
D02*
G37*
G36*
X4724400D02*
X4687375D01*
X4694034Y199824D01*
X4708324Y185534D01*
X4724400Y178875D01*
Y215900D01*
D02*
G37*
G36*
X4647125D02*
X4610100D01*
Y178875D01*
X4626176Y185534D01*
X4640466Y199824D01*
X4647125Y215900D01*
D02*
G37*
G36*
X4584700D02*
X4547675D01*
X4554334Y199824D01*
X4568624Y185534D01*
X4584700Y178875D01*
Y215900D01*
D02*
G37*
G36*
X4520125D02*
X4483100D01*
Y178875D01*
X4499176Y185534D01*
X4513466Y199824D01*
X4520125Y215900D01*
D02*
G37*
G36*
X4457700D02*
X4420675D01*
X4427334Y199824D01*
X4441624Y185534D01*
X4457700Y178875D01*
Y215900D01*
D02*
G37*
G36*
X4393125D02*
X4356100D01*
Y178875D01*
X4372176Y185534D01*
X4386466Y199824D01*
X4393125Y215900D01*
D02*
G37*
G36*
X4330700D02*
X4293675D01*
X4300334Y199824D01*
X4314624Y185534D01*
X4330700Y178875D01*
Y215900D01*
D02*
G37*
G36*
X4266125D02*
X4229100D01*
Y178875D01*
X4245176Y185534D01*
X4259466Y199824D01*
X4266125Y215900D01*
D02*
G37*
G36*
X4203700D02*
X4166675D01*
X4173334Y199824D01*
X4187624Y185534D01*
X4203700Y178875D01*
Y215900D01*
D02*
G37*
G36*
X4151825D02*
X4114800D01*
Y178875D01*
X4130876Y185534D01*
X4145166Y199824D01*
X4151825Y215900D01*
D02*
G37*
G36*
X4089400D02*
X4052375D01*
X4059034Y199824D01*
X4073324Y185534D01*
X4089400Y178875D01*
Y215900D01*
D02*
G37*
G36*
X826400Y215551D02*
X784100D01*
Y152200D01*
X900779D01*
X899859Y159184D01*
X892262Y177525D01*
X880176Y193276D01*
X864425Y205362D01*
X846083Y212959D01*
X826400Y215551D01*
D02*
G37*
G36*
X393400D02*
X366100D01*
Y152200D01*
X467779D01*
X466859Y159184D01*
X459262Y177525D01*
X447176Y193276D01*
X431425Y205362D01*
X413084Y212959D01*
X393400Y215551D01*
D02*
G37*
G36*
X340700D02*
X313400D01*
X293717Y212959D01*
X275375Y205362D01*
X259624Y193276D01*
X247538Y177525D01*
X239941Y159184D01*
X239021Y152200D01*
X340700D01*
Y215551D01*
D02*
G37*
G36*
X758700D02*
X716400D01*
X696716Y212959D01*
X678374Y205362D01*
X662624Y193276D01*
X650538Y177525D01*
X642940Y159184D01*
X642021Y152200D01*
X758700D01*
Y215551D01*
D02*
G37*
G36*
X1319725Y165100D02*
X1282700D01*
Y128075D01*
X1298776Y134734D01*
X1313066Y149024D01*
X1319725Y165100D01*
D02*
G37*
G36*
X1257300D02*
X1220275D01*
X1226934Y149024D01*
X1241224Y134734D01*
X1257300Y128075D01*
Y165100D01*
D02*
G37*
G36*
X900779Y126800D02*
X784100D01*
Y63449D01*
X826400D01*
X846083Y66041D01*
X864425Y73638D01*
X880176Y85724D01*
X892262Y101475D01*
X899859Y119817D01*
X900779Y126800D01*
D02*
G37*
G36*
X758700D02*
X642021D01*
X642940Y119817D01*
X650538Y101475D01*
X662624Y85724D01*
X678374Y73638D01*
X696716Y66041D01*
X716400Y63449D01*
X758700D01*
Y126800D01*
D02*
G37*
G36*
X467779D02*
X366100D01*
Y63449D01*
X393400D01*
X413084Y66041D01*
X431425Y73638D01*
X447176Y85724D01*
X459262Y101475D01*
X466859Y119817D01*
X467779Y126800D01*
D02*
G37*
G36*
X340700D02*
X239021D01*
X239941Y119817D01*
X247538Y101475D01*
X259624Y85724D01*
X275375Y73638D01*
X293717Y66041D01*
X313400Y63449D01*
X340700D01*
Y126800D01*
D02*
G37*
G36*
X3200400Y238285D02*
X2984500D01*
Y22385D01*
X2994315D01*
X3038480Y31169D01*
X3080083Y48402D01*
X3117524Y73419D01*
X3149365Y105260D01*
X3174383Y142702D01*
X3191615Y184304D01*
X3200400Y228469D01*
Y238285D01*
D02*
G37*
G36*
X2959100D02*
X2743200D01*
Y228469D01*
X2751985Y184304D01*
X2769217Y142702D01*
X2794235Y105260D01*
X2826076Y73419D01*
X2863517Y48402D01*
X2905120Y31169D01*
X2949285Y22385D01*
X2959100D01*
Y238285D01*
D02*
G37*
G36*
X6510020Y238252D02*
X6294120D01*
Y22352D01*
X6303935D01*
X6348100Y31137D01*
X6389703Y48369D01*
X6427144Y73387D01*
X6458985Y105228D01*
X6484003Y142669D01*
X6501235Y184272D01*
X6510020Y228437D01*
Y238252D01*
D02*
G37*
G36*
X6268720D02*
X6052820D01*
Y228437D01*
X6061605Y184272D01*
X6078837Y142669D01*
X6103855Y105228D01*
X6135696Y73387D01*
X6173137Y48369D01*
X6214740Y31137D01*
X6258905Y22352D01*
X6268720D01*
Y238252D01*
D02*
G37*
%LPD*%
D56*
X2426200Y4922300D02*
D03*
Y2763300D02*
D03*
D57*
X1727200Y4178300D02*
D03*
Y3507300D02*
D03*
X2426200D02*
D03*
D58*
Y4178300D02*
D03*
D59*
X353400Y1003500D02*
D03*
Y139500D02*
D03*
D60*
X771400Y1003500D02*
D03*
Y139500D02*
D03*
D61*
X721400Y860500D02*
D03*
Y282500D02*
D03*
D62*
X5588000Y5219700D02*
D03*
X4546600Y2260600D02*
D03*
X5588000Y5321300D02*
D03*
X2832100Y711200D02*
D03*
X5588000Y1600200D02*
D03*
X6168900Y4305300D02*
D03*
X5041900Y1117600D02*
D03*
Y1219200D02*
D03*
X4432300Y3467100D02*
D03*
Y3632200D02*
D03*
X4229100Y2222500D02*
D03*
X4127500D02*
D03*
X2933700Y1447800D02*
D03*
X5549900Y3530600D02*
D03*
X5943600Y4533900D02*
D03*
X2933700Y4457700D02*
D03*
X6375400Y3251200D02*
D03*
X5664200D02*
D03*
X5486400Y3784600D02*
D03*
X5304171Y4016694D02*
D03*
X5626100Y4305300D02*
D03*
X6261100Y3771900D02*
D03*
X4508500Y3835400D02*
D03*
X3886200Y4152900D02*
D03*
X3378200Y4089400D02*
D03*
X3683000Y4648200D02*
D03*
Y4457700D02*
D03*
Y4267200D02*
D03*
Y4089400D02*
D03*
X3530600D02*
D03*
X3378200Y4267200D02*
D03*
X3530600D02*
D03*
Y4457700D02*
D03*
Y4648200D02*
D03*
X3066355Y4544583D02*
D03*
X3022600Y3873500D02*
D03*
X2933700Y4635500D02*
D03*
X3556000Y3835400D02*
D03*
X1016000Y812800D02*
D03*
Y330200D02*
D03*
D63*
X5867400Y2971800D02*
D03*
X4546600Y2717800D02*
D03*
X4457700D02*
D03*
X4406900Y2273300D02*
D03*
X4318000Y2222500D02*
D03*
X4076700Y5265420D02*
D03*
X4876800Y2273300D02*
D03*
Y1752600D02*
D03*
X4572000Y5067300D02*
D03*
X4457700Y2006600D02*
D03*
X5778500Y3048000D02*
D03*
X6108700D02*
D03*
X1524000Y876300D02*
D03*
X1270000Y927100D02*
D03*
X6007100Y2882900D02*
D03*
X6134100D02*
D03*
X6515100D02*
D03*
X6388100D02*
D03*
X6261100D02*
D03*
X6019800Y800100D02*
D03*
Y914400D02*
D03*
X5956300Y1003300D02*
D03*
X5892800Y1117600D02*
D03*
X5880100Y1231900D02*
D03*
X5753100Y1244600D02*
D03*
X5638800Y1320800D02*
D03*
X5537200Y1371600D02*
D03*
X5410200D02*
D03*
Y1498600D02*
D03*
X5537200D02*
D03*
X5676900Y1460500D02*
D03*
X5778500Y1384300D02*
D03*
X5892800Y1371600D02*
D03*
X6007100Y1244600D02*
D03*
Y1371600D02*
D03*
Y1498600D02*
D03*
Y1625600D02*
D03*
Y1752600D02*
D03*
Y1879600D02*
D03*
Y2006600D02*
D03*
Y2133600D02*
D03*
Y2260600D02*
D03*
Y2387600D02*
D03*
Y2514600D02*
D03*
Y2641600D02*
D03*
Y2768600D02*
D03*
X6032500Y1092200D02*
D03*
X5156200Y1841500D02*
D03*
X3733800Y1993900D02*
D03*
X4102100Y1598640D02*
D03*
X4749800Y2070100D02*
D03*
X5829300Y4533900D02*
D03*
X4102100Y342900D02*
D03*
Y762000D02*
D03*
Y647700D02*
D03*
Y533400D02*
D03*
X4876800Y381000D02*
D03*
X4102100Y228600D02*
D03*
X4216400D02*
D03*
X4343400D02*
D03*
X4470400D02*
D03*
X4597400D02*
D03*
X4737100D02*
D03*
X4876800D02*
D03*
Y520700D02*
D03*
Y647700D02*
D03*
Y762000D02*
D03*
X4768671D02*
D03*
X4216400D02*
D03*
X4584700D02*
D03*
X4343400D02*
D03*
X4470400D02*
D03*
X4584700Y1500625D02*
D03*
X4356100Y1498600D02*
D03*
X4470400D02*
D03*
X4356100Y1625600D02*
D03*
X1270000Y177800D02*
D03*
X4432300Y3276600D02*
D03*
X4356100Y1741925D02*
D03*
X4584700Y1627625D02*
D03*
Y1741925D02*
D03*
X4470400D02*
D03*
D64*
X6281420Y250952D02*
D03*
X6281622Y6324600D02*
D03*
X2971800Y250985D02*
D03*
Y6324600D02*
D03*
D65*
X4470400Y1625600D02*
D03*
D66*
X5922400Y3843900D02*
D03*
X5812400D02*
D03*
Y3953900D02*
D03*
X5922400D02*
D03*
%TF.MD5,5b74faf94100174bb64cba224d5c84a2*%
M02*
