%TF.GenerationSoftware,Altium Limited,Altium Designer,23.10.1 (27)*%
G04 Layer_Physical_Order=2*
G04 Layer_Color=36540*
%FSLAX45Y45*%
%MOMM*%
%TF.SameCoordinates,2CED323B-BA49-4281-A081-A7916B394634*%
%TF.FilePolarity,Positive*%
%TF.FileFunction,Copper,L2,Inr,Signal*%
%TF.Part,Single*%
G01*
G75*
%TA.AperFunction,ComponentPad*%
%ADD53C,0.65000*%
G04:AMPARAMS|DCode=54|XSize=1mm|YSize=2.1mm|CornerRadius=0.5mm|HoleSize=0mm|Usage=FLASHONLY|Rotation=270.000|XOffset=0mm|YOffset=0mm|HoleType=Round|Shape=RoundedRectangle|*
%AMROUNDEDRECTD54*
21,1,1.00000,1.10000,0,0,270.0*
21,1,0.00000,2.10000,0,0,270.0*
1,1,1.00000,-0.55000,0.00000*
1,1,1.00000,-0.55000,0.00000*
1,1,1.00000,0.55000,0.00000*
1,1,1.00000,0.55000,0.00000*
%
%ADD54ROUNDEDRECTD54*%
G04:AMPARAMS|DCode=55|XSize=1mm|YSize=1.8mm|CornerRadius=0.5mm|HoleSize=0mm|Usage=FLASHONLY|Rotation=270.000|XOffset=0mm|YOffset=0mm|HoleType=Round|Shape=RoundedRectangle|*
%AMROUNDEDRECTD55*
21,1,1.00000,0.80000,0,0,270.0*
21,1,0.00000,1.80000,0,0,270.0*
1,1,1.00000,-0.40000,0.00000*
1,1,1.00000,-0.40000,0.00000*
1,1,1.00000,0.40000,0.00000*
1,1,1.00000,0.40000,0.00000*
%
%ADD55ROUNDEDRECTD55*%
%ADD56C,1.80000*%
%ADD57R,1.80000X1.80000*%
%TA.AperFunction,ViaPad*%
%ADD58C,0.50800*%
%ADD59C,0.50000*%
%ADD60C,0.71120*%
%ADD61C,1.27000*%
G36*
X4381500Y2616200D02*
Y728994D01*
X4370940Y721938D01*
X4368800Y722825D01*
Y673100D01*
Y623375D01*
X4370940Y624262D01*
X4381500Y617206D01*
Y25397D01*
X25400Y25401D01*
X25400Y815020D01*
X38100Y821271D01*
X52417Y815341D01*
X72100Y812749D01*
X99400D01*
Y888800D01*
Y964851D01*
X72100D01*
X52417Y962259D01*
X38100Y956329D01*
X25400Y962580D01*
X25399Y1679020D01*
X38099Y1685271D01*
X52417Y1679341D01*
X72100Y1676749D01*
X99400D01*
Y1752800D01*
Y1828851D01*
X72100D01*
X52417Y1826259D01*
X38099Y1820329D01*
X25399Y1826580D01*
X25399Y2616201D01*
X4381500Y2616200D01*
D02*
G37*
%LPC*%
G36*
X3733800Y2589725D02*
Y2552700D01*
X3770825D01*
X3764166Y2568776D01*
X3749876Y2583066D01*
X3733800Y2589725D01*
D02*
G37*
G36*
X3708400D02*
X3692324Y2583066D01*
X3678034Y2568776D01*
X3671375Y2552700D01*
X3708400D01*
Y2589725D01*
D02*
G37*
G36*
X1422400Y2538925D02*
Y2501900D01*
X1459425D01*
X1452766Y2517976D01*
X1438476Y2532266D01*
X1422400Y2538925D01*
D02*
G37*
G36*
X1397000D02*
X1380924Y2532266D01*
X1366634Y2517976D01*
X1359975Y2501900D01*
X1397000D01*
Y2538925D01*
D02*
G37*
G36*
X3770825Y2527300D02*
X3733800D01*
Y2490275D01*
X3749876Y2496934D01*
X3764166Y2511224D01*
X3770825Y2527300D01*
D02*
G37*
G36*
X3708400D02*
X3671375D01*
X3678034Y2511224D01*
X3692324Y2496934D01*
X3708400Y2490275D01*
Y2527300D01*
D02*
G37*
G36*
X4330700Y2500825D02*
Y2463800D01*
X4367725D01*
X4361066Y2479876D01*
X4346776Y2494166D01*
X4330700Y2500825D01*
D02*
G37*
G36*
X4305300D02*
X4289224Y2494166D01*
X4274934Y2479876D01*
X4268275Y2463800D01*
X4305300D01*
Y2500825D01*
D02*
G37*
G36*
X1459425Y2476500D02*
X1422400D01*
Y2439475D01*
X1438476Y2446134D01*
X1452766Y2460424D01*
X1459425Y2476500D01*
D02*
G37*
G36*
X1397000D02*
X1359975D01*
X1366634Y2460424D01*
X1380924Y2446134D01*
X1397000Y2439475D01*
Y2476500D01*
D02*
G37*
G36*
X2959100Y2475425D02*
Y2438400D01*
X2996125D01*
X2989466Y2454476D01*
X2975176Y2468766D01*
X2959100Y2475425D01*
D02*
G37*
G36*
X2933700D02*
X2917624Y2468766D01*
X2903334Y2454476D01*
X2896675Y2438400D01*
X2933700D01*
Y2475425D01*
D02*
G37*
G36*
X1892300D02*
Y2438400D01*
X1929325D01*
X1922666Y2454476D01*
X1908376Y2468766D01*
X1892300Y2475425D01*
D02*
G37*
G36*
X1866900D02*
X1850824Y2468766D01*
X1836534Y2454476D01*
X1829875Y2438400D01*
X1866900D01*
Y2475425D01*
D02*
G37*
G36*
X4367725Y2438400D02*
X4330700D01*
Y2401375D01*
X4346776Y2408034D01*
X4361066Y2422324D01*
X4367725Y2438400D01*
D02*
G37*
G36*
X4305300D02*
X4268275D01*
X4274934Y2422324D01*
X4289224Y2408034D01*
X4305300Y2401375D01*
Y2438400D01*
D02*
G37*
G36*
X4084279Y2463800D02*
X4069121D01*
X4055118Y2458000D01*
X4044400Y2447282D01*
X4038600Y2433279D01*
Y2418121D01*
X4044400Y2404118D01*
X4055118Y2393400D01*
X4069121Y2387600D01*
X4084279D01*
X4098282Y2393400D01*
X4109000Y2404118D01*
X4114800Y2418121D01*
Y2433279D01*
X4109000Y2447282D01*
X4098282Y2458000D01*
X4084279Y2463800D01*
D02*
G37*
G36*
X2996125Y2413000D02*
X2959100D01*
Y2375975D01*
X2975176Y2382634D01*
X2989466Y2396924D01*
X2996125Y2413000D01*
D02*
G37*
G36*
X2933700D02*
X2896675D01*
X2903334Y2396924D01*
X2917624Y2382634D01*
X2933700Y2375975D01*
Y2413000D01*
D02*
G37*
G36*
X1929325D02*
X1892300D01*
Y2375975D01*
X1908376Y2382634D01*
X1922666Y2396924D01*
X1929325Y2413000D01*
D02*
G37*
G36*
X1866900D02*
X1829875D01*
X1836534Y2396924D01*
X1850824Y2382634D01*
X1866900Y2375975D01*
Y2413000D01*
D02*
G37*
G36*
X3542299Y2404100D02*
X3527301D01*
X3513445Y2398360D01*
X3502839Y2387755D01*
X3497100Y2373899D01*
Y2358901D01*
X3502839Y2345045D01*
X3513445Y2334439D01*
X3527301Y2328700D01*
X3542299D01*
X3556155Y2334439D01*
X3566760Y2345045D01*
X3572500Y2358901D01*
Y2373899D01*
X3566760Y2387755D01*
X3556155Y2398360D01*
X3542299Y2404100D01*
D02*
G37*
G36*
X3432299D02*
X3417301D01*
X3403445Y2398360D01*
X3392840Y2387755D01*
X3387100Y2373899D01*
Y2358901D01*
X3392840Y2345045D01*
X3403445Y2334439D01*
X3417301Y2328700D01*
X3432299D01*
X3446155Y2334439D01*
X3456761Y2345045D01*
X3462500Y2358901D01*
Y2373899D01*
X3456761Y2387755D01*
X3446155Y2398360D01*
X3432299Y2404100D01*
D02*
G37*
G36*
X4330700Y2348425D02*
Y2311400D01*
X4367725D01*
X4361066Y2327476D01*
X4346776Y2341766D01*
X4330700Y2348425D01*
D02*
G37*
G36*
X4305300D02*
X4289224Y2341766D01*
X4274934Y2327476D01*
X4268275Y2311400D01*
X4305300D01*
Y2348425D01*
D02*
G37*
G36*
X4367725Y2286000D02*
X4330700D01*
Y2248975D01*
X4346776Y2255634D01*
X4361066Y2269924D01*
X4367725Y2286000D01*
D02*
G37*
G36*
X4305300D02*
X4268275D01*
X4274934Y2269924D01*
X4289224Y2255634D01*
X4305300Y2248975D01*
Y2286000D01*
D02*
G37*
G36*
X3542299Y2294100D02*
X3527301D01*
X3513445Y2288361D01*
X3502839Y2277755D01*
X3497100Y2263899D01*
Y2248901D01*
X3502839Y2235045D01*
X3513445Y2224440D01*
X3527301Y2218700D01*
X3542299D01*
X3556155Y2224440D01*
X3566760Y2235045D01*
X3572500Y2248901D01*
Y2263899D01*
X3566760Y2277755D01*
X3556155Y2288361D01*
X3542299Y2294100D01*
D02*
G37*
G36*
X3432299D02*
X3417301D01*
X3403445Y2288361D01*
X3392840Y2277755D01*
X3387100Y2263899D01*
Y2248901D01*
X3392840Y2235045D01*
X3403445Y2224440D01*
X3417301Y2218700D01*
X3432299D01*
X3446155Y2224440D01*
X3456761Y2235045D01*
X3462500Y2248901D01*
Y2263899D01*
X3456761Y2277755D01*
X3446155Y2288361D01*
X3432299Y2294100D01*
D02*
G37*
G36*
X1125179Y2286000D02*
X1110021D01*
X1096018Y2280200D01*
X1085300Y2269482D01*
X1079500Y2255479D01*
Y2240321D01*
X1085300Y2226318D01*
X1096018Y2215600D01*
X1110021Y2209800D01*
X1125179D01*
X1139182Y2215600D01*
X1149900Y2226318D01*
X1155700Y2240321D01*
Y2255479D01*
X1149900Y2269482D01*
X1139182Y2280200D01*
X1125179Y2286000D01*
D02*
G37*
G36*
X190500Y2246825D02*
Y2209800D01*
X227525D01*
X220866Y2225876D01*
X206576Y2240166D01*
X190500Y2246825D01*
D02*
G37*
G36*
X165100D02*
X149024Y2240166D01*
X134734Y2225876D01*
X128075Y2209800D01*
X165100D01*
Y2246825D01*
D02*
G37*
G36*
X4330700Y2221425D02*
Y2184400D01*
X4367725D01*
X4361066Y2200476D01*
X4346776Y2214766D01*
X4330700Y2221425D01*
D02*
G37*
G36*
X4305300D02*
X4289224Y2214766D01*
X4274934Y2200476D01*
X4268275Y2184400D01*
X4305300D01*
Y2221425D01*
D02*
G37*
G36*
X227525Y2184400D02*
X190500D01*
Y2147375D01*
X206576Y2154034D01*
X220866Y2168324D01*
X227525Y2184400D01*
D02*
G37*
G36*
X165100D02*
X128075D01*
X134734Y2168324D01*
X149024Y2154034D01*
X165100Y2147375D01*
Y2184400D01*
D02*
G37*
G36*
X4367725Y2159000D02*
X4330700D01*
Y2121975D01*
X4346776Y2128634D01*
X4361066Y2142924D01*
X4367725Y2159000D01*
D02*
G37*
G36*
X4305300D02*
X4268275D01*
X4274934Y2142924D01*
X4289224Y2128634D01*
X4305300Y2121975D01*
Y2159000D01*
D02*
G37*
G36*
X3708400Y2119825D02*
Y2082800D01*
X3745425D01*
X3738766Y2098876D01*
X3724476Y2113166D01*
X3708400Y2119825D01*
D02*
G37*
G36*
X3683000D02*
X3666924Y2113166D01*
X3652634Y2098876D01*
X3645975Y2082800D01*
X3683000D01*
Y2119825D01*
D02*
G37*
G36*
X4330700Y2094425D02*
Y2057400D01*
X4367725D01*
X4361066Y2073476D01*
X4346776Y2087766D01*
X4330700Y2094425D01*
D02*
G37*
G36*
X4305300D02*
X4289224Y2087766D01*
X4274934Y2073476D01*
X4268275Y2057400D01*
X4305300D01*
Y2094425D01*
D02*
G37*
G36*
X3944579Y2108200D02*
X3929421D01*
X3915418Y2102400D01*
X3904700Y2091682D01*
X3898900Y2077679D01*
Y2062521D01*
X3904700Y2048518D01*
X3915418Y2037800D01*
X3929421Y2032000D01*
X3944579D01*
X3958582Y2037800D01*
X3969300Y2048518D01*
X3975100Y2062521D01*
Y2077679D01*
X3969300Y2091682D01*
X3958582Y2102400D01*
X3944579Y2108200D01*
D02*
G37*
G36*
X3745425Y2057400D02*
X3708400D01*
Y2020375D01*
X3724476Y2027034D01*
X3738766Y2041324D01*
X3745425Y2057400D01*
D02*
G37*
G36*
X3683000D02*
X3645975D01*
X3652634Y2041324D01*
X3666924Y2027034D01*
X3683000Y2020375D01*
Y2057400D01*
D02*
G37*
G36*
X1431999Y2105660D02*
X1412801D01*
X1395063Y2098313D01*
X1381487Y2084737D01*
X1374140Y2066999D01*
Y2047801D01*
X1381487Y2030063D01*
X1395063Y2016487D01*
X1412801Y2009140D01*
X1431999D01*
X1449737Y2016487D01*
X1463313Y2030063D01*
X1470660Y2047801D01*
Y2066999D01*
X1463313Y2084737D01*
X1449737Y2098313D01*
X1431999Y2105660D01*
D02*
G37*
G36*
X4367725Y2032000D02*
X4330700D01*
Y1994975D01*
X4346776Y2001634D01*
X4361066Y2015924D01*
X4367725Y2032000D01*
D02*
G37*
G36*
X4305300D02*
X4268275D01*
X4274934Y2015924D01*
X4289224Y2001634D01*
X4305300Y1994975D01*
Y2032000D01*
D02*
G37*
G36*
X939800Y1992825D02*
Y1955800D01*
X976825D01*
X970166Y1971876D01*
X955876Y1986166D01*
X939800Y1992825D01*
D02*
G37*
G36*
X914400D02*
X898324Y1986166D01*
X884034Y1971876D01*
X877375Y1955800D01*
X914400D01*
Y1992825D01*
D02*
G37*
G36*
X4330700Y1954725D02*
Y1917700D01*
X4367725D01*
X4361066Y1933776D01*
X4346776Y1948066D01*
X4330700Y1954725D01*
D02*
G37*
G36*
X4305300D02*
X4289224Y1948066D01*
X4274934Y1933776D01*
X4268275Y1917700D01*
X4305300D01*
Y1954725D01*
D02*
G37*
G36*
X1663700D02*
Y1917700D01*
X1700725D01*
X1694066Y1933776D01*
X1679776Y1948066D01*
X1663700Y1954725D01*
D02*
G37*
G36*
X1638300D02*
X1622224Y1948066D01*
X1607934Y1933776D01*
X1601275Y1917700D01*
X1638300D01*
Y1954725D01*
D02*
G37*
G36*
X976825Y1930400D02*
X939800D01*
Y1893375D01*
X955876Y1900034D01*
X970166Y1914324D01*
X976825Y1930400D01*
D02*
G37*
G36*
X914400D02*
X877375D01*
X884034Y1914324D01*
X898324Y1900034D01*
X914400Y1893375D01*
Y1930400D01*
D02*
G37*
G36*
X2781300Y1916625D02*
Y1879600D01*
X2818325D01*
X2811666Y1895676D01*
X2797376Y1909966D01*
X2781300Y1916625D01*
D02*
G37*
G36*
X2755900D02*
X2739824Y1909966D01*
X2725534Y1895676D01*
X2718875Y1879600D01*
X2755900D01*
Y1916625D01*
D02*
G37*
G36*
X2590800D02*
Y1879600D01*
X2627825D01*
X2621166Y1895676D01*
X2606876Y1909966D01*
X2590800Y1916625D01*
D02*
G37*
G36*
X2565400D02*
X2549324Y1909966D01*
X2535034Y1895676D01*
X2528375Y1879600D01*
X2565400D01*
Y1916625D01*
D02*
G37*
G36*
X1700725Y1892300D02*
X1663700D01*
Y1855275D01*
X1679776Y1861934D01*
X1694066Y1876224D01*
X1700725Y1892300D01*
D02*
G37*
G36*
X1638300D02*
X1601275D01*
X1607934Y1876224D01*
X1622224Y1861934D01*
X1638300Y1855275D01*
Y1892300D01*
D02*
G37*
G36*
X4367725D02*
X4330700D01*
Y1855275D01*
X4346776Y1861934D01*
X4361066Y1876224D01*
X4367725Y1892300D01*
D02*
G37*
G36*
X4305300D02*
X4268275D01*
X4274934Y1876224D01*
X4289224Y1861934D01*
X4305300Y1855275D01*
Y1892300D01*
D02*
G37*
G36*
X3416300Y1865825D02*
Y1828800D01*
X3453325D01*
X3446666Y1844876D01*
X3432376Y1859166D01*
X3416300Y1865825D01*
D02*
G37*
G36*
X3390900D02*
X3374824Y1859166D01*
X3360534Y1844876D01*
X3353875Y1828800D01*
X3390900D01*
Y1865825D01*
D02*
G37*
G36*
X2818325Y1854200D02*
X2781300D01*
Y1817175D01*
X2797376Y1823834D01*
X2811666Y1838124D01*
X2818325Y1854200D01*
D02*
G37*
G36*
X2755900D02*
X2718875D01*
X2725534Y1838124D01*
X2739824Y1823834D01*
X2755900Y1817175D01*
Y1854200D01*
D02*
G37*
G36*
X2627825D02*
X2590800D01*
Y1817175D01*
X2606876Y1823834D01*
X2621166Y1838124D01*
X2627825Y1854200D01*
D02*
G37*
G36*
X2565400D02*
X2528375D01*
X2535034Y1838124D01*
X2549324Y1823834D01*
X2565400Y1817175D01*
Y1854200D01*
D02*
G37*
G36*
X3453325Y1803400D02*
X3416300D01*
Y1766375D01*
X3432376Y1773034D01*
X3446666Y1787324D01*
X3453325Y1803400D01*
D02*
G37*
G36*
X3390900D02*
X3353875D01*
X3360534Y1787324D01*
X3374824Y1773034D01*
X3390900Y1766375D01*
Y1803400D01*
D02*
G37*
G36*
X585100Y1828851D02*
X542800D01*
Y1765500D01*
X659478D01*
X658559Y1772483D01*
X650962Y1790825D01*
X638876Y1806576D01*
X623125Y1818662D01*
X604783Y1826259D01*
X585100Y1828851D01*
D02*
G37*
G36*
X152100D02*
X124800D01*
Y1765500D01*
X226479D01*
X225559Y1772483D01*
X217962Y1790825D01*
X205876Y1806576D01*
X190125Y1818662D01*
X171784Y1826259D01*
X152100Y1828851D01*
D02*
G37*
G36*
X517400D02*
X475100D01*
X455416Y1826259D01*
X437074Y1818662D01*
X421324Y1806576D01*
X409238Y1790825D01*
X401640Y1772483D01*
X400721Y1765500D01*
X517400D01*
Y1828851D01*
D02*
G37*
G36*
X4330700Y1802325D02*
Y1765300D01*
X4367725D01*
X4361066Y1781376D01*
X4346776Y1795666D01*
X4330700Y1802325D01*
D02*
G37*
G36*
X4305300D02*
X4289224Y1795666D01*
X4274934Y1781376D01*
X4268275Y1765300D01*
X4305300D01*
Y1802325D01*
D02*
G37*
G36*
X2047379Y1811200D02*
X2032221D01*
X2018218Y1805400D01*
X2007500Y1794682D01*
X2001700Y1780679D01*
Y1765521D01*
X2007500Y1751518D01*
X2018218Y1740800D01*
X2032221Y1735000D01*
X2047379D01*
X2061382Y1740800D01*
X2072100Y1751518D01*
X2077900Y1765521D01*
Y1780679D01*
X2072100Y1794682D01*
X2061382Y1805400D01*
X2047379Y1811200D01*
D02*
G37*
G36*
X4367725Y1739900D02*
X4330700D01*
Y1702875D01*
X4346776Y1709534D01*
X4361066Y1723824D01*
X4367725Y1739900D01*
D02*
G37*
G36*
X4305300D02*
X4268275D01*
X4274934Y1723824D01*
X4289224Y1709534D01*
X4305300Y1702875D01*
Y1739900D01*
D02*
G37*
G36*
X659479Y1740100D02*
X542800D01*
Y1676749D01*
X585100D01*
X604783Y1679341D01*
X623125Y1686938D01*
X638876Y1699024D01*
X650962Y1714775D01*
X658559Y1733116D01*
X659479Y1740100D01*
D02*
G37*
G36*
X517400D02*
X400721D01*
X401640Y1733116D01*
X409238Y1714775D01*
X421324Y1699024D01*
X437074Y1686938D01*
X455416Y1679341D01*
X475100Y1676749D01*
X517400D01*
Y1740100D01*
D02*
G37*
G36*
X226479D02*
X124800D01*
Y1676749D01*
X152100D01*
X171784Y1679341D01*
X190125Y1686938D01*
X205876Y1699024D01*
X217962Y1714775D01*
X225559Y1733116D01*
X226479Y1740100D01*
D02*
G37*
G36*
X3665179Y1739900D02*
X3650021D01*
X3636018Y1734100D01*
X3625300Y1723382D01*
X3619500Y1709379D01*
Y1694221D01*
X3625300Y1680218D01*
X3636018Y1669500D01*
X3650021Y1663700D01*
X3665179D01*
X3679182Y1669500D01*
X3689900Y1680218D01*
X3695700Y1694221D01*
Y1709379D01*
X3689900Y1723382D01*
X3679182Y1734100D01*
X3665179Y1739900D01*
D02*
G37*
G36*
X3271479Y1701800D02*
X3256321D01*
X3242318Y1696000D01*
X3231600Y1685282D01*
X3225800Y1671279D01*
Y1656121D01*
X3231600Y1642118D01*
X3242318Y1631400D01*
X3256321Y1625600D01*
X3271479D01*
X3285482Y1631400D01*
X3296200Y1642118D01*
X3302000Y1656121D01*
Y1671279D01*
X3296200Y1685282D01*
X3285482Y1696000D01*
X3271479Y1701800D01*
D02*
G37*
G36*
X4330700Y1649925D02*
Y1612900D01*
X4367725D01*
X4361066Y1628976D01*
X4346776Y1643266D01*
X4330700Y1649925D01*
D02*
G37*
G36*
X4305300D02*
X4289224Y1643266D01*
X4274934Y1628976D01*
X4268275Y1612900D01*
X4305300D01*
Y1649925D01*
D02*
G37*
G36*
X489091Y1655000D02*
X471109D01*
X454496Y1648119D01*
X441781Y1635404D01*
X434900Y1618791D01*
Y1600809D01*
X441781Y1584196D01*
X454496Y1571481D01*
X471109Y1564600D01*
X489091D01*
X505704Y1571481D01*
X518419Y1584196D01*
X525300Y1600809D01*
Y1618791D01*
X518419Y1635404D01*
X505704Y1648119D01*
X489091Y1655000D01*
D02*
G37*
G36*
X4367725Y1587500D02*
X4330700D01*
Y1550475D01*
X4346776Y1557134D01*
X4361066Y1571424D01*
X4367725Y1587500D01*
D02*
G37*
G36*
X4305300D02*
X4268275D01*
X4274934Y1571424D01*
X4289224Y1557134D01*
X4305300Y1550475D01*
Y1587500D01*
D02*
G37*
G36*
X1092200Y1548325D02*
Y1511300D01*
X1129225D01*
X1122566Y1527376D01*
X1108276Y1541666D01*
X1092200Y1548325D01*
D02*
G37*
G36*
X1066800D02*
X1050724Y1541666D01*
X1036434Y1527376D01*
X1029775Y1511300D01*
X1066800D01*
Y1548325D01*
D02*
G37*
G36*
X3639779Y1549400D02*
X3624621D01*
X3610618Y1543600D01*
X3599900Y1532882D01*
X3594100Y1518879D01*
Y1503721D01*
X3599900Y1489718D01*
X3610618Y1479000D01*
X3624621Y1473200D01*
X3639779D01*
X3653782Y1479000D01*
X3664500Y1489718D01*
X3670300Y1503721D01*
Y1518879D01*
X3664500Y1532882D01*
X3653782Y1543600D01*
X3639779Y1549400D01*
D02*
G37*
G36*
X4330700Y1497525D02*
Y1460500D01*
X4367725D01*
X4361066Y1476576D01*
X4346776Y1490866D01*
X4330700Y1497525D01*
D02*
G37*
G36*
X4305300D02*
X4289224Y1490866D01*
X4274934Y1476576D01*
X4268275Y1460500D01*
X4305300D01*
Y1497525D01*
D02*
G37*
G36*
X1129225Y1485900D02*
X1092200D01*
Y1448875D01*
X1108276Y1455534D01*
X1122566Y1469824D01*
X1129225Y1485900D01*
D02*
G37*
G36*
X1066800D02*
X1029775D01*
X1036434Y1469824D01*
X1050724Y1455534D01*
X1066800Y1448875D01*
Y1485900D01*
D02*
G37*
G36*
X4200599Y1496060D02*
X4181401D01*
X4163663Y1488713D01*
X4150087Y1475137D01*
X4142740Y1457399D01*
Y1438201D01*
X4150087Y1420463D01*
X4163663Y1406887D01*
X4181401Y1399540D01*
X4200599D01*
X4218337Y1406887D01*
X4231913Y1420463D01*
X4239260Y1438201D01*
Y1457399D01*
X4231913Y1475137D01*
X4218337Y1488713D01*
X4200599Y1496060D01*
D02*
G37*
G36*
X4367725Y1435100D02*
X4330700D01*
Y1398075D01*
X4346776Y1404734D01*
X4361066Y1419024D01*
X4367725Y1435100D01*
D02*
G37*
G36*
X4305300D02*
X4268275D01*
X4274934Y1419024D01*
X4289224Y1404734D01*
X4305300Y1398075D01*
Y1435100D01*
D02*
G37*
G36*
X3860800Y1434025D02*
Y1397000D01*
X3897825D01*
X3891166Y1413076D01*
X3876876Y1427366D01*
X3860800Y1434025D01*
D02*
G37*
G36*
X3835400D02*
X3819324Y1427366D01*
X3805034Y1413076D01*
X3798375Y1397000D01*
X3835400D01*
Y1434025D01*
D02*
G37*
G36*
X3463902Y1423350D02*
Y1386325D01*
X3500927D01*
X3494268Y1402401D01*
X3479978Y1416691D01*
X3463902Y1423350D01*
D02*
G37*
G36*
X3438502D02*
X3422426Y1416691D01*
X3408135Y1402401D01*
X3401477Y1386325D01*
X3438502D01*
Y1423350D01*
D02*
G37*
G36*
X3336902D02*
Y1386325D01*
X3373927D01*
X3367268Y1402401D01*
X3352978Y1416691D01*
X3336902Y1423350D01*
D02*
G37*
G36*
X3311502D02*
X3295426Y1416691D01*
X3281135Y1402401D01*
X3274477Y1386325D01*
X3311502D01*
Y1423350D01*
D02*
G37*
G36*
X3222602D02*
Y1386325D01*
X3259627D01*
X3252968Y1402401D01*
X3238678Y1416691D01*
X3222602Y1423350D01*
D02*
G37*
G36*
X3197202D02*
X3181126Y1416691D01*
X3166835Y1402401D01*
X3160177Y1386325D01*
X3197202D01*
Y1423350D01*
D02*
G37*
G36*
X3897825Y1371600D02*
X3860800D01*
Y1334575D01*
X3876876Y1341234D01*
X3891166Y1355524D01*
X3897825Y1371600D01*
D02*
G37*
G36*
X3835400D02*
X3798375D01*
X3805034Y1355524D01*
X3819324Y1341234D01*
X3835400Y1334575D01*
Y1371600D01*
D02*
G37*
G36*
X3500927Y1360925D02*
X3463902D01*
Y1323900D01*
X3479978Y1330559D01*
X3494268Y1344849D01*
X3500927Y1360925D01*
D02*
G37*
G36*
X3438502D02*
X3401477D01*
X3408135Y1344849D01*
X3422426Y1330559D01*
X3438502Y1323900D01*
Y1360925D01*
D02*
G37*
G36*
X3259627D02*
X3222602D01*
Y1323900D01*
X3238678Y1330559D01*
X3252968Y1344849D01*
X3259627Y1360925D01*
D02*
G37*
G36*
X3197202D02*
X3160177D01*
X3166835Y1344849D01*
X3181126Y1330559D01*
X3191731Y1326166D01*
X3197202Y1323900D01*
Y1360925D01*
D02*
G37*
G36*
X3203066Y1322820D02*
X3199796D01*
X3199632Y1310198D01*
X3202901D01*
X3203066Y1322820D01*
D02*
G37*
G36*
X4330700Y1345125D02*
Y1308100D01*
X4367725D01*
X4361066Y1324176D01*
X4346776Y1338466D01*
X4330700Y1345125D01*
D02*
G37*
G36*
X4305300D02*
X4289224Y1338466D01*
X4274934Y1324176D01*
X4268275Y1308100D01*
X4305300D01*
Y1345125D01*
D02*
G37*
G36*
X3652479Y1371600D02*
X3637321D01*
X3623318Y1365800D01*
X3612600Y1355082D01*
X3606800Y1341079D01*
Y1325921D01*
X3612600Y1311918D01*
X3623318Y1301200D01*
X3637321Y1295400D01*
X3652479D01*
X3666482Y1301200D01*
X3677200Y1311918D01*
X3683000Y1325921D01*
Y1341079D01*
X3677200Y1355082D01*
X3666482Y1365800D01*
X3652479Y1371600D01*
D02*
G37*
G36*
X3373927Y1360925D02*
X3274477D01*
X3281135Y1344849D01*
X3279481Y1332287D01*
X3272814Y1328438D01*
X3256262Y1311886D01*
X3246188Y1294437D01*
X3245689Y1294134D01*
X3236310Y1292121D01*
X3231623Y1292408D01*
X3221572Y1302459D01*
X3210967Y1306852D01*
X3205496Y1309119D01*
Y1259393D01*
Y1209668D01*
X3221572Y1216327D01*
X3230739Y1225493D01*
X3243664Y1223148D01*
X3245049Y1222135D01*
X3256262Y1202714D01*
X3272814Y1186162D01*
X3292067Y1175046D01*
X3293358Y1170299D01*
X3293842Y1161108D01*
X3281135Y1148401D01*
X3274477Y1132325D01*
X3373927D01*
X3367268Y1148401D01*
X3355913Y1159756D01*
X3357777Y1173403D01*
X3361714Y1174458D01*
X3381986Y1186162D01*
X3398538Y1202714D01*
X3405665Y1215059D01*
X3421334Y1217350D01*
X3422426Y1216259D01*
X3438502Y1209600D01*
Y1259325D01*
Y1309050D01*
X3422426Y1302391D01*
X3420054Y1300019D01*
X3404183Y1302109D01*
X3398538Y1311886D01*
X3381986Y1328438D01*
X3368396Y1336284D01*
X3367268Y1344849D01*
X3373927Y1360925D01*
D02*
G37*
G36*
X3180096Y1309118D02*
X3164020Y1302459D01*
X3149730Y1288169D01*
X3143071Y1272093D01*
X3180096D01*
Y1309118D01*
D02*
G37*
G36*
X3463902Y1309050D02*
Y1272025D01*
X3500927D01*
X3494268Y1288101D01*
X3479978Y1302391D01*
X3463902Y1309050D01*
D02*
G37*
G36*
X2957744Y1324566D02*
X2942587D01*
X2928584Y1318765D01*
X2917866Y1308048D01*
X2912066Y1294044D01*
Y1278887D01*
X2917866Y1264884D01*
X2928584Y1254166D01*
X2942587Y1248366D01*
X2957744D01*
X2971748Y1254166D01*
X2982465Y1264884D01*
X2988266Y1278887D01*
Y1294044D01*
X2982465Y1308048D01*
X2971748Y1318765D01*
X2957744Y1324566D01*
D02*
G37*
G36*
X4367725Y1282700D02*
X4330700D01*
Y1245675D01*
X4346776Y1252334D01*
X4361066Y1266624D01*
X4367725Y1282700D01*
D02*
G37*
G36*
X4305300D02*
X4268275D01*
X4274934Y1266624D01*
X4289224Y1252334D01*
X4305300Y1245675D01*
Y1282700D01*
D02*
G37*
G36*
X3180096Y1246693D02*
X3143071D01*
X3149730Y1230617D01*
X3164020Y1216327D01*
X3180096Y1209668D01*
Y1246693D01*
D02*
G37*
G36*
X3500927Y1246625D02*
X3463902D01*
Y1209600D01*
X3479978Y1216259D01*
X3494268Y1230549D01*
X3500927Y1246625D01*
D02*
G37*
G36*
X1917700Y1205425D02*
Y1168400D01*
X1954725D01*
X1948066Y1184476D01*
X1933776Y1198766D01*
X1917700Y1205425D01*
D02*
G37*
G36*
X1892300D02*
X1876224Y1198766D01*
X1861934Y1184476D01*
X1855275Y1168400D01*
X1892300D01*
Y1205425D01*
D02*
G37*
G36*
X3463902Y1182050D02*
Y1145025D01*
X3500927D01*
X3494268Y1161101D01*
X3479978Y1175391D01*
X3463902Y1182050D01*
D02*
G37*
G36*
X3438502D02*
X3422426Y1175391D01*
X3408135Y1161101D01*
X3401477Y1145025D01*
X3438502D01*
Y1182050D01*
D02*
G37*
G36*
X4330700Y1180025D02*
Y1143000D01*
X4367725D01*
X4361066Y1159076D01*
X4346776Y1173366D01*
X4330700Y1180025D01*
D02*
G37*
G36*
X4305300D02*
X4289224Y1173366D01*
X4274934Y1159076D01*
X4268275Y1143000D01*
X4305300D01*
Y1180025D01*
D02*
G37*
G36*
X3209902Y1169350D02*
Y1132325D01*
X3246927D01*
X3240268Y1148401D01*
X3225978Y1162691D01*
X3209902Y1169350D01*
D02*
G37*
G36*
X3184502D02*
X3168426Y1162691D01*
X3154135Y1148401D01*
X3147477Y1132325D01*
X3184502D01*
Y1169350D01*
D02*
G37*
G36*
X1954725Y1143000D02*
X1917700D01*
Y1105975D01*
X1933776Y1112634D01*
X1948066Y1126924D01*
X1954725Y1143000D01*
D02*
G37*
G36*
X1892300D02*
X1855275D01*
X1861934Y1126924D01*
X1876224Y1112634D01*
X1892300Y1105975D01*
Y1143000D01*
D02*
G37*
G36*
X3500927Y1119625D02*
X3463902D01*
Y1082600D01*
X3479978Y1089259D01*
X3494268Y1103549D01*
X3500927Y1119625D01*
D02*
G37*
G36*
X3438502D02*
X3401477D01*
X3408135Y1103549D01*
X3422426Y1089259D01*
X3438502Y1082600D01*
Y1119625D01*
D02*
G37*
G36*
X4367725Y1117600D02*
X4330700D01*
Y1080575D01*
X4346776Y1087234D01*
X4361066Y1101524D01*
X4367725Y1117600D01*
D02*
G37*
G36*
X4305300D02*
X4268275D01*
X4274934Y1101524D01*
X4289224Y1087234D01*
X4305300Y1080575D01*
Y1117600D01*
D02*
G37*
G36*
X4203700Y1116525D02*
Y1079500D01*
X4240725D01*
X4234066Y1095576D01*
X4219776Y1109866D01*
X4203700Y1116525D01*
D02*
G37*
G36*
X4178300D02*
X4162224Y1109866D01*
X4147934Y1095576D01*
X4141275Y1079500D01*
X4178300D01*
Y1116525D01*
D02*
G37*
G36*
X3373927Y1106925D02*
X3336902D01*
Y1069900D01*
X3352978Y1076559D01*
X3367268Y1090849D01*
X3373927Y1106925D01*
D02*
G37*
G36*
X3311502D02*
X3274477D01*
X3281135Y1090849D01*
X3295426Y1076559D01*
X3311502Y1069900D01*
Y1106925D01*
D02*
G37*
G36*
X3246927D02*
X3209902D01*
Y1069900D01*
X3225978Y1076559D01*
X3240268Y1090849D01*
X3246927Y1106925D01*
D02*
G37*
G36*
X3184502D02*
X3147477D01*
X3154135Y1090849D01*
X3168426Y1076559D01*
X3184502Y1069900D01*
Y1106925D01*
D02*
G37*
G36*
X4240725Y1054100D02*
X4203700D01*
Y1017075D01*
X4219776Y1023734D01*
X4234066Y1038024D01*
X4240725Y1054100D01*
D02*
G37*
G36*
X4178300D02*
X4141275D01*
X4147934Y1038024D01*
X4162224Y1023734D01*
X4178300Y1017075D01*
Y1054100D01*
D02*
G37*
G36*
X1054100Y1053025D02*
Y1016000D01*
X1091125D01*
X1084466Y1032076D01*
X1070176Y1046366D01*
X1054100Y1053025D01*
D02*
G37*
G36*
X1028700D02*
X1012624Y1046366D01*
X998334Y1032076D01*
X991675Y1016000D01*
X1028700D01*
Y1053025D01*
D02*
G37*
G36*
X489091Y1077000D02*
X471109D01*
X454496Y1070119D01*
X441781Y1057404D01*
X434900Y1040791D01*
Y1022809D01*
X441781Y1006196D01*
X454496Y993481D01*
X471109Y986600D01*
X489091D01*
X505704Y993481D01*
X518419Y1006196D01*
X525300Y1022809D01*
Y1040791D01*
X518419Y1057404D01*
X505704Y1070119D01*
X489091Y1077000D01*
D02*
G37*
G36*
X4330700Y1014925D02*
Y977900D01*
X4367725D01*
X4361066Y993976D01*
X4346776Y1008266D01*
X4330700Y1014925D01*
D02*
G37*
G36*
X4305300D02*
X4289224Y1008266D01*
X4274934Y993976D01*
X4268275Y977900D01*
X4305300D01*
Y1014925D01*
D02*
G37*
G36*
X1091125Y990600D02*
X1054100D01*
Y953575D01*
X1070176Y960234D01*
X1084466Y974524D01*
X1091125Y990600D01*
D02*
G37*
G36*
X1028700D02*
X991675D01*
X998334Y974524D01*
X1012624Y960234D01*
X1028700Y953575D01*
Y990600D01*
D02*
G37*
G36*
X4367725Y952500D02*
X4330700D01*
Y915475D01*
X4346776Y922134D01*
X4361066Y936424D01*
X4367725Y952500D01*
D02*
G37*
G36*
X4305300D02*
X4268275D01*
X4274934Y936424D01*
X4289224Y922134D01*
X4305300Y915475D01*
Y952500D01*
D02*
G37*
G36*
X585100Y964851D02*
X542800D01*
Y901500D01*
X659479D01*
X658559Y908484D01*
X650962Y926825D01*
X638876Y942576D01*
X623125Y954662D01*
X604783Y962259D01*
X585100Y964851D01*
D02*
G37*
G36*
X152100D02*
X124800D01*
Y901500D01*
X226479D01*
X225559Y908484D01*
X217962Y926825D01*
X205876Y942576D01*
X190125Y954662D01*
X171784Y962259D01*
X152100Y964851D01*
D02*
G37*
G36*
X517400D02*
X475100D01*
X455416Y962259D01*
X437074Y954662D01*
X421324Y942576D01*
X409238Y926825D01*
X401640Y908484D01*
X400721Y901500D01*
X517400D01*
Y964851D01*
D02*
G37*
G36*
X4064000Y913325D02*
Y876300D01*
X4101025D01*
X4094366Y892376D01*
X4080076Y906666D01*
X4064000Y913325D01*
D02*
G37*
G36*
X4038600D02*
X4022524Y906666D01*
X4008234Y892376D01*
X4001575Y876300D01*
X4038600D01*
Y913325D01*
D02*
G37*
G36*
X885899Y937260D02*
X866701D01*
X848963Y929913D01*
X835387Y916337D01*
X828040Y898599D01*
Y879401D01*
X835387Y861663D01*
X848963Y848087D01*
X866701Y840740D01*
X885899D01*
X903637Y848087D01*
X917213Y861663D01*
X924560Y879401D01*
Y898599D01*
X917213Y916337D01*
X903637Y929913D01*
X885899Y937260D01*
D02*
G37*
G36*
X4101025Y850900D02*
X4064000D01*
Y813875D01*
X4080076Y820534D01*
X4094366Y834824D01*
X4101025Y850900D01*
D02*
G37*
G36*
X4038600D02*
X4001575D01*
X4008234Y834824D01*
X4022524Y820534D01*
X4038600Y813875D01*
Y850900D01*
D02*
G37*
G36*
X659479Y876100D02*
X542800D01*
Y812749D01*
X585100D01*
X604783Y815341D01*
X623125Y822938D01*
X638876Y835024D01*
X650962Y850775D01*
X658559Y869117D01*
X659479Y876100D01*
D02*
G37*
G36*
X517400D02*
X400721D01*
X401640Y869117D01*
X409238Y850775D01*
X421324Y835024D01*
X437074Y822938D01*
X455416Y815341D01*
X475100Y812749D01*
X517400D01*
Y876100D01*
D02*
G37*
G36*
X226479D02*
X124800D01*
Y812749D01*
X152100D01*
X171784Y815341D01*
X190125Y822938D01*
X205876Y835024D01*
X217962Y850775D01*
X225559Y869117D01*
X226479Y876100D01*
D02*
G37*
G36*
X4203700Y824425D02*
Y787400D01*
X4240725D01*
X4234066Y803476D01*
X4219776Y817766D01*
X4203700Y824425D01*
D02*
G37*
G36*
X4178300D02*
X4162224Y817766D01*
X4147934Y803476D01*
X4141275Y787400D01*
X4178300D01*
Y824425D01*
D02*
G37*
G36*
X4240725Y762000D02*
X4203700D01*
Y724975D01*
X4219776Y731634D01*
X4234066Y745924D01*
X4240725Y762000D01*
D02*
G37*
G36*
X4178300D02*
X4141275D01*
X4147934Y745924D01*
X4162224Y731634D01*
X4178300Y724975D01*
Y762000D01*
D02*
G37*
G36*
X4343400Y722825D02*
X4327324Y716166D01*
X4313034Y701876D01*
X4306375Y685800D01*
X4343400D01*
Y722825D01*
D02*
G37*
G36*
X3810000D02*
Y685800D01*
X3847025D01*
X3840366Y701876D01*
X3826076Y716166D01*
X3810000Y722825D01*
D02*
G37*
G36*
X3784600D02*
X3768524Y716166D01*
X3754234Y701876D01*
X3747575Y685800D01*
X3784600D01*
Y722825D01*
D02*
G37*
G36*
X4343400Y660400D02*
X4306375D01*
X4313034Y644324D01*
X4327324Y630034D01*
X4343400Y623375D01*
Y660400D01*
D02*
G37*
G36*
X3847025D02*
X3810000D01*
Y623375D01*
X3826076Y630034D01*
X3840366Y644324D01*
X3847025Y660400D01*
D02*
G37*
G36*
X3784600D02*
X3747575D01*
X3754234Y644324D01*
X3768524Y630034D01*
X3784600Y623375D01*
Y660400D01*
D02*
G37*
G36*
X2946400Y659325D02*
Y622300D01*
X2983425D01*
X2976766Y638376D01*
X2962476Y652666D01*
X2946400Y659325D01*
D02*
G37*
G36*
X2921000D02*
X2904924Y652666D01*
X2890634Y638376D01*
X2883975Y622300D01*
X2921000D01*
Y659325D01*
D02*
G37*
G36*
X3540199Y683260D02*
X3521001D01*
X3503263Y675913D01*
X3489687Y662337D01*
X3482340Y644599D01*
Y625401D01*
X3489687Y607663D01*
X3503263Y594087D01*
X3521001Y586740D01*
X3540199D01*
X3557937Y594087D01*
X3571513Y607663D01*
X3578860Y625401D01*
Y644599D01*
X3571513Y662337D01*
X3557937Y675913D01*
X3540199Y683260D01*
D02*
G37*
G36*
X2983425Y596900D02*
X2946400D01*
Y559875D01*
X2962476Y566534D01*
X2976766Y580824D01*
X2983425Y596900D01*
D02*
G37*
G36*
X2921000D02*
X2883975D01*
X2890634Y580824D01*
X2904924Y566534D01*
X2921000Y559875D01*
Y596900D01*
D02*
G37*
G36*
X3289300Y583125D02*
Y546100D01*
X3326325D01*
X3319666Y562176D01*
X3305376Y576466D01*
X3289300Y583125D01*
D02*
G37*
G36*
X3263900D02*
X3247824Y576466D01*
X3233534Y562176D01*
X3226875Y546100D01*
X3263900D01*
Y583125D01*
D02*
G37*
G36*
X3124200D02*
Y546100D01*
X3161225D01*
X3154566Y562176D01*
X3140276Y576466D01*
X3124200Y583125D01*
D02*
G37*
G36*
X3098800D02*
X3082724Y576466D01*
X3068434Y562176D01*
X3061775Y546100D01*
X3098800D01*
Y583125D01*
D02*
G37*
G36*
X4330700Y557725D02*
Y520700D01*
X4367725D01*
X4361066Y536776D01*
X4346776Y551066D01*
X4330700Y557725D01*
D02*
G37*
G36*
X4305300D02*
X4289224Y551066D01*
X4274934Y536776D01*
X4268275Y520700D01*
X4305300D01*
Y557725D01*
D02*
G37*
G36*
X3695700Y532325D02*
Y495300D01*
X3732725D01*
X3726066Y511376D01*
X3711776Y525666D01*
X3695700Y532325D01*
D02*
G37*
G36*
X3670300D02*
X3654224Y525666D01*
X3639934Y511376D01*
X3633275Y495300D01*
X3670300D01*
Y532325D01*
D02*
G37*
G36*
X3326325Y520700D02*
X3289300D01*
Y483675D01*
X3305376Y490334D01*
X3319666Y504624D01*
X3326325Y520700D01*
D02*
G37*
G36*
X3263900D02*
X3226875D01*
X3233534Y504624D01*
X3247824Y490334D01*
X3263900Y483675D01*
Y520700D01*
D02*
G37*
G36*
X3161225D02*
X3124200D01*
Y483675D01*
X3140276Y490334D01*
X3154566Y504624D01*
X3161225Y520700D01*
D02*
G37*
G36*
X3098800D02*
X3061775D01*
X3068434Y504624D01*
X3082724Y490334D01*
X3098800Y483675D01*
Y520700D01*
D02*
G37*
G36*
X190500Y519625D02*
Y482600D01*
X227525D01*
X220866Y498676D01*
X206576Y512966D01*
X190500Y519625D01*
D02*
G37*
G36*
X165100D02*
X149024Y512966D01*
X134734Y498676D01*
X128075Y482600D01*
X165100D01*
Y519625D01*
D02*
G37*
G36*
X2870200Y506925D02*
Y469900D01*
X2907225D01*
X2900566Y485976D01*
X2886276Y500266D01*
X2870200Y506925D01*
D02*
G37*
G36*
X2844800D02*
X2828724Y500266D01*
X2814434Y485976D01*
X2807775Y469900D01*
X2844800D01*
Y506925D01*
D02*
G37*
G36*
X4367725Y495300D02*
X4330700D01*
Y458275D01*
X4346776Y464934D01*
X4361066Y479224D01*
X4367725Y495300D01*
D02*
G37*
G36*
X4305300D02*
X4268275D01*
X4274934Y479224D01*
X4289224Y464934D01*
X4305300Y458275D01*
Y495300D01*
D02*
G37*
G36*
X3732725Y469900D02*
X3695700D01*
Y432875D01*
X3711776Y439534D01*
X3726066Y453824D01*
X3732725Y469900D01*
D02*
G37*
G36*
X3670300D02*
X3633275D01*
X3639934Y453824D01*
X3654224Y439534D01*
X3670300Y432875D01*
Y469900D01*
D02*
G37*
G36*
X1804500Y534500D02*
X1701800D01*
Y431800D01*
X1804500D01*
Y534500D01*
D02*
G37*
G36*
X1676400D02*
X1573700D01*
Y431800D01*
X1676400D01*
Y534500D01*
D02*
G37*
G36*
X227525Y457200D02*
X190500D01*
Y420175D01*
X206576Y426834D01*
X220866Y441124D01*
X227525Y457200D01*
D02*
G37*
G36*
X165100D02*
X128075D01*
X134734Y441124D01*
X149024Y426834D01*
X165100Y420175D01*
Y457200D01*
D02*
G37*
G36*
X2907225Y444500D02*
X2870200D01*
Y407475D01*
X2886276Y414134D01*
X2900566Y428424D01*
X2907225Y444500D01*
D02*
G37*
G36*
X2844800D02*
X2807775D01*
X2814434Y428424D01*
X2828724Y414134D01*
X2844800Y407475D01*
Y444500D01*
D02*
G37*
G36*
X1125179Y482600D02*
X1110021D01*
X1096018Y476800D01*
X1085300Y466082D01*
X1079500Y452079D01*
Y436921D01*
X1085300Y422918D01*
X1096018Y412200D01*
X1110021Y406400D01*
X1125179D01*
X1139182Y412200D01*
X1149900Y422918D01*
X1155700Y436921D01*
Y452079D01*
X1149900Y466082D01*
X1139182Y476800D01*
X1125179Y482600D01*
D02*
G37*
G36*
X4330700Y418025D02*
Y381000D01*
X4367725D01*
X4361066Y397076D01*
X4346776Y411366D01*
X4330700Y418025D01*
D02*
G37*
G36*
X4305300D02*
X4289224Y411366D01*
X4274934Y397076D01*
X4268275Y381000D01*
X4305300D01*
Y418025D01*
D02*
G37*
G36*
X4367725Y355600D02*
X4330700D01*
Y318575D01*
X4346776Y325234D01*
X4361066Y339524D01*
X4367725Y355600D01*
D02*
G37*
G36*
X4305300D02*
X4268275D01*
X4274934Y339524D01*
X4289224Y325234D01*
X4305300Y318575D01*
Y355600D01*
D02*
G37*
G36*
X3695700Y354525D02*
Y317500D01*
X3732725D01*
X3726066Y333576D01*
X3711776Y347866D01*
X3695700Y354525D01*
D02*
G37*
G36*
X3670300D02*
X3654224Y347866D01*
X3639934Y333576D01*
X3633275Y317500D01*
X3670300D01*
Y354525D01*
D02*
G37*
G36*
X2210621Y521800D02*
X2183579D01*
X2157459Y514801D01*
X2134041Y501280D01*
X2114920Y482159D01*
X2101399Y458741D01*
X2094400Y432621D01*
Y405579D01*
X2101399Y379459D01*
X2114920Y356041D01*
X2134041Y336920D01*
X2157459Y323399D01*
X2183579Y316400D01*
X2210621D01*
X2236741Y323399D01*
X2260159Y336920D01*
X2279280Y356041D01*
X2292801Y379459D01*
X2299800Y405579D01*
Y432621D01*
X2292801Y458741D01*
X2279280Y482159D01*
X2260159Y501280D01*
X2236741Y514801D01*
X2210621Y521800D01*
D02*
G37*
G36*
X2870200Y341825D02*
Y304800D01*
X2907225D01*
X2900566Y320876D01*
X2886276Y335166D01*
X2870200Y341825D01*
D02*
G37*
G36*
X2844800D02*
X2828724Y335166D01*
X2814434Y320876D01*
X2807775Y304800D01*
X2844800D01*
Y341825D01*
D02*
G37*
G36*
X1804500Y406400D02*
X1701800D01*
Y303700D01*
X1804500D01*
Y406400D01*
D02*
G37*
G36*
X1676400D02*
X1573700D01*
Y303700D01*
X1676400D01*
Y406400D01*
D02*
G37*
G36*
X3732725Y292100D02*
X3695700D01*
Y255075D01*
X3711776Y261734D01*
X3726066Y276024D01*
X3732725Y292100D01*
D02*
G37*
G36*
X3670300D02*
X3633275D01*
X3639934Y276024D01*
X3654224Y261734D01*
X3670300Y255075D01*
Y292100D01*
D02*
G37*
G36*
X2907225Y279400D02*
X2870200D01*
Y242375D01*
X2886276Y249034D01*
X2900566Y263324D01*
X2907225Y279400D01*
D02*
G37*
G36*
X2844800D02*
X2807775D01*
X2814434Y263324D01*
X2828724Y249034D01*
X2844800Y242375D01*
Y279400D01*
D02*
G37*
G36*
X4330700Y278325D02*
Y241300D01*
X4367725D01*
X4361066Y257376D01*
X4346776Y271666D01*
X4330700Y278325D01*
D02*
G37*
G36*
X4305300D02*
X4289224Y271666D01*
X4274934Y257376D01*
X4268275Y241300D01*
X4305300D01*
Y278325D01*
D02*
G37*
G36*
X4367725Y215900D02*
X4330700D01*
Y178875D01*
X4346776Y185534D01*
X4361066Y199824D01*
X4367725Y215900D01*
D02*
G37*
G36*
X4305300D02*
X4268275D01*
X4274934Y199824D01*
X4289224Y185534D01*
X4305300Y178875D01*
Y215900D01*
D02*
G37*
G36*
X3695700Y176725D02*
Y139700D01*
X3732725D01*
X3726066Y155776D01*
X3711776Y170066D01*
X3695700Y176725D01*
D02*
G37*
G36*
X3670300D02*
X3654224Y170066D01*
X3639934Y155776D01*
X3633275Y139700D01*
X3670300D01*
Y176725D01*
D02*
G37*
G36*
X2870200Y164025D02*
Y127000D01*
X2907225D01*
X2900566Y143076D01*
X2886276Y157366D01*
X2870200Y164025D01*
D02*
G37*
G36*
X2844800D02*
X2828724Y157366D01*
X2814434Y143076D01*
X2807775Y127000D01*
X2844800D01*
Y164025D01*
D02*
G37*
G36*
X4330700Y138625D02*
Y101600D01*
X4367725D01*
X4361066Y117676D01*
X4346776Y131966D01*
X4330700Y138625D01*
D02*
G37*
G36*
X4305300D02*
X4289224Y131966D01*
X4274934Y117676D01*
X4268275Y101600D01*
X4305300D01*
Y138625D01*
D02*
G37*
G36*
X3732725Y114300D02*
X3695700D01*
Y77275D01*
X3711776Y83934D01*
X3726066Y98224D01*
X3732725Y114300D01*
D02*
G37*
G36*
X3670300D02*
X3633275D01*
X3639934Y98224D01*
X3654224Y83934D01*
X3670300Y77275D01*
Y114300D01*
D02*
G37*
G36*
X2907225Y101600D02*
X2870200D01*
Y64575D01*
X2886276Y71234D01*
X2900566Y85524D01*
X2907225Y101600D01*
D02*
G37*
G36*
X2844800D02*
X2807775D01*
X2814434Y85524D01*
X2828724Y71234D01*
X2844800Y64575D01*
Y101600D01*
D02*
G37*
G36*
X4367725Y76200D02*
X4330700D01*
Y39175D01*
X4346776Y45834D01*
X4361066Y60124D01*
X4367725Y76200D01*
D02*
G37*
G36*
X4305300D02*
X4268275D01*
X4274934Y60124D01*
X4289224Y45834D01*
X4305300Y39175D01*
Y76200D01*
D02*
G37*
%LPD*%
D53*
X480100Y1031800D02*
D03*
Y1609800D02*
D03*
D54*
X530100Y888800D02*
D03*
Y1752800D02*
D03*
D55*
X112100Y888800D02*
D03*
Y1752800D02*
D03*
D56*
X2197100Y419100D02*
D03*
D57*
X1689100D02*
D03*
D58*
X4191000Y1066800D02*
D03*
X4318000Y965200D02*
D03*
X4191000Y774700D02*
D03*
X4318000Y508000D02*
D03*
X4356100Y673100D02*
D03*
X2946400Y2425700D02*
D03*
X2950166Y1286466D02*
D03*
X3192796Y1259393D02*
D03*
X3209902Y1373625D02*
D03*
X3197202Y1119625D02*
D03*
X4076700Y2425700D02*
D03*
X3721100Y2540000D02*
D03*
X3695700Y2070100D02*
D03*
X3657600Y1701800D02*
D03*
X3937000Y2070100D02*
D03*
X3644900Y1333500D02*
D03*
X3632200Y1511300D02*
D03*
X3403600Y1816100D02*
D03*
X1651000Y1905000D02*
D03*
X4318000Y2451100D02*
D03*
Y88900D02*
D03*
Y228600D02*
D03*
Y368300D02*
D03*
Y2298700D02*
D03*
Y2171700D02*
D03*
Y2044700D02*
D03*
Y1905000D02*
D03*
Y1752600D02*
D03*
Y1600200D02*
D03*
Y1447800D02*
D03*
Y1295400D02*
D03*
X4051300Y863600D02*
D03*
X3324202Y1119625D02*
D03*
X3451202Y1132325D02*
D03*
Y1259325D02*
D03*
Y1373625D02*
D03*
X3324202D02*
D03*
X4318000Y1130300D02*
D03*
X1079500Y1498600D02*
D03*
X1041400Y1003300D02*
D03*
X927100Y1943100D02*
D03*
X2578100Y1866900D02*
D03*
X3848100Y1384300D02*
D03*
X3797300Y673100D02*
D03*
X2768600Y1866900D02*
D03*
X1879600Y2425700D02*
D03*
X1409700Y2489200D02*
D03*
X177800Y2197100D02*
D03*
Y469900D02*
D03*
X1905000Y1155700D02*
D03*
X2933700Y609600D02*
D03*
X3263900Y1663700D02*
D03*
X1117600Y444500D02*
D03*
Y2247900D02*
D03*
X2039800Y1773100D02*
D03*
X3276600Y533400D02*
D03*
X2857500Y457200D02*
D03*
Y292100D02*
D03*
Y114300D02*
D03*
X3683000Y482600D02*
D03*
Y304800D02*
D03*
Y127000D02*
D03*
X3111500Y533400D02*
D03*
D59*
X3534800Y2366400D02*
D03*
Y2256400D02*
D03*
X3424800D02*
D03*
Y2366400D02*
D03*
D60*
X1422400Y2057400D02*
D03*
X4191000Y1447800D02*
D03*
X3530600Y635000D02*
D03*
X876300Y889000D02*
D03*
D61*
X3327400Y1257300D02*
D03*
%TF.MD5,fe4f3cc380af17f7907f69021d3f8713*%
M02*
