%TF.GenerationSoftware,Altium Limited,Altium Designer,23.10.1 (27)*%
G04 Layer_Physical_Order=3*
G04 Layer_Color=16440176*
%FSLAX45Y45*%
%MOMM*%
%TF.SameCoordinates,42AF00E3-6381-46FF-AB9D-67395AE948A0*%
%TF.FilePolarity,Positive*%
%TF.FileFunction,Copper,L3,Inr,Signal*%
%TF.Part,Single*%
G01*
G75*
%TA.AperFunction,ComponentPad*%
%ADD56C,2.99000*%
%ADD57C,3.60600*%
%ADD58R,3.60600X3.60600*%
G04:AMPARAMS|DCode=59|XSize=1mm|YSize=1.8mm|CornerRadius=0.5mm|HoleSize=0mm|Usage=FLASHONLY|Rotation=270.000|XOffset=0mm|YOffset=0mm|HoleType=Round|Shape=RoundedRectangle|*
%AMROUNDEDRECTD59*
21,1,1.00000,0.80000,0,0,270.0*
21,1,0.00000,1.80000,0,0,270.0*
1,1,1.00000,-0.40000,0.00000*
1,1,1.00000,-0.40000,0.00000*
1,1,1.00000,0.40000,0.00000*
1,1,1.00000,0.40000,0.00000*
%
%ADD59ROUNDEDRECTD59*%
G04:AMPARAMS|DCode=60|XSize=1mm|YSize=2.1mm|CornerRadius=0.5mm|HoleSize=0mm|Usage=FLASHONLY|Rotation=270.000|XOffset=0mm|YOffset=0mm|HoleType=Round|Shape=RoundedRectangle|*
%AMROUNDEDRECTD60*
21,1,1.00000,1.10000,0,0,270.0*
21,1,0.00000,2.10000,0,0,270.0*
1,1,1.00000,-0.55000,0.00000*
1,1,1.00000,-0.55000,0.00000*
1,1,1.00000,0.55000,0.00000*
1,1,1.00000,0.55000,0.00000*
%
%ADD60ROUNDEDRECTD60*%
%ADD61C,0.65000*%
%TA.AperFunction,ViaPad*%
%ADD62C,0.71120*%
%ADD63C,0.50800*%
%ADD64C,4.06400*%
%ADD65C,1.27000*%
%ADD66C,0.50000*%
G36*
X6604001Y6603997D02*
Y2820345D01*
X6603056Y2819400D01*
X6070600D01*
Y1125942D01*
X6057900Y1120682D01*
X6054082Y1124500D01*
X6040079Y1130300D01*
X6024921D01*
X6010918Y1124500D01*
X6000200Y1113782D01*
X5994400Y1099779D01*
Y1084621D01*
X6000200Y1070618D01*
X6010918Y1059900D01*
X6024921Y1054100D01*
X6040079D01*
X6054082Y1059900D01*
X6057900Y1063718D01*
X6070600Y1058458D01*
Y723900D01*
X6074241Y720259D01*
X6604001D01*
Y-3D01*
X0D01*
X-1Y-1D01*
Y6603999D01*
X6604000D01*
X6604001Y6603997D01*
D02*
G37*
%LPC*%
G36*
X6302887Y6540500D02*
X6260358D01*
X6218646Y6532203D01*
X6179355Y6515928D01*
X6143994Y6492300D01*
X6113922Y6462228D01*
X6090294Y6426867D01*
X6074019Y6387576D01*
X6065722Y6345864D01*
Y6303336D01*
X6074019Y6261624D01*
X6090294Y6222333D01*
X6113922Y6186972D01*
X6143994Y6156900D01*
X6179355Y6133272D01*
X6218646Y6116997D01*
X6260358Y6108700D01*
X6302887D01*
X6344598Y6116997D01*
X6383889Y6133272D01*
X6419251Y6156900D01*
X6449323Y6186972D01*
X6472950Y6222333D01*
X6489225Y6261624D01*
X6497522Y6303336D01*
Y6345864D01*
X6489225Y6387576D01*
X6472950Y6426867D01*
X6449323Y6462228D01*
X6419251Y6492300D01*
X6383889Y6515928D01*
X6344598Y6532203D01*
X6302887Y6540500D01*
D02*
G37*
G36*
X2993064D02*
X2950536D01*
X2908824Y6532203D01*
X2869533Y6515928D01*
X2834172Y6492300D01*
X2804100Y6462228D01*
X2780472Y6426867D01*
X2764197Y6387576D01*
X2755900Y6345864D01*
Y6303336D01*
X2764197Y6261624D01*
X2780472Y6222333D01*
X2804100Y6186972D01*
X2834172Y6156900D01*
X2869533Y6133272D01*
X2908824Y6116997D01*
X2950536Y6108700D01*
X2993064D01*
X3034776Y6116997D01*
X3074067Y6133272D01*
X3109428Y6156900D01*
X3139500Y6186972D01*
X3163128Y6222333D01*
X3179403Y6261624D01*
X3187700Y6303336D01*
Y6345864D01*
X3179403Y6387576D01*
X3163128Y6426867D01*
X3139500Y6462228D01*
X3109428Y6492300D01*
X3074067Y6515928D01*
X3034776Y6532203D01*
X2993064Y6540500D01*
D02*
G37*
G36*
X5600700Y5382022D02*
Y5334000D01*
X5648722D01*
X5639679Y5355831D01*
X5622531Y5372979D01*
X5600700Y5382022D01*
D02*
G37*
G36*
X5575300D02*
X5553469Y5372979D01*
X5536321Y5355831D01*
X5527278Y5334000D01*
X5575300D01*
Y5382022D01*
D02*
G37*
G36*
X4084279Y5303520D02*
X4069121D01*
X4055118Y5297720D01*
X4044400Y5287002D01*
X4038600Y5272999D01*
Y5257841D01*
X4044400Y5243838D01*
X4055118Y5233120D01*
X4069121Y5227320D01*
X4084279D01*
X4098282Y5233120D01*
X4109000Y5243838D01*
X4114800Y5257841D01*
Y5272999D01*
X4109000Y5287002D01*
X4098282Y5297720D01*
X4084279Y5303520D01*
D02*
G37*
G36*
X5648722Y5308600D02*
X5527278D01*
X5536321Y5286769D01*
X5553273Y5269816D01*
X5553476Y5269564D01*
X5555205Y5255155D01*
X5547087Y5247037D01*
X5539740Y5229299D01*
Y5210101D01*
X5547087Y5192363D01*
X5560663Y5178787D01*
X5578401Y5171440D01*
X5597599D01*
X5615337Y5178787D01*
X5628913Y5192363D01*
X5636260Y5210101D01*
Y5229299D01*
X5628913Y5247037D01*
X5620795Y5255155D01*
X5622524Y5269564D01*
X5622727Y5269816D01*
X5639679Y5286769D01*
X5648722Y5308600D01*
D02*
G37*
G36*
X4579579Y5105400D02*
X4564421D01*
X4550418Y5099600D01*
X4539700Y5088882D01*
X4533900Y5074879D01*
Y5059721D01*
X4539700Y5045718D01*
X4550418Y5035000D01*
X4564421Y5029200D01*
X4579579D01*
X4593582Y5035000D01*
X4604300Y5045718D01*
X4610100Y5059721D01*
Y5074879D01*
X4604300Y5088882D01*
X4593582Y5099600D01*
X4579579Y5105400D01*
D02*
G37*
G36*
X2442175Y5084500D02*
X2410225D01*
X2378888Y5078267D01*
X2349370Y5066040D01*
X2322804Y5048289D01*
X2300211Y5025696D01*
X2282461Y4999130D01*
X2270233Y4969612D01*
X2264000Y4938275D01*
Y4906325D01*
X2270233Y4874988D01*
X2282461Y4845470D01*
X2300211Y4818904D01*
X2322804Y4796311D01*
X2349370Y4778560D01*
X2378888Y4766333D01*
X2410225Y4760100D01*
X2442175D01*
X2473512Y4766333D01*
X2503031Y4778560D01*
X2529596Y4796311D01*
X2552189Y4818904D01*
X2569940Y4845470D01*
X2582167Y4874988D01*
X2588400Y4906325D01*
Y4938275D01*
X2582167Y4969612D01*
X2569940Y4999130D01*
X2552189Y5025696D01*
X2529596Y5048289D01*
X2503031Y5066040D01*
X2473512Y5078267D01*
X2442175Y5084500D01*
D02*
G37*
G36*
X2946400Y4696222D02*
Y4648200D01*
X2994422D01*
X2985379Y4670031D01*
X2968231Y4687179D01*
X2946400Y4696222D01*
D02*
G37*
G36*
X2921000D02*
X2899169Y4687179D01*
X2882021Y4670031D01*
X2872978Y4648200D01*
X2921000D01*
Y4696222D01*
D02*
G37*
G36*
X3692599Y4696460D02*
X3673401D01*
X3655663Y4689113D01*
X3642087Y4675537D01*
X3634740Y4657799D01*
Y4638601D01*
X3642087Y4620863D01*
X3655663Y4607287D01*
X3673401Y4599940D01*
X3692599D01*
X3710337Y4607287D01*
X3723913Y4620863D01*
X3731260Y4638601D01*
Y4657799D01*
X3723913Y4675537D01*
X3710337Y4689113D01*
X3692599Y4696460D01*
D02*
G37*
G36*
X3540199D02*
X3521001D01*
X3503263Y4689113D01*
X3489687Y4675537D01*
X3482340Y4657799D01*
Y4638601D01*
X3489687Y4620863D01*
X3503263Y4607287D01*
X3521001Y4599940D01*
X3540199D01*
X3557937Y4607287D01*
X3571513Y4620863D01*
X3578860Y4638601D01*
Y4657799D01*
X3571513Y4675537D01*
X3557937Y4689113D01*
X3540199Y4696460D01*
D02*
G37*
G36*
X2994422Y4622800D02*
X2946400D01*
Y4574778D01*
X2968231Y4583821D01*
X2985379Y4600969D01*
X2994422Y4622800D01*
D02*
G37*
G36*
X2921000D02*
X2872978D01*
X2882021Y4600969D01*
X2899169Y4583821D01*
X2921000Y4574778D01*
Y4622800D01*
D02*
G37*
G36*
X3079055Y4605305D02*
Y4557283D01*
X3127077D01*
X3118034Y4579114D01*
X3100886Y4596262D01*
X3079055Y4605305D01*
D02*
G37*
G36*
X3053655D02*
X3031824Y4596262D01*
X3014675Y4579114D01*
X3005633Y4557283D01*
X3053655D01*
Y4605305D01*
D02*
G37*
G36*
X5956300Y4594622D02*
Y4546600D01*
X6004322D01*
X5995279Y4568431D01*
X5978131Y4585579D01*
X5956300Y4594622D01*
D02*
G37*
G36*
X5930900D02*
X5909069Y4585579D01*
X5891921Y4568431D01*
X5882878Y4546600D01*
X5930900D01*
Y4594622D01*
D02*
G37*
G36*
X5836879Y4572000D02*
X5821721D01*
X5807718Y4566200D01*
X5797000Y4555482D01*
X5791200Y4541479D01*
Y4526321D01*
X5797000Y4512318D01*
X5807718Y4501600D01*
X5821721Y4495800D01*
X5836879D01*
X5850882Y4501600D01*
X5861600Y4512318D01*
X5867400Y4526321D01*
Y4541479D01*
X5861600Y4555482D01*
X5850882Y4566200D01*
X5836879Y4572000D01*
D02*
G37*
G36*
X3127077Y4531883D02*
X3079055D01*
Y4483861D01*
X3100886Y4492903D01*
X3118034Y4510052D01*
X3127077Y4531883D01*
D02*
G37*
G36*
X3053655D02*
X3005633D01*
X3014675Y4510052D01*
X3031824Y4492903D01*
X3053655Y4483861D01*
Y4531883D01*
D02*
G37*
G36*
X6004322Y4521200D02*
X5956300D01*
Y4473178D01*
X5978131Y4482221D01*
X5995279Y4499369D01*
X6004322Y4521200D01*
D02*
G37*
G36*
X5930900D02*
X5882878D01*
X5891921Y4499369D01*
X5909069Y4482221D01*
X5930900Y4473178D01*
Y4521200D01*
D02*
G37*
G36*
X2946400Y4518422D02*
Y4470400D01*
X2994422D01*
X2985379Y4492231D01*
X2968231Y4509379D01*
X2946400Y4518422D01*
D02*
G37*
G36*
X2921000D02*
X2899169Y4509379D01*
X2882021Y4492231D01*
X2872978Y4470400D01*
X2921000D01*
Y4518422D01*
D02*
G37*
G36*
X3692599Y4505960D02*
X3673401D01*
X3655663Y4498613D01*
X3642087Y4485037D01*
X3634740Y4467299D01*
Y4448101D01*
X3642087Y4430363D01*
X3655663Y4416787D01*
X3673401Y4409440D01*
X3692599D01*
X3710337Y4416787D01*
X3723913Y4430363D01*
X3731260Y4448101D01*
Y4467299D01*
X3723913Y4485037D01*
X3710337Y4498613D01*
X3692599Y4505960D01*
D02*
G37*
G36*
X3540199D02*
X3521001D01*
X3503263Y4498613D01*
X3489687Y4485037D01*
X3482340Y4467299D01*
Y4448101D01*
X3489687Y4430363D01*
X3503263Y4416787D01*
X3521001Y4409440D01*
X3540199D01*
X3557937Y4416787D01*
X3571513Y4430363D01*
X3578860Y4448101D01*
Y4467299D01*
X3571513Y4485037D01*
X3557937Y4498613D01*
X3540199Y4505960D01*
D02*
G37*
G36*
X2994422Y4445000D02*
X2946400D01*
Y4396978D01*
X2968231Y4406021D01*
X2985379Y4423169D01*
X2994422Y4445000D01*
D02*
G37*
G36*
X2921000D02*
X2872978D01*
X2882021Y4423169D01*
X2899169Y4406021D01*
X2921000Y4396978D01*
Y4445000D01*
D02*
G37*
G36*
X6178499Y4353560D02*
X6159301D01*
X6141563Y4346213D01*
X6127987Y4332637D01*
X6120640Y4314899D01*
Y4295701D01*
X6127987Y4277963D01*
X6141563Y4264387D01*
X6159301Y4257040D01*
X6178499D01*
X6196237Y4264387D01*
X6209813Y4277963D01*
X6217160Y4295701D01*
Y4314899D01*
X6209813Y4332637D01*
X6196237Y4346213D01*
X6178499Y4353560D01*
D02*
G37*
G36*
X5635699D02*
X5616501D01*
X5598763Y4346213D01*
X5585187Y4332637D01*
X5577840Y4314899D01*
Y4295701D01*
X5585187Y4277963D01*
X5598763Y4264387D01*
X5616501Y4257040D01*
X5635699D01*
X5653437Y4264387D01*
X5667013Y4277963D01*
X5674360Y4295701D01*
Y4314899D01*
X5667013Y4332637D01*
X5653437Y4346213D01*
X5635699Y4353560D01*
D02*
G37*
G36*
X3692599Y4315460D02*
X3673401D01*
X3655663Y4308113D01*
X3642087Y4294537D01*
X3634740Y4276799D01*
Y4257601D01*
X3642087Y4239863D01*
X3655663Y4226287D01*
X3673401Y4218940D01*
X3692599D01*
X3710337Y4226287D01*
X3723913Y4239863D01*
X3731260Y4257601D01*
Y4276799D01*
X3723913Y4294537D01*
X3710337Y4308113D01*
X3692599Y4315460D01*
D02*
G37*
G36*
X3540199D02*
X3521001D01*
X3503263Y4308113D01*
X3489687Y4294537D01*
X3482340Y4276799D01*
Y4257601D01*
X3489687Y4239863D01*
X3503263Y4226287D01*
X3521001Y4218940D01*
X3540199D01*
X3557937Y4226287D01*
X3571513Y4239863D01*
X3578860Y4257601D01*
Y4276799D01*
X3571513Y4294537D01*
X3557937Y4308113D01*
X3540199Y4315460D01*
D02*
G37*
G36*
X3387799D02*
X3368601D01*
X3350863Y4308113D01*
X3337287Y4294537D01*
X3329940Y4276799D01*
Y4257601D01*
X3337287Y4239863D01*
X3350863Y4226287D01*
X3368601Y4218940D01*
X3387799D01*
X3405537Y4226287D01*
X3419113Y4239863D01*
X3426460Y4257601D01*
Y4276799D01*
X3419113Y4294537D01*
X3405537Y4308113D01*
X3387799Y4315460D01*
D02*
G37*
G36*
X3895799Y4201160D02*
X3876601D01*
X3858863Y4193813D01*
X3845287Y4180237D01*
X3837940Y4162499D01*
Y4143301D01*
X3845287Y4125563D01*
X3858863Y4111987D01*
X3876601Y4104640D01*
X3895799D01*
X3913537Y4111987D01*
X3927113Y4125563D01*
X3934460Y4143301D01*
Y4162499D01*
X3927113Y4180237D01*
X3913537Y4193813D01*
X3895799Y4201160D01*
D02*
G37*
G36*
X3692599Y4137660D02*
X3673401D01*
X3655663Y4130313D01*
X3642087Y4116737D01*
X3634740Y4098999D01*
Y4079801D01*
X3642087Y4062063D01*
X3655663Y4048487D01*
X3673401Y4041140D01*
X3692599D01*
X3710337Y4048487D01*
X3723913Y4062063D01*
X3731260Y4079801D01*
Y4098999D01*
X3723913Y4116737D01*
X3710337Y4130313D01*
X3692599Y4137660D01*
D02*
G37*
G36*
X3540199D02*
X3521001D01*
X3503263Y4130313D01*
X3489687Y4116737D01*
X3482340Y4098999D01*
Y4079801D01*
X3489687Y4062063D01*
X3503263Y4048487D01*
X3521001Y4041140D01*
X3540199D01*
X3557937Y4048487D01*
X3571513Y4062063D01*
X3578860Y4079801D01*
Y4098999D01*
X3571513Y4116737D01*
X3557937Y4130313D01*
X3540199Y4137660D01*
D02*
G37*
G36*
X3387799D02*
X3368601D01*
X3350863Y4130313D01*
X3337287Y4116737D01*
X3329940Y4098999D01*
Y4079801D01*
X3337287Y4062063D01*
X3350863Y4048487D01*
X3368601Y4041140D01*
X3387799D01*
X3405537Y4048487D01*
X3419113Y4062063D01*
X3426460Y4079801D01*
Y4098999D01*
X3419113Y4116737D01*
X3405537Y4130313D01*
X3387799Y4137660D01*
D02*
G37*
G36*
X5316871Y4077416D02*
Y4029394D01*
X5364893D01*
X5355851Y4051225D01*
X5338702Y4068373D01*
X5316871Y4077416D01*
D02*
G37*
G36*
X5291471D02*
X5269640Y4068373D01*
X5252492Y4051225D01*
X5243449Y4029394D01*
X5291471D01*
Y4077416D01*
D02*
G37*
G36*
X2619200Y4371300D02*
X2233200D01*
Y3985300D01*
X2619200D01*
Y4371300D01*
D02*
G37*
G36*
X1746209D02*
X1708191D01*
X1670904Y4363883D01*
X1635780Y4349334D01*
X1604170Y4328213D01*
X1577287Y4301330D01*
X1556166Y4269720D01*
X1541617Y4234596D01*
X1534200Y4197309D01*
Y4159291D01*
X1541617Y4122004D01*
X1556166Y4086880D01*
X1577287Y4055270D01*
X1604170Y4028387D01*
X1635780Y4007266D01*
X1670904Y3992717D01*
X1708191Y3985300D01*
X1746209D01*
X1783496Y3992717D01*
X1818620Y4007266D01*
X1850230Y4028387D01*
X1877113Y4055270D01*
X1898234Y4086880D01*
X1912783Y4122004D01*
X1920200Y4159291D01*
Y4197309D01*
X1912783Y4234596D01*
X1898234Y4269720D01*
X1877113Y4301330D01*
X1850230Y4328213D01*
X1818620Y4349334D01*
X1783496Y4363883D01*
X1746209Y4371300D01*
D02*
G37*
G36*
X5364893Y4003994D02*
X5316871D01*
Y3955972D01*
X5338702Y3965014D01*
X5355851Y3982162D01*
X5364893Y4003994D01*
D02*
G37*
G36*
X5291471D02*
X5243449D01*
X5252492Y3982162D01*
X5269640Y3965014D01*
X5291471Y3955972D01*
Y4003994D01*
D02*
G37*
G36*
X5929899Y3991600D02*
X5914901D01*
X5901045Y3985860D01*
X5890439Y3975255D01*
X5884700Y3961399D01*
Y3946401D01*
X5890439Y3932545D01*
X5901045Y3921939D01*
X5914901Y3916200D01*
X5929899D01*
X5943755Y3921939D01*
X5954360Y3932545D01*
X5960100Y3946401D01*
Y3961399D01*
X5954360Y3975255D01*
X5943755Y3985860D01*
X5929899Y3991600D01*
D02*
G37*
G36*
X5819899D02*
X5804901D01*
X5791045Y3985860D01*
X5780440Y3975255D01*
X5774700Y3961399D01*
Y3946401D01*
X5780440Y3932545D01*
X5791045Y3921939D01*
X5804901Y3916200D01*
X5819899D01*
X5833755Y3921939D01*
X5844361Y3932545D01*
X5850100Y3946401D01*
Y3961399D01*
X5844361Y3975255D01*
X5833755Y3985860D01*
X5819899Y3991600D01*
D02*
G37*
G36*
X3032199Y3921760D02*
X3013001D01*
X2995263Y3914413D01*
X2981687Y3900837D01*
X2974340Y3883099D01*
Y3863901D01*
X2981687Y3846163D01*
X2995263Y3832587D01*
X3013001Y3825240D01*
X3032199D01*
X3049937Y3832587D01*
X3063513Y3846163D01*
X3070860Y3863901D01*
Y3883099D01*
X3063513Y3900837D01*
X3049937Y3914413D01*
X3032199Y3921760D01*
D02*
G37*
G36*
X5929899Y3881600D02*
X5914901D01*
X5901045Y3875861D01*
X5890439Y3865255D01*
X5884700Y3851399D01*
Y3836401D01*
X5890439Y3822545D01*
X5901045Y3811940D01*
X5914901Y3806200D01*
X5929899D01*
X5943755Y3811940D01*
X5954360Y3822545D01*
X5960100Y3836401D01*
Y3851399D01*
X5954360Y3865255D01*
X5943755Y3875861D01*
X5929899Y3881600D01*
D02*
G37*
G36*
X5819899D02*
X5804901D01*
X5791045Y3875861D01*
X5780440Y3865255D01*
X5774700Y3851399D01*
Y3836401D01*
X5780440Y3822545D01*
X5791045Y3811940D01*
X5804901Y3806200D01*
X5819899D01*
X5833755Y3811940D01*
X5844361Y3822545D01*
X5850100Y3836401D01*
Y3851399D01*
X5844361Y3865255D01*
X5833755Y3875861D01*
X5819899Y3881600D01*
D02*
G37*
G36*
X4518099Y3883660D02*
X4498901D01*
X4481163Y3876313D01*
X4467587Y3862737D01*
X4460240Y3844999D01*
Y3825801D01*
X4467587Y3808063D01*
X4481163Y3794487D01*
X4498901Y3787140D01*
X4518099D01*
X4535837Y3794487D01*
X4549413Y3808063D01*
X4556760Y3825801D01*
Y3844999D01*
X4549413Y3862737D01*
X4535837Y3876313D01*
X4518099Y3883660D01*
D02*
G37*
G36*
X3565599D02*
X3546401D01*
X3528663Y3876313D01*
X3515087Y3862737D01*
X3507740Y3844999D01*
Y3825801D01*
X3515087Y3808063D01*
X3528663Y3794487D01*
X3546401Y3787140D01*
X3565599D01*
X3583337Y3794487D01*
X3596913Y3808063D01*
X3604260Y3825801D01*
Y3844999D01*
X3596913Y3862737D01*
X3583337Y3876313D01*
X3565599Y3883660D01*
D02*
G37*
G36*
X5495999Y3832860D02*
X5476801D01*
X5459063Y3825513D01*
X5445487Y3811937D01*
X5438140Y3794199D01*
Y3775001D01*
X5445487Y3757263D01*
X5459063Y3743687D01*
X5476801Y3736340D01*
X5495999D01*
X5513737Y3743687D01*
X5527313Y3757263D01*
X5534660Y3775001D01*
Y3794199D01*
X5527313Y3811937D01*
X5513737Y3825513D01*
X5495999Y3832860D01*
D02*
G37*
G36*
X6270699Y3820160D02*
X6251501D01*
X6233763Y3812813D01*
X6220187Y3799237D01*
X6212840Y3781499D01*
Y3762301D01*
X6220187Y3744563D01*
X6233763Y3730987D01*
X6251501Y3723640D01*
X6270699D01*
X6288437Y3730987D01*
X6302013Y3744563D01*
X6309360Y3762301D01*
Y3781499D01*
X6302013Y3799237D01*
X6288437Y3812813D01*
X6270699Y3820160D01*
D02*
G37*
G36*
X4445000Y3692922D02*
Y3644900D01*
X4493022D01*
X4483979Y3666731D01*
X4466831Y3683879D01*
X4445000Y3692922D01*
D02*
G37*
G36*
X4419600D02*
X4397769Y3683879D01*
X4380621Y3666731D01*
X4371578Y3644900D01*
X4419600D01*
Y3692922D01*
D02*
G37*
G36*
X4493022Y3619500D02*
X4445000D01*
Y3571478D01*
X4466831Y3580521D01*
X4483979Y3597669D01*
X4493022Y3619500D01*
D02*
G37*
G36*
X4419600D02*
X4371578D01*
X4380621Y3597669D01*
X4397769Y3580521D01*
X4419600Y3571478D01*
Y3619500D01*
D02*
G37*
G36*
X5559499Y3578860D02*
X5540301D01*
X5522563Y3571513D01*
X5508987Y3557937D01*
X5501640Y3540199D01*
Y3521001D01*
X5508987Y3503263D01*
X5522563Y3489687D01*
X5540301Y3482340D01*
X5559499D01*
X5577237Y3489687D01*
X5590813Y3503263D01*
X5598160Y3521001D01*
Y3540199D01*
X5590813Y3557937D01*
X5577237Y3571513D01*
X5559499Y3578860D01*
D02*
G37*
G36*
X4445000Y3527822D02*
Y3479800D01*
X4493022D01*
X4483979Y3501631D01*
X4466831Y3518779D01*
X4445000Y3527822D01*
D02*
G37*
G36*
X4419600D02*
X4397769Y3518779D01*
X4380621Y3501631D01*
X4371578Y3479800D01*
X4419600D01*
Y3527822D01*
D02*
G37*
G36*
X4493022Y3454400D02*
X4445000D01*
Y3406378D01*
X4466831Y3415421D01*
X4483979Y3432569D01*
X4493022Y3454400D01*
D02*
G37*
G36*
X4419600D02*
X4371578D01*
X4380621Y3432569D01*
X4397769Y3415421D01*
X4419600Y3406378D01*
Y3454400D01*
D02*
G37*
G36*
X2445209Y3700300D02*
X2407191D01*
X2369904Y3692883D01*
X2334780Y3678335D01*
X2303170Y3657213D01*
X2276287Y3630330D01*
X2255166Y3598720D01*
X2240617Y3563596D01*
X2233200Y3526309D01*
Y3488291D01*
X2240617Y3451004D01*
X2255166Y3415880D01*
X2276287Y3384270D01*
X2303170Y3357387D01*
X2334780Y3336266D01*
X2369904Y3321717D01*
X2407191Y3314300D01*
X2445209D01*
X2482496Y3321717D01*
X2517620Y3336266D01*
X2549230Y3357387D01*
X2576113Y3384270D01*
X2597235Y3415880D01*
X2611783Y3451004D01*
X2619200Y3488291D01*
Y3526309D01*
X2611783Y3563596D01*
X2597235Y3598720D01*
X2576113Y3630330D01*
X2549230Y3657213D01*
X2517620Y3678335D01*
X2482496Y3692883D01*
X2445209Y3700300D01*
D02*
G37*
G36*
X1746209D02*
X1708191D01*
X1670904Y3692883D01*
X1635780Y3678335D01*
X1604170Y3657213D01*
X1577287Y3630330D01*
X1556166Y3598720D01*
X1541617Y3563596D01*
X1534200Y3526309D01*
Y3488291D01*
X1541617Y3451004D01*
X1556166Y3415880D01*
X1577287Y3384270D01*
X1604170Y3357387D01*
X1635780Y3336266D01*
X1670904Y3321717D01*
X1708191Y3314300D01*
X1746209D01*
X1783496Y3321717D01*
X1818620Y3336266D01*
X1850230Y3357387D01*
X1877113Y3384270D01*
X1898234Y3415880D01*
X1912783Y3451004D01*
X1920200Y3488291D01*
Y3526309D01*
X1912783Y3563596D01*
X1898234Y3598720D01*
X1877113Y3630330D01*
X1850230Y3657213D01*
X1818620Y3678335D01*
X1783496Y3692883D01*
X1746209Y3700300D01*
D02*
G37*
G36*
X6388100Y3311922D02*
Y3263900D01*
X6436122D01*
X6427079Y3285731D01*
X6409931Y3302879D01*
X6388100Y3311922D01*
D02*
G37*
G36*
X6362700D02*
X6340869Y3302879D01*
X6323721Y3285731D01*
X6314678Y3263900D01*
X6362700D01*
Y3311922D01*
D02*
G37*
G36*
X5676900D02*
Y3263900D01*
X5724922D01*
X5715879Y3285731D01*
X5698731Y3302879D01*
X5676900Y3311922D01*
D02*
G37*
G36*
X5651500D02*
X5629669Y3302879D01*
X5612521Y3285731D01*
X5603478Y3263900D01*
X5651500D01*
Y3311922D01*
D02*
G37*
G36*
X4439879Y3314700D02*
X4424721D01*
X4410718Y3308900D01*
X4400000Y3298182D01*
X4394200Y3284179D01*
Y3269021D01*
X4400000Y3255018D01*
X4410718Y3244300D01*
X4424721Y3238500D01*
X4439879D01*
X4453882Y3244300D01*
X4464600Y3255018D01*
X4470400Y3269021D01*
Y3284179D01*
X4464600Y3298182D01*
X4453882Y3308900D01*
X4439879Y3314700D01*
D02*
G37*
G36*
X6436122Y3238500D02*
X6388100D01*
Y3190478D01*
X6409931Y3199521D01*
X6427079Y3216669D01*
X6436122Y3238500D01*
D02*
G37*
G36*
X6362700D02*
X6314678D01*
X6323721Y3216669D01*
X6340869Y3199521D01*
X6362700Y3190478D01*
Y3238500D01*
D02*
G37*
G36*
X5724922D02*
X5676900D01*
Y3190478D01*
X5698731Y3199521D01*
X5715879Y3216669D01*
X5724922Y3238500D01*
D02*
G37*
G36*
X5651500D02*
X5603478D01*
X5612521Y3216669D01*
X5629669Y3199521D01*
X5651500Y3190478D01*
Y3238500D01*
D02*
G37*
G36*
X6116279Y3086100D02*
X6101121D01*
X6087118Y3080300D01*
X6076400Y3069582D01*
X6070600Y3055579D01*
Y3040421D01*
X6076400Y3026418D01*
X6087118Y3015700D01*
X6101121Y3009900D01*
X6116279D01*
X6130282Y3015700D01*
X6141000Y3026418D01*
X6146800Y3040421D01*
Y3055579D01*
X6141000Y3069582D01*
X6130282Y3080300D01*
X6116279Y3086100D01*
D02*
G37*
G36*
X5786079D02*
X5770921D01*
X5756918Y3080300D01*
X5746200Y3069582D01*
X5740400Y3055579D01*
Y3040421D01*
X5746200Y3026418D01*
X5756918Y3015700D01*
X5770921Y3009900D01*
X5786079D01*
X5800082Y3015700D01*
X5810800Y3026418D01*
X5816600Y3040421D01*
Y3055579D01*
X5810800Y3069582D01*
X5800082Y3080300D01*
X5786079Y3086100D01*
D02*
G37*
G36*
X5874979Y3009900D02*
X5859821D01*
X5845818Y3004100D01*
X5835100Y2993382D01*
X5829300Y2979379D01*
Y2964221D01*
X5835100Y2950218D01*
X5845818Y2939500D01*
X5859821Y2933700D01*
X5874979D01*
X5888982Y2939500D01*
X5899700Y2950218D01*
X5905500Y2964221D01*
Y2979379D01*
X5899700Y2993382D01*
X5888982Y3004100D01*
X5874979Y3009900D01*
D02*
G37*
G36*
X6522679Y2921000D02*
X6507521D01*
X6493518Y2915200D01*
X6482800Y2904482D01*
X6477000Y2890479D01*
Y2875321D01*
X6482800Y2861318D01*
X6493518Y2850600D01*
X6507521Y2844800D01*
X6522679D01*
X6536682Y2850600D01*
X6547400Y2861318D01*
X6553200Y2875321D01*
Y2890479D01*
X6547400Y2904482D01*
X6536682Y2915200D01*
X6522679Y2921000D01*
D02*
G37*
G36*
X6395679D02*
X6380521D01*
X6366518Y2915200D01*
X6355800Y2904482D01*
X6350000Y2890479D01*
Y2875321D01*
X6355800Y2861318D01*
X6366518Y2850600D01*
X6380521Y2844800D01*
X6395679D01*
X6409682Y2850600D01*
X6420400Y2861318D01*
X6426200Y2875321D01*
Y2890479D01*
X6420400Y2904482D01*
X6409682Y2915200D01*
X6395679Y2921000D01*
D02*
G37*
G36*
X6268679D02*
X6253521D01*
X6239518Y2915200D01*
X6228800Y2904482D01*
X6223000Y2890479D01*
Y2875321D01*
X6228800Y2861318D01*
X6239518Y2850600D01*
X6253521Y2844800D01*
X6268679D01*
X6282682Y2850600D01*
X6293400Y2861318D01*
X6299200Y2875321D01*
Y2890479D01*
X6293400Y2904482D01*
X6282682Y2915200D01*
X6268679Y2921000D01*
D02*
G37*
G36*
X6141679D02*
X6126521D01*
X6112518Y2915200D01*
X6101800Y2904482D01*
X6096000Y2890479D01*
Y2875321D01*
X6101800Y2861318D01*
X6112518Y2850600D01*
X6126521Y2844800D01*
X6141679D01*
X6155682Y2850600D01*
X6166400Y2861318D01*
X6172200Y2875321D01*
Y2890479D01*
X6166400Y2904482D01*
X6155682Y2915200D01*
X6141679Y2921000D01*
D02*
G37*
G36*
X6014679D02*
X5999521D01*
X5985518Y2915200D01*
X5974800Y2904482D01*
X5969000Y2890479D01*
Y2875321D01*
X5974800Y2861318D01*
X5985518Y2850600D01*
X5999521Y2844800D01*
X6014679D01*
X6028682Y2850600D01*
X6039400Y2861318D01*
X6045200Y2875321D01*
Y2890479D01*
X6039400Y2904482D01*
X6028682Y2915200D01*
X6014679Y2921000D01*
D02*
G37*
G36*
Y2806700D02*
X5999521D01*
X5985518Y2800900D01*
X5974800Y2790182D01*
X5969000Y2776179D01*
Y2761021D01*
X5974800Y2747018D01*
X5985518Y2736300D01*
X5999521Y2730500D01*
X6014679D01*
X6028682Y2736300D01*
X6039400Y2747018D01*
X6045200Y2761021D01*
Y2776179D01*
X6039400Y2790182D01*
X6028682Y2800900D01*
X6014679Y2806700D01*
D02*
G37*
G36*
X4554179Y2755900D02*
X4539021D01*
X4525018Y2750100D01*
X4514300Y2739382D01*
X4508500Y2725379D01*
Y2710221D01*
X4514300Y2696218D01*
X4525018Y2685500D01*
X4539021Y2679700D01*
X4554179D01*
X4568182Y2685500D01*
X4578900Y2696218D01*
X4584700Y2710221D01*
Y2725379D01*
X4578900Y2739382D01*
X4568182Y2750100D01*
X4554179Y2755900D01*
D02*
G37*
G36*
X4465279D02*
X4450121D01*
X4436118Y2750100D01*
X4425400Y2739382D01*
X4419600Y2725379D01*
Y2710221D01*
X4425400Y2696218D01*
X4436118Y2685500D01*
X4450121Y2679700D01*
X4465279D01*
X4479282Y2685500D01*
X4490000Y2696218D01*
X4495800Y2710221D01*
Y2725379D01*
X4490000Y2739382D01*
X4479282Y2750100D01*
X4465279Y2755900D01*
D02*
G37*
G36*
X6014679Y2679700D02*
X5999521D01*
X5985518Y2673900D01*
X5974800Y2663182D01*
X5969000Y2649179D01*
Y2634021D01*
X5974800Y2620018D01*
X5985518Y2609300D01*
X5999521Y2603500D01*
X6014679D01*
X6028682Y2609300D01*
X6039400Y2620018D01*
X6045200Y2634021D01*
Y2649179D01*
X6039400Y2663182D01*
X6028682Y2673900D01*
X6014679Y2679700D01*
D02*
G37*
G36*
X2442175Y2925500D02*
X2410225D01*
X2378888Y2919267D01*
X2349370Y2907040D01*
X2322804Y2889289D01*
X2300211Y2866696D01*
X2282461Y2840130D01*
X2270233Y2810612D01*
X2264000Y2779275D01*
Y2747325D01*
X2270233Y2715988D01*
X2282461Y2686470D01*
X2300211Y2659904D01*
X2322804Y2637311D01*
X2349370Y2619560D01*
X2378888Y2607333D01*
X2410225Y2601100D01*
X2442175D01*
X2473512Y2607333D01*
X2503031Y2619560D01*
X2529596Y2637311D01*
X2552189Y2659904D01*
X2569940Y2686470D01*
X2582167Y2715988D01*
X2588400Y2747325D01*
Y2779275D01*
X2582167Y2810612D01*
X2569940Y2840130D01*
X2552189Y2866696D01*
X2529596Y2889289D01*
X2503031Y2907040D01*
X2473512Y2919267D01*
X2442175Y2925500D01*
D02*
G37*
G36*
X6014679Y2552700D02*
X5999521D01*
X5985518Y2546900D01*
X5974800Y2536182D01*
X5969000Y2522179D01*
Y2507021D01*
X5974800Y2493018D01*
X5985518Y2482300D01*
X5999521Y2476500D01*
X6014679D01*
X6028682Y2482300D01*
X6039400Y2493018D01*
X6045200Y2507021D01*
Y2522179D01*
X6039400Y2536182D01*
X6028682Y2546900D01*
X6014679Y2552700D01*
D02*
G37*
G36*
Y2425700D02*
X5999521D01*
X5985518Y2419900D01*
X5974800Y2409182D01*
X5969000Y2395179D01*
Y2380021D01*
X5974800Y2366018D01*
X5985518Y2355300D01*
X5999521Y2349500D01*
X6014679D01*
X6028682Y2355300D01*
X6039400Y2366018D01*
X6045200Y2380021D01*
Y2395179D01*
X6039400Y2409182D01*
X6028682Y2419900D01*
X6014679Y2425700D01*
D02*
G37*
G36*
X4559300Y2321322D02*
Y2273300D01*
X4607322D01*
X4598279Y2295131D01*
X4581131Y2312279D01*
X4559300Y2321322D01*
D02*
G37*
G36*
X4533900D02*
X4512069Y2312279D01*
X4494921Y2295131D01*
X4485878Y2273300D01*
X4533900D01*
Y2321322D01*
D02*
G37*
G36*
X4216400Y2283222D02*
X4194569Y2274179D01*
X4177616Y2257227D01*
X4177364Y2257024D01*
X4162955Y2255295D01*
X4154837Y2263413D01*
X4137099Y2270760D01*
X4117901D01*
X4100163Y2263413D01*
X4086587Y2249837D01*
X4079240Y2232099D01*
Y2212901D01*
X4086587Y2195163D01*
X4100163Y2181587D01*
X4117901Y2174240D01*
X4137099D01*
X4154837Y2181587D01*
X4162955Y2189705D01*
X4177364Y2187976D01*
X4177616Y2187773D01*
X4194569Y2170821D01*
X4216400Y2161778D01*
Y2222500D01*
Y2283222D01*
D02*
G37*
G36*
X4884379Y2311400D02*
X4869221D01*
X4855218Y2305600D01*
X4844500Y2294882D01*
X4838700Y2280879D01*
Y2265721D01*
X4844500Y2251718D01*
X4855218Y2241000D01*
X4869221Y2235200D01*
X4884379D01*
X4898382Y2241000D01*
X4909100Y2251718D01*
X4914900Y2265721D01*
Y2280879D01*
X4909100Y2294882D01*
X4898382Y2305600D01*
X4884379Y2311400D01*
D02*
G37*
G36*
X4414479D02*
X4399321D01*
X4385318Y2305600D01*
X4374600Y2294882D01*
X4368800Y2280879D01*
Y2265721D01*
X4374600Y2251718D01*
X4385318Y2241000D01*
X4399321Y2235200D01*
X4414479D01*
X4428482Y2241000D01*
X4439200Y2251718D01*
X4445000Y2265721D01*
Y2280879D01*
X4439200Y2294882D01*
X4428482Y2305600D01*
X4414479Y2311400D01*
D02*
G37*
G36*
X6014679Y2298700D02*
X5999521D01*
X5985518Y2292900D01*
X5974800Y2282182D01*
X5969000Y2268179D01*
Y2253021D01*
X5974800Y2239018D01*
X5985518Y2228300D01*
X5999521Y2222500D01*
X6014679D01*
X6028682Y2228300D01*
X6039400Y2239018D01*
X6045200Y2253021D01*
Y2268179D01*
X6039400Y2282182D01*
X6028682Y2292900D01*
X6014679Y2298700D01*
D02*
G37*
G36*
X4607322Y2247900D02*
X4559300D01*
Y2199878D01*
X4581131Y2208921D01*
X4598279Y2226069D01*
X4607322Y2247900D01*
D02*
G37*
G36*
X4533900D02*
X4485878D01*
X4494921Y2226069D01*
X4512069Y2208921D01*
X4533900Y2199878D01*
Y2247900D01*
D02*
G37*
G36*
X4241800Y2283222D02*
Y2222500D01*
Y2161778D01*
X4263631Y2170821D01*
X4280779Y2187969D01*
X4281639Y2190045D01*
X4294096Y2192523D01*
X4296418Y2190200D01*
X4310421Y2184400D01*
X4325579D01*
X4339582Y2190200D01*
X4350300Y2200918D01*
X4356100Y2214921D01*
Y2230079D01*
X4350300Y2244082D01*
X4339582Y2254800D01*
X4325579Y2260600D01*
X4310421D01*
X4296418Y2254800D01*
X4294096Y2252477D01*
X4281639Y2254955D01*
X4280779Y2257031D01*
X4263631Y2274179D01*
X4241800Y2283222D01*
D02*
G37*
G36*
X6014679Y2171700D02*
X5999521D01*
X5985518Y2165900D01*
X5974800Y2155182D01*
X5969000Y2141179D01*
Y2126021D01*
X5974800Y2112018D01*
X5985518Y2101300D01*
X5999521Y2095500D01*
X6014679D01*
X6028682Y2101300D01*
X6039400Y2112018D01*
X6045200Y2126021D01*
Y2141179D01*
X6039400Y2155182D01*
X6028682Y2165900D01*
X6014679Y2171700D01*
D02*
G37*
G36*
X4757379Y2108200D02*
X4742221D01*
X4728218Y2102400D01*
X4717500Y2091682D01*
X4711700Y2077679D01*
Y2062521D01*
X4717500Y2048518D01*
X4728218Y2037800D01*
X4742221Y2032000D01*
X4757379D01*
X4771382Y2037800D01*
X4782100Y2048518D01*
X4787900Y2062521D01*
Y2077679D01*
X4782100Y2091682D01*
X4771382Y2102400D01*
X4757379Y2108200D01*
D02*
G37*
G36*
X6014679Y2044700D02*
X5999521D01*
X5985518Y2038900D01*
X5974800Y2028182D01*
X5969000Y2014179D01*
Y1999021D01*
X5974800Y1985018D01*
X5985518Y1974300D01*
X5999521Y1968500D01*
X6014679D01*
X6028682Y1974300D01*
X6039400Y1985018D01*
X6045200Y1999021D01*
Y2014179D01*
X6039400Y2028182D01*
X6028682Y2038900D01*
X6014679Y2044700D01*
D02*
G37*
G36*
X4465279D02*
X4450121D01*
X4436118Y2038900D01*
X4425400Y2028182D01*
X4419600Y2014179D01*
Y1999021D01*
X4425400Y1985018D01*
X4436118Y1974300D01*
X4450121Y1968500D01*
X4465279D01*
X4479282Y1974300D01*
X4490000Y1985018D01*
X4495800Y1999021D01*
Y2014179D01*
X4490000Y2028182D01*
X4479282Y2038900D01*
X4465279Y2044700D01*
D02*
G37*
G36*
X3741379Y2032000D02*
X3726221D01*
X3712218Y2026200D01*
X3701500Y2015482D01*
X3695700Y2001479D01*
Y1986321D01*
X3701500Y1972318D01*
X3712218Y1961600D01*
X3726221Y1955800D01*
X3741379D01*
X3755382Y1961600D01*
X3766100Y1972318D01*
X3771900Y1986321D01*
Y2001479D01*
X3766100Y2015482D01*
X3755382Y2026200D01*
X3741379Y2032000D01*
D02*
G37*
G36*
X6014679Y1917700D02*
X5999521D01*
X5985518Y1911900D01*
X5974800Y1901182D01*
X5969000Y1887179D01*
Y1872021D01*
X5974800Y1858018D01*
X5985518Y1847300D01*
X5999521Y1841500D01*
X6014679D01*
X6028682Y1847300D01*
X6039400Y1858018D01*
X6045200Y1872021D01*
Y1887179D01*
X6039400Y1901182D01*
X6028682Y1911900D01*
X6014679Y1917700D01*
D02*
G37*
G36*
X5163779Y1879600D02*
X5148621D01*
X5134618Y1873800D01*
X5123900Y1863082D01*
X5118100Y1849079D01*
Y1833921D01*
X5123900Y1819918D01*
X5134618Y1809200D01*
X5148621Y1803400D01*
X5163779D01*
X5177782Y1809200D01*
X5188500Y1819918D01*
X5194300Y1833921D01*
Y1849079D01*
X5188500Y1863082D01*
X5177782Y1873800D01*
X5163779Y1879600D01*
D02*
G37*
G36*
X6014679Y1790700D02*
X5999521D01*
X5985518Y1784900D01*
X5974800Y1774182D01*
X5969000Y1760179D01*
Y1745021D01*
X5974800Y1731018D01*
X5985518Y1720300D01*
X5999521Y1714500D01*
X6014679D01*
X6028682Y1720300D01*
X6039400Y1731018D01*
X6045200Y1745021D01*
Y1760179D01*
X6039400Y1774182D01*
X6028682Y1784900D01*
X6014679Y1790700D01*
D02*
G37*
G36*
X4884379D02*
X4869221D01*
X4855218Y1784900D01*
X4844500Y1774182D01*
X4838700Y1760179D01*
Y1745021D01*
X4844500Y1731018D01*
X4855218Y1720300D01*
X4869221Y1714500D01*
X4884379D01*
X4898382Y1720300D01*
X4909100Y1731018D01*
X4914900Y1745021D01*
Y1760179D01*
X4909100Y1774182D01*
X4898382Y1784900D01*
X4884379Y1790700D01*
D02*
G37*
G36*
X4592279Y1780025D02*
X4577121D01*
X4563118Y1774225D01*
X4552400Y1763507D01*
X4546600Y1749503D01*
Y1734346D01*
X4552400Y1720343D01*
X4563118Y1709625D01*
X4577121Y1703825D01*
X4592279D01*
X4606282Y1709625D01*
X4617000Y1720343D01*
X4622800Y1734346D01*
Y1749503D01*
X4617000Y1763507D01*
X4606282Y1774225D01*
X4592279Y1780025D01*
D02*
G37*
G36*
X4363679D02*
X4348521D01*
X4334518Y1774225D01*
X4323800Y1763507D01*
X4318000Y1749503D01*
Y1734346D01*
X4323800Y1720343D01*
X4334518Y1709625D01*
X4348521Y1703825D01*
X4363679D01*
X4377682Y1709625D01*
X4388400Y1720343D01*
X4394200Y1734346D01*
Y1749503D01*
X4388400Y1763507D01*
X4377682Y1774225D01*
X4363679Y1780025D01*
D02*
G37*
G36*
X4477979D02*
X4462821D01*
X4448818Y1774225D01*
X4438100Y1763507D01*
X4432300Y1749503D01*
Y1734346D01*
X4438100Y1720343D01*
X4447061Y1711383D01*
X4446525Y1702966D01*
X4444675Y1697595D01*
X4440988Y1696607D01*
X4423612Y1686575D01*
X4409425Y1672388D01*
X4399393Y1655012D01*
X4398922Y1653253D01*
X4397784Y1652597D01*
X4385045Y1650536D01*
X4377682Y1657900D01*
X4363679Y1663700D01*
X4348521D01*
X4334518Y1657900D01*
X4323800Y1647182D01*
X4318000Y1633179D01*
Y1618021D01*
X4323800Y1604018D01*
X4334518Y1593300D01*
X4348521Y1587500D01*
X4363679D01*
X4377682Y1593300D01*
X4385045Y1600664D01*
X4397784Y1598603D01*
X4398922Y1597947D01*
X4399393Y1596188D01*
X4409425Y1578812D01*
X4423612Y1564625D01*
X4440988Y1554593D01*
X4460368Y1549400D01*
X4480432D01*
X4499812Y1554593D01*
X4517188Y1564625D01*
X4531375Y1578812D01*
X4541407Y1596188D01*
X4542306Y1599543D01*
X4542569Y1599713D01*
X4556183Y1602261D01*
X4563118Y1595325D01*
X4577121Y1589525D01*
X4592279D01*
X4606282Y1595325D01*
X4617000Y1606043D01*
X4622800Y1620046D01*
Y1635203D01*
X4617000Y1649207D01*
X4606282Y1659925D01*
X4592279Y1665725D01*
X4577121D01*
X4563118Y1659925D01*
X4555327Y1652133D01*
X4543638Y1653723D01*
X4541451Y1654850D01*
X4541407Y1655012D01*
X4531375Y1672388D01*
X4517188Y1686575D01*
X4499812Y1696607D01*
X4496125Y1697595D01*
X4494275Y1702966D01*
X4493739Y1711383D01*
X4502700Y1720343D01*
X4508500Y1734346D01*
Y1749503D01*
X4502700Y1763507D01*
X4491982Y1774225D01*
X4477979Y1780025D01*
D02*
G37*
G36*
X5600700Y1660922D02*
Y1612900D01*
X5648722D01*
X5639679Y1634731D01*
X5622531Y1651879D01*
X5600700Y1660922D01*
D02*
G37*
G36*
X5575300D02*
X5553469Y1651879D01*
X5536321Y1634731D01*
X5527278Y1612900D01*
X5575300D01*
Y1660922D01*
D02*
G37*
G36*
X6014679Y1663700D02*
X5999521D01*
X5985518Y1657900D01*
X5974800Y1647182D01*
X5969000Y1633179D01*
Y1618021D01*
X5974800Y1604018D01*
X5985518Y1593300D01*
X5999521Y1587500D01*
X6014679D01*
X6028682Y1593300D01*
X6039400Y1604018D01*
X6045200Y1618021D01*
Y1633179D01*
X6039400Y1647182D01*
X6028682Y1657900D01*
X6014679Y1663700D01*
D02*
G37*
G36*
X4109679Y1636740D02*
X4094521D01*
X4080518Y1630940D01*
X4069800Y1620222D01*
X4064000Y1606219D01*
Y1591061D01*
X4069800Y1577058D01*
X4080518Y1566340D01*
X4094521Y1560540D01*
X4109679D01*
X4123682Y1566340D01*
X4134400Y1577058D01*
X4140200Y1591061D01*
Y1606219D01*
X4134400Y1620222D01*
X4123682Y1630940D01*
X4109679Y1636740D01*
D02*
G37*
G36*
X5648722Y1587500D02*
X5600700D01*
Y1539478D01*
X5622531Y1548521D01*
X5639679Y1565669D01*
X5648722Y1587500D01*
D02*
G37*
G36*
X5575300D02*
X5527278D01*
X5536321Y1565669D01*
X5553469Y1548521D01*
X5575300Y1539478D01*
Y1587500D01*
D02*
G37*
G36*
X4592279Y1538725D02*
X4577121D01*
X4563118Y1532925D01*
X4552400Y1522207D01*
X4546600Y1508203D01*
Y1493046D01*
X4552400Y1479043D01*
X4563118Y1468325D01*
X4577121Y1462525D01*
X4592279D01*
X4606282Y1468325D01*
X4617000Y1479043D01*
X4622800Y1493046D01*
Y1508203D01*
X4617000Y1522207D01*
X4606282Y1532925D01*
X4592279Y1538725D01*
D02*
G37*
G36*
X6014679Y1536700D02*
X5999521D01*
X5985518Y1530900D01*
X5974800Y1520182D01*
X5969000Y1506179D01*
Y1491021D01*
X5974800Y1477018D01*
X5985518Y1466300D01*
X5999521Y1460500D01*
X6014679D01*
X6028682Y1466300D01*
X6039400Y1477018D01*
X6045200Y1491021D01*
Y1506179D01*
X6039400Y1520182D01*
X6028682Y1530900D01*
X6014679Y1536700D01*
D02*
G37*
G36*
X5544779D02*
X5529621D01*
X5515618Y1530900D01*
X5504900Y1520182D01*
X5499100Y1506179D01*
Y1491021D01*
X5504900Y1477018D01*
X5515618Y1466300D01*
X5529621Y1460500D01*
X5544779D01*
X5558782Y1466300D01*
X5569500Y1477018D01*
X5575300Y1491021D01*
Y1506179D01*
X5569500Y1520182D01*
X5558782Y1530900D01*
X5544779Y1536700D01*
D02*
G37*
G36*
X5417779D02*
X5402621D01*
X5388618Y1530900D01*
X5377900Y1520182D01*
X5372100Y1506179D01*
Y1491021D01*
X5377900Y1477018D01*
X5388618Y1466300D01*
X5402621Y1460500D01*
X5417779D01*
X5431782Y1466300D01*
X5442500Y1477018D01*
X5448300Y1491021D01*
Y1506179D01*
X5442500Y1520182D01*
X5431782Y1530900D01*
X5417779Y1536700D01*
D02*
G37*
G36*
X4477979D02*
X4462821D01*
X4448818Y1530900D01*
X4438100Y1520182D01*
X4432300Y1506179D01*
Y1491021D01*
X4438100Y1477018D01*
X4448818Y1466300D01*
X4462821Y1460500D01*
X4477979D01*
X4491982Y1466300D01*
X4502700Y1477018D01*
X4508500Y1491021D01*
Y1506179D01*
X4502700Y1520182D01*
X4491982Y1530900D01*
X4477979Y1536700D01*
D02*
G37*
G36*
X4363679D02*
X4348521D01*
X4334518Y1530900D01*
X4323800Y1520182D01*
X4318000Y1506179D01*
Y1491021D01*
X4323800Y1477018D01*
X4334518Y1466300D01*
X4348521Y1460500D01*
X4363679D01*
X4377682Y1466300D01*
X4388400Y1477018D01*
X4394200Y1491021D01*
Y1506179D01*
X4388400Y1520182D01*
X4377682Y1530900D01*
X4363679Y1536700D01*
D02*
G37*
G36*
X5684479Y1498600D02*
X5669321D01*
X5655318Y1492800D01*
X5644600Y1482082D01*
X5638800Y1468079D01*
Y1452921D01*
X5644600Y1438918D01*
X5655318Y1428200D01*
X5669321Y1422400D01*
X5684479D01*
X5698482Y1428200D01*
X5709200Y1438918D01*
X5715000Y1452921D01*
Y1468079D01*
X5709200Y1482082D01*
X5698482Y1492800D01*
X5684479Y1498600D01*
D02*
G37*
G36*
X2943299Y1496060D02*
X2924101D01*
X2906363Y1488713D01*
X2892787Y1475137D01*
X2885440Y1457399D01*
Y1438201D01*
X2892787Y1420463D01*
X2906363Y1406887D01*
X2924101Y1399540D01*
X2943299D01*
X2961037Y1406887D01*
X2974613Y1420463D01*
X2981960Y1438201D01*
Y1457399D01*
X2974613Y1475137D01*
X2961037Y1488713D01*
X2943299Y1496060D01*
D02*
G37*
G36*
X5786079Y1422400D02*
X5770921D01*
X5756918Y1416600D01*
X5746200Y1405882D01*
X5740400Y1391879D01*
Y1376721D01*
X5746200Y1362718D01*
X5756918Y1352000D01*
X5770921Y1346200D01*
X5786079D01*
X5800082Y1352000D01*
X5810800Y1362718D01*
X5816600Y1376721D01*
Y1391879D01*
X5810800Y1405882D01*
X5800082Y1416600D01*
X5786079Y1422400D01*
D02*
G37*
G36*
X6014679Y1409700D02*
X5999521D01*
X5985518Y1403900D01*
X5974800Y1393182D01*
X5969000Y1379179D01*
Y1364021D01*
X5974800Y1350018D01*
X5985518Y1339300D01*
X5999521Y1333500D01*
X6014679D01*
X6028682Y1339300D01*
X6039400Y1350018D01*
X6045200Y1364021D01*
Y1379179D01*
X6039400Y1393182D01*
X6028682Y1403900D01*
X6014679Y1409700D01*
D02*
G37*
G36*
X5900379D02*
X5885221D01*
X5871218Y1403900D01*
X5860500Y1393182D01*
X5854700Y1379179D01*
Y1364021D01*
X5860500Y1350018D01*
X5871218Y1339300D01*
X5885221Y1333500D01*
X5900379D01*
X5914382Y1339300D01*
X5925100Y1350018D01*
X5930900Y1364021D01*
Y1379179D01*
X5925100Y1393182D01*
X5914382Y1403900D01*
X5900379Y1409700D01*
D02*
G37*
G36*
X5544779D02*
X5529621D01*
X5515618Y1403900D01*
X5504900Y1393182D01*
X5499100Y1379179D01*
Y1364021D01*
X5504900Y1350018D01*
X5515618Y1339300D01*
X5529621Y1333500D01*
X5544779D01*
X5558782Y1339300D01*
X5569500Y1350018D01*
X5575300Y1364021D01*
Y1379179D01*
X5569500Y1393182D01*
X5558782Y1403900D01*
X5544779Y1409700D01*
D02*
G37*
G36*
X5417779D02*
X5402621D01*
X5388618Y1403900D01*
X5377900Y1393182D01*
X5372100Y1379179D01*
Y1364021D01*
X5377900Y1350018D01*
X5388618Y1339300D01*
X5402621Y1333500D01*
X5417779D01*
X5431782Y1339300D01*
X5442500Y1350018D01*
X5448300Y1364021D01*
Y1379179D01*
X5442500Y1393182D01*
X5431782Y1403900D01*
X5417779Y1409700D01*
D02*
G37*
G36*
X5646379Y1358900D02*
X5631221D01*
X5617218Y1353100D01*
X5606500Y1342382D01*
X5600700Y1328379D01*
Y1313221D01*
X5606500Y1299218D01*
X5617218Y1288500D01*
X5631221Y1282700D01*
X5646379D01*
X5660382Y1288500D01*
X5671100Y1299218D01*
X5676900Y1313221D01*
Y1328379D01*
X5671100Y1342382D01*
X5660382Y1353100D01*
X5646379Y1358900D01*
D02*
G37*
G36*
X5054600Y1279922D02*
Y1231900D01*
X5102622D01*
X5093579Y1253731D01*
X5076431Y1270879D01*
X5054600Y1279922D01*
D02*
G37*
G36*
X5029200D02*
X5007369Y1270879D01*
X4990221Y1253731D01*
X4981178Y1231900D01*
X5029200D01*
Y1279922D01*
D02*
G37*
G36*
X6014679Y1282700D02*
X5999521D01*
X5985518Y1276900D01*
X5974800Y1266182D01*
X5969000Y1252179D01*
Y1237021D01*
X5974800Y1223018D01*
X5985518Y1212300D01*
X5999521Y1206500D01*
X6014679D01*
X6028682Y1212300D01*
X6039400Y1223018D01*
X6045200Y1237021D01*
Y1252179D01*
X6039400Y1266182D01*
X6028682Y1276900D01*
X6014679Y1282700D01*
D02*
G37*
G36*
X5760679D02*
X5745521D01*
X5731518Y1276900D01*
X5720800Y1266182D01*
X5715000Y1252179D01*
Y1237021D01*
X5720800Y1223018D01*
X5731518Y1212300D01*
X5745521Y1206500D01*
X5760679D01*
X5774682Y1212300D01*
X5785400Y1223018D01*
X5791200Y1237021D01*
Y1252179D01*
X5785400Y1266182D01*
X5774682Y1276900D01*
X5760679Y1282700D01*
D02*
G37*
G36*
X5887679Y1270000D02*
X5872521D01*
X5858518Y1264200D01*
X5847800Y1253482D01*
X5842000Y1239479D01*
Y1224321D01*
X5847800Y1210318D01*
X5858518Y1199600D01*
X5872521Y1193800D01*
X5887679D01*
X5901682Y1199600D01*
X5912400Y1210318D01*
X5918200Y1224321D01*
Y1239479D01*
X5912400Y1253482D01*
X5901682Y1264200D01*
X5887679Y1270000D01*
D02*
G37*
G36*
X5900379Y1155700D02*
X5885221D01*
X5871218Y1149900D01*
X5860500Y1139182D01*
X5854700Y1125179D01*
Y1110021D01*
X5860500Y1096018D01*
X5871218Y1085300D01*
X5885221Y1079500D01*
X5900379D01*
X5914382Y1085300D01*
X5925100Y1096018D01*
X5930900Y1110021D01*
Y1125179D01*
X5925100Y1139182D01*
X5914382Y1149900D01*
X5900379Y1155700D01*
D02*
G37*
G36*
X5102622Y1206500D02*
X4981178D01*
X4990221Y1184669D01*
X5007173Y1167716D01*
X5007376Y1167464D01*
X5009105Y1153055D01*
X5000987Y1144937D01*
X4993640Y1127199D01*
Y1108001D01*
X5000987Y1090263D01*
X5014563Y1076687D01*
X5032301Y1069340D01*
X5051499D01*
X5069237Y1076687D01*
X5082813Y1090263D01*
X5090160Y1108001D01*
Y1127199D01*
X5082813Y1144937D01*
X5074695Y1153055D01*
X5076424Y1167464D01*
X5076627Y1167716D01*
X5093579Y1184669D01*
X5102622Y1206500D01*
D02*
G37*
G36*
X5963879Y1041400D02*
X5948721D01*
X5934718Y1035600D01*
X5924000Y1024882D01*
X5918200Y1010879D01*
Y995721D01*
X5924000Y981718D01*
X5934718Y971000D01*
X5948721Y965200D01*
X5963879D01*
X5977882Y971000D01*
X5988600Y981718D01*
X5994400Y995721D01*
Y1010879D01*
X5988600Y1024882D01*
X5977882Y1035600D01*
X5963879Y1041400D01*
D02*
G37*
G36*
X826400Y1067428D02*
X716400D01*
X691935Y1062562D01*
X671196Y1048704D01*
X657338Y1027964D01*
X652471Y1003500D01*
X657338Y979036D01*
X671196Y958296D01*
X691935Y944438D01*
X716400Y939572D01*
X826400D01*
X850864Y944438D01*
X871604Y958296D01*
X885462Y979036D01*
X890328Y1003500D01*
X885462Y1027964D01*
X871604Y1048704D01*
X850864Y1062562D01*
X826400Y1067428D01*
D02*
G37*
G36*
X393400D02*
X313400D01*
X288936Y1062562D01*
X268196Y1048704D01*
X254338Y1027964D01*
X249472Y1003500D01*
X254338Y979036D01*
X268196Y958296D01*
X288936Y944438D01*
X313400Y939572D01*
X393400D01*
X417864Y944438D01*
X438604Y958296D01*
X452462Y979036D01*
X457328Y1003500D01*
X452462Y1027964D01*
X438604Y1048704D01*
X417864Y1062562D01*
X393400Y1067428D01*
D02*
G37*
G36*
X1277579Y965200D02*
X1262421D01*
X1248418Y959400D01*
X1237700Y948682D01*
X1231900Y934679D01*
Y919521D01*
X1237700Y905518D01*
X1248418Y894800D01*
X1262421Y889000D01*
X1277579D01*
X1291582Y894800D01*
X1302300Y905518D01*
X1308100Y919521D01*
Y934679D01*
X1302300Y948682D01*
X1291582Y959400D01*
X1277579Y965200D01*
D02*
G37*
G36*
X6027379Y952500D02*
X6012221D01*
X5998218Y946700D01*
X5987500Y935982D01*
X5981700Y921979D01*
Y906821D01*
X5987500Y892818D01*
X5998218Y882100D01*
X6012221Y876300D01*
X6027379D01*
X6041382Y882100D01*
X6052100Y892818D01*
X6057900Y906821D01*
Y921979D01*
X6052100Y935982D01*
X6041382Y946700D01*
X6027379Y952500D01*
D02*
G37*
G36*
X1531579Y914400D02*
X1516421D01*
X1502418Y908600D01*
X1491700Y897882D01*
X1485900Y883879D01*
Y868721D01*
X1491700Y854718D01*
X1502418Y844000D01*
X1516421Y838200D01*
X1531579D01*
X1545582Y844000D01*
X1556300Y854718D01*
X1562100Y868721D01*
Y883879D01*
X1556300Y897882D01*
X1545582Y908600D01*
X1531579Y914400D01*
D02*
G37*
G36*
X730391Y905700D02*
X712409D01*
X695796Y898819D01*
X683081Y886104D01*
X676200Y869491D01*
Y851509D01*
X683081Y834896D01*
X695796Y822181D01*
X712409Y815300D01*
X730391D01*
X747004Y822181D01*
X759719Y834896D01*
X766600Y851509D01*
Y869491D01*
X759719Y886104D01*
X747004Y898819D01*
X730391Y905700D01*
D02*
G37*
G36*
X1025599Y861060D02*
X1006401D01*
X988663Y853713D01*
X975087Y840137D01*
X967740Y822399D01*
Y803201D01*
X975087Y785463D01*
X988663Y771887D01*
X1006401Y764540D01*
X1025599D01*
X1043337Y771887D01*
X1056913Y785463D01*
X1064260Y803201D01*
Y822399D01*
X1056913Y840137D01*
X1043337Y853713D01*
X1025599Y861060D01*
D02*
G37*
G36*
X6027379Y838200D02*
X6012221D01*
X5998218Y832400D01*
X5987500Y821682D01*
X5981700Y807679D01*
Y792521D01*
X5987500Y778518D01*
X5998218Y767800D01*
X6012221Y762000D01*
X6027379D01*
X6041382Y767800D01*
X6052100Y778518D01*
X6057900Y792521D01*
Y807679D01*
X6052100Y821682D01*
X6041382Y832400D01*
X6027379Y838200D01*
D02*
G37*
G36*
X4884379Y800100D02*
X4869221D01*
X4855218Y794300D01*
X4844500Y783582D01*
X4838700Y769579D01*
Y754421D01*
X4844500Y740418D01*
X4855218Y729700D01*
X4869221Y723900D01*
X4884379D01*
X4898382Y729700D01*
X4909100Y740418D01*
X4914900Y754421D01*
Y769579D01*
X4909100Y783582D01*
X4898382Y794300D01*
X4884379Y800100D01*
D02*
G37*
G36*
X4776249D02*
X4761092D01*
X4747089Y794300D01*
X4736371Y783582D01*
X4730571Y769579D01*
Y754421D01*
X4736371Y740418D01*
X4747089Y729700D01*
X4761092Y723900D01*
X4776249D01*
X4790253Y729700D01*
X4800970Y740418D01*
X4806771Y754421D01*
Y769579D01*
X4800970Y783582D01*
X4790253Y794300D01*
X4776249Y800100D01*
D02*
G37*
G36*
X4592279D02*
X4577121D01*
X4563118Y794300D01*
X4552400Y783582D01*
X4546600Y769579D01*
Y754421D01*
X4552400Y740418D01*
X4563118Y729700D01*
X4577121Y723900D01*
X4592279D01*
X4606282Y729700D01*
X4617000Y740418D01*
X4622800Y754421D01*
Y769579D01*
X4617000Y783582D01*
X4606282Y794300D01*
X4592279Y800100D01*
D02*
G37*
G36*
X4477979D02*
X4462821D01*
X4448818Y794300D01*
X4438100Y783582D01*
X4432300Y769579D01*
Y754421D01*
X4438100Y740418D01*
X4448818Y729700D01*
X4462821Y723900D01*
X4477979D01*
X4491982Y729700D01*
X4502700Y740418D01*
X4508500Y754421D01*
Y769579D01*
X4502700Y783582D01*
X4491982Y794300D01*
X4477979Y800100D01*
D02*
G37*
G36*
X4350979D02*
X4335821D01*
X4321818Y794300D01*
X4311100Y783582D01*
X4305300Y769579D01*
Y754421D01*
X4311100Y740418D01*
X4321818Y729700D01*
X4335821Y723900D01*
X4350979D01*
X4364982Y729700D01*
X4375700Y740418D01*
X4381500Y754421D01*
Y769579D01*
X4375700Y783582D01*
X4364982Y794300D01*
X4350979Y800100D01*
D02*
G37*
G36*
X4223979D02*
X4208821D01*
X4194818Y794300D01*
X4184100Y783582D01*
X4178300Y769579D01*
Y754421D01*
X4184100Y740418D01*
X4194818Y729700D01*
X4208821Y723900D01*
X4223979D01*
X4237982Y729700D01*
X4248700Y740418D01*
X4254500Y754421D01*
Y769579D01*
X4248700Y783582D01*
X4237982Y794300D01*
X4223979Y800100D01*
D02*
G37*
G36*
X4109679D02*
X4094521D01*
X4080518Y794300D01*
X4069800Y783582D01*
X4064000Y769579D01*
Y754421D01*
X4069800Y740418D01*
X4080518Y729700D01*
X4094521Y723900D01*
X4109679D01*
X4123682Y729700D01*
X4134400Y740418D01*
X4140200Y754421D01*
Y769579D01*
X4134400Y783582D01*
X4123682Y794300D01*
X4109679Y800100D01*
D02*
G37*
G36*
X2841699Y759460D02*
X2822501D01*
X2804763Y752113D01*
X2791187Y738537D01*
X2783840Y720799D01*
Y701601D01*
X2791187Y683863D01*
X2804763Y670287D01*
X2822501Y662940D01*
X2841699D01*
X2859437Y670287D01*
X2873013Y683863D01*
X2880360Y701601D01*
Y720799D01*
X2873013Y738537D01*
X2859437Y752113D01*
X2841699Y759460D01*
D02*
G37*
G36*
X4884379Y685800D02*
X4869221D01*
X4855218Y680000D01*
X4844500Y669282D01*
X4838700Y655279D01*
Y640121D01*
X4844500Y626118D01*
X4855218Y615400D01*
X4869221Y609600D01*
X4884379D01*
X4898382Y615400D01*
X4909100Y626118D01*
X4914900Y640121D01*
Y655279D01*
X4909100Y669282D01*
X4898382Y680000D01*
X4884379Y685800D01*
D02*
G37*
G36*
X4109679D02*
X4094521D01*
X4080518Y680000D01*
X4069800Y669282D01*
X4064000Y655279D01*
Y640121D01*
X4069800Y626118D01*
X4080518Y615400D01*
X4094521Y609600D01*
X4109679D01*
X4123682Y615400D01*
X4134400Y626118D01*
X4140200Y640121D01*
Y655279D01*
X4134400Y669282D01*
X4123682Y680000D01*
X4109679Y685800D01*
D02*
G37*
G36*
Y571500D02*
X4094521D01*
X4080518Y565700D01*
X4069800Y554982D01*
X4064000Y540979D01*
Y525821D01*
X4069800Y511818D01*
X4080518Y501100D01*
X4094521Y495300D01*
X4109679D01*
X4123682Y501100D01*
X4134400Y511818D01*
X4140200Y525821D01*
Y540979D01*
X4134400Y554982D01*
X4123682Y565700D01*
X4109679Y571500D01*
D02*
G37*
G36*
X4884379Y558800D02*
X4869221D01*
X4855218Y553000D01*
X4844500Y542282D01*
X4838700Y528279D01*
Y513121D01*
X4844500Y499118D01*
X4855218Y488400D01*
X4869221Y482600D01*
X4884379D01*
X4898382Y488400D01*
X4909100Y499118D01*
X4914900Y513121D01*
Y528279D01*
X4909100Y542282D01*
X4898382Y553000D01*
X4884379Y558800D01*
D02*
G37*
G36*
Y419100D02*
X4869221D01*
X4855218Y413300D01*
X4844500Y402582D01*
X4838700Y388579D01*
Y373421D01*
X4844500Y359418D01*
X4855218Y348700D01*
X4869221Y342900D01*
X4884379D01*
X4898382Y348700D01*
X4909100Y359418D01*
X4914900Y373421D01*
Y388579D01*
X4909100Y402582D01*
X4898382Y413300D01*
X4884379Y419100D01*
D02*
G37*
G36*
X4109679Y381000D02*
X4094521D01*
X4080518Y375200D01*
X4069800Y364482D01*
X4064000Y350479D01*
Y335321D01*
X4069800Y321318D01*
X4080518Y310600D01*
X4094521Y304800D01*
X4109679D01*
X4123682Y310600D01*
X4134400Y321318D01*
X4140200Y335321D01*
Y350479D01*
X4134400Y364482D01*
X4123682Y375200D01*
X4109679Y381000D01*
D02*
G37*
G36*
X1025599Y378460D02*
X1006401D01*
X988663Y371113D01*
X975087Y357537D01*
X967740Y339799D01*
Y320601D01*
X975087Y302863D01*
X988663Y289287D01*
X1006401Y281940D01*
X1025599D01*
X1043337Y289287D01*
X1056913Y302863D01*
X1064260Y320601D01*
Y339799D01*
X1056913Y357537D01*
X1043337Y371113D01*
X1025599Y378460D01*
D02*
G37*
G36*
X730391Y327700D02*
X712409D01*
X695796Y320819D01*
X683081Y308104D01*
X676200Y291491D01*
Y273509D01*
X683081Y256896D01*
X695796Y244181D01*
X712409Y237300D01*
X730391D01*
X747004Y244181D01*
X759719Y256896D01*
X766600Y273509D01*
Y291491D01*
X759719Y308104D01*
X747004Y320819D01*
X730391Y327700D01*
D02*
G37*
G36*
X4884379Y266700D02*
X4869221D01*
X4855218Y260900D01*
X4844500Y250182D01*
X4838700Y236179D01*
Y221021D01*
X4844500Y207018D01*
X4855218Y196300D01*
X4869221Y190500D01*
X4884379D01*
X4898382Y196300D01*
X4909100Y207018D01*
X4914900Y221021D01*
Y236179D01*
X4909100Y250182D01*
X4898382Y260900D01*
X4884379Y266700D01*
D02*
G37*
G36*
X4744679D02*
X4729521D01*
X4715518Y260900D01*
X4704800Y250182D01*
X4699000Y236179D01*
Y221021D01*
X4704800Y207018D01*
X4715518Y196300D01*
X4729521Y190500D01*
X4744679D01*
X4758682Y196300D01*
X4769400Y207018D01*
X4775200Y221021D01*
Y236179D01*
X4769400Y250182D01*
X4758682Y260900D01*
X4744679Y266700D01*
D02*
G37*
G36*
X4604979D02*
X4589821D01*
X4575818Y260900D01*
X4565100Y250182D01*
X4559300Y236179D01*
Y221021D01*
X4565100Y207018D01*
X4575818Y196300D01*
X4589821Y190500D01*
X4604979D01*
X4618982Y196300D01*
X4629700Y207018D01*
X4635500Y221021D01*
Y236179D01*
X4629700Y250182D01*
X4618982Y260900D01*
X4604979Y266700D01*
D02*
G37*
G36*
X4477979D02*
X4462821D01*
X4448818Y260900D01*
X4438100Y250182D01*
X4432300Y236179D01*
Y221021D01*
X4438100Y207018D01*
X4448818Y196300D01*
X4462821Y190500D01*
X4477979D01*
X4491982Y196300D01*
X4502700Y207018D01*
X4508500Y221021D01*
Y236179D01*
X4502700Y250182D01*
X4491982Y260900D01*
X4477979Y266700D01*
D02*
G37*
G36*
X4350979D02*
X4335821D01*
X4321818Y260900D01*
X4311100Y250182D01*
X4305300Y236179D01*
Y221021D01*
X4311100Y207018D01*
X4321818Y196300D01*
X4335821Y190500D01*
X4350979D01*
X4364982Y196300D01*
X4375700Y207018D01*
X4381500Y221021D01*
Y236179D01*
X4375700Y250182D01*
X4364982Y260900D01*
X4350979Y266700D01*
D02*
G37*
G36*
X4223979D02*
X4208821D01*
X4194818Y260900D01*
X4184100Y250182D01*
X4178300Y236179D01*
Y221021D01*
X4184100Y207018D01*
X4194818Y196300D01*
X4208821Y190500D01*
X4223979D01*
X4237982Y196300D01*
X4248700Y207018D01*
X4254500Y221021D01*
Y236179D01*
X4248700Y250182D01*
X4237982Y260900D01*
X4223979Y266700D01*
D02*
G37*
G36*
X4109679D02*
X4094521D01*
X4080518Y260900D01*
X4069800Y250182D01*
X4064000Y236179D01*
Y221021D01*
X4069800Y207018D01*
X4080518Y196300D01*
X4094521Y190500D01*
X4109679D01*
X4123682Y196300D01*
X4134400Y207018D01*
X4140200Y221021D01*
Y236179D01*
X4134400Y250182D01*
X4123682Y260900D01*
X4109679Y266700D01*
D02*
G37*
G36*
X1277579Y215900D02*
X1262421D01*
X1248418Y210100D01*
X1237700Y199382D01*
X1231900Y185379D01*
Y170221D01*
X1237700Y156218D01*
X1248418Y145500D01*
X1262421Y139700D01*
X1277579D01*
X1291582Y145500D01*
X1302300Y156218D01*
X1308100Y170221D01*
Y185379D01*
X1302300Y199382D01*
X1291582Y210100D01*
X1277579Y215900D01*
D02*
G37*
G36*
X826400Y203428D02*
X716400D01*
X691935Y198562D01*
X671196Y184704D01*
X657338Y163964D01*
X652471Y139500D01*
X657338Y115036D01*
X671196Y94296D01*
X691935Y80438D01*
X716400Y75572D01*
X826400D01*
X850864Y80438D01*
X871604Y94296D01*
X885462Y115036D01*
X890328Y139500D01*
X885462Y163964D01*
X871604Y184704D01*
X850864Y198562D01*
X826400Y203428D01*
D02*
G37*
G36*
X393400D02*
X313400D01*
X288936Y198562D01*
X268196Y184704D01*
X254338Y163964D01*
X249472Y139500D01*
X254338Y115036D01*
X268196Y94296D01*
X288936Y80438D01*
X313400Y75572D01*
X393400D01*
X417864Y80438D01*
X438604Y94296D01*
X452462Y115036D01*
X457328Y139500D01*
X452462Y163964D01*
X438604Y184704D01*
X417864Y198562D01*
X393400Y203428D01*
D02*
G37*
G36*
X2993064Y466885D02*
X2950536D01*
X2908824Y458588D01*
X2869533Y442313D01*
X2834172Y418685D01*
X2804100Y388613D01*
X2780472Y353252D01*
X2764197Y313960D01*
X2755900Y272249D01*
Y229720D01*
X2764197Y188009D01*
X2780472Y148718D01*
X2804100Y113356D01*
X2834172Y83284D01*
X2869533Y59656D01*
X2908824Y43381D01*
X2950536Y35085D01*
X2993064D01*
X3034776Y43381D01*
X3074067Y59656D01*
X3109428Y83284D01*
X3139500Y113356D01*
X3163128Y148718D01*
X3179403Y188009D01*
X3187700Y229720D01*
Y272249D01*
X3179403Y313960D01*
X3163128Y353252D01*
X3139500Y388613D01*
X3109428Y418685D01*
X3074067Y442313D01*
X3034776Y458588D01*
X2993064Y466885D01*
D02*
G37*
G36*
X6302684Y466852D02*
X6260156D01*
X6218444Y458555D01*
X6179153Y442280D01*
X6143792Y418652D01*
X6113720Y388580D01*
X6090092Y353219D01*
X6073817Y313928D01*
X6065520Y272216D01*
Y229688D01*
X6073817Y187976D01*
X6090092Y148685D01*
X6113720Y113324D01*
X6143792Y83252D01*
X6179153Y59624D01*
X6218444Y43349D01*
X6260156Y35052D01*
X6302684D01*
X6344396Y43349D01*
X6383687Y59624D01*
X6419048Y83252D01*
X6449120Y113324D01*
X6472748Y148685D01*
X6489023Y187976D01*
X6497320Y229688D01*
Y272216D01*
X6489023Y313928D01*
X6472748Y353219D01*
X6449120Y388580D01*
X6419048Y418652D01*
X6383687Y442280D01*
X6344396Y458555D01*
X6302684Y466852D01*
D02*
G37*
%LPD*%
D56*
X2426200Y4922300D02*
D03*
Y2763300D02*
D03*
D57*
X1727200Y4178300D02*
D03*
Y3507300D02*
D03*
X2426200D02*
D03*
D58*
Y4178300D02*
D03*
D59*
X353400Y1003500D02*
D03*
Y139500D02*
D03*
D60*
X771400Y1003500D02*
D03*
Y139500D02*
D03*
D61*
X721400Y860500D02*
D03*
Y282500D02*
D03*
D62*
X5588000Y5219700D02*
D03*
X4546600Y2260600D02*
D03*
X5588000Y5321300D02*
D03*
X2832100Y711200D02*
D03*
X5588000Y1600200D02*
D03*
X6168900Y4305300D02*
D03*
X5041900Y1117600D02*
D03*
Y1219200D02*
D03*
X4432300Y3467100D02*
D03*
Y3632200D02*
D03*
X4229100Y2222500D02*
D03*
X4127500D02*
D03*
X2933700Y1447800D02*
D03*
X5549900Y3530600D02*
D03*
X5943600Y4533900D02*
D03*
X2933700Y4457700D02*
D03*
X6375400Y3251200D02*
D03*
X5664200D02*
D03*
X5486400Y3784600D02*
D03*
X5304171Y4016694D02*
D03*
X5626100Y4305300D02*
D03*
X6261100Y3771900D02*
D03*
X4508500Y3835400D02*
D03*
X3886200Y4152900D02*
D03*
X3378200Y4089400D02*
D03*
X3683000Y4648200D02*
D03*
Y4457700D02*
D03*
Y4267200D02*
D03*
Y4089400D02*
D03*
X3530600D02*
D03*
X3378200Y4267200D02*
D03*
X3530600D02*
D03*
Y4457700D02*
D03*
Y4648200D02*
D03*
X3066355Y4544583D02*
D03*
X3022600Y3873500D02*
D03*
X2933700Y4635500D02*
D03*
X3556000Y3835400D02*
D03*
X1016000Y812800D02*
D03*
Y330200D02*
D03*
D63*
X5867400Y2971800D02*
D03*
X4546600Y2717800D02*
D03*
X4457700D02*
D03*
X4406900Y2273300D02*
D03*
X4318000Y2222500D02*
D03*
X4076700Y5265420D02*
D03*
X4876800Y2273300D02*
D03*
Y1752600D02*
D03*
X4572000Y5067300D02*
D03*
X4457700Y2006600D02*
D03*
X5778500Y3048000D02*
D03*
X6108700D02*
D03*
X1524000Y876300D02*
D03*
X1270000Y927100D02*
D03*
X6007100Y2882900D02*
D03*
X6134100D02*
D03*
X6515100D02*
D03*
X6388100D02*
D03*
X6261100D02*
D03*
X6019800Y800100D02*
D03*
Y914400D02*
D03*
X5956300Y1003300D02*
D03*
X5892800Y1117600D02*
D03*
X5880100Y1231900D02*
D03*
X5753100Y1244600D02*
D03*
X5638800Y1320800D02*
D03*
X5537200Y1371600D02*
D03*
X5410200D02*
D03*
Y1498600D02*
D03*
X5537200D02*
D03*
X5676900Y1460500D02*
D03*
X5778500Y1384300D02*
D03*
X5892800Y1371600D02*
D03*
X6007100Y1244600D02*
D03*
Y1371600D02*
D03*
Y1498600D02*
D03*
Y1625600D02*
D03*
Y1752600D02*
D03*
Y1879600D02*
D03*
Y2006600D02*
D03*
Y2133600D02*
D03*
Y2260600D02*
D03*
Y2387600D02*
D03*
Y2514600D02*
D03*
Y2641600D02*
D03*
Y2768600D02*
D03*
X6032500Y1092200D02*
D03*
X5156200Y1841500D02*
D03*
X3733800Y1993900D02*
D03*
X4102100Y1598640D02*
D03*
X4749800Y2070100D02*
D03*
X5829300Y4533900D02*
D03*
X4102100Y342900D02*
D03*
Y762000D02*
D03*
Y647700D02*
D03*
Y533400D02*
D03*
X4876800Y381000D02*
D03*
X4102100Y228600D02*
D03*
X4216400D02*
D03*
X4343400D02*
D03*
X4470400D02*
D03*
X4597400D02*
D03*
X4737100D02*
D03*
X4876800D02*
D03*
Y520700D02*
D03*
Y647700D02*
D03*
Y762000D02*
D03*
X4768671D02*
D03*
X4216400D02*
D03*
X4584700D02*
D03*
X4343400D02*
D03*
X4470400D02*
D03*
X4584700Y1500625D02*
D03*
X4356100Y1498600D02*
D03*
X4470400D02*
D03*
X4356100Y1625600D02*
D03*
X1270000Y177800D02*
D03*
X4432300Y3276600D02*
D03*
X4356100Y1741925D02*
D03*
X4584700Y1627625D02*
D03*
Y1741925D02*
D03*
X4470400D02*
D03*
D64*
X6281420Y250952D02*
D03*
X6281622Y6324600D02*
D03*
X2971800Y250985D02*
D03*
Y6324600D02*
D03*
D65*
X4470400Y1625600D02*
D03*
D66*
X5922400Y3843900D02*
D03*
X5812400D02*
D03*
Y3953900D02*
D03*
X5922400D02*
D03*
%TF.MD5,7a4d05ae2f3a10a5c424a51cc1a20354*%
M02*
