%TF.GenerationSoftware,Altium Limited,Altium Designer,23.10.1 (27)*%
G04 Layer_Color=32896*
%FSLAX45Y45*%
%MOMM*%
%TF.SameCoordinates,2CED323B-BA49-4281-A081-A7916B394634*%
%TF.FilePolarity,Positive*%
%TF.FileFunction,Legend,Bot*%
%TF.Part,Single*%
G01*
G75*
%TA.AperFunction,NonConductor*%
%ADD65C,0.25400*%
D65*
X4749800Y1143000D02*
X4902151D01*
Y1219175D01*
X4876759Y1244567D01*
X4825975D01*
X4800583Y1219175D01*
Y1143000D01*
X4749800Y1295351D02*
X4851367D01*
X4902151Y1346134D01*
X4851367Y1396918D01*
X4749800D01*
X4825975D01*
Y1295351D01*
X4902151Y1447701D02*
X4749800D01*
X4800583D01*
X4902151Y1549269D01*
X4825975Y1473093D01*
X4749800Y1549269D01*
X4622751Y774667D02*
Y673100D01*
X4470400D01*
Y774667D01*
X4546575Y673100D02*
Y723883D01*
X4597359Y927018D02*
X4622751Y901626D01*
Y850843D01*
X4597359Y825451D01*
X4571967D01*
X4546575Y850843D01*
Y901626D01*
X4521183Y927018D01*
X4495792D01*
X4470400Y901626D01*
Y850843D01*
X4495792Y825451D01*
X4470400Y977801D02*
X4622751D01*
Y1053977D01*
X4597359Y1079369D01*
X4546575D01*
X4521183Y1053977D01*
Y977801D01*
X4597359Y1130152D02*
X4622751Y1155544D01*
Y1206328D01*
X4597359Y1231719D01*
X4571967D01*
X4546575Y1206328D01*
Y1180936D01*
Y1206328D01*
X4521183Y1231719D01*
X4495792D01*
X4470400Y1206328D01*
Y1155544D01*
X4495792Y1130152D01*
X4470400Y1384070D02*
Y1282503D01*
X4571967Y1384070D01*
X4597359D01*
X4622751Y1358678D01*
Y1307895D01*
X4597359Y1282503D01*
X4546575Y1434854D02*
Y1536421D01*
X4622751Y1587204D02*
X4470400D01*
Y1663380D01*
X4495792Y1688772D01*
X4597359D01*
X4622751Y1663380D01*
Y1587204D01*
X4470400Y1739555D02*
X4571967D01*
X4622751Y1790339D01*
X4571967Y1841122D01*
X4470400D01*
X4546575D01*
Y1739555D01*
X4495792Y1993473D02*
X4597359D01*
X4622751Y1968081D01*
Y1917298D01*
X4597359Y1891906D01*
X4495792D01*
X4470400Y1917298D01*
Y1968081D01*
X4521183Y1942689D02*
X4470400Y1993473D01*
Y1968081D02*
X4495792Y1993473D01*
%TF.MD5,ef43eea628fb795c37fd98385e4d58a4*%
M02*
