%TF.GenerationSoftware,Altium Limited,Altium Designer,23.10.1 (27)*%
G04 Layer_Color=8421504*
%FSLAX45Y45*%
%MOMM*%
%TF.SameCoordinates,2CED323B-BA49-4281-A081-A7916B394634*%
%TF.FilePolarity,Positive*%
%TF.FileFunction,Paste,Top*%
%TF.Part,Single*%
G01*
G75*
%TA.AperFunction,SMDPad,CuDef*%
%ADD18R,0.51535X0.47247*%
G04:AMPARAMS|DCode=19|XSize=1.61mm|YSize=0.58mm|CornerRadius=0.0725mm|HoleSize=0mm|Usage=FLASHONLY|Rotation=0.000|XOffset=0mm|YOffset=0mm|HoleType=Round|Shape=RoundedRectangle|*
%AMROUNDEDRECTD19*
21,1,1.61000,0.43500,0,0,0.0*
21,1,1.46500,0.58000,0,0,0.0*
1,1,0.14500,0.73250,-0.21750*
1,1,0.14500,-0.73250,-0.21750*
1,1,0.14500,-0.73250,0.21750*
1,1,0.14500,0.73250,0.21750*
%
%ADD19ROUNDEDRECTD19*%
%TA.AperFunction,ConnectorPad*%
%ADD20R,2.60000X2.70000*%
%ADD21R,0.35000X0.80000*%
%ADD22R,0.85000X0.35000*%
%TA.AperFunction,SMDPad,CuDef*%
%ADD23R,0.66817X0.67248*%
%ADD24R,0.67248X0.66817*%
%ADD25R,0.54000X0.58000*%
%TA.AperFunction,ConnectorPad*%
%ADD26R,0.60000X0.45000*%
%TA.AperFunction,SMDPad,CuDef*%
%ADD27R,0.58000X0.54000*%
%ADD28R,0.62000X0.66000*%
%ADD29R,2.18000X1.60000*%
%ADD30R,2.20000X1.60000*%
%ADD31R,0.60000X0.45000*%
%ADD32R,1.80000X1.20000*%
%ADD33R,0.65000X0.65000*%
%ADD34R,0.56000X0.52000*%
%ADD35R,1.45620X1.35443*%
%ADD36R,0.60000X0.55000*%
%TA.AperFunction,ConnectorPad*%
%ADD37R,1.15000X0.60000*%
%ADD38R,1.15000X0.30000*%
%TA.AperFunction,SMDPad,CuDef*%
G04:AMPARAMS|DCode=39|XSize=1.55439mm|YSize=0.57213mm|CornerRadius=0.28606mm|HoleSize=0mm|Usage=FLASHONLY|Rotation=0.000|XOffset=0mm|YOffset=0mm|HoleType=Round|Shape=RoundedRectangle|*
%AMROUNDEDRECTD39*
21,1,1.55439,0.00000,0,0,0.0*
21,1,0.98226,0.57213,0,0,0.0*
1,1,0.57213,0.49113,0.00000*
1,1,0.57213,-0.49113,0.00000*
1,1,0.57213,-0.49113,0.00000*
1,1,0.57213,0.49113,0.00000*
%
%ADD39ROUNDEDRECTD39*%
%ADD40R,1.55439X0.57213*%
G04:AMPARAMS|DCode=41|XSize=0.27mm|YSize=0.81mm|CornerRadius=0.03375mm|HoleSize=0mm|Usage=FLASHONLY|Rotation=180.000|XOffset=0mm|YOffset=0mm|HoleType=Round|Shape=RoundedRectangle|*
%AMROUNDEDRECTD41*
21,1,0.27000,0.74250,0,0,180.0*
21,1,0.20250,0.81000,0,0,180.0*
1,1,0.06750,-0.10125,0.37125*
1,1,0.06750,0.10125,0.37125*
1,1,0.06750,0.10125,-0.37125*
1,1,0.06750,-0.10125,-0.37125*
%
%ADD41ROUNDEDRECTD41*%
G04:AMPARAMS|DCode=42|XSize=0.81mm|YSize=0.27mm|CornerRadius=0.03375mm|HoleSize=0mm|Usage=FLASHONLY|Rotation=180.000|XOffset=0mm|YOffset=0mm|HoleType=Round|Shape=RoundedRectangle|*
%AMROUNDEDRECTD42*
21,1,0.81000,0.20250,0,0,180.0*
21,1,0.74250,0.27000,0,0,180.0*
1,1,0.06750,-0.37125,0.10125*
1,1,0.06750,0.37125,0.10125*
1,1,0.06750,0.37125,-0.10125*
1,1,0.06750,-0.37125,-0.10125*
%
%ADD42ROUNDEDRECTD42*%
%ADD44R,0.46818X0.47247*%
%ADD45R,0.47500X0.50000*%
%ADD46R,0.47247X0.51535*%
%ADD47R,0.60000X0.50000*%
%ADD48R,0.45000X0.60000*%
%ADD85R,0.90000X0.90000*%
G36*
X3512400Y1352300D02*
X3422400D01*
Y1442300D01*
X3512400D01*
Y1352300D01*
D02*
G37*
G36*
X3372400D02*
X3282400D01*
Y1442300D01*
X3372400D01*
Y1352300D01*
D02*
G37*
G36*
X3232400D02*
X3142400D01*
Y1442300D01*
X3232400D01*
Y1352300D01*
D02*
G37*
G36*
X3512400Y1212300D02*
X3422400D01*
Y1302300D01*
X3512400D01*
Y1212300D01*
D02*
G37*
G36*
X3232400D02*
X3142400D01*
Y1302300D01*
X3232400D01*
Y1212300D01*
D02*
G37*
G36*
X3512400Y1072300D02*
X3422400D01*
Y1162300D01*
X3512400D01*
Y1072300D01*
D02*
G37*
G36*
X3372400D02*
X3282400D01*
Y1162300D01*
X3372400D01*
Y1072300D01*
D02*
G37*
G36*
X3232400D02*
X3142400D01*
Y1162300D01*
X3232400D01*
Y1072300D01*
D02*
G37*
D18*
X3810244Y1079500D02*
D03*
X3885956D02*
D03*
Y1206500D02*
D03*
X3810244D02*
D03*
D19*
X1887400Y1651000D02*
D03*
Y1524000D02*
D03*
Y1397000D02*
D03*
Y1270000D02*
D03*
X2608400D02*
D03*
Y1397000D02*
D03*
Y1524000D02*
D03*
Y1651000D02*
D03*
D20*
X3479800Y2311400D02*
D03*
D21*
X3354800Y2111400D02*
D03*
X3404800D02*
D03*
X3454800D02*
D03*
X3504800D02*
D03*
X3554800D02*
D03*
X3604800D02*
D03*
X3354800Y2511400D02*
D03*
X3404800D02*
D03*
X3454800D02*
D03*
X3504800D02*
D03*
X3554800D02*
D03*
X3604800D02*
D03*
D22*
X3677300Y2186400D02*
D03*
Y2236400D02*
D03*
Y2286400D02*
D03*
Y2336400D02*
D03*
Y2386400D02*
D03*
Y2436400D02*
D03*
X3282300Y2186400D02*
D03*
Y2236400D02*
D03*
Y2286400D02*
D03*
Y2336400D02*
D03*
Y2386400D02*
D03*
Y2436400D02*
D03*
D23*
X4038015Y2209800D02*
D03*
X3937585D02*
D03*
X367715Y1993900D02*
D03*
X267285D02*
D03*
X380415Y685800D02*
D03*
X279985D02*
D03*
D24*
X3911600Y2539415D02*
D03*
Y2438985D02*
D03*
X3848100Y1625015D02*
D03*
Y1524585D02*
D03*
X3263900Y1904415D02*
D03*
Y1803985D02*
D03*
D25*
X3797300Y2094600D02*
D03*
Y2172600D02*
D03*
X3987800Y1192900D02*
D03*
Y1270900D02*
D03*
X2794000Y1650100D02*
D03*
Y1728100D02*
D03*
X3124200Y1662800D02*
D03*
Y1740800D02*
D03*
X2247900Y2424800D02*
D03*
Y2502800D02*
D03*
X3403600Y1740800D02*
D03*
Y1662800D02*
D03*
X3708400Y1270900D02*
D03*
Y1192900D02*
D03*
D26*
X3136900Y2511300D02*
D03*
Y2416300D02*
D03*
D27*
X3047100Y2286000D02*
D03*
X3125100D02*
D03*
X3047100Y2120900D02*
D03*
X3125100D02*
D03*
X3582300Y901700D02*
D03*
X3504300D02*
D03*
D28*
X3708400Y1072700D02*
D03*
Y984700D02*
D03*
X4013200D02*
D03*
Y1072700D02*
D03*
D29*
X1119900Y2425700D02*
D03*
X1107200Y228600D02*
D03*
D30*
X200900Y2425700D02*
D03*
X188200Y228600D02*
D03*
D31*
X2946400Y1654300D02*
D03*
Y1749300D02*
D03*
X1511300Y2371600D02*
D03*
Y2276600D02*
D03*
X4114800Y1279400D02*
D03*
Y1184400D02*
D03*
D32*
X3463900Y374000D02*
D03*
X3063900D02*
D03*
Y134000D02*
D03*
X3463900D02*
D03*
D33*
X3390900Y623100D02*
D03*
Y723100D02*
D03*
D34*
X3402700Y520700D02*
D03*
X3480700D02*
D03*
X3085200Y736600D02*
D03*
X3163200D02*
D03*
D35*
X2590800Y2477888D02*
D03*
Y2322711D02*
D03*
D36*
X927100Y1185500D02*
D03*
Y1100500D02*
D03*
Y1354500D02*
D03*
Y1439500D02*
D03*
Y1672000D02*
D03*
Y1757000D02*
D03*
D37*
X587600Y1000800D02*
D03*
Y1640800D02*
D03*
Y1080800D02*
D03*
Y1560800D02*
D03*
D38*
Y1145800D02*
D03*
Y1195800D02*
D03*
Y1245800D02*
D03*
Y1295800D02*
D03*
Y1345800D02*
D03*
Y1395800D02*
D03*
Y1445800D02*
D03*
Y1495800D02*
D03*
D39*
X2002329Y2469900D02*
D03*
Y2374900D02*
D03*
Y2279900D02*
D03*
X1782271D02*
D03*
Y2374900D02*
D03*
D40*
Y2469900D02*
D03*
D41*
X3502400Y1502300D02*
D03*
X3452400D02*
D03*
X3402400D02*
D03*
X3352400D02*
D03*
X3302400D02*
D03*
X3252400D02*
D03*
X3202400D02*
D03*
X3152400D02*
D03*
Y1012300D02*
D03*
X3202400D02*
D03*
X3252400D02*
D03*
X3302400D02*
D03*
X3352400D02*
D03*
X3402400D02*
D03*
X3452400D02*
D03*
X3502400D02*
D03*
D42*
X3572400Y1082300D02*
D03*
Y1132300D02*
D03*
Y1182300D02*
D03*
Y1232300D02*
D03*
Y1282300D02*
D03*
Y1332300D02*
D03*
Y1382300D02*
D03*
Y1432300D02*
D03*
X3082400D02*
D03*
Y1382300D02*
D03*
Y1332300D02*
D03*
Y1282300D02*
D03*
Y1232300D02*
D03*
Y1182300D02*
D03*
Y1132300D02*
D03*
Y1082300D02*
D03*
D44*
X1869015Y2082800D02*
D03*
X1788585D02*
D03*
X2237315Y2184400D02*
D03*
X2156885D02*
D03*
D45*
X1880055Y1905000D02*
D03*
X1777545D02*
D03*
D46*
X2565400Y2070100D02*
D03*
Y2145813D02*
D03*
X2730500Y2070344D02*
D03*
Y2146056D02*
D03*
D47*
X2252100Y2032000D02*
D03*
X2142100D02*
D03*
D48*
X3603500Y774700D02*
D03*
X3508500D02*
D03*
D85*
X3327400Y1257300D02*
D03*
%TF.MD5,1ebdf00f2a1c4ff92e2ec4501cccf479*%
M02*
