%FSTAX23Y23*%
%MOIN*%
%SFA1B1*%

%IPPOS*%
%ADD64C,0.005000*%
%LNpcb-1*%
%LPD*%
G54D64*
X00176Y00406D02*
X00201D01*
X00189Y00393D02*
Y00419D01*
X00176Y00633D02*
X00201D01*
X00189Y0062D02*
Y00646D01*
X00175Y00349D02*
X00242D01*
X00208Y00316D02*
Y00383D01*
X00175Y0069D02*
X00242D01*
X00208Y00656D02*
Y00723D01*
X00016Y00349D02*
X00071D01*
X00044Y00322D02*
Y00377D01*
X00016Y0069D02*
X00071D01*
X00044Y00662D02*
Y00717D01*
X00839Y00165D02*
X0089D01*
X00865Y00139D02*
Y0019D01*
X00639Y00165D02*
X0069D01*
X00665Y00139D02*
Y0019D01*
X01646Y0042D02*
X01654D01*
X0165Y00416D02*
Y00424D01*
X01696Y0038D02*
X01704D01*
X017Y00376D02*
Y00384D01*
X01646Y00305D02*
X01654D01*
X0165Y00301D02*
Y00309D01*
X01696Y002D02*
X01704D01*
X017Y00196D02*
Y00204D01*
X01711Y00265D02*
X01719D01*
X01715Y00261D02*
Y00269D01*
X01156Y00955D02*
X01164D01*
X0116Y00951D02*
Y00959D01*
X01157Y00506D02*
X01165D01*
X01161Y00502D02*
Y0051D01*
X01253Y00495D02*
X01261D01*
X01257Y00491D02*
Y00499D01*
X01259Y0054D02*
X01267D01*
X01263Y00536D02*
Y00544D01*
X01254Y0044D02*
X01262D01*
X01258Y00436D02*
Y00444D01*
X01601Y00955D02*
X01609D01*
X01605Y00951D02*
Y00959D01*
X01461Y01D02*
X01469D01*
X01465Y00996D02*
Y01004D01*
X01387Y00931D02*
X01395D01*
X01391Y00927D02*
Y00935D01*
X01387Y00888D02*
X01395D01*
X01391Y00884D02*
Y00892D01*
X01344Y00888D02*
X01352D01*
X01348Y00884D02*
Y00892D01*
X01344Y00931D02*
X01352D01*
X01348Y00927D02*
Y00935D01*
X01451Y00815D02*
X01459D01*
X01455Y00811D02*
Y00819D01*
X01436Y0067D02*
X01444D01*
X0144Y00666D02*
Y00674D01*
X01546Y00815D02*
X01554D01*
X0155Y00811D02*
Y00819D01*
X01431Y00525D02*
X01439D01*
X01435Y00521D02*
Y00529D01*
X01426Y00595D02*
X01434D01*
X0143Y00591D02*
Y00599D01*
X01336Y00715D02*
X01344D01*
X0134Y00711D02*
Y00719D01*
X00554Y0081D02*
X00566D01*
X0056Y00804D02*
Y00816D01*
X00646Y0075D02*
X00654D01*
X0065Y00746D02*
Y00754D01*
X01696Y00965D02*
X01704D01*
X017Y00961D02*
Y00969D01*
X01696Y00035D02*
X01704D01*
X017Y00031D02*
Y00039D01*
X01696Y0009D02*
X01704D01*
X017Y00086D02*
Y00094D01*
X01696Y00145D02*
X01704D01*
X017Y00141D02*
Y00149D01*
X01696Y00905D02*
X01704D01*
X017Y00901D02*
Y00909D01*
X01696Y00855D02*
X01704D01*
X017Y00851D02*
Y00859D01*
X01696Y00805D02*
X01704D01*
X017Y00801D02*
Y00809D01*
X01696Y0075D02*
X01704D01*
X017Y00746D02*
Y00754D01*
X01696Y0069D02*
X01704D01*
X017Y00686D02*
Y00694D01*
X01696Y0063D02*
X01704D01*
X017Y00626D02*
Y00634D01*
X01696Y0057D02*
X01704D01*
X017Y00566D02*
Y00574D01*
X01696Y0051D02*
X01704D01*
X017Y00506D02*
Y00514D01*
X01591Y0034D02*
X01599D01*
X01595Y00336D02*
Y00344D01*
X01296Y00495D02*
X01324D01*
X0131Y00481D02*
Y00509D01*
X01304Y0044D02*
X01312D01*
X01308Y00436D02*
Y00444D01*
X01354Y00445D02*
X01362D01*
X01358Y00441D02*
Y00449D01*
X01354Y00495D02*
X01362D01*
X01358Y00491D02*
Y00499D01*
X01354Y0054D02*
X01362D01*
X01358Y00536D02*
Y00544D01*
X01304Y0054D02*
X01312D01*
X01308Y00536D02*
Y00544D01*
X01696Y00445D02*
X01704D01*
X017Y00441D02*
Y00449D01*
X00421Y0059D02*
X00429D01*
X00425Y00586D02*
Y00594D01*
X00406Y00395D02*
X00414D01*
X0041Y00391D02*
Y00399D01*
X00361Y00765D02*
X00369D01*
X00365Y00761D02*
Y00769D01*
X01011Y00735D02*
X01019D01*
X01015Y00731D02*
Y00739D01*
X01511Y00545D02*
X01519D01*
X01515Y00541D02*
Y00549D01*
X01491Y00265D02*
X01499D01*
X01495Y00261D02*
Y00269D01*
X01086Y00735D02*
X01094D01*
X0109Y00731D02*
Y00739D01*
X00736Y00955D02*
X00744D01*
X0074Y00951D02*
Y00959D01*
X00551Y0098D02*
X00559D01*
X00555Y00976D02*
Y00984D01*
X00066Y00865D02*
X00074D01*
X0007Y00861D02*
Y00869D01*
X00066Y00185D02*
X00074D01*
X0007Y00181D02*
Y00189D01*
X00746Y00455D02*
X00754D01*
X0075Y00451D02*
Y00459D01*
X01644Y0057D02*
X01656D01*
X0165Y00564D02*
Y00576D01*
X01384Y0025D02*
X01396D01*
X0139Y00244D02*
Y00256D01*
X01151Y0024D02*
X01159D01*
X01155Y00236D02*
Y00244D01*
X01281Y00655D02*
X01289D01*
X01285Y00651D02*
Y00659D01*
X00436Y00175D02*
X00444D01*
X0044Y00171D02*
Y00179D01*
X00436Y00885D02*
X00444D01*
X0044Y00881D02*
Y00889D01*
X00339Y0035D02*
X00351D01*
X00345Y00344D02*
Y00356D01*
X00799Y00698D02*
X00807D01*
X00803Y00694D02*
Y00702D01*
X01286Y0021D02*
X01294D01*
X0129Y00206D02*
Y00214D01*
X01121Y0018D02*
X01129D01*
X01125Y00176D02*
Y00184D01*
X01121Y00115D02*
X01129D01*
X01125Y00111D02*
Y00119D01*
X01121Y00045D02*
X01129D01*
X01125Y00041D02*
Y00049D01*
X01446Y0019D02*
X01454D01*
X0145Y00186D02*
Y00194D01*
X01446Y0012D02*
X01454D01*
X0145Y00116D02*
Y00124D01*
X01446Y0005D02*
X01454D01*
X0145Y00046D02*
Y00054D01*
X01221Y0021D02*
X01229D01*
X01225Y00206D02*
Y00214D01*
M02*