%FSTAX23Y23*%
%MOIN*%
%SFA1B1*%

%IPPOS*%
%AMD54*
4,1,8,0.041300,0.000000,0.041300,0.000000,0.021700,0.019700,-0.021700,0.019700,-0.041300,0.000000,-0.041300,0.000000,-0.021700,-0.019700,0.021700,-0.019700,0.041300,0.000000,0.0*
1,1,0.039370,0.021700,0.000000*
1,1,0.039370,0.021700,0.000000*
1,1,0.039370,-0.021700,0.000000*
1,1,0.039370,-0.021700,0.000000*
%
%AMD55*
4,1,8,0.035400,0.000000,0.035400,0.000000,0.015700,0.019700,-0.015700,0.019700,-0.035400,0.000000,-0.035400,0.000000,-0.015700,-0.019700,0.015700,-0.019700,0.035400,0.000000,0.0*
1,1,0.039370,0.015700,0.000000*
1,1,0.039370,0.015700,0.000000*
1,1,0.039370,-0.015700,0.000000*
1,1,0.039370,-0.015700,0.000000*
%
%ADD49C,0.025000*%
%ADD50C,0.008000*%
%ADD53C,0.025591*%
G04~CAMADD=54~8~0.0~0.0~393.7~826.8~196.9~0.0~15~0.0~0.0~0.0~0.0~0~0.0~0.0~0.0~0.0~0~0.0~0.0~0.0~270.0~828.0~394.0*
%ADD54D54*%
G04~CAMADD=55~8~0.0~0.0~393.7~708.7~196.9~0.0~15~0.0~0.0~0.0~0.0~0~0.0~0.0~0.0~0.0~0~0.0~0.0~0.0~270.0~707.0~393.0*
%ADD55D55*%
%ADD56C,0.070866*%
%ADD57R,0.070866X0.070866*%
%ADD58C,0.020000*%
%ADD59C,0.019685*%
%ADD60C,0.028000*%
%ADD61C,0.050000*%
%LNpcb-1*%
%LPD*%
G54D49*
X0165Y005D02*
Y0057D01*
X014Y0025D02*
X0165Y005D01*
X0139Y0025D02*
X014D01*
X0056Y0047D02*
Y0081D01*
X0139Y0025D02*
X0139Y0025D01*
X00345Y0035D02*
X0044D01*
X0056Y0047*
X00865Y00165*
G54D50*
X00475Y0085D02*
X0133D01*
X0144Y0074*
X01162Y00337D02*
X01222Y00397D01*
Y00592D02*
X01285Y00655D01*
X01222Y00397D02*
Y00592D01*
X0116Y00335D02*
X01162Y00337D01*
X0056Y00055D02*
X0088D01*
X0116Y00335*
X00966Y00698D02*
X01158Y00506D01*
X00803Y00698D02*
X00966D01*
X01158Y00506D02*
X01161D01*
X01517Y00867D02*
X01605Y00955D01*
X01517Y00682D02*
Y00867D01*
X0143Y00595D02*
X01517Y00682D01*
X01435Y00525D02*
X0155Y0064D01*
Y00815*
X0144Y0067D02*
Y0074D01*
X0044Y00885D02*
X00475Y0085D01*
X0044Y00175D02*
X0056Y00055D01*
G54D53*
X00189Y00406D03*
Y00633D03*
G54D54*
X00208Y00349D03*
Y0069D03*
G54D55*
X00044Y00349D03*
Y0069D03*
G54D56*
X00865Y00165D03*
G54D57*
X00665Y00165D03*
G54D58*
X0165Y0042D03*
X017Y0038D03*
X0165Y00305D03*
X017Y002D03*
X01715Y00265D03*
X0116Y00955D03*
X01161Y00506D03*
X01257Y00495D03*
X01263Y0054D03*
X01258Y0044D03*
X01605Y00955D03*
X01465Y01D03*
X01455Y00815D03*
X0144Y0067D03*
X0155Y00815D03*
X01435Y00525D03*
X0143Y00595D03*
X0134Y00715D03*
X0065Y0075D03*
X017Y00965D03*
Y00035D03*
Y0009D03*
Y00145D03*
Y00905D03*
Y00855D03*
Y00805D03*
Y0075D03*
Y0069D03*
Y0063D03*
Y0057D03*
Y0051D03*
X01595Y0034D03*
X01308Y0044D03*
X01358Y00445D03*
Y00495D03*
Y0054D03*
X01308D03*
X017Y00445D03*
X00425Y0059D03*
X0041Y00395D03*
X00365Y00765D03*
X01015Y00735D03*
X01515Y00545D03*
X01495Y00265D03*
X0109Y00735D03*
X0074Y00955D03*
X00555Y0098D03*
X0007Y00865D03*
Y00185D03*
X0075Y00455D03*
X01155Y0024D03*
X01285Y00655D03*
X0044Y00175D03*
Y00885D03*
X00803Y00698D03*
X0129Y0021D03*
X01125Y0018D03*
Y00115D03*
Y00045D03*
X0145Y0019D03*
Y0012D03*
Y0005D03*
X01225Y0021D03*
G54D59*
X01391Y00931D03*
Y00888D03*
X01348D03*
Y00931D03*
G54D60*
X0056Y0081D03*
X0165Y0057D03*
X0139Y0025D03*
X00345Y0035D03*
G54D61*
X0131Y00495D03*
M02*