%FSTAX23Y23*%
%MOIN*%
%SFA1B1*%

%IPPOS*%
%AMD19*
4,1,8,0.028800,0.011400,-0.028800,0.011400,-0.031700,0.008600,-0.031700,-0.008600,-0.028800,-0.011400,0.028800,-0.011400,0.031700,-0.008600,0.031700,0.008600,0.028800,0.011400,0.0*
1,1,0.005709,0.028800,0.008600*
1,1,0.005709,-0.028800,0.008600*
1,1,0.005709,-0.028800,-0.008600*
1,1,0.005709,0.028800,-0.008600*
%
%AMD39*
4,1,8,0.019300,0.011300,-0.019300,0.011300,-0.030600,0.000000,-0.030600,0.000000,-0.019300,-0.011300,0.019300,-0.011300,0.030600,0.000000,0.030600,0.000000,0.019300,0.011300,0.0*
1,1,0.022524,0.019300,0.000000*
1,1,0.022524,-0.019300,0.000000*
1,1,0.022524,-0.019300,0.000000*
1,1,0.022524,0.019300,0.000000*
%
%AMD41*
4,1,8,-0.004000,-0.015900,0.004000,-0.015900,0.005300,-0.014600,0.005300,0.014600,0.004000,0.015900,-0.004000,0.015900,-0.005300,0.014600,-0.005300,-0.014600,-0.004000,-0.015900,0.0*
1,1,0.002657,-0.004000,-0.014600*
1,1,0.002657,0.004000,-0.014600*
1,1,0.002657,0.004000,0.014600*
1,1,0.002657,-0.004000,0.014600*
%
%AMD42*
4,1,8,-0.014600,-0.005300,0.014600,-0.005300,0.015900,-0.004000,0.015900,0.004000,0.014600,0.005300,-0.014600,0.005300,-0.015900,0.004000,-0.015900,-0.004000,-0.014600,-0.005300,0.0*
1,1,0.002657,-0.014600,-0.004000*
1,1,0.002657,0.014600,-0.004000*
1,1,0.002657,0.014600,0.004000*
1,1,0.002657,-0.014600,0.004000*
%
%AMD54*
4,1,8,0.041300,0.000000,0.041300,0.000000,0.021700,0.019700,-0.021700,0.019700,-0.041300,0.000000,-0.041300,0.000000,-0.021700,-0.019700,0.021700,-0.019700,0.041300,0.000000,0.0*
1,1,0.039370,0.021700,0.000000*
1,1,0.039370,0.021700,0.000000*
1,1,0.039370,-0.021700,0.000000*
1,1,0.039370,-0.021700,0.000000*
%
%AMD55*
4,1,8,0.035400,0.000000,0.035400,0.000000,0.015700,0.019700,-0.015700,0.019700,-0.035400,0.000000,-0.035400,0.000000,-0.015700,-0.019700,0.015700,-0.019700,0.035400,0.000000,0.0*
1,1,0.039370,0.015700,0.000000*
1,1,0.039370,0.015700,0.000000*
1,1,0.039370,-0.015700,0.000000*
1,1,0.039370,-0.015700,0.000000*
%
%ADD10C,0.018700*%
%ADD11R,0.192913X0.035433*%
%ADD12R,0.019685X0.196850*%
%ADD13R,0.192913X0.019685*%
%ADD14R,0.103937X0.019685*%
%ADD15R,0.019685X0.078740*%
%ADD16R,0.019685X0.106299*%
%ADD17R,0.155118X0.019685*%
%ADD18R,0.020289X0.018601*%
G04~CAMADD=19~8~0.0~0.0~633.9~228.3~28.5~0.0~15~0.0~0.0~0.0~0.0~0~0.0~0.0~0.0~0.0~0~0.0~0.0~0.0~0.0~633.9~228.3*
%ADD19D19*%
%ADD20R,0.102362X0.106299*%
%ADD21R,0.013780X0.031496*%
%ADD22R,0.033465X0.013780*%
%ADD23R,0.026306X0.026476*%
%ADD24R,0.026476X0.026306*%
%ADD25R,0.021260X0.022835*%
%ADD26R,0.023622X0.017716*%
%ADD27R,0.022835X0.021260*%
%ADD28R,0.024409X0.025984*%
%ADD29R,0.085827X0.062992*%
%ADD30R,0.086614X0.062992*%
%ADD31R,0.023622X0.017716*%
%ADD32R,0.070866X0.047244*%
%ADD33R,0.025591X0.025591*%
%ADD34R,0.022047X0.020472*%
%ADD35R,0.057331X0.053324*%
%ADD36R,0.023622X0.021654*%
%ADD37R,0.045275X0.023622*%
%ADD38R,0.045275X0.011811*%
G04~CAMADD=39~8~0.0~0.0~612.0~225.2~112.6~0.0~15~0.0~0.0~0.0~0.0~0~0.0~0.0~0.0~0.0~0~0.0~0.0~0.0~0.0~612.0~225.2*
%ADD39D39*%
%ADD40R,0.061196X0.022525*%
G04~CAMADD=41~8~0.0~0.0~106.3~318.9~13.3~0.0~15~0.0~0.0~0.0~0.0~0~0.0~0.0~0.0~0.0~0~0.0~0.0~0.0~180.0~106.0~318.0*
%ADD41D41*%
G04~CAMADD=42~8~0.0~0.0~318.9~106.3~13.3~0.0~15~0.0~0.0~0.0~0.0~0~0.0~0.0~0.0~0.0~0~0.0~0.0~0.0~180.0~318.0~106.0*
%ADD42D42*%
%ADD43R,0.145669X0.145669*%
%ADD44R,0.018432X0.018601*%
%ADD45R,0.018701X0.019685*%
%ADD46R,0.018601X0.020289*%
%ADD47R,0.023622X0.019685*%
%ADD48R,0.017716X0.023622*%
%ADD49C,0.025000*%
%ADD50C,0.008000*%
%ADD51C,0.009000*%
%ADD52C,0.012000*%
%ADD53C,0.025591*%
G04~CAMADD=54~8~0.0~0.0~393.7~826.8~196.9~0.0~15~0.0~0.0~0.0~0.0~0~0.0~0.0~0.0~0.0~0~0.0~0.0~0.0~270.0~828.0~394.0*
%ADD54D54*%
G04~CAMADD=55~8~0.0~0.0~393.7~708.7~196.9~0.0~15~0.0~0.0~0.0~0.0~0~0.0~0.0~0.0~0.0~0~0.0~0.0~0.0~270.0~707.0~393.0*
%ADD55D55*%
%ADD56C,0.070866*%
%ADD57R,0.070866X0.070866*%
%ADD58C,0.020000*%
%ADD59C,0.019685*%
%ADD60C,0.028000*%
%ADD61C,0.050000*%
%LNpcb-1*%
%LPD*%
G54D10*
X01643Y00368D02*
D01*
X01643Y00367*
X01644Y00366*
X01645Y00365*
X01645Y00364*
X01636Y00387D02*
D01*
X01634Y0039*
X01632Y00394*
X0163Y00398*
X01628Y00401*
X01625Y00404*
X01622Y00407*
X01619Y0041*
X01616Y00412*
X01613Y00415*
X01609Y00417*
X01606Y00419*
X01602Y0042*
X01598Y00422*
X01594Y00423*
X0159Y00424*
X01586Y00424*
X01585Y00424*
X01649Y0036D02*
D01*
X01656Y00356*
X01664Y00353*
X01671Y0035*
X01678Y00348*
X01686Y00346*
X01694Y00345*
X01702Y00345*
X01704Y00344*
Y00344D02*
D01*
X01704Y00344*
X01704*
X01704*
X01704*
X01704*
X0146Y00423D02*
X01461Y00425D01*
X01499*
X01457Y00426D02*
X0146Y00423D01*
X01406Y00426D02*
X01457D01*
X0146Y00422D02*
Y00423D01*
X01577Y00425D02*
X0158Y00422D01*
X01529Y00425D02*
X01577D01*
X01636Y00387D02*
X01643Y00368D01*
X01645Y00364D02*
X01649Y0036D01*
X01704Y00344D02*
Y00344D01*
X01713Y00344D02*
X018D01*
X01704D02*
X01713D01*
X01582Y00423D02*
X01585Y00424D01*
X0158Y00422D02*
X01582Y00423D01*
G54D11*
X018Y00262D03*
G54D12*
X01906Y00342D03*
G54D13*
X018Y00344D03*
G54D14*
X01845Y00431D03*
Y0053D03*
Y00616D03*
Y00715D03*
G54D15*
X01802Y0048D03*
Y00665D03*
G54D16*
X01906Y00573D03*
Y00758D03*
G54D17*
X01819Y00801D03*
G54D18*
X015Y00425D03*
X01529D03*
Y00475D03*
X015D03*
G54D19*
X00743Y0065D03*
Y006D03*
Y0055D03*
Y005D03*
X01026D03*
Y0055D03*
Y006D03*
Y0065D03*
G54D20*
X0137Y0091D03*
G54D21*
X0132Y00831D03*
X0134D03*
X0136D03*
X01379D03*
X01399D03*
X01419D03*
X0132Y00988D03*
X0134D03*
X0136D03*
X01379D03*
X01399D03*
X01419D03*
G54D22*
X01447Y0086D03*
Y0088D03*
Y009D03*
Y00919D03*
Y00939D03*
Y00959D03*
X01292Y0086D03*
Y0088D03*
Y009D03*
Y00919D03*
Y00939D03*
Y00959D03*
G54D23*
X01589Y0087D03*
X0155D03*
X00144Y00785D03*
X00105D03*
X00149Y0027D03*
X0011D03*
G54D24*
X0154Y00999D03*
Y0096D03*
X01515Y00639D03*
Y006D03*
X01285Y00749D03*
Y0071D03*
G54D25*
X01495Y00824D03*
Y00855D03*
X0157Y00469D03*
Y005D03*
X011Y00649D03*
Y0068D03*
X0123Y00654D03*
Y00685D03*
X00885Y00954D03*
Y00985D03*
X0134Y00685D03*
Y00654D03*
X0146Y005D03*
Y00469D03*
G54D26*
X01235Y00988D03*
Y00951D03*
G54D27*
X01199Y009D03*
X0123D03*
X01199Y00835D03*
X0123D03*
X0141Y00355D03*
X01379D03*
G54D28*
X0146Y00422D03*
Y00387D03*
X0158D03*
Y00422D03*
G54D29*
X0044Y00955D03*
X00435Y0009D03*
G54D30*
X00079Y00955D03*
X00074Y0009D03*
G54D31*
X0116Y00651D03*
Y00688D03*
X00595Y00933D03*
Y00896D03*
X0162Y00503D03*
Y00466D03*
G54D32*
X01363Y00147D03*
X01206D03*
Y00052D03*
X01363D03*
G54D33*
X01335Y00245D03*
Y00284D03*
G54D34*
X01339Y00205D03*
X0137D03*
X01214Y0029D03*
X01245D03*
G54D35*
X0102Y00975D03*
Y00914D03*
G54D36*
X00365Y00466D03*
Y00433D03*
Y00533D03*
Y00566D03*
Y00658D03*
Y00691D03*
G54D37*
X00231Y00394D03*
Y00645D03*
Y00425D03*
Y00614D03*
G54D38*
X00231Y00451D03*
Y0047D03*
Y0049D03*
Y0051D03*
Y00529D03*
Y00549D03*
Y00569D03*
Y00588D03*
G54D39*
X00788Y00972D03*
Y00935D03*
Y00897D03*
X00701D03*
Y00935D03*
G54D40*
X00701Y00972D03*
G54D41*
X01378Y00591D03*
X01359D03*
X01339D03*
X01319D03*
X013D03*
X0128D03*
X0126D03*
X01241D03*
Y00398D03*
X0126D03*
X0128D03*
X013D03*
X01319D03*
X01339D03*
X01359D03*
X01378D03*
G54D42*
X01406Y00426D03*
Y00445D03*
Y00465D03*
Y00485D03*
Y00504D03*
Y00524D03*
Y00544D03*
Y00563D03*
X01213D03*
Y00544D03*
Y00524D03*
Y00504D03*
Y00485D03*
Y00465D03*
Y00445D03*
Y00426D03*
G54D43*
X0131Y00495D03*
G54D44*
X00735Y0082D03*
X00704D03*
X0088Y0086D03*
X00849D03*
G54D45*
X0074Y0075D03*
X00699D03*
G54D46*
X0101Y00815D03*
Y00844D03*
X01075Y00815D03*
Y00844D03*
G54D47*
X00886Y008D03*
X00843D03*
G54D48*
X01418Y00305D03*
X01381D03*
G54D49*
X00663Y00936D02*
X007D01*
X00645Y00955D02*
Y01D01*
Y00955D02*
X00663Y00936D01*
X01649Y0057D02*
Y00599D01*
Y00487D02*
Y0057D01*
X0123Y00782D02*
X01252D01*
X01151D02*
X0123D01*
X0101Y00844D02*
X01012Y00847D01*
X01075Y00844D02*
X0109D01*
X01072Y00847D02*
X01075Y00844D01*
X01012Y00847D02*
X01072D01*
X0109Y00844D02*
X0111Y00825D01*
X0101Y00844D02*
Y00904D01*
X0111Y00824D02*
X01151Y00782D01*
X0159Y00639D02*
X01609D01*
X01515D02*
X0159D01*
X01514D02*
X01515D01*
X0053Y00809D02*
X00559D01*
X00321Y00614D02*
X00365Y00658D01*
X0037Y00663D02*
X00384D01*
X00365Y00658D02*
X0037Y00663D01*
X00384D02*
X0053Y00809D01*
X00559D02*
X0056Y0081D01*
X01356Y00655D02*
X01368Y00666D01*
Y00749*
X01404*
X01285D02*
X01368D01*
X01404D02*
X01514Y00639D01*
X01252Y00782D02*
X01284Y00749D01*
X0134Y00654D02*
X0134Y00655D01*
X01356*
X01618Y00467D02*
X01629D01*
X01381Y00259D02*
Y00305D01*
Y00396*
Y00259D02*
X0139Y0025D01*
Y0025D02*
Y0025D01*
X01609Y00639D02*
X01649Y00599D01*
X01629Y00467D02*
X01649Y00487D01*
X01284Y00749D02*
X01285D01*
X0101Y00904D02*
X0102Y00914D01*
X00885Y00985D02*
X0101D01*
X0102Y00975*
X00855Y01015D02*
X00885Y00985D01*
X0066Y01015D02*
X00855D01*
X00645Y01D02*
X0066Y01015D01*
X00596Y00897D02*
X00701D01*
X00595Y00895D02*
Y00896D01*
X0056Y00861D02*
X00595Y00895D01*
X0056Y0081D02*
Y00861D01*
X0056Y0081D02*
X0056Y0081D01*
X01378Y00398D02*
X01381Y00396D01*
X0034Y0035D02*
X00345D01*
X00265Y00424D02*
X0034Y0035D01*
X00232Y00424D02*
X00265D01*
X00231Y00425D02*
X00232Y00424D01*
X00231Y00614D02*
X00321D01*
G54D50*
X0158Y00387D02*
X01588Y00379D01*
Y0035D02*
Y00379D01*
Y0035D02*
X01595Y00343D01*
Y0034D02*
Y00343D01*
X0146Y003D02*
Y00387D01*
Y003D02*
X01495Y00265D01*
X01567Y00472D02*
X01571Y00467D01*
X01529Y00475D02*
X01532Y00472D01*
X01567*
X01497D02*
X015Y00475D01*
X01462Y00472D02*
X01497D01*
X0146Y00469D02*
X01462Y00472D01*
X0068Y00445D02*
X00698Y00426D01*
X0068Y00445D02*
Y00585D01*
X00695Y006*
X00743*
X01183Y00426D02*
D01*
X00698D02*
X01183D01*
X01213D01*
X01091Y0055D02*
X01175Y00465D01*
X0077Y00665D02*
X00803Y00698D01*
X00762Y0065D02*
X0077Y00657D01*
Y00665*
X01026Y0065D02*
X01103D01*
X0111Y005D02*
X01164Y00445D01*
X01213*
X00763Y0055D02*
X00788Y00575D01*
X01119*
X01113Y006D02*
X01187Y00525D01*
X01119Y00575D02*
X01188Y00506D01*
X01026Y0055D02*
X01091D01*
X00743Y005D02*
X0075Y00493D01*
Y00455D02*
Y00493D01*
X01026Y006D02*
X01113D01*
X00743Y0065D02*
X00762D01*
X01026Y005D02*
X0111D01*
X00743Y0055D02*
X00763D01*
X01212Y00525D02*
X01213Y00524D01*
X01187Y00525D02*
X01212D01*
Y00506D02*
X01213Y00504D01*
X01188Y00506D02*
X01212D01*
X01175Y00465D02*
X01213D01*
X01145Y0098D02*
X01206D01*
X0111Y00824D02*
Y00945D01*
X01145Y0098*
X01227Y00956D02*
X01232Y00951D01*
X01227Y00956D02*
Y00959D01*
X01206Y0098D02*
X01227Y00959D01*
X01232Y00951D02*
X01237D01*
X01198Y009D02*
X01199D01*
X0116Y00939D02*
X01192Y00907D01*
Y00906D02*
X01198Y009D01*
X01192Y00906D02*
Y00907D01*
X0116Y00955D02*
X01163D01*
X01198Y00919*
X01292*
X0116Y0089D02*
Y00955D01*
X01589Y0087D02*
X01598Y00879D01*
X01599D02*
X0163Y0091D01*
X01589Y0064D02*
Y0087D01*
X0163Y0091D02*
Y0097D01*
X01598Y00879D02*
X01599D01*
X01161Y00503D02*
Y00506D01*
Y00503D02*
X01179Y00485D01*
X016Y00999D02*
X0163Y0097D01*
X0154Y00999D02*
X016D01*
X01601Y00955D02*
X01605D01*
X01596Y0096D02*
X01601Y00955D01*
X0154Y0096D02*
X01596D01*
X01237Y00988D02*
X01264Y01015D01*
X0145D02*
X01465Y01D01*
X01264Y01015D02*
X0145D01*
X01419Y00988D02*
Y00996D01*
X01422Y00999D02*
X01464D01*
X01419Y00996D02*
X01422Y00999D01*
X01464D02*
X01465Y01D01*
X01169Y0088D02*
X01247D01*
X01247Y0088*
X01292*
X01447Y00939D02*
X0148D01*
X0155Y0087*
X01419Y00831D02*
X01438D01*
X01455Y00815*
X01249Y00939D02*
X01292D01*
X01237Y00951D02*
X01249Y00939D01*
X01232Y00897D02*
X01289D01*
X0123Y00835D02*
X01317D01*
X01473Y00877D02*
X01495Y00856D01*
X0145Y00877D02*
X01473D01*
X01447Y0088D02*
X0145Y00877D01*
X01447Y00959D02*
X01538D01*
X01289Y00897D02*
X01292Y009D01*
X01317Y00835D02*
X0132Y00832D01*
Y00831D02*
Y00832D01*
X0123Y009D02*
X01232Y00897D01*
X01538Y00959D02*
X0154Y0096D01*
X01495Y00855D02*
Y00856D01*
X0155Y0087D02*
Y0087D01*
X0116Y0089D02*
X01169Y0088D01*
X0116Y00845D02*
X0117Y00835D01*
X0116Y00845D02*
Y0089D01*
X0117Y00835D02*
X01199D01*
X0123Y00782D02*
X0123Y00782D01*
Y00835*
X01235Y00988D02*
X01237D01*
X01589Y0064D02*
X0159Y00639D01*
X01488Y00817D02*
X01495Y00823D01*
Y00824*
X01457Y00817D02*
X01488D01*
X01455Y00815D02*
X01457Y00817D01*
X01512Y00597D02*
X01514Y006D01*
X0144Y0067D02*
X01442Y00667D01*
X01447D02*
X01514Y006D01*
X01442Y00667D02*
X01447D01*
X01458Y00544D02*
X01512Y00597D01*
X0155Y00815D02*
Y00869D01*
X0155Y0087*
X01406Y00524D02*
X01434D01*
X01435Y00525*
X01406Y00524D02*
X01406Y00524D01*
X01418Y00565D02*
Y0058D01*
X0143Y00591*
X01406Y00563D02*
X01417D01*
X01418Y00565*
X0143Y00591D02*
Y00595D01*
X0134Y00685D02*
Y00715D01*
X01223Y00647D02*
X0123Y00653D01*
X01213Y00638D02*
X01222Y00647D01*
X0123Y00653D02*
Y00655D01*
X01222Y00647D02*
X01223D01*
X01213Y00563D02*
Y00638D01*
X01252Y00672D02*
Y00782D01*
X0065Y0075D02*
X00699D01*
X00365Y00433D02*
X00401Y00397D01*
X00407*
X0041Y00395*
X00365Y00433D02*
X00365D01*
X00389Y0059D02*
X00425D01*
X00365Y00566D02*
X00365D01*
X00389Y0059*
X00365Y00691D02*
Y00765D01*
X01075Y00795D02*
Y00815D01*
X01015Y00735D02*
X01075Y00795D01*
X0101Y00743D02*
X01015Y00738D01*
Y00735D02*
Y00738D01*
X0101Y00743D02*
Y00815D01*
X01433Y00205D02*
X01448Y0019D01*
X0145*
X0137Y00205D02*
X01433D01*
X01155Y00255D02*
X0119Y0029D01*
X01214*
X01155Y0024D02*
Y00255D01*
X01155Y0024D02*
X01155Y0024D01*
X01575Y00545D02*
X01617Y00503D01*
X01515Y00545D02*
X01575D01*
X01617Y00503D02*
X0162D01*
X01528Y00542D02*
X0157Y00501D01*
Y005D02*
Y00501D01*
X01517Y00542D02*
X01528D01*
X01515Y00545D02*
X01517Y00542D01*
X01501D02*
X01512D01*
X01515Y00545*
X0146Y005D02*
Y00501D01*
X01501Y00542*
X01411Y00355D02*
X01417Y00348D01*
Y00344D02*
X01418Y00343D01*
X01417Y00344D02*
Y00348D01*
X0141Y00355D02*
X01411D01*
X01418Y00302D02*
Y00343D01*
X01458Y00265D02*
X01495D01*
X01418Y00302D02*
X01423Y00297D01*
X01426*
X01458Y00265*
X0007Y0082D02*
X00105Y00785D01*
Y00785D02*
Y00785D01*
X0007Y0082D02*
Y00865D01*
Y00945*
X00079Y00955*
X0007Y00094D02*
X00074Y0009D01*
X0007Y00094D02*
Y00185D01*
Y00229D02*
X0011Y00269D01*
X0007Y00185D02*
Y00229D01*
X0011Y00269D02*
Y0027D01*
X00721Y00972D02*
X00738Y00955D01*
X0074*
X00701Y00972D02*
X00721D01*
X00587Y00938D02*
Y00941D01*
X00557Y00971D02*
Y00977D01*
X00592Y00933D02*
X00595D01*
X00587Y00938D02*
X00592Y00933D01*
X00555Y0098D02*
X00557Y00977D01*
Y00971D02*
X00587Y00941D01*
X011Y00734D02*
X0111D01*
X0109D02*
X011D01*
X011Y00735D02*
X0118D01*
X011Y00734D02*
X011Y00735D01*
X0123Y00685D02*
Y00686D01*
X01223Y00692D02*
X0123Y00686D01*
X01222Y00692D02*
X01223D01*
X0118Y00735D02*
X01222Y00692D01*
X01157Y00688D02*
X0116D01*
X0111Y00734D02*
X01157Y00688D01*
X0109Y00735D02*
X0109Y00734D01*
X011Y0068D02*
Y00721D01*
X0109Y00731D02*
X011Y00721D01*
X0109Y00731D02*
Y00735D01*
X01339Y00591D02*
X01339Y00591D01*
Y00654D02*
X0134Y00654D01*
X01339Y00591D02*
Y00654D01*
X0123Y00655D02*
X01236Y00662D01*
X01241*
X01252Y00672*
X01285Y00655D02*
Y0071D01*
Y00645D02*
Y00655D01*
X0044Y00094D02*
Y00175D01*
X00435Y0009D02*
X0044Y00094D01*
Y00954D02*
X0044Y00955D01*
X0044Y00885D02*
Y00954D01*
X0126Y00591D02*
Y0062D01*
X01285Y00645*
X01406Y00544D02*
X01458D01*
X01571Y00467D02*
X01618D01*
X01456Y00465D02*
X0146Y00468D01*
X01406Y00465D02*
X01455D01*
X01436Y00445D02*
X01456Y00465D01*
X01407Y00445D02*
X01436D01*
X01406Y00445D02*
X01407Y00445D01*
X0146Y00468D02*
Y00469D01*
X00997Y00891D02*
X0101Y00904D01*
X00843Y008D02*
X00849Y00805D01*
Y0086*
X00828Y00858D02*
X00848D01*
X00828D02*
D01*
X00848D02*
X00849Y0086D01*
X00807Y0088D02*
X00828Y00858D01*
X008Y00897D02*
X00807Y0089D01*
Y0088D02*
Y0089D01*
X00788Y00897D02*
X008D01*
X00828Y00858D02*
D01*
X0074Y0075D02*
Y0077D01*
X00828Y00858*
X0088Y0086D02*
X00912Y00891D01*
X00997*
X0088Y0086D02*
X00886D01*
Y008D02*
Y0086D01*
X00811Y00972D02*
X00819Y00964D01*
X00873D02*
X00876Y00962D01*
X00878*
X00885Y00954D02*
Y00955D01*
X00788Y00972D02*
X00811D01*
X00819Y00964D02*
X00873D01*
X00878Y00962D02*
X00885Y00955D01*
X00735Y0082D02*
X0074Y00825D01*
Y00888D02*
X00741Y00889D01*
X0074Y00825D02*
Y00888D01*
X00741Y00907D02*
X00768Y00935D01*
X00741Y00889D02*
Y00907D01*
X00768Y00935D02*
X00788D01*
X00701Y00897D02*
X00704Y00895D01*
Y0082D02*
Y00895D01*
X01103Y0065D02*
X01159D01*
X01103Y0065D02*
X01103Y0065D01*
X01159D02*
X0116Y00651D01*
Y00584D02*
Y00651D01*
Y00584D02*
X01198Y00545D01*
X01212*
X01213Y00544*
X00208Y0069D02*
X00212Y00686D01*
X0022Y00645D02*
X00231D01*
X00212Y00653D02*
Y00686D01*
Y00653D02*
X0022Y00645D01*
X00215Y00356D02*
Y00386D01*
X00222Y00394D02*
X00231D01*
X00208Y00349D02*
X00215Y00356D01*
Y00386D02*
X00222Y00394D01*
X00062Y00318D02*
X0011Y0027D01*
X00062Y00318D02*
Y00335D01*
X00047Y00349D02*
X00062Y00335D01*
X0011Y0027D02*
Y0027D01*
X00044Y00349D02*
X00047D01*
X00229Y00449D02*
X00231Y00451D01*
X00149Y00397D02*
X00201Y00449D01*
X00229*
X00149Y0027D02*
Y00397D01*
X00059Y00704D02*
Y00739D01*
X00105Y00785*
X00044Y0069D02*
X00045D01*
X00059Y00704*
X00144Y00634D02*
X00207Y00571D01*
X00229*
X00144Y00634D02*
Y00785D01*
X00229Y00571D02*
X00231Y00569D01*
X01363Y00052D02*
X01366Y0005D01*
X0145*
X01225Y00165D02*
Y0021D01*
X01206Y00147D02*
X01225Y00165D01*
X01179Y00485D02*
X01213D01*
X01335Y00245D02*
X0134Y0024D01*
X01339Y00205D02*
X0134Y00205D01*
Y0024*
X01339Y00166D02*
Y00205D01*
Y00166D02*
X0134Y00166D01*
X01344*
X01363Y00147*
X01339Y00289D02*
Y00398D01*
X01335Y00284D02*
X01339Y00289D01*
X01161Y00085D02*
Y00201D01*
X01194Y00052D02*
X01206D01*
X01161Y00085D02*
X01194Y00052D01*
X01239Y00285D02*
X01245D01*
X01238Y00283D02*
X01239Y00285D01*
X01238Y00278D02*
Y00283D01*
X01161Y00201D02*
X01238Y00278D01*
X01245Y00285D02*
X01319Y00359D01*
Y00398*
G54D51*
X00512Y00507D02*
X00664Y00355D01*
X01238*
X00658Y00341D02*
X01244D01*
X00365Y00493D02*
X00506D01*
X00658Y00341*
X00365Y00507D02*
X00512D01*
X01244Y00341D02*
X01257Y00354D01*
Y00385*
X01243Y0036D02*
Y00385D01*
X01238Y00355D02*
X01243Y0036D01*
X00365Y00507D02*
Y00533D01*
Y00466D02*
Y00493D01*
X00253D02*
X00365D01*
X00253Y00507D02*
X00365D01*
X01241Y00387D02*
Y00398D01*
Y00387D02*
X01243Y00385D01*
X00252Y00491D02*
X00253Y00493D01*
X00232Y00491D02*
X00252D01*
X00231Y0049D02*
X00232Y00491D01*
X0126Y00387D02*
Y00398D01*
X01257Y00385D02*
X0126Y00387D01*
X00229Y00491D02*
X00231Y0049D01*
X00207Y00491D02*
X00229D01*
X00199Y005D02*
X00207Y00491D01*
X00199Y005D02*
Y00519D01*
X00207Y00528*
X00229*
X00231Y00529*
Y00549D02*
X00232Y00548D01*
X00255*
X00263Y00539*
Y0052D02*
Y00539D01*
X00255Y00511D02*
X00263Y0052D01*
X00231Y0051D02*
X00232Y00508D01*
X00252*
X00253Y00507*
G54D52*
X01359Y00398D02*
X01378D01*
G54D53*
X00189Y00406D03*
Y00633D03*
G54D54*
X00208Y00349D03*
Y0069D03*
G54D55*
X00044Y00349D03*
Y0069D03*
G54D56*
X00865Y00165D03*
G54D57*
X00665Y00165D03*
G54D58*
X0165Y0042D03*
X017Y0038D03*
X0165Y00305D03*
X017Y002D03*
X01715Y00265D03*
X0116Y00955D03*
X01161Y00506D03*
X01257Y00495D03*
X01263Y0054D03*
X01258Y0044D03*
X01605Y00955D03*
X01465Y01D03*
X01455Y00815D03*
X0144Y0067D03*
X0155Y00815D03*
X01435Y00525D03*
X0143Y00595D03*
X0134Y00715D03*
X0065Y0075D03*
X017Y00965D03*
Y00035D03*
Y0009D03*
Y00145D03*
Y00905D03*
Y00855D03*
Y00805D03*
Y0075D03*
Y0069D03*
Y0063D03*
Y0057D03*
Y0051D03*
X01595Y0034D03*
X01308Y0044D03*
X01358Y00445D03*
Y00495D03*
Y0054D03*
X01308D03*
X017Y00445D03*
X00425Y0059D03*
X0041Y00395D03*
X00365Y00765D03*
X01015Y00735D03*
X01515Y00545D03*
X01495Y00265D03*
X0109Y00735D03*
X0074Y00955D03*
X00555Y0098D03*
X0007Y00865D03*
Y00185D03*
X0075Y00455D03*
X01155Y0024D03*
X01285Y00655D03*
X0044Y00175D03*
Y00885D03*
X00803Y00698D03*
X0129Y0021D03*
X01125Y0018D03*
Y00115D03*
Y00045D03*
X0145Y0019D03*
Y0012D03*
Y0005D03*
X01225Y0021D03*
G54D59*
X01391Y00931D03*
Y00888D03*
X01348D03*
Y00931D03*
G54D60*
X0056Y0081D03*
X0165Y0057D03*
X0139Y0025D03*
X00345Y0035D03*
G54D61*
X0131Y00495D03*
M02*