%FSTAX23Y23*%
%MOIN*%
%SFA1B1*%

%IPPOS*%
%ADD64C,0.005000*%
%ADD95C,0.006667*%
%LNpcb-1*%
%LPD*%
G54D64*
X00208Y00329D02*
X00188Y00369D01*
X00228*
X00208Y00329*
Y0067D02*
X00188Y0071D01*
X00228*
X00208Y0067*
X00044Y00329D02*
X00054Y00339D01*
X00064*
X00054Y00349*
X00064Y00359*
X00054*
X00044Y00369*
X00034Y00359*
X00024*
X00034Y00349*
X00024Y00339*
X00034*
X00044Y00329*
Y0067D02*
X00054Y0068D01*
X00064*
X00054Y0069*
X00064Y007*
X00054*
X00044Y0071*
X00034Y007*
X00024*
X00034Y0069*
X00024Y0068*
X00034*
X00044Y0067*
X00845Y00145D02*
Y00185D01*
X00885*
Y00145*
X00845*
X00645D02*
Y00185D01*
X00685*
Y00145*
X00645*
X0163Y004D02*
X0164Y0042D01*
X0163Y0044*
X0165Y0043*
X0167Y0044*
X0166Y0042*
X0167Y004*
X0165Y0041*
X0163Y004*
X0168Y0036D02*
X0169Y0038D01*
X0168Y004*
X017Y0039*
X0172Y004*
X0171Y0038*
X0172Y0036*
X017Y0037*
X0168Y0036*
X0163Y00285D02*
X0164Y00305D01*
X0163Y00325*
X0165Y00315*
X0167Y00325*
X0166Y00305*
X0167Y00285*
X0165Y00295*
X0163Y00285*
X0168Y0018D02*
X0169Y002D01*
X0168Y0022*
X017Y0021*
X0172Y0022*
X0171Y002*
X0172Y0018*
X017Y0019*
X0168Y0018*
X01695Y00245D02*
X01705Y00265D01*
X01695Y00285*
X01715Y00275*
X01735Y00285*
X01725Y00265*
X01735Y00245*
X01715Y00255*
X01695Y00245*
X0114Y00935D02*
X0115Y00955D01*
X0114Y00975*
X0116Y00965*
X0118Y00975*
X0117Y00955*
X0118Y00935*
X0116Y00945*
X0114Y00935*
X01141Y00486D02*
X01151Y00506D01*
X01141Y00526*
X01161Y00516*
X01181Y00526*
X01171Y00506*
X01181Y00486*
X01161Y00496*
X01141Y00486*
X01237Y00475D02*
X01247Y00495D01*
X01237Y00515*
X01257Y00505*
X01277Y00515*
X01267Y00495*
X01277Y00475*
X01257Y00485*
X01237Y00475*
X01243Y0052D02*
X01253Y0054D01*
X01243Y0056*
X01263Y0055*
X01283Y0056*
X01273Y0054*
X01283Y0052*
X01263Y0053*
X01243Y0052*
X01238Y0042D02*
X01248Y0044D01*
X01238Y0046*
X01258Y0045*
X01278Y0046*
X01268Y0044*
X01278Y0042*
X01258Y0043*
X01238Y0042*
X01585Y00935D02*
X01595Y00955D01*
X01585Y00975*
X01605Y00965*
X01625Y00975*
X01615Y00955*
X01625Y00935*
X01605Y00945*
X01585Y00935*
X01445Y0098D02*
X01455Y01D01*
X01445Y0102*
X01465Y0101*
X01485Y0102*
X01475Y01*
X01485Y0098*
X01465Y0099*
X01445Y0098*
X01371Y00931D02*
X01391Y00951D01*
X01411Y00931*
X01391Y00911*
X01371Y00931*
Y00888D02*
X01391Y00908D01*
X01411Y00888*
X01391Y00868*
X01371Y00888*
X01328D02*
X01348Y00908D01*
X01368Y00888*
X01348Y00868*
X01328Y00888*
Y00931D02*
X01348Y00951D01*
X01368Y00931*
X01348Y00911*
X01328Y00931*
X01435Y00795D02*
X01445Y00815D01*
X01435Y00835*
X01455Y00825*
X01475Y00835*
X01465Y00815*
X01475Y00795*
X01455Y00805*
X01435Y00795*
X0142Y0065D02*
X0143Y0067D01*
X0142Y0069*
X0144Y0068*
X0146Y0069*
X0145Y0067*
X0146Y0065*
X0144Y0066*
X0142Y0065*
X0153Y00795D02*
X0154Y00815D01*
X0153Y00835*
X0155Y00825*
X0157Y00835*
X0156Y00815*
X0157Y00795*
X0155Y00805*
X0153Y00795*
X01415Y00505D02*
X01425Y00525D01*
X01415Y00545*
X01435Y00535*
X01455Y00545*
X01445Y00525*
X01455Y00505*
X01435Y00515*
X01415Y00505*
X0141Y00575D02*
X0142Y00595D01*
X0141Y00615*
X0143Y00605*
X0145Y00615*
X0144Y00595*
X0145Y00575*
X0143Y00585*
X0141Y00575*
X0132Y00695D02*
X0133Y00715D01*
X0132Y00735*
X0134Y00725*
X0136Y00735*
X0135Y00715*
X0136Y00695*
X0134Y00705*
X0132Y00695*
X0055Y008D02*
Y0079D01*
X0057*
Y008*
X0058*
Y0082*
X0057*
Y0083*
X0055*
Y0082*
X0054*
Y008*
X0055*
X0063Y0073D02*
X0064Y0075D01*
X0063Y0077*
X0065Y0076*
X0067Y0077*
X0066Y0075*
X0067Y0073*
X0065Y0074*
X0063Y0073*
X0168Y00945D02*
X0169Y00965D01*
X0168Y00985*
X017Y00975*
X0172Y00985*
X0171Y00965*
X0172Y00945*
X017Y00955*
X0168Y00945*
Y00015D02*
X0169Y00035D01*
X0168Y00055*
X017Y00045*
X0172Y00055*
X0171Y00035*
X0172Y00015*
X017Y00025*
X0168Y00015*
Y0007D02*
X0169Y0009D01*
X0168Y0011*
X017Y001*
X0172Y0011*
X0171Y0009*
X0172Y0007*
X017Y0008*
X0168Y0007*
Y00125D02*
X0169Y00145D01*
X0168Y00165*
X017Y00155*
X0172Y00165*
X0171Y00145*
X0172Y00125*
X017Y00135*
X0168Y00125*
Y00885D02*
X0169Y00905D01*
X0168Y00925*
X017Y00915*
X0172Y00925*
X0171Y00905*
X0172Y00885*
X017Y00895*
X0168Y00885*
Y00835D02*
X0169Y00855D01*
X0168Y00875*
X017Y00865*
X0172Y00875*
X0171Y00855*
X0172Y00835*
X017Y00845*
X0168Y00835*
Y00785D02*
X0169Y00805D01*
X0168Y00825*
X017Y00815*
X0172Y00825*
X0171Y00805*
X0172Y00785*
X017Y00795*
X0168Y00785*
Y0073D02*
X0169Y0075D01*
X0168Y0077*
X017Y0076*
X0172Y0077*
X0171Y0075*
X0172Y0073*
X017Y0074*
X0168Y0073*
Y0067D02*
X0169Y0069D01*
X0168Y0071*
X017Y007*
X0172Y0071*
X0171Y0069*
X0172Y0067*
X017Y0068*
X0168Y0067*
Y0061D02*
X0169Y0063D01*
X0168Y0065*
X017Y0064*
X0172Y0065*
X0171Y0063*
X0172Y0061*
X017Y0062*
X0168Y0061*
Y0055D02*
X0169Y0057D01*
X0168Y0059*
X017Y0058*
X0172Y0059*
X0171Y0057*
X0172Y0055*
X017Y0056*
X0168Y0055*
Y0049D02*
X0169Y0051D01*
X0168Y0053*
X017Y0052*
X0172Y0053*
X0171Y0051*
X0172Y0049*
X017Y005*
X0168Y0049*
X01575Y0032D02*
X01585Y0034D01*
X01575Y0036*
X01595Y0035*
X01615Y0036*
X01605Y0034*
X01615Y0032*
X01595Y0033*
X01575Y0032*
X0129Y00475D02*
X013D01*
X0131Y00485*
X0132Y00475*
X0133*
Y00485*
X0132Y00495*
X0133Y00505*
Y00515*
X0132*
X0131Y00505*
X013Y00515*
X0129*
Y00505*
X013Y00495*
X0129Y00485*
Y00475*
X01288Y0042D02*
X01298Y0044D01*
X01288Y0046*
X01308Y0045*
X01328Y0046*
X01318Y0044*
X01328Y0042*
X01308Y0043*
X01288Y0042*
X01338Y00425D02*
X01348Y00445D01*
X01338Y00465*
X01358Y00455*
X01378Y00465*
X01368Y00445*
X01378Y00425*
X01358Y00435*
X01338Y00425*
Y00475D02*
X01348Y00495D01*
X01338Y00515*
X01358Y00505*
X01378Y00515*
X01368Y00495*
X01378Y00475*
X01358Y00485*
X01338Y00475*
Y0052D02*
X01348Y0054D01*
X01338Y0056*
X01358Y0055*
X01378Y0056*
X01368Y0054*
X01378Y0052*
X01358Y0053*
X01338Y0052*
X01288D02*
X01298Y0054D01*
X01288Y0056*
X01308Y0055*
X01328Y0056*
X01318Y0054*
X01328Y0052*
X01308Y0053*
X01288Y0052*
X0168Y00425D02*
X0169Y00445D01*
X0168Y00465*
X017Y00455*
X0172Y00465*
X0171Y00445*
X0172Y00425*
X017Y00435*
X0168Y00425*
X00405Y0057D02*
X00415Y0059D01*
X00405Y0061*
X00425Y006*
X00445Y0061*
X00435Y0059*
X00445Y0057*
X00425Y0058*
X00405Y0057*
X0039Y00375D02*
X004Y00395D01*
X0039Y00415*
X0041Y00405*
X0043Y00415*
X0042Y00395*
X0043Y00375*
X0041Y00385*
X0039Y00375*
X00345Y00745D02*
X00355Y00765D01*
X00345Y00785*
X00365Y00775*
X00385Y00785*
X00375Y00765*
X00385Y00745*
X00365Y00755*
X00345Y00745*
X00995Y00715D02*
X01005Y00735D01*
X00995Y00755*
X01015Y00745*
X01035Y00755*
X01025Y00735*
X01035Y00715*
X01015Y00725*
X00995Y00715*
X01495Y00525D02*
X01505Y00545D01*
X01495Y00565*
X01515Y00555*
X01535Y00565*
X01525Y00545*
X01535Y00525*
X01515Y00535*
X01495Y00525*
X01475Y00245D02*
X01485Y00265D01*
X01475Y00285*
X01495Y00275*
X01515Y00285*
X01505Y00265*
X01515Y00245*
X01495Y00255*
X01475Y00245*
X0107Y00715D02*
X0108Y00735D01*
X0107Y00755*
X0109Y00745*
X0111Y00755*
X011Y00735*
X0111Y00715*
X0109Y00725*
X0107Y00715*
X0072Y00935D02*
X0073Y00955D01*
X0072Y00975*
X0074Y00965*
X0076Y00975*
X0075Y00955*
X0076Y00935*
X0074Y00945*
X0072Y00935*
X00535Y0096D02*
X00545Y0098D01*
X00535Y01*
X00555Y0099*
X00575Y01*
X00565Y0098*
X00575Y0096*
X00555Y0097*
X00535Y0096*
X0005Y00845D02*
X0006Y00865D01*
X0005Y00885*
X0007Y00875*
X0009Y00885*
X0008Y00865*
X0009Y00845*
X0007Y00855*
X0005Y00845*
Y00165D02*
X0006Y00185D01*
X0005Y00205*
X0007Y00195*
X0009Y00205*
X0008Y00185*
X0009Y00165*
X0007Y00175*
X0005Y00165*
X0073Y00435D02*
X0074Y00455D01*
X0073Y00475*
X0075Y00465*
X0077Y00475*
X0076Y00455*
X0077Y00435*
X0075Y00445*
X0073Y00435*
X0164Y0056D02*
Y0055D01*
X0166*
Y0056*
X0167*
Y0058*
X0166*
Y0059*
X0164*
Y0058*
X0163*
Y0056*
X0164*
X0138Y0024D02*
Y0023D01*
X014*
Y0024*
X0141*
Y0026*
X014*
Y0027*
X0138*
Y0026*
X0137*
Y0024*
X0138*
X01135Y0022D02*
X01145Y0024D01*
X01135Y0026*
X01155Y0025*
X01175Y0026*
X01165Y0024*
X01175Y0022*
X01155Y0023*
X01135Y0022*
X01265Y00635D02*
X01275Y00655D01*
X01265Y00675*
X01285Y00665*
X01305Y00675*
X01295Y00655*
X01305Y00635*
X01285Y00645*
X01265Y00635*
X0042Y00155D02*
X0043Y00175D01*
X0042Y00195*
X0044Y00185*
X0046Y00195*
X0045Y00175*
X0046Y00155*
X0044Y00165*
X0042Y00155*
Y00865D02*
X0043Y00885D01*
X0042Y00905*
X0044Y00895*
X0046Y00905*
X0045Y00885*
X0046Y00865*
X0044Y00875*
X0042Y00865*
X00335Y0034D02*
Y0033D01*
X00355*
Y0034*
X00365*
Y0036*
X00355*
Y0037*
X00335*
Y0036*
X00325*
Y0034*
X00335*
X00783Y00678D02*
X00793Y00698D01*
X00783Y00718*
X00803Y00708*
X00823Y00718*
X00813Y00698*
X00823Y00678*
X00803Y00688*
X00783Y00678*
X0127Y0019D02*
X0128Y0021D01*
X0127Y0023*
X0129Y0022*
X0131Y0023*
X013Y0021*
X0131Y0019*
X0129Y002*
X0127Y0019*
X01105Y0016D02*
X01115Y0018D01*
X01105Y002*
X01125Y0019*
X01145Y002*
X01135Y0018*
X01145Y0016*
X01125Y0017*
X01105Y0016*
Y00095D02*
X01115Y00115D01*
X01105Y00135*
X01125Y00125*
X01145Y00135*
X01135Y00115*
X01145Y00095*
X01125Y00105*
X01105Y00095*
Y00025D02*
X01115Y00045D01*
X01105Y00065*
X01125Y00055*
X01145Y00065*
X01135Y00045*
X01145Y00025*
X01125Y00035*
X01105Y00025*
X0143Y0017D02*
X0144Y0019D01*
X0143Y0021*
X0145Y002*
X0147Y0021*
X0146Y0019*
X0147Y0017*
X0145Y0018*
X0143Y0017*
Y001D02*
X0144Y0012D01*
X0143Y0014*
X0145Y0013*
X0147Y0014*
X0146Y0012*
X0147Y001*
X0145Y0011*
X0143Y001*
Y0003D02*
X0144Y0005D01*
X0143Y0007*
X0145Y0006*
X0147Y0007*
X0146Y0005*
X0147Y0003*
X0145Y0004*
X0143Y0003*
X01205Y0019D02*
X01215Y0021D01*
X01205Y0023*
X01225Y0022*
X01245Y0023*
X01235Y0021*
X01245Y0019*
X01225Y002*
X01205Y0019*
G54D95*
X00209Y00406D02*
D01*
X00208Y00407*
X00208Y00409*
X00208Y0041*
X00208Y00411*
X00207Y00413*
X00207Y00414*
X00206Y00415*
X00205Y00416*
X00205Y00417*
X00204Y00419*
X00203Y0042*
X00202Y00421*
X00201Y00421*
X002Y00422*
X00199Y00423*
X00197Y00424*
X00196Y00424*
X00195Y00425*
X00193Y00425*
X00192Y00425*
X00191Y00426*
X00189Y00426*
X00188*
X00186Y00426*
X00185Y00425*
X00184Y00425*
X00182Y00425*
X00181Y00424*
X0018Y00424*
X00179Y00423*
X00177Y00422*
X00176Y00421*
X00175Y00421*
X00174Y0042*
X00173Y00419*
X00172Y00417*
X00172Y00416*
X00171Y00415*
X0017Y00414*
X0017Y00413*
X00169Y00411*
X00169Y0041*
X00169Y00409*
X00169Y00407*
X00169Y00406*
X00169Y00404*
X00169Y00403*
X00169Y00402*
X00169Y004*
X0017Y00399*
X0017Y00398*
X00171Y00396*
X00172Y00395*
X00172Y00394*
X00173Y00393*
X00174Y00392*
X00175Y00391*
X00176Y0039*
X00177Y00389*
X00179Y00388*
X0018Y00388*
X00181Y00387*
X00182Y00387*
X00184Y00386*
X00185Y00386*
X00186Y00386*
X00188Y00386*
X00189*
X00191Y00386*
X00192Y00386*
X00193Y00386*
X00195Y00387*
X00196Y00387*
X00197Y00388*
X00199Y00388*
X002Y00389*
X00201Y0039*
X00202Y00391*
X00203Y00392*
X00204Y00393*
X00205Y00394*
X00205Y00395*
X00206Y00396*
X00207Y00398*
X00207Y00399*
X00208Y004*
X00208Y00402*
X00208Y00403*
X00208Y00404*
X00209Y00406*
Y00633D02*
D01*
X00208Y00635*
X00208Y00636*
X00208Y00637*
X00208Y00639*
X00207Y0064*
X00207Y00641*
X00206Y00643*
X00205Y00644*
X00205Y00645*
X00204Y00646*
X00203Y00647*
X00202Y00648*
X00201Y00649*
X002Y0065*
X00199Y00651*
X00197Y00651*
X00196Y00652*
X00195Y00652*
X00193Y00653*
X00192Y00653*
X00191Y00653*
X00189Y00653*
X00188*
X00186Y00653*
X00185Y00653*
X00184Y00653*
X00182Y00652*
X00181Y00652*
X0018Y00651*
X00179Y00651*
X00177Y0065*
X00176Y00649*
X00175Y00648*
X00174Y00647*
X00173Y00646*
X00172Y00645*
X00172Y00644*
X00171Y00643*
X0017Y00641*
X0017Y0064*
X00169Y00639*
X00169Y00637*
X00169Y00636*
X00169Y00635*
X00169Y00633*
X00169Y00632*
X00169Y0063*
X00169Y00629*
X00169Y00628*
X0017Y00626*
X0017Y00625*
X00171Y00624*
X00172Y00623*
X00172Y00622*
X00173Y0062*
X00174Y00619*
X00175Y00618*
X00176Y00618*
X00177Y00617*
X00179Y00616*
X0018Y00615*
X00181Y00615*
X00182Y00614*
X00184Y00614*
X00185Y00614*
X00186Y00613*
X00188Y00613*
X00189*
X00191Y00613*
X00192Y00614*
X00193Y00614*
X00195Y00614*
X00196Y00615*
X00197Y00615*
X00199Y00616*
X002Y00617*
X00201Y00618*
X00202Y00618*
X00203Y00619*
X00204Y0062*
X00205Y00622*
X00205Y00623*
X00206Y00624*
X00207Y00625*
X00207Y00626*
X00208Y00628*
X00208Y00629*
X00208Y0063*
X00208Y00632*
X00209Y00633*
M02*