%FSTAX23Y23*%
%MOIN*%
%SFA1B1*%

%IPPOS*%
%ADD62C,0.009843*%
%ADD63C,0.007874*%
%ADD64C,0.005000*%
%ADD65C,0.010000*%
%LNpcb-1*%
%LPD*%
G54D62*
X01471Y00425D02*
D01*
X01471Y00425*
X01471Y00425*
X01471Y00426*
X01471Y00426*
X0147Y00426*
X0147Y00427*
X0147Y00427*
X0147Y00427*
X0147Y00427*
X0147Y00428*
X01469Y00428*
X01469Y00428*
X01469Y00428*
X01469Y00429*
X01468Y00429*
X01468Y00429*
X01468Y00429*
X01467Y00429*
X01467Y00429*
X01467Y00429*
X01466Y00429*
X01466Y00429*
X01466*
X01465Y00429*
X01465Y00429*
X01465Y00429*
X01464Y00429*
X01464Y00429*
X01464Y00429*
X01463Y00429*
X01463Y00429*
X01463Y00428*
X01463Y00428*
X01462Y00428*
X01462Y00428*
X01462Y00427*
X01462Y00427*
X01461Y00427*
X01461Y00427*
X01461Y00426*
X01461Y00426*
X01461Y00426*
X01461Y00425*
X01461Y00425*
X01461Y00425*
X01461Y00424*
X01461Y00424*
X01461Y00423*
X01461Y00423*
X01461Y00423*
X01461Y00422*
X01461Y00422*
X01462Y00422*
X01462Y00422*
X01462Y00421*
X01462Y00421*
X01463Y00421*
X01463Y00421*
X01463Y0042*
X01463Y0042*
X01464Y0042*
X01464Y0042*
X01464Y0042*
X01465Y0042*
X01465Y0042*
X01465Y0042*
X01466Y0042*
X01466*
X01466Y0042*
X01467Y0042*
X01467Y0042*
X01467Y0042*
X01468Y0042*
X01468Y0042*
X01468Y0042*
X01469Y0042*
X01469Y00421*
X01469Y00421*
X01469Y00421*
X0147Y00421*
X0147Y00422*
X0147Y00422*
X0147Y00422*
X0147Y00422*
X0147Y00423*
X01471Y00423*
X01471Y00423*
X01471Y00424*
X01471Y00424*
X01471Y00425*
X01424Y01026D02*
D01*
X01424Y01026*
X01424Y01026*
X01424Y01027*
X01423Y01027*
X01423Y01027*
X01423Y01028*
X01423Y01028*
X01423Y01028*
X01423Y01029*
X01422Y01029*
X01422Y01029*
X01422Y01029*
X01422Y0103*
X01421Y0103*
X01421Y0103*
X01421Y0103*
X01421Y0103*
X0142Y0103*
X0142Y0103*
X0142Y0103*
X01419Y01031*
X01419Y01031*
X01419*
X01418Y01031*
X01418Y0103*
X01418Y0103*
X01417Y0103*
X01417Y0103*
X01417Y0103*
X01416Y0103*
X01416Y0103*
X01416Y0103*
X01415Y01029*
X01415Y01029*
X01415Y01029*
X01415Y01029*
X01415Y01028*
X01414Y01028*
X01414Y01028*
X01414Y01027*
X01414Y01027*
X01414Y01027*
X01414Y01026*
X01414Y01026*
X01414Y01026*
X01414Y01025*
X01414Y01025*
X01414Y01025*
X01414Y01024*
X01414Y01024*
X01414Y01024*
X01414Y01023*
X01415Y01023*
X01415Y01023*
X01415Y01022*
X01415Y01022*
X01415Y01022*
X01416Y01022*
X01416Y01022*
X01416Y01021*
X01417Y01021*
X01417Y01021*
X01417Y01021*
X01418Y01021*
X01418Y01021*
X01418Y01021*
X01419Y01021*
X01419*
X01419Y01021*
X0142Y01021*
X0142Y01021*
X0142Y01021*
X01421Y01021*
X01421Y01021*
X01421Y01021*
X01421Y01022*
X01422Y01022*
X01422Y01022*
X01422Y01022*
X01422Y01022*
X01423Y01023*
X01423Y01023*
X01423Y01023*
X01423Y01024*
X01423Y01024*
X01423Y01024*
X01424Y01025*
X01424Y01025*
X01424Y01025*
X01424Y01026*
X00019Y00955D02*
D01*
X00019Y00955*
X00019Y00955*
X00018Y00956*
X00018Y00956*
X00018Y00956*
X00018Y00957*
X00018Y00957*
X00018Y00957*
X00018Y00957*
X00017Y00958*
X00017Y00958*
X00017Y00958*
X00017Y00958*
X00016Y00959*
X00016Y00959*
X00016Y00959*
X00015Y00959*
X00015Y00959*
X00015Y00959*
X00014Y00959*
X00014Y00959*
X00014Y00959*
X00013*
X00013Y00959*
X00013Y00959*
X00012Y00959*
X00012Y00959*
X00012Y00959*
X00011Y00959*
X00011Y00959*
X00011Y00959*
X00011Y00958*
X0001Y00958*
X0001Y00958*
X0001Y00958*
X0001Y00957*
X00009Y00957*
X00009Y00957*
X00009Y00957*
X00009Y00956*
X00009Y00956*
X00009Y00956*
X00009Y00955*
X00009Y00955*
X00009Y00955*
X00009Y00954*
X00009Y00954*
X00009Y00953*
X00009Y00953*
X00009Y00953*
X00009Y00952*
X00009Y00952*
X00009Y00952*
X0001Y00952*
X0001Y00951*
X0001Y00951*
X0001Y00951*
X00011Y00951*
X00011Y0095*
X00011Y0095*
X00011Y0095*
X00012Y0095*
X00012Y0095*
X00012Y0095*
X00013Y0095*
X00013Y0095*
X00013Y0095*
X00014*
X00014Y0095*
X00014Y0095*
X00015Y0095*
X00015Y0095*
X00015Y0095*
X00016Y0095*
X00016Y0095*
X00016Y0095*
X00017Y00951*
X00017Y00951*
X00017Y00951*
X00017Y00951*
X00018Y00952*
X00018Y00952*
X00018Y00952*
X00018Y00952*
X00018Y00953*
X00018Y00953*
X00018Y00953*
X00019Y00954*
X00019Y00954*
X00019Y00955*
X0137Y00193D02*
D01*
X0137Y00193*
X0137Y00194*
X0137Y00194*
X0137Y00194*
X0137Y00195*
X0137Y00195*
X0137Y00195*
X01369Y00196*
X01369Y00196*
X01369Y00196*
X01369Y00196*
X01369Y00197*
X01368Y00197*
X01368Y00197*
X01368Y00197*
X01367Y00197*
X01367Y00198*
X01367Y00198*
X01366Y00198*
X01366Y00198*
X01366Y00198*
X01365Y00198*
X01365*
X01365Y00198*
X01364Y00198*
X01364Y00198*
X01364Y00198*
X01363Y00198*
X01363Y00197*
X01363Y00197*
X01362Y00197*
X01362Y00197*
X01362Y00197*
X01362Y00196*
X01361Y00196*
X01361Y00196*
X01361Y00196*
X01361Y00195*
X01361Y00195*
X01361Y00195*
X0136Y00194*
X0136Y00194*
X0136Y00194*
X0136Y00193*
X0136Y00193*
X0136Y00193*
X0136Y00192*
X0136Y00192*
X0136Y00192*
X01361Y00191*
X01361Y00191*
X01361Y00191*
X01361Y0019*
X01361Y0019*
X01361Y0019*
X01362Y0019*
X01362Y00189*
X01362Y00189*
X01362Y00189*
X01363Y00189*
X01363Y00189*
X01363Y00188*
X01364Y00188*
X01364Y00188*
X01364Y00188*
X01365Y00188*
X01365Y00188*
X01365*
X01366Y00188*
X01366Y00188*
X01366Y00188*
X01367Y00188*
X01367Y00188*
X01367Y00189*
X01368Y00189*
X01368Y00189*
X01368Y00189*
X01369Y00189*
X01369Y0019*
X01369Y0019*
X01369Y0019*
X01369Y0019*
X0137Y00191*
X0137Y00191*
X0137Y00191*
X0137Y00192*
X0137Y00192*
X0137Y00192*
X0137Y00193*
X0137Y00193*
X0028Y00648D02*
D01*
X0028Y00648*
X0028Y00649*
X0028Y00649*
X0028Y00649*
X0028Y0065*
X0028Y0065*
X00279Y0065*
X00279Y00651*
X00279Y00651*
X00279Y00651*
X00279Y00651*
X00278Y00652*
X00278Y00652*
X00278Y00652*
X00278Y00652*
X00277Y00652*
X00277Y00653*
X00277Y00653*
X00276Y00653*
X00276Y00653*
X00276Y00653*
X00275Y00653*
X00275*
X00275Y00653*
X00274Y00653*
X00274Y00653*
X00274Y00653*
X00273Y00653*
X00273Y00652*
X00273Y00652*
X00272Y00652*
X00272Y00652*
X00272Y00652*
X00272Y00651*
X00271Y00651*
X00271Y00651*
X00271Y00651*
X00271Y0065*
X00271Y0065*
X00271Y0065*
X0027Y00649*
X0027Y00649*
X0027Y00649*
X0027Y00648*
X0027Y00648*
X0027Y00648*
X0027Y00647*
X0027Y00647*
X0027Y00647*
X00271Y00646*
X00271Y00646*
X00271Y00646*
X00271Y00645*
X00271Y00645*
X00271Y00645*
X00272Y00645*
X00272Y00644*
X00272Y00644*
X00272Y00644*
X00273Y00644*
X00273Y00644*
X00273Y00643*
X00274Y00643*
X00274Y00643*
X00274Y00643*
X00275Y00643*
X00275Y00643*
X00275*
X00276Y00643*
X00276Y00643*
X00276Y00643*
X00277Y00643*
X00277Y00643*
X00277Y00644*
X00278Y00644*
X00278Y00644*
X00278Y00644*
X00278Y00644*
X00279Y00645*
X00279Y00645*
X00279Y00645*
X00279Y00645*
X00279Y00646*
X0028Y00646*
X0028Y00646*
X0028Y00647*
X0028Y00647*
X0028Y00647*
X0028Y00648*
X0028Y00648*
X00653Y00972D02*
D01*
X00653Y00972*
X00653Y00973*
X00653Y00973*
X00653Y00973*
X00653Y00974*
X00653Y00974*
X00652Y00974*
X00652Y00975*
X00652Y00975*
X00652Y00975*
X00652Y00975*
X00651Y00976*
X00651Y00976*
X00651Y00976*
X00651Y00976*
X0065Y00976*
X0065Y00976*
X0065Y00977*
X00649Y00977*
X00649Y00977*
X00649Y00977*
X00648Y00977*
X00648*
X00648Y00977*
X00647Y00977*
X00647Y00977*
X00647Y00977*
X00646Y00976*
X00646Y00976*
X00646Y00976*
X00645Y00976*
X00645Y00976*
X00645Y00976*
X00645Y00975*
X00644Y00975*
X00644Y00975*
X00644Y00975*
X00644Y00974*
X00644Y00974*
X00643Y00974*
X00643Y00973*
X00643Y00973*
X00643Y00973*
X00643Y00972*
X00643Y00972*
X00643Y00972*
X00643Y00971*
X00643Y00971*
X00643Y00971*
X00643Y0097*
X00644Y0097*
X00644Y0097*
X00644Y00969*
X00644Y00969*
X00644Y00969*
X00645Y00968*
X00645Y00968*
X00645Y00968*
X00645Y00968*
X00646Y00968*
X00646Y00967*
X00646Y00967*
X00647Y00967*
X00647Y00967*
X00647Y00967*
X00648Y00967*
X00648Y00967*
X00648*
X00649Y00967*
X00649Y00967*
X00649Y00967*
X0065Y00967*
X0065Y00967*
X0065Y00967*
X00651Y00968*
X00651Y00968*
X00651Y00968*
X00651Y00968*
X00652Y00968*
X00652Y00969*
X00652Y00969*
X00652Y00969*
X00652Y0097*
X00653Y0097*
X00653Y0097*
X00653Y00971*
X00653Y00971*
X00653Y00971*
X00653Y00972*
X00653Y00972*
X01471Y00475D02*
D01*
X01471Y00475*
X01471Y00475*
X01471Y00476*
X01471Y00476*
X0147Y00476*
X0147Y00477*
X0147Y00477*
X0147Y00477*
X0147Y00477*
X0147Y00478*
X01469Y00478*
X01469Y00478*
X01469Y00478*
X01469Y00479*
X01468Y00479*
X01468Y00479*
X01468Y00479*
X01467Y00479*
X01467Y00479*
X01467Y00479*
X01466Y00479*
X01466Y00479*
X01466*
X01465Y00479*
X01465Y00479*
X01465Y00479*
X01464Y00479*
X01464Y00479*
X01464Y00479*
X01463Y00479*
X01463Y00479*
X01463Y00478*
X01463Y00478*
X01462Y00478*
X01462Y00478*
X01462Y00477*
X01462Y00477*
X01461Y00477*
X01461Y00477*
X01461Y00476*
X01461Y00476*
X01461Y00476*
X01461Y00475*
X01461Y00475*
X01461Y00475*
X01461Y00474*
X01461Y00474*
X01461Y00473*
X01461Y00473*
X01461Y00473*
X01461Y00472*
X01461Y00472*
X01462Y00472*
X01462Y00472*
X01462Y00471*
X01462Y00471*
X01463Y00471*
X01463Y00471*
X01463Y0047*
X01463Y0047*
X01464Y0047*
X01464Y0047*
X01464Y0047*
X01465Y0047*
X01465Y0047*
X01465Y0047*
X01466Y0047*
X01466*
X01466Y0047*
X01467Y0047*
X01467Y0047*
X01467Y0047*
X01468Y0047*
X01468Y0047*
X01468Y0047*
X01469Y0047*
X01469Y00471*
X01469Y00471*
X01469Y00471*
X0147Y00471*
X0147Y00472*
X0147Y00472*
X0147Y00472*
X0147Y00472*
X0147Y00473*
X01471Y00473*
X01471Y00473*
X01471Y00474*
X01471Y00474*
X01471Y00475*
X00014Y0009D02*
D01*
X00014Y0009*
X00014Y0009*
X00013Y00091*
X00013Y00091*
X00013Y00091*
X00013Y00092*
X00013Y00092*
X00013Y00092*
X00013Y00092*
X00012Y00093*
X00012Y00093*
X00012Y00093*
X00012Y00093*
X00011Y00094*
X00011Y00094*
X00011Y00094*
X0001Y00094*
X0001Y00094*
X0001Y00094*
X00009Y00094*
X00009Y00094*
X00009Y00094*
X00008*
X00008Y00094*
X00008Y00094*
X00007Y00094*
X00007Y00094*
X00007Y00094*
X00006Y00094*
X00006Y00094*
X00006Y00094*
X00006Y00093*
X00005Y00093*
X00005Y00093*
X00005Y00093*
X00005Y00092*
X00004Y00092*
X00004Y00092*
X00004Y00092*
X00004Y00091*
X00004Y00091*
X00004Y00091*
X00004Y0009*
X00004Y0009*
X00004Y0009*
X00004Y00089*
X00004Y00089*
X00004Y00088*
X00004Y00088*
X00004Y00088*
X00004Y00087*
X00004Y00087*
X00004Y00087*
X00005Y00087*
X00005Y00086*
X00005Y00086*
X00005Y00086*
X00006Y00086*
X00006Y00085*
X00006Y00085*
X00006Y00085*
X00007Y00085*
X00007Y00085*
X00007Y00085*
X00008Y00085*
X00008Y00085*
X00008Y00085*
X00009*
X00009Y00085*
X00009Y00085*
X0001Y00085*
X0001Y00085*
X0001Y00085*
X00011Y00085*
X00011Y00085*
X00011Y00085*
X00012Y00086*
X00012Y00086*
X00012Y00086*
X00012Y00086*
X00013Y00087*
X00013Y00087*
X00013Y00087*
X00013Y00087*
X00013Y00088*
X00013Y00088*
X00013Y00088*
X00014Y00089*
X00014Y00089*
X00014Y0009*
G54D63*
X00683Y0065D02*
D01*
X00683Y0065*
X00683Y0065*
X00683Y0065*
X00683Y00651*
X00683Y00651*
X00683Y00651*
X00683Y00651*
X00683Y00652*
X00682Y00652*
X00682Y00652*
X00682Y00652*
X00682Y00652*
X00682Y00653*
X00681Y00653*
X00681Y00653*
X00681Y00653*
X00681Y00653*
X0068Y00653*
X0068Y00653*
X0068Y00653*
X0068Y00653*
X00679Y00653*
X00679*
X00679Y00653*
X00679Y00653*
X00678Y00653*
X00678Y00653*
X00678Y00653*
X00677Y00653*
X00677Y00653*
X00677Y00653*
X00677Y00653*
X00677Y00652*
X00676Y00652*
X00676Y00652*
X00676Y00652*
X00676Y00652*
X00676Y00651*
X00676Y00651*
X00675Y00651*
X00675Y00651*
X00675Y0065*
X00675Y0065*
X00675Y0065*
X00675Y0065*
X00675Y00649*
X00675Y00649*
X00675Y00649*
X00675Y00648*
X00675Y00648*
X00676Y00648*
X00676Y00648*
X00676Y00647*
X00676Y00647*
X00676Y00647*
X00676Y00647*
X00677Y00647*
X00677Y00646*
X00677Y00646*
X00677Y00646*
X00677Y00646*
X00678Y00646*
X00678Y00646*
X00678Y00646*
X00679Y00646*
X00679Y00646*
X00679Y00646*
X00679*
X0068Y00646*
X0068Y00646*
X0068Y00646*
X0068Y00646*
X00681Y00646*
X00681Y00646*
X00681Y00646*
X00681Y00646*
X00682Y00646*
X00682Y00647*
X00682Y00647*
X00682Y00647*
X00682Y00647*
X00683Y00647*
X00683Y00648*
X00683Y00648*
X00683Y00648*
X00683Y00648*
X00683Y00649*
X00683Y00649*
X00683Y00649*
X00683Y0065*
X0145Y00426D02*
D01*
X0145Y00426*
X0145Y00426*
X0145Y00426*
X0145Y00427*
X01449Y00427*
X01449Y00427*
X01449Y00427*
X01449Y00428*
X01449Y00428*
X01449Y00428*
X01449Y00428*
X01448Y00429*
X01448Y00429*
X01448Y00429*
X01448Y00429*
X01447Y00429*
X01447Y00429*
X01447Y00429*
X01447Y00429*
X01446Y00429*
X01446Y0043*
X01446Y0043*
X01446*
X01445Y0043*
X01445Y00429*
X01445Y00429*
X01445Y00429*
X01444Y00429*
X01444Y00429*
X01444Y00429*
X01444Y00429*
X01443Y00429*
X01443Y00429*
X01443Y00428*
X01443Y00428*
X01443Y00428*
X01442Y00428*
X01442Y00427*
X01442Y00427*
X01442Y00427*
X01442Y00427*
X01442Y00426*
X01442Y00426*
X01442Y00426*
X01442Y00426*
X01442Y00425*
X01442Y00425*
X01442Y00425*
X01442Y00425*
X01442Y00424*
X01442Y00424*
X01442Y00424*
X01442Y00424*
X01443Y00423*
X01443Y00423*
X01443Y00423*
X01443Y00423*
X01443Y00422*
X01444Y00422*
X01444Y00422*
X01444Y00422*
X01444Y00422*
X01445Y00422*
X01445Y00422*
X01445Y00422*
X01445Y00422*
X01446Y00422*
X01446*
X01446Y00422*
X01446Y00422*
X01447Y00422*
X01447Y00422*
X01447Y00422*
X01447Y00422*
X01448Y00422*
X01448Y00422*
X01448Y00422*
X01448Y00423*
X01449Y00423*
X01449Y00423*
X01449Y00423*
X01449Y00424*
X01449Y00424*
X01449Y00424*
X01449Y00424*
X0145Y00425*
X0145Y00425*
X0145Y00425*
X0145Y00425*
X0145Y00426*
D01*
X0145Y00426*
X0145Y00426*
X0145Y00426*
X0145Y00427*
X01449Y00427*
X01449Y00427*
X01449Y00427*
X01449Y00428*
X01449Y00428*
X01449Y00428*
X01449Y00428*
X01448Y00429*
X01448Y00429*
X01448Y00429*
X01448Y00429*
X01447Y00429*
X01447Y00429*
X01447Y00429*
X01447Y00429*
X01446Y00429*
X01446Y0043*
X01446Y0043*
X01446*
X01445Y0043*
X01445Y00429*
X01445Y00429*
X01445Y00429*
X01444Y00429*
X01444Y00429*
X01444Y00429*
X01444Y00429*
X01443Y00429*
X01443Y00429*
X01443Y00428*
X01443Y00428*
X01443Y00428*
X01442Y00428*
X01442Y00427*
X01442Y00427*
X01442Y00427*
X01442Y00427*
X01442Y00426*
X01442Y00426*
X01442Y00426*
X01442Y00426*
X01442Y00425*
X01442Y00425*
X01442Y00425*
X01442Y00425*
X01442Y00424*
X01442Y00424*
X01442Y00424*
X01442Y00424*
X01443Y00423*
X01443Y00423*
X01443Y00423*
X01443Y00423*
X01443Y00422*
X01444Y00422*
X01444Y00422*
X01444Y00422*
X01444Y00422*
X01445Y00422*
X01445Y00422*
X01445Y00422*
X01445Y00422*
X01446Y00422*
X01446*
X01446Y00422*
X01446Y00422*
X01447Y00422*
X01447Y00422*
X01447Y00422*
X01447Y00422*
X01448Y00422*
X01448Y00422*
X01448Y00422*
X01448Y00423*
X01449Y00423*
X01449Y00423*
X01449Y00423*
X01449Y00424*
X01449Y00424*
X01449Y00424*
X01449Y00424*
X0145Y00425*
X0145Y00425*
X0145Y00425*
X0145Y00425*
X0145Y00426*
X01489Y00398D02*
X0154D01*
X01489Y00451D02*
X0154D01*
X01454Y00825D02*
Y00838D01*
X01441Y00825D02*
X01454D01*
X01285D02*
X01298D01*
X01285D02*
Y00838D01*
Y00981D02*
Y00994D01*
X01298*
X01454Y00981D02*
Y00994D01*
X01441D02*
X01454D01*
X01537Y00898D02*
X01602D01*
X01537Y00841D02*
X01602D01*
X01511Y00947D02*
Y01012D01*
X01568Y00947D02*
Y01012D01*
X01263Y00946D02*
Y00993D01*
X01207Y00946D02*
Y00993D01*
X00141Y01023D02*
X00378D01*
X00141Y00886D02*
Y01023D01*
X00378Y00886D02*
Y01023D01*
X00141Y00886D02*
X00378D01*
X01132Y00646D02*
Y00693D01*
X01188Y00646D02*
Y00693D01*
X01256Y00035D02*
X01313D01*
X01184Y00091D02*
Y00108D01*
X01256Y00164D02*
X01313D01*
X01385Y00091D02*
Y00108D01*
X00975Y00887D02*
Y01002D01*
X01064Y00887D02*
Y01002D01*
X00359Y00401D02*
X0037D01*
X00365Y00395D02*
Y00407D01*
X00391Y00428D02*
Y00471D01*
X00338Y00428D02*
Y00471D01*
X00359Y00598D02*
X0037D01*
X00365Y00592D02*
Y00604D01*
X00338Y00528D02*
Y00571D01*
X00391Y00528D02*
Y00571D01*
X00094Y00711D02*
X00152D01*
X-00061D02*
X-00006D01*
X-00061Y00328D02*
Y00711D01*
X00094Y00328D02*
X00152D01*
X-00061D02*
X-00006D01*
X00565Y00324D02*
X00964D01*
X00564Y00005D02*
X00964D01*
X00564D02*
Y00324D01*
X00964Y00005D02*
Y00324D01*
X00689Y01001D02*
X008D01*
X00689Y00868D02*
X008D01*
X00694Y00846D02*
X00745D01*
X00694Y00793D02*
X00745D01*
X00623Y00891D02*
Y00938D01*
X00567Y00891D02*
Y00938D01*
X00839Y00886D02*
X0089D01*
X00839Y00833D02*
X0089D01*
X00699Y00725D02*
X0074D01*
X00699Y00774D02*
X0074D01*
X01036Y00804D02*
Y00854D01*
X00983Y00804D02*
Y00854D01*
X00843Y00772D02*
X00886D01*
X00843Y00827D02*
X00886D01*
X01101Y00804D02*
Y00855D01*
X01048Y00804D02*
Y00855D01*
X00092Y00813D02*
X00157D01*
X00092Y00756D02*
X00157D01*
X01376Y00276D02*
X01423D01*
X01376Y00332D02*
X01423D01*
X01486Y00587D02*
Y00652D01*
X01543Y00587D02*
Y00652D01*
X00097Y00298D02*
X00162D01*
X00097Y00241D02*
X00162D01*
X00359Y00723D02*
X0037D01*
X00365Y00717D02*
Y00729D01*
X00338Y00653D02*
Y00696D01*
X00391Y00653D02*
Y00696D01*
X01256Y00697D02*
Y00762D01*
X01313Y00697D02*
Y00762D01*
X01489Y00501D02*
X0154D01*
X01489Y00448D02*
X0154D01*
X00136Y00021D02*
X00373D01*
Y00158*
X00136Y00021D02*
Y00158D01*
X00373*
X01648Y00461D02*
Y00508D01*
X01592Y00461D02*
Y00508D01*
G54D64*
X00781Y00678D02*
X00988D01*
X00781Y00471D02*
X00988D01*
X01211Y00593D02*
X01223D01*
X01211Y00396D02*
X01223D01*
X01396Y00593D02*
X01408D01*
X01396Y00396D02*
X01408D01*
X01211Y00581D02*
Y00593D01*
Y00396D02*
Y00408D01*
X01408Y00581D02*
Y00593D01*
Y00396D02*
Y00408D01*
X01475Y00924D02*
Y009D01*
X0148Y00895*
X0149*
X01495Y009*
Y00924*
X01519Y00895D02*
Y00924D01*
X01504Y0091*
X01524*
X01582Y0097D02*
Y00999D01*
X01597*
X01602Y00994*
Y00985*
X01597Y0098*
X01582*
X01592D02*
X01602Y0097D01*
X01612D02*
X01622D01*
X01617*
Y00999*
X01612Y00994*
X01637D02*
X01642Y00999D01*
X01652*
X01657Y00994*
Y00975*
X01652Y0097*
X01642*
X01637Y00975*
Y00994*
X01555Y0091D02*
Y00939D01*
X0157*
X01575Y00934*
Y00925*
X0157Y0092*
X01555*
X01565D02*
X01575Y0091D01*
X01584Y00915D02*
X01589Y0091D01*
X01599*
X01604Y00915*
Y00934*
X01599Y00939*
X01589*
X01584Y00934*
Y00929*
X01589Y00925*
X01604*
X0112Y00909D02*
X01115Y00914D01*
X01105*
X011Y00909*
Y0089*
X01105Y00885*
X01115*
X0112Y0089*
X01149Y00885D02*
X0113D01*
X01149Y00904*
Y00909*
X01144Y00914*
X01135*
X0113Y00909*
X01179Y00885D02*
X01159D01*
X01179Y00904*
Y00909*
X01174Y00914*
X01164*
X01159Y00909*
X01135Y00844D02*
X0113Y00849D01*
X0112*
X01115Y00844*
Y00825*
X0112Y0082*
X0113*
X01135Y00825*
X01164Y0082D02*
X01145D01*
X01164Y00839*
Y00844*
X01159Y00849*
X0115*
X01145Y00844*
X01174Y0082D02*
X01184D01*
X01179*
Y00849*
X01174Y00844*
X01215Y01029D02*
X0121Y01034D01*
X012*
X01195Y01029*
Y0101*
X012Y01005*
X0121*
X01215Y0101*
X01244Y01005D02*
X01225D01*
X01244Y01024*
Y01029*
X01239Y01034*
X0123*
X01225Y01029*
X01254D02*
X01259Y01034D01*
X01269*
X01274Y01029*
Y0101*
X01269Y01005*
X01259*
X01254Y0101*
Y01029*
X01472Y00794D02*
X01467Y00799D01*
X01457*
X01452Y00794*
Y00775*
X01457Y0077*
X01467*
X01472Y00775*
X01482Y0077D02*
X01492D01*
X01487*
Y00799*
X01482Y00794*
X01507Y00775D02*
X01512Y0077D01*
X01522*
X01527Y00775*
Y00794*
X01522Y00799*
X01512*
X01507Y00794*
Y00789*
X01512Y00785*
X01527*
X0149Y00059D02*
Y00054D01*
X015Y00045*
X0151Y00054*
Y00059*
X015Y00045D02*
Y0003D01*
X01519D02*
X01529D01*
X01524*
Y00059*
X01519Y00054*
X00635Y00614D02*
Y0059D01*
X0064Y00585*
X0065*
X00655Y0059*
Y00614*
X00664Y00609D02*
X00669Y00614D01*
X00679*
X00684Y00609*
Y00604*
X00679Y006*
X00674*
X00679*
X00684Y00595*
Y0059*
X00679Y00585*
X00669*
X00664Y0059*
X0139Y00644D02*
Y0062D01*
X01395Y00615*
X01405*
X0141Y0062*
Y00644*
X01439Y00615D02*
X01419D01*
X01439Y00634*
Y00639*
X01434Y00644*
X01424*
X01419Y00639*
X00575Y01014D02*
Y0099D01*
X0058Y00985*
X0059*
X00595Y0099*
Y01014*
X00604Y00985D02*
X00614D01*
X00609*
Y01014*
X00604Y01009*
X0019Y0084D02*
Y00869D01*
X00205*
X0021Y00864*
Y00855*
X00205Y0085*
X0019*
X002D02*
X0021Y0084D01*
X0024Y00869D02*
X0022D01*
Y0084*
X0024*
X0022Y00855D02*
X0023D01*
X00269Y00864D02*
X00264Y00869D01*
X00255*
X0025Y00864*
Y00859*
X00255Y00855*
X00264*
X00269Y0085*
Y00845*
X00264Y0084*
X00255*
X0025Y00845*
X00299Y00869D02*
X00279D01*
Y0084*
X00299*
X00279Y00855D02*
X00289D01*
X00309Y00869D02*
X00329D01*
X00319*
Y0084*
X01265Y0077D02*
Y00799D01*
X0128*
X01285Y00794*
Y00785*
X0128Y0078*
X01265*
X01275D02*
X01285Y0077D01*
X01294Y00794D02*
X01299Y00799D01*
X01309*
X01314Y00794*
Y00789*
X01309Y00785*
X01314Y0078*
Y00775*
X01309Y0077*
X01299*
X01294Y00775*
Y0078*
X01299Y00785*
X01294Y00789*
Y00794*
X01299Y00785D02*
X01309D01*
X00185Y00255D02*
Y00284D01*
X002*
X00205Y00279*
Y0027*
X002Y00265*
X00185*
X00195D02*
X00205Y00255D01*
X00214Y00284D02*
X00234D01*
Y00279*
X00214Y0026*
Y00255*
X0149Y0068D02*
Y00709D01*
X01505*
X0151Y00704*
Y00695*
X01505Y0069*
X0149*
X015D02*
X0151Y0068D01*
X01539Y00709D02*
X01529Y00704D01*
X01519Y00695*
Y00685*
X01524Y0068*
X01534*
X01539Y00685*
Y0069*
X01534Y00695*
X01519*
X0019Y0077D02*
Y00799D01*
X00205*
X0021Y00794*
Y00785*
X00205Y0078*
X0019*
X002D02*
X0021Y0077D01*
X00239Y00799D02*
X00219D01*
Y00785*
X00229Y00789*
X00234*
X00239Y00785*
Y00775*
X00234Y0077*
X00224*
X00219Y00775*
X00765Y00735D02*
Y00764D01*
X0078*
X00785Y00759*
Y0075*
X0078Y00745*
X00765*
X00775D02*
X00785Y00735D01*
X00809D02*
Y00764D01*
X00794Y0075*
X00814*
X00915Y00845D02*
Y00874D01*
X0093*
X00935Y00869*
Y0086*
X0093Y00855*
X00915*
X00925D02*
X00935Y00845D01*
X00944Y00869D02*
X00949Y00874D01*
X00959*
X00964Y00869*
Y00864*
X00959Y0086*
X00954*
X00959*
X00964Y00855*
Y0085*
X00959Y00845*
X00949*
X00944Y0085*
X00759Y00799D02*
Y00829D01*
X00774*
X00779Y00824*
Y00814*
X00774Y00809*
X00759*
X00769D02*
X00779Y00799D01*
X00809D02*
X00789D01*
X00809Y00819*
Y00824*
X00804Y00829*
X00794*
X00789Y00824*
X01265Y0025D02*
Y00279D01*
X0128*
X01285Y00274*
Y00265*
X0128Y0026*
X01265*
X01275D02*
X01285Y0025D01*
X01294D02*
X01304D01*
X01299*
Y00279*
X01294Y00274*
X01505Y00389D02*
Y0036D01*
X01525*
X01534Y00384D02*
X01539Y00389D01*
X01549*
X01554Y00384*
Y00379*
X01549Y00375*
X01544*
X01549*
X01554Y0037*
Y00365*
X01549Y0036*
X01539*
X01534Y00365*
X0149Y00544D02*
Y00515D01*
X0151*
X01539D02*
X01519D01*
X01539Y00534*
Y00539*
X01534Y00544*
X01524*
X01519Y00539*
X0092Y00929D02*
Y009D01*
X0094*
X00949D02*
X00959D01*
X00954*
Y00929*
X00949Y00924*
X01Y00059D02*
X0099D01*
X00995*
Y00035*
X0099Y0003*
X00985*
X0098Y00035*
X01029Y0003D02*
X01009D01*
X01029Y00049*
Y00054*
X01024Y00059*
X01014*
X01009Y00054*
X00045Y00784D02*
X00035D01*
X0004*
Y0076*
X00035Y00755*
X0003*
X00025Y0076*
X00054Y00755D02*
X00064D01*
X00059*
Y00784*
X00054Y00779*
X00405Y00559D02*
Y0053D01*
X0042*
X00425Y00535*
Y00554*
X0042Y00559*
X00405*
X00434Y00554D02*
X00439Y00559D01*
X00449*
X00454Y00554*
Y00549*
X00449Y00545*
X00444*
X00449*
X00454Y0054*
Y00535*
X00449Y0053*
X00439*
X00434Y00535*
X0041Y00464D02*
Y00435D01*
X00425*
X0043Y0044*
Y00459*
X00425Y00464*
X0041*
X00459Y00435D02*
X00439D01*
X00459Y00454*
Y00459*
X00454Y00464*
X00444*
X00439Y00459*
X00405Y00689D02*
Y0066D01*
X0042*
X00425Y00665*
Y00684*
X0042Y00689*
X00405*
X00434Y0066D02*
X00444D01*
X00439*
Y00689*
X00434Y00684*
X01627Y00394D02*
X01622Y00399D01*
X01612*
X01607Y00394*
Y00375*
X01612Y0037*
X01622*
X01627Y00375*
X01637Y0037D02*
X01647D01*
X01642*
Y00399*
X01637Y00394*
X01662D02*
X01667Y00399D01*
X01677*
X01682Y00394*
Y00389*
X01677Y00385*
X01682Y0038*
Y00375*
X01677Y0037*
X01667*
X01662Y00375*
Y0038*
X01667Y00385*
X01662Y00389*
Y00394*
X01667Y00385D02*
X01677D01*
X01455Y00312D02*
X0145Y00307D01*
Y00297*
X01455Y00292*
X01474*
X01479Y00297*
Y00307*
X01474Y00312*
X01479Y00322D02*
Y00332D01*
Y00327*
X0145*
X01455Y00322*
X0145Y00347D02*
Y00367D01*
X01455*
X01474Y00347*
X01479*
X0156Y00547D02*
X01555Y00542D01*
Y00532*
X0156Y00527*
X01579*
X01584Y00532*
Y00542*
X01579Y00547*
X01584Y00557D02*
Y00567D01*
Y00562*
X01555*
X0156Y00557*
X01555Y00602D02*
X0156Y00592D01*
X0157Y00582*
X01579*
X01584Y00587*
Y00597*
X01579Y00602*
X01574*
X0157Y00597*
Y00582*
X0145Y00547D02*
X01445Y00542D01*
Y00532*
X0145Y00527*
X01469*
X01474Y00532*
Y00542*
X01469Y00547*
X01474Y00557D02*
Y00567D01*
Y00562*
X01445*
X0145Y00557*
X01445Y00602D02*
Y00582D01*
X0146*
X01455Y00592*
Y00597*
X0146Y00602*
X01469*
X01474Y00597*
Y00587*
X01469Y00582*
X01615Y00547D02*
X0161Y00542D01*
Y00532*
X01615Y00527*
X01634*
X01639Y00532*
Y00542*
X01634Y00547*
X01639Y00557D02*
Y00567D01*
Y00562*
X0161*
X01615Y00557*
X01639Y00597D02*
X0161D01*
X01625Y00582*
Y00602*
X0115Y00732D02*
X01145Y00727D01*
Y00717*
X0115Y00712*
X01169*
X01174Y00717*
Y00727*
X01169Y00732*
X01174Y00742D02*
Y00752D01*
Y00747*
X01145*
X0115Y00742*
Y00767D02*
X01145Y00772D01*
Y00782*
X0115Y00787*
X01155*
X0116Y00782*
Y00777*
Y00782*
X01164Y00787*
X01169*
X01174Y00782*
Y00772*
X01169Y00767*
X0122Y00732D02*
X01215Y00727D01*
Y00717*
X0122Y00712*
X01239*
X01244Y00717*
Y00727*
X01239Y00732*
X01244Y00742D02*
Y00752D01*
Y00747*
X01215*
X0122Y00742*
X01244Y00787D02*
Y00767D01*
X01225Y00787*
X0122*
X01215Y00782*
Y00772*
X0122Y00767*
X01037Y00699D02*
X01032Y00704D01*
X01022*
X01017Y00699*
Y0068*
X01022Y00675*
X01032*
X01037Y0068*
X01047Y00675D02*
X01057D01*
X01052*
Y00704*
X01047Y00699*
X01072Y00675D02*
X01082D01*
X01077*
Y00704*
X01072Y00699*
X01307Y00324D02*
X01302Y00329D01*
X01292*
X01287Y00324*
Y00305*
X01292Y003*
X01302*
X01307Y00305*
X01317Y003D02*
X01327D01*
X01322*
Y00329*
X01317Y00324*
X01342D02*
X01347Y00329D01*
X01357*
X01362Y00324*
Y00305*
X01357Y003*
X01347*
X01342Y00305*
Y00324*
X01325Y00364D02*
X0132Y00369D01*
X0131*
X01305Y00364*
Y00345*
X0131Y0034*
X0132*
X01325Y00345*
X01334D02*
X01339Y0034D01*
X01349*
X01354Y00345*
Y00364*
X01349Y00369*
X01339*
X01334Y00364*
Y00359*
X01339Y00355*
X01354*
X0138Y00694D02*
X01375Y00699D01*
X01365*
X0136Y00694*
Y00675*
X01365Y0067*
X01375*
X0138Y00675*
X01389Y00694D02*
X01394Y00699D01*
X01404*
X01409Y00694*
Y00689*
X01404Y00685*
X01409Y0068*
Y00675*
X01404Y0067*
X01394*
X01389Y00675*
Y0068*
X01394Y00685*
X01389Y00689*
Y00694*
X01394Y00685D02*
X01404D01*
X0107Y00784D02*
X01065Y00789D01*
X01055*
X0105Y00784*
Y00765*
X01055Y0076*
X01065*
X0107Y00765*
X01079Y00789D02*
X01099D01*
Y00784*
X01079Y00765*
Y0076*
X01005Y00784D02*
X01Y00789D01*
X0099*
X00985Y00784*
Y00765*
X0099Y0076*
X01*
X01005Y00765*
X01034Y00789D02*
X01024Y00784D01*
X01014Y00775*
Y00765*
X01019Y0076*
X01029*
X01034Y00765*
Y0077*
X01029Y00775*
X01014*
X00935Y00809D02*
X0093Y00814D01*
X0092*
X00915Y00809*
Y0079*
X0092Y00785*
X0093*
X00935Y0079*
X00964Y00814D02*
X00944D01*
Y008*
X00954Y00804*
X00959*
X00964Y008*
Y0079*
X00959Y00785*
X00949*
X00944Y0079*
X0116Y00299D02*
X01155Y00304D01*
X01145*
X0114Y00299*
Y0028*
X01145Y00275*
X01155*
X0116Y0028*
X01184Y00275D02*
Y00304D01*
X01169Y0029*
X01189*
X00525Y00924D02*
X0052Y00929D01*
X0051*
X00505Y00924*
Y00905*
X0051Y009*
X0052*
X00525Y00905*
X00534Y00924D02*
X00539Y00929D01*
X00549*
X00554Y00924*
Y00919*
X00549Y00915*
X00544*
X00549*
X00554Y0091*
Y00905*
X00549Y009*
X00539*
X00534Y00905*
X0084Y00965D02*
X00835Y0096D01*
Y0095*
X0084Y00945*
X00859*
X00864Y0095*
Y0096*
X00859Y00965*
X00864Y00994D02*
Y00974D01*
X00845Y00994*
X0084*
X00835Y00989*
Y00979*
X0084Y00974*
X0141Y00214D02*
X01405Y00219D01*
X01395*
X0139Y00214*
Y00195*
X01395Y0019*
X01405*
X0141Y00195*
X01419Y0019D02*
X01429D01*
X01424*
Y00219*
X01419Y00214*
X0016Y00199D02*
Y0017D01*
X00175*
X0018Y00175*
Y0018*
X00175Y00185*
X0016*
X00175*
X0018Y00189*
Y00194*
X00175Y00199*
X0016*
X00205D02*
X00195D01*
X0019Y00194*
Y00175*
X00195Y0017*
X00205*
X0021Y00175*
Y00194*
X00205Y00199*
X00235D02*
X00225D01*
X0022Y00194*
Y00175*
X00225Y0017*
X00235*
X0024Y00175*
Y00194*
X00235Y00199*
X0025D02*
X00269D01*
X0026*
Y0017*
X00299Y00194D02*
X00294Y00199D01*
X00284*
X00279Y00194*
Y00189*
X00284Y00185*
X00294*
X00299Y0018*
Y00175*
X00294Y0017*
X00284*
X00279Y00175*
X00329Y00199D02*
X00309D01*
Y0017*
X00329*
X00309Y00185D02*
X00319D01*
X00339Y00199D02*
Y0017D01*
X00359*
G54D65*
X00547Y00374D02*
X00587D01*
X00929Y00377D02*
X00969D01*
X00949Y00397D02*
Y00357D01*
X0062Y00345D02*
Y00404D01*
X00649*
X00659Y00394*
Y00374*
X00649Y00364*
X0062*
X00709Y00404D02*
X00689D01*
X00679Y00394*
Y00354*
X00689Y00345*
X00709*
X00719Y00354*
Y00394*
X00709Y00404*
X00739D02*
Y00345D01*
X00759Y00364*
X00779Y00345*
Y00404*
X00839D02*
X00799D01*
Y00345*
X00839*
X00799Y00374D02*
X00819D01*
X00859Y00345D02*
Y00404D01*
X00889*
X00899Y00394*
Y00374*
X00889Y00364*
X00859*
X00879D02*
X00899Y00345D01*
X00485Y0016D02*
X00524D01*
X0099Y00164D02*
X01029D01*
X01009Y00184D02*
Y00145D01*
M02*