%FSTAX23Y23*%
%MOIN*%
%SFA1B1*%

%IPPOS*%
%AMD54*
4,1,8,0.041300,0.000000,0.041300,0.000000,0.021700,0.019700,-0.021700,0.019700,-0.041300,0.000000,-0.041300,0.000000,-0.021700,-0.019700,0.021700,-0.019700,0.041300,0.000000,0.0*
1,1,0.039370,0.021700,0.000000*
1,1,0.039370,0.021700,0.000000*
1,1,0.039370,-0.021700,0.000000*
1,1,0.039370,-0.021700,0.000000*
%
%AMD55*
4,1,8,0.035400,0.000000,0.035400,0.000000,0.015700,0.019700,-0.015700,0.019700,-0.035400,0.000000,-0.035400,0.000000,-0.015700,-0.019700,0.015700,-0.019700,0.035400,0.000000,0.0*
1,1,0.039370,0.015700,0.000000*
1,1,0.039370,0.015700,0.000000*
1,1,0.039370,-0.015700,0.000000*
1,1,0.039370,-0.015700,0.000000*
%
%ADD53C,0.025591*%
G04~CAMADD=54~8~0.0~0.0~393.7~826.8~196.9~0.0~15~0.0~0.0~0.0~0.0~0~0.0~0.0~0.0~0.0~0~0.0~0.0~0.0~270.0~828.0~394.0*
%ADD54D54*%
G04~CAMADD=55~8~0.0~0.0~393.7~708.7~196.9~0.0~15~0.0~0.0~0.0~0.0~0~0.0~0.0~0.0~0.0~0~0.0~0.0~0.0~270.0~707.0~393.0*
%ADD55D55*%
%ADD60C,0.028000*%
%ADD80C,0.078866*%
%ADD81R,0.078866X0.078866*%
%ADD82C,0.027685*%
%ADD83C,0.036000*%
%ADD84C,0.058000*%
%LNpcb-1*%
%LPD*%
G54D53*
X00189Y00406D03*
Y00633D03*
G54D54*
X00208Y00349D03*
Y0069D03*
G54D55*
X00044Y00349D03*
Y0069D03*
G54D60*
X0165Y0042D03*
X017Y0038D03*
X0165Y00305D03*
X017Y002D03*
X01715Y00265D03*
X0116Y00955D03*
X01161Y00506D03*
X01257Y00495D03*
X01263Y0054D03*
X01258Y0044D03*
X01605Y00955D03*
X01465Y01D03*
X01455Y00815D03*
X0144Y0067D03*
X0155Y00815D03*
X01435Y00525D03*
X0143Y00595D03*
X0134Y00715D03*
X0065Y0075D03*
X017Y00965D03*
Y00035D03*
Y0009D03*
Y00145D03*
Y00905D03*
Y00855D03*
Y00805D03*
Y0075D03*
Y0069D03*
Y0063D03*
Y0057D03*
Y0051D03*
X01595Y0034D03*
X01308Y0044D03*
X01358Y00445D03*
Y00495D03*
Y0054D03*
X01308D03*
X017Y00445D03*
X00425Y0059D03*
X0041Y00395D03*
X00365Y00765D03*
X01015Y00735D03*
X01515Y00545D03*
X01495Y00265D03*
X0109Y00735D03*
X0074Y00955D03*
X00555Y0098D03*
X0007Y00865D03*
Y00185D03*
X0075Y00455D03*
X01155Y0024D03*
X01285Y00655D03*
X0044Y00175D03*
Y00885D03*
X00803Y00698D03*
X0129Y0021D03*
X01125Y0018D03*
Y00115D03*
Y00045D03*
X0145Y0019D03*
Y0012D03*
Y0005D03*
X01225Y0021D03*
G54D80*
X00865Y00165D03*
G54D81*
X00665Y00165D03*
G54D82*
X01391Y00931D03*
Y00888D03*
X01348D03*
Y00931D03*
G54D83*
X0056Y0081D03*
X0165Y0057D03*
X0139Y0025D03*
X00345Y0035D03*
G54D84*
X0131Y00495D03*
M02*