%FSTAX23Y23*%
%MOIN*%
%SFA1B1*%

%IPPOS*%
%AMD39*
4,1,8,0.019300,0.011300,-0.019300,0.011300,-0.030600,0.000000,-0.030600,0.000000,-0.019300,-0.011300,0.019300,-0.011300,0.030600,0.000000,0.030600,0.000000,0.019300,0.011300,0.0*
1,1,0.022524,0.019300,0.000000*
1,1,0.022524,-0.019300,0.000000*
1,1,0.022524,-0.019300,0.000000*
1,1,0.022524,0.019300,0.000000*
%
%AMD54*
4,1,8,0.041300,0.000000,0.041300,0.000000,0.021700,0.019700,-0.021700,0.019700,-0.041300,0.000000,-0.041300,0.000000,-0.021700,-0.019700,0.021700,-0.019700,0.041300,0.000000,0.0*
1,1,0.039370,0.021700,0.000000*
1,1,0.039370,0.021700,0.000000*
1,1,0.039370,-0.021700,0.000000*
1,1,0.039370,-0.021700,0.000000*
%
%AMD55*
4,1,8,0.035400,0.000000,0.035400,0.000000,0.015700,0.019700,-0.015700,0.019700,-0.035400,0.000000,-0.035400,0.000000,-0.015700,-0.019700,0.015700,-0.019700,0.035400,0.000000,0.0*
1,1,0.039370,0.015700,0.000000*
1,1,0.039370,0.015700,0.000000*
1,1,0.039370,-0.015700,0.000000*
1,1,0.039370,-0.015700,0.000000*
%
%AMD66*
4,1,8,0.028800,0.015400,-0.028800,0.015400,-0.035700,0.008600,-0.035700,-0.008600,-0.028800,-0.015400,0.028800,-0.015400,0.035700,-0.008600,0.035700,0.008600,0.028800,0.015400,0.0*
1,1,0.013709,0.028800,0.008600*
1,1,0.013709,-0.028800,0.008600*
1,1,0.013709,-0.028800,-0.008600*
1,1,0.013709,0.028800,-0.008600*
%
%AMD77*
4,1,8,-0.004000,-0.019900,0.004000,-0.019900,0.009300,-0.014600,0.009300,0.014600,0.004000,0.019900,-0.004000,0.019900,-0.009300,0.014600,-0.009300,-0.014600,-0.004000,-0.019900,0.0*
1,1,0.010657,-0.004000,-0.014600*
1,1,0.010657,0.004000,-0.014600*
1,1,0.010657,0.004000,0.014600*
1,1,0.010657,-0.004000,0.014600*
%
%AMD78*
4,1,8,-0.014600,-0.009300,0.014600,-0.009300,0.019900,-0.004000,0.019900,0.004000,0.014600,0.009300,-0.014600,0.009300,-0.019900,0.004000,-0.019900,-0.004000,-0.014600,-0.009300,0.0*
1,1,0.010657,-0.014600,-0.004000*
1,1,0.010657,0.014600,-0.004000*
1,1,0.010657,0.014600,0.004000*
1,1,0.010657,-0.014600,0.004000*
%
%ADD18R,0.020289X0.018601*%
%ADD23R,0.026306X0.026476*%
%ADD24R,0.026476X0.026306*%
%ADD26R,0.023622X0.017716*%
%ADD31R,0.023622X0.017716*%
%ADD32R,0.070866X0.047244*%
%ADD35R,0.057331X0.053324*%
%ADD36R,0.023622X0.021654*%
%ADD37R,0.045275X0.023622*%
%ADD38R,0.045275X0.011811*%
G04~CAMADD=39~8~0.0~0.0~612.0~225.2~112.6~0.0~15~0.0~0.0~0.0~0.0~0~0.0~0.0~0.0~0.0~0~0.0~0.0~0.0~0.0~612.0~225.2*
%ADD39D39*%
%ADD40R,0.061196X0.022525*%
%ADD44R,0.018432X0.018601*%
%ADD45R,0.018701X0.019685*%
%ADD46R,0.018601X0.020289*%
%ADD47R,0.023622X0.019685*%
%ADD48R,0.017716X0.023622*%
%ADD53C,0.025591*%
G04~CAMADD=54~8~0.0~0.0~393.7~826.8~196.9~0.0~15~0.0~0.0~0.0~0.0~0~0.0~0.0~0.0~0.0~0~0.0~0.0~0.0~270.0~828.0~394.0*
%ADD54D54*%
G04~CAMADD=55~8~0.0~0.0~393.7~708.7~196.9~0.0~15~0.0~0.0~0.0~0.0~0~0.0~0.0~0.0~0.0~0~0.0~0.0~0.0~270.0~707.0~393.0*
%ADD55D55*%
%ADD60C,0.028000*%
G04~CAMADD=66~8~0.0~0.0~713.9~308.3~68.5~0.0~15~0.0~0.0~0.0~0.0~0~0.0~0.0~0.0~0.0~0~0.0~0.0~0.0~0.0~713.9~308.3*
%ADD66D66*%
%ADD67R,0.110362X0.114299*%
%ADD68R,0.021779X0.039496*%
%ADD69R,0.041464X0.021779*%
%ADD70R,0.029260X0.030835*%
%ADD71R,0.030835X0.029260*%
%ADD72R,0.032409X0.033984*%
%ADD73R,0.093827X0.070992*%
%ADD74R,0.094614X0.070992*%
%ADD75R,0.033590X0.033590*%
%ADD76R,0.030047X0.028472*%
G04~CAMADD=77~8~0.0~0.0~186.3~398.9~53.3~0.0~15~0.0~0.0~0.0~0.0~0~0.0~0.0~0.0~0.0~0~0.0~0.0~0.0~180.0~186.0~398.0*
%ADD77D77*%
G04~CAMADD=78~8~0.0~0.0~398.9~186.3~53.3~0.0~15~0.0~0.0~0.0~0.0~0~0.0~0.0~0.0~0.0~0~0.0~0.0~0.0~180.0~398.0~186.0*
%ADD78D78*%
%ADD79R,0.153669X0.153669*%
%ADD80C,0.078866*%
%ADD81R,0.078866X0.078866*%
%ADD82C,0.027685*%
%ADD83C,0.036000*%
%ADD84C,0.058000*%
%LNpcb-1*%
%LPD*%
G54D18*
X015Y00425D03*
X01529D03*
Y00475D03*
X015D03*
G54D23*
X01589Y0087D03*
X0155D03*
X00144Y00785D03*
X00105D03*
X00149Y0027D03*
X0011D03*
G54D24*
X0154Y00999D03*
Y0096D03*
X01515Y00639D03*
Y006D03*
X01285Y00749D03*
Y0071D03*
G54D26*
X01235Y00988D03*
Y00951D03*
G54D31*
X0116Y00651D03*
Y00688D03*
X00595Y00933D03*
Y00896D03*
X0162Y00503D03*
Y00466D03*
G54D32*
X01363Y00147D03*
X01206D03*
Y00052D03*
X01363D03*
G54D35*
X0102Y00975D03*
Y00914D03*
G54D36*
X00365Y00466D03*
Y00433D03*
Y00533D03*
Y00566D03*
Y00658D03*
Y00691D03*
G54D37*
X00231Y00394D03*
Y00645D03*
Y00425D03*
Y00614D03*
G54D38*
X00231Y00451D03*
Y0047D03*
Y0049D03*
Y0051D03*
Y00529D03*
Y00549D03*
Y00569D03*
Y00588D03*
G54D39*
X00788Y00972D03*
Y00935D03*
Y00897D03*
X00701D03*
Y00935D03*
G54D40*
X00701Y00972D03*
G54D44*
X00735Y0082D03*
X00704D03*
X0088Y0086D03*
X00849D03*
G54D45*
X0074Y0075D03*
X00699D03*
G54D46*
X0101Y00815D03*
Y00844D03*
X01075Y00815D03*
Y00844D03*
G54D47*
X00886Y008D03*
X00843D03*
G54D48*
X01418Y00305D03*
X01381D03*
G54D53*
X00189Y00406D03*
Y00633D03*
G54D54*
X00208Y00349D03*
Y0069D03*
G54D55*
X00044Y00349D03*
Y0069D03*
G54D60*
X0165Y0042D03*
X017Y0038D03*
X0165Y00305D03*
X017Y002D03*
X01715Y00265D03*
X0116Y00955D03*
X01161Y00506D03*
X01257Y00495D03*
X01263Y0054D03*
X01258Y0044D03*
X01605Y00955D03*
X01465Y01D03*
X01455Y00815D03*
X0144Y0067D03*
X0155Y00815D03*
X01435Y00525D03*
X0143Y00595D03*
X0134Y00715D03*
X0065Y0075D03*
X017Y00965D03*
Y00035D03*
Y0009D03*
Y00145D03*
Y00905D03*
Y00855D03*
Y00805D03*
Y0075D03*
Y0069D03*
Y0063D03*
Y0057D03*
Y0051D03*
X01595Y0034D03*
X01308Y0044D03*
X01358Y00445D03*
Y00495D03*
Y0054D03*
X01308D03*
X017Y00445D03*
X00425Y0059D03*
X0041Y00395D03*
X00365Y00765D03*
X01015Y00735D03*
X01515Y00545D03*
X01495Y00265D03*
X0109Y00735D03*
X0074Y00955D03*
X00555Y0098D03*
X0007Y00865D03*
Y00185D03*
X0075Y00455D03*
X01155Y0024D03*
X01285Y00655D03*
X0044Y00175D03*
Y00885D03*
X00803Y00698D03*
X0129Y0021D03*
X01125Y0018D03*
Y00115D03*
Y00045D03*
X0145Y0019D03*
Y0012D03*
Y0005D03*
X01225Y0021D03*
G54D66*
X00743Y0065D03*
Y006D03*
Y0055D03*
Y005D03*
X01026D03*
Y0055D03*
Y006D03*
Y0065D03*
G54D67*
X0137Y0091D03*
G54D68*
X0132Y00831D03*
X0134D03*
X0136D03*
X01379D03*
X01399D03*
X01419D03*
X0132Y00988D03*
X0134D03*
X0136D03*
X01379D03*
X01399D03*
X01419D03*
G54D69*
X01447Y0086D03*
Y0088D03*
Y009D03*
Y00919D03*
Y00939D03*
Y00959D03*
X01292Y0086D03*
Y0088D03*
Y009D03*
Y00919D03*
Y00939D03*
Y00959D03*
G54D70*
X01495Y00824D03*
Y00855D03*
X0157Y00469D03*
Y005D03*
X011Y00649D03*
Y0068D03*
X0123Y00654D03*
Y00685D03*
X00885Y00954D03*
Y00985D03*
X0134Y00685D03*
Y00654D03*
X0146Y005D03*
Y00469D03*
G54D71*
X01199Y009D03*
X0123D03*
X01199Y00835D03*
X0123D03*
X0141Y00355D03*
X01379D03*
G54D72*
X0146Y00422D03*
Y00387D03*
X0158D03*
Y00422D03*
G54D73*
X0044Y00955D03*
X00435Y0009D03*
G54D74*
X00079Y00955D03*
X00074Y0009D03*
G54D75*
X01335Y00245D03*
Y00284D03*
G54D76*
X01339Y00205D03*
X0137D03*
X01214Y0029D03*
X01245D03*
G54D77*
X01378Y00591D03*
X01359D03*
X01339D03*
X01319D03*
X013D03*
X0128D03*
X0126D03*
X01241D03*
Y00398D03*
X0126D03*
X0128D03*
X013D03*
X01319D03*
X01339D03*
X01359D03*
X01378D03*
G54D78*
X01406Y00426D03*
Y00445D03*
Y00465D03*
Y00485D03*
Y00504D03*
Y00524D03*
Y00544D03*
Y00563D03*
X01213D03*
Y00544D03*
Y00524D03*
Y00504D03*
Y00485D03*
Y00465D03*
Y00445D03*
Y00426D03*
G54D79*
X0131Y00495D03*
G54D80*
X00865Y00165D03*
G54D81*
X00665Y00165D03*
G54D82*
X01391Y00931D03*
Y00888D03*
X01348D03*
Y00931D03*
G54D83*
X0056Y0081D03*
X0165Y0057D03*
X0139Y0025D03*
X00345Y0035D03*
G54D84*
X0131Y00495D03*
M02*